<svg xmlns="http://www.w3.org/2000/svg" xmlns:xlink="http://www.w3.org/1999/xlink" viewBox="0 0 28.4 103"><defs><linearGradient id="linear-gradient" x1="13.1" y1="14.64" x2="40.47" y2="14.64" gradientUnits="userSpaceOnUse"><stop offset="0" stop-color="#f4826c"/><stop offset="0.13" stop-color="#a2563a"/><stop offset="0.9" stop-color="#301913"/><stop offset="1" stop-color="#663d30"/></linearGradient><linearGradient id="linear-gradient-2" x1="18.86" y1="20.07" x2="36.03" y2="20.07" xlink:href="#linear-gradient"/><linearGradient id="linear-gradient-3" x1="36.99" y1="65.39" x2="31.87" y2="65.75" gradientUnits="userSpaceOnUse"><stop offset="0.04" stop-color="#333132"/><stop offset="1" stop-color="#757679"/></linearGradient><linearGradient id="linear-gradient-4" x1="20.92" y1="65.45" x2="17.89" y2="65.33" xlink:href="#linear-gradient-3"/><linearGradient id="linear-gradient-5" x1="30.02" y1="64.43" x2="24.54" y2="64.21" gradientUnits="userSpaceOnUse"><stop offset="0" stop-color="#5c5d60"/><stop offset="0.96" stop-color="#1c1c1c"/></linearGradient><linearGradient id="linear-gradient-6" x1="34.96" y1="50.72" x2="20.17" y2="50.13" xlink:href="#linear-gradient-3"/><linearGradient id="linear-gradient-7" x1="34.2" y1="31.7" x2="20.31" y2="31.14" xlink:href="#linear-gradient-3"/><linearGradient id="linear-gradient-8" x1="32.7" y1="28.76" x2="28.43" y2="28.59" gradientUnits="userSpaceOnUse"><stop offset="0" stop-color="#757679"/><stop offset="0.96" stop-color="#333132"/></linearGradient><linearGradient id="linear-gradient-9" x1="26.27" y1="29.1" x2="22.15" y2="28.94" xlink:href="#linear-gradient-8"/><linearGradient id="linear-gradient-10" x1="33.51" y1="47.18" x2="28.52" y2="46.98" xlink:href="#linear-gradient-8"/><linearGradient id="linear-gradient-11" x1="26.23" y1="47.44" x2="21.15" y2="47.24" xlink:href="#linear-gradient-8"/></defs><title>BarStool</title><g style="isolation:isolate"><g id="Color"><path d="M40.27,15.8c.12-.4.42-1.57-.09-1.82a5,5,0,0,0,0-.77,1.86,1.86,0,0,0-.11-.63,9.47,9.47,0,0,0,.21-1.6c0-.25,0-.73-.31-.85a.68.68,0,0,0-.64.19.56.56,0,0,0-.45,0,.41.41,0,0,0-.27,0c-.91.28-1.84.5-2.77.69a32.87,32.87,0,0,0-4,.33l-.18.06c-1.84,0-3.67,0-5.51.08H25.1l-.91,0a.36.36,0,0,0-.25-.22c-1.83-.27-3.66-.46-5.5-.6l-.11,0H18a1,1,0,0,0-.69.38,8,8,0,0,0-1.1-.06l-.07,0a.55.55,0,0,0-.46-.27,3.48,3.48,0,0,0-.72,0l-.09-.07a1.73,1.73,0,0,0-1.1-.36c-.66.11-.43,1.12-.41,1.59a2.3,2.3,0,0,0,.11.57,4.45,4.45,0,0,0-.22.57c-.11.37-.45,1.81.24,1.86a1.33,1.33,0,0,0,0,.21c-.29.81-.37,1.62.07,2,2.19,1.75,6,2,8.68,1.67a.79.79,0,0,0,.29-.11q1.21.11,2.43.12c.07.26.21.43.47.42l7-.49a.45.45,0,0,0,.31.11,35.72,35.72,0,0,0,4.51-.47.9.9,0,0,0,.44-.23.64.64,0,0,0,.34,0,.79.79,0,0,0,.42-.08c-.07.06,0,.07.1,0,.29,0,.62-.4.81-.64a1.3,1.3,0,0,0,.93-.66,1.15,1.15,0,0,0-.08-1Z" transform="translate(-12.66 -7.03)" style="fill-rule:evenodd;fill:url(#linear-gradient)"/><path d="M35.73,19.45a1.55,1.55,0,0,0-1.06-.67h0c-.15,0-.17.1-.14.24a2,2,0,0,0-.34.05.14.14,0,0,0-.12.1s-.07,0-.11,0a14.33,14.33,0,0,1-1.83.24.14.14,0,0,0-.12.05s-.08,0-.11,0c-.7.08-1.4.14-2.1.2a1.11,1.11,0,0,0-.64-.37H19.7l0,0c-.46-.16-.78,0-.78.5h0c-.29.58,1.23,1.78,1.42,1.42l0-.07v0A.14.14,0,0,0,20.4,21a.25.25,0,0,1,.07-.26.61.61,0,0,0,.24.06.83.83,0,0,0,.39.22l1.76.15a1.14,1.14,0,0,0,.57.21c.85,0,1.7,0,2.55,0,.11,0,.15-.06.15-.14l1.29.1a.23.23,0,0,0,.18,0,.7.7,0,0,0,.28.09c1.74-.08,3.47-.22,5.19-.41a.12.12,0,0,0,.09-.06.58.58,0,0,0,.14,0h.07a.72.72,0,0,0,.29.06,4.21,4.21,0,0,0,1-.12.16.16,0,0,0,.12-.12l.36,0a.14.14,0,0,0,.12-.1h.11a2.22,2.22,0,0,1,.45-.07c.15,0,.18-.11.15-.25C36.19,20.15,35.8,19.54,35.73,19.45Z" transform="translate(-12.66 -7.03)" style="fill-rule:evenodd;fill:url(#linear-gradient-2)"/><path d="M40.3,8.52a1.12,1.12,0,0,0-.27,0l-.24-.05a37.06,37.06,0,0,0-4.21-.29A1.07,1.07,0,0,0,35,8a49.21,49.21,0,0,0-7.38-.23c-.94,0-1.87.07-2.8.14h-.14c-.61,0-1.21,0-1.81,0A39.34,39.34,0,0,0,18.56,8a3.76,3.76,0,0,0-.5.08,14.31,14.31,0,0,0-1.85.07,7.52,7.52,0,0,0-1.27.19c-.48-.23-1.77-.13-1.81.36a1.41,1.41,0,0,0,0,.2V9a.66.66,0,0,0,.45.75,3.48,3.48,0,0,0,.56.12.39.39,0,0,0,.2.11,4,4,0,0,0,.89.12c0,.09.1.18.27.23a4.24,4.24,0,0,0,1.07.14l.47,0a1.45,1.45,0,0,0,.3,0h.1a2.24,2.24,0,0,0,.93,0,2.12,2.12,0,0,0,1.09,0,.7.7,0,0,0,.32.1l.3,0,0,0h.68a.85.85,0,0,0,.4.22c1,.08,2,0,3.07-.07a.64.64,0,0,0,.37.12c.25,0,.5,0,.76-.06h.1c1-.1,2-.16,3.07-.19a.72.72,0,0,0,.35.08h0a.65.65,0,0,0,.3.06l.42-.06a1,1,0,0,0,.23,0,11.13,11.13,0,0,0,1.82-.12l.63-.05h.25l.1,0a5.45,5.45,0,0,0,.7,0,1.15,1.15,0,0,0,.17.06,5.14,5.14,0,0,0,1.66,0,.14.14,0,0,0,.11-.13,3.43,3.43,0,0,0,.59-.11l.1,0,.21,0,.26,0a5.83,5.83,0,0,0,1.72-.12,1.93,1.93,0,0,0,.41,0,3.06,3.06,0,0,0,.73-.21c.18-.08.25-.17.25-.24a1.09,1.09,0,0,0,.64-.29.56.56,0,0,0,.38-.26l.07-.17,0,0C41,8.72,40.58,8.56,40.3,8.52Z" transform="translate(-12.66 -7.03)" style="fill:#a2563a;fill-rule:evenodd"/><path d="M37.85,106.83a38.7,38.7,0,0,0-.08-4.44,5.38,5.38,0,0,0-.05-1.06s0,0,0-.07,0-.05,0-.08c-.21-2.09,0-4.33-.38-6.41a24.33,24.33,0,0,0-.39-6A17.72,17.72,0,0,1,37,86.8s0,0,0-.08c-.12-.83-.2-1.67-.26-2.51.1-.07.18-.15.17-.25l-.18-2a.33.33,0,0,0,.12-.22c0-2.38-.17-4.75-.38-7.12,0,0,0,0,0-.06-.06-1.21-.14-2.41-.18-3.61,0,0,0,0,0-.07,0-.24,0-.48,0-.72a.3.3,0,0,0,.1-.2c-.1-1.19-.2-2.38-.29-3.57,0-.93,0-1.86-.08-2.78,0,0,0,0,0,0a65.16,65.16,0,0,0-.29-6.7.28.28,0,0,0-.13-.19c0-.65-.07-1.29-.09-1.93a.16.16,0,0,0,.07-.17c0-.08-.05-.17-.08-.26,0-1-.06-2.1-.17-3.15a10.16,10.16,0,0,0,0-1.56.29.29,0,0,0-.14-.19c0-.15,0-.3,0-.45a.25.25,0,0,0,.06-.16,47.35,47.35,0,0,0-.27-6.52v-.75s0-.07,0-.11c0-.9-.06-1.8-.09-2.69a.28.28,0,0,0,.14-.24c-.11-.92-.19-1.85-.29-2.77,0-1.47-.11-2.94-.21-4.41a.24.24,0,0,0-.12-.19c0-.14,0-.28,0-.42a.34.34,0,0,0,.19-.26c0-.45,0-.9-.07-1.35a.25.25,0,0,0,.09-.2c-.06-.72-.14-1.43-.22-2.14a.14.14,0,0,0,0-.06,20.24,20.24,0,0,1-.17-2.59h0V24a16.65,16.65,0,0,0-.13-2s0,0,0,0v-.22c0-.55-2-.42-2,.13,0,.75.11,1.5.16,2.25s.05,1.32.11,2c0,0,0,0,0,.06.08.67.14,1.34.21,2a.22.22,0,0,0-.06.13c0,.29,0,.57,0,.86a.3.3,0,0,0-.1.2,20.66,20.66,0,0,0,.08,3.15.24.24,0,0,0-.07.19c.09,1,.21,2,.32,3.08,0,.13,0,.25,0,.38s0,0,0,0c0,.26,0,.51.08.77,0,0,0,0,0,.08,0,1.45.07,2.9.14,4.35,0,0,0,.06,0,.1v.58s0,0,0,0,0,.14,0,.2c0,1.32,0,2.64,0,4,0,.1.1.18.23.24,0,.64,0,1.29,0,1.94a.26.26,0,0,0-.07.16q.06,1.88,0,3.75c0,.08,0,.14.13.2a6.06,6.06,0,0,0,.22,1.79c0,.84,0,1.68.1,2.52,0,0,0,0,0,0s-.06.08-.06.13a28.2,28.2,0,0,0,.06,4.11.33.33,0,0,0,.06.1A19,19,0,0,1,34,64.42a.26.26,0,0,0-.11.22l.15,1.88V67a.19.19,0,0,0,0,.1l.21,2.53a.25.25,0,0,0-.09.2c.12,1.29-.24,2.57.11,3.84,0,0,0,0,.07.08.05,1.09.1,2.17.16,3.26-.15.08-.25.18-.24.3l.36,4.12a.15.15,0,0,0,0,.07A34,34,0,0,0,35,86.86h0s0,0,0,.06a15.69,15.69,0,0,0-.05,1.81s0,0,0,0,0,.06,0,.08c0,1.47.21,2.91.18,4.39,0,.1.09.17.21.23V94c-.09.07-.16.14-.14.23s.1.45.14.67c0,.82,0,1.63.09,2.43a.28.28,0,0,0,.14.19c0,1.2,0,2.4.13,3.57a.21.21,0,0,0-.05.13c.05.43.09.87.12,1.31a6.74,6.74,0,0,0,.11,2.37v1c-.13.08-.21.16-.19.26.07.3.12.6.16.9s0,.43,0,.65a.22.22,0,0,0,.11.18c0,.47.07.94.1,1.41s2,.42,2-.13C38,108.37,38,107.59,37.85,106.83Z" transform="translate(-12.66 -7.03)" style="fill-rule:evenodd;fill:url(#linear-gradient-3)"/><path d="M22.42,21.75c0-.53-2-.43-2,.14s0,.94.05,1.41c0,0-.05.06-.05.09-.05.82-.06,1.63-.09,2.45-.13.08-.23.17-.24.29A22.42,22.42,0,0,0,20,29.61a.29.29,0,0,0,.11.18c0,.18,0,.37,0,.55a.25.25,0,0,0-.11.21,14.83,14.83,0,0,1,0,2,.38.38,0,0,0-.19.25c-.07.62-.09,1.25-.13,1.87a.29.29,0,0,0-.12.21c0,1.47-.06,2.92-.16,4.38,0,.12.11.21.28.27,0,1.29-.13,2.58-.25,3.88a.33.33,0,0,0-.16.23,79.67,79.67,0,0,1-1,9.87c0,.2.37.32.81.33a2.44,2.44,0,0,1,0,.27c-.2.08-.33.2-.33.35a61.85,61.85,0,0,1-.28,6.94.35.35,0,0,0-.14.22c-.23,1.61-.42,3.22-.59,4.84,0,.2.34.31.75.33-.08,1.58-.23,3.17-.35,4.75a.12.12,0,0,0,0,.1.28.28,0,0,0-.07.19,7.07,7.07,0,0,1,0,.92c0,.06,0,.12,0,.19s0,0,0,0A17,17,0,0,0,18,76.33s0,0,0,0a18.6,18.6,0,0,0-.39,4.21s0,.07.06.11c0,.4-.08.8-.13,1.2-.11.07-.19.16-.18.26s0,.45.06.68c-.06.4-.12.8-.2,1.21,0,.09.08.16.22.22q0,.7-.09,1.41a.3.3,0,0,0-.1.21l0,2.23a.26.26,0,0,0,0,.12c0,1.06,0,2.13.06,3.19l0,0c-.16.08-.26.18-.26.31,0,.54,0,1.09,0,1.63a.05.05,0,0,0,0,0c0,.2,0,.4,0,.6,0,.51-.06,1-.1,1.53,0,0,0,0,0,0a26.79,26.79,0,0,0-.23,3.69.24.24,0,0,0,.1.18c0,.51-.06,1-.09,1.54-.09,1.16-.19,2.33-.3,3.49-.1.08-.18.16-.18.26a22.78,22.78,0,0,0,0,3c0,.1.09.16.19.22s0,.4,0,.6c0,0,0,.09.07.13a1.26,1.26,0,0,1-.05.28c-.19.58,1.77.59,1.94.07a2.8,2.8,0,0,0,.14-1.15s0,0,0,0a.23.23,0,0,0,.08-.17,20,20,0,0,0,0-2.32c0-.14-.14-.23-.33-.29.08-.8.15-1.61.22-2.42,0,0,.06-.08.06-.12.05-.63.08-1.25.12-1.88v0h0c.08-1.27.13-2.53.16-3.8a.23.23,0,0,0-.08-.16c.09-.92.19-1.84.22-2.77,0-.76.07-1.51.08-2.27,0,0,0,0,0,0,.15-.08.26-.18.25-.31,0-.36,0-.73,0-1.09a0,0,0,0,1,0,0c0-1,0-2.07,0-3.11a.05.05,0,0,0,0,0,35.16,35.16,0,0,0,.17-4.36,34.52,34.52,0,0,0,.39-3.79.26.26,0,0,0-.16-.2A19.61,19.61,0,0,0,20,75.07a.24.24,0,0,0-.09-.15c0-.77.14-1.54.16-2.31a2.68,2.68,0,0,0,0-.8s0,0,0,0v-.09a.29.29,0,0,0-.06-.11.26.26,0,0,0,.09-.18,57.93,57.93,0,0,0,.34-9.12.32.32,0,0,0-.22-.23l0-.26a.36.36,0,0,0,.17-.24,62.74,62.74,0,0,0,.28-6.43c.19-.08.32-.2.32-.34,0-.64,0-1.28.07-1.91a.28.28,0,0,0,.07-.17c0-.45,0-.89,0-1.33a.76.76,0,0,0,0-.15h0c0-.77,0-1.53,0-2.29,0-.12-.11-.2-.26-.25.15-1.51.26-3,.33-4.54a.34.34,0,0,0,.13-.22c.16-1.53.26-3.07.31-4.62,0-.12-.11-.2-.28-.26.07-1,.11-2,.13-2.93,0,0,0-.06,0-.1,0-.75.1-1.49.16-2.24a.42.42,0,0,0,.19-.25A15.13,15.13,0,0,0,22,30.82a.24.24,0,0,0,.1-.21,10.6,10.6,0,0,1,0-1.38.22.22,0,0,0-.09-.17c0-.54,0-1.07,0-1.6.19-.08.31-.19.31-.34,0-.78.06-1.56.09-2.35a.31.31,0,0,0,.15-.24Z" transform="translate(-12.66 -7.03)" style="fill-rule:evenodd;fill:url(#linear-gradient-4)"/><path d="M28.19,48.55c.12-.07.2-.16.19-.26s-.07-.45-.1-.67a14.43,14.43,0,0,0,0-2.18.24.24,0,0,0-.12-.19V45a.16.16,0,0,0,0-.13l0-.26c0-.7,0-1.4,0-2.1a21.93,21.93,0,0,0,.2-2.42c0-.12-.11-.2-.26-.26,0-.65-.05-1.3-.07-1.94,0-.94.05-1.87.05-2.8a.18.18,0,0,0,0-.1c0-1.6.1-3.3-.05-4.92a24.47,24.47,0,0,0,.09-3.73c0-1.27.05-2.54.13-3.81a.2.2,0,0,0-.09-.17c0-.16,0-.32,0-.48,0-.54-2-.43-2,.14a23.36,23.36,0,0,1,0,2.51s0,.06.05.09,0,.31,0,.46-.18.15-.16.25c.07.41.11.83.14,1.25s0,.76,0,1.15c0,0,0,.06.05.09,0,.26,0,.51,0,.77-.18.08-.29.19-.26.32.08.42.13.86.17,1.31s-.08,1-.11,1.45a.17.17,0,0,0,.08.14c0,.43,0,.85,0,1.27a.33.33,0,0,0-.18.26c.07,1.56.11,3.12.15,4.69v.15h0c0,.72.06,1.43.07,2.14,0,.11.1.19.24.25s0,.14,0,.21c-.2.08-.32.19-.3.33a12.8,12.8,0,0,1,.12,1.51,8.84,8.84,0,0,0,0,2.12,22.47,22.47,0,0,0,.08,3c0,.26-.06.52-.08.78-.19.08-.31.19-.3.33,0,.45.06.9.08,1.36-.14.83-.33,1.95,0,2.43l.11.11c0,.79.05,1.58.07,2.37v0h0a.39.39,0,0,0-.17.31c0,.1.08.18.21.24V70.35a.22.22,0,0,0,.09.17s0,0,0,0V89.73s0,0,0,.06l0,0c-.18.18-.1.31,0,.4v16.53c0,.52,2,.44,2-.14V89.91a.19.19,0,0,0,0-.1.19.19,0,0,0,0-.23V70.43a.24.24,0,0,0-.09-.17s0,0,0-.05v-15s0-.08-.07-.12a.23.23,0,0,0,.08-.17c0-1.62.08-3.24.14-4.86,0-.13-.11-.22-.3-.28,0-.28.07-.57.1-.85Z" transform="translate(-12.66 -7.03)" style="fill-rule:evenodd;fill:url(#linear-gradient-5)"/><path d="M35,49.66c.16-.56-1.52-.58-1.87-.16a1.67,1.67,0,0,0-.16.12l-.16.18c-.27.08-.54.15-.81.25l-.25.1-.1,0c-.48.16-1,.3-1.45.42h0l-.08,0a2.08,2.08,0,0,0-1.41.09,2.72,2.72,0,0,1-1.36,0,14.44,14.44,0,0,0-1.47,0H25.6a17,17,0,0,1-1.88-.41c-.5-.14-1.29-.23-1.59-.69s-2.22-.14-1.91.34c0,0,.05,0,.07.07a.12.12,0,0,0,.05.13,6,6,0,0,0,1.26.86,1.81,1.81,0,0,0,1.06.11c.41.39,1,.35,1.52.52a2.11,2.11,0,0,0,.94,0,19.36,19.36,0,0,0,2.29.29,1.92,1.92,0,0,0,1.12-.24,1.31,1.31,0,0,0,.28,0h.28a6.25,6.25,0,0,0,1.42-.27l.55-.14h.12a3.88,3.88,0,0,0,1.57-.44l.06,0a2.29,2.29,0,0,0,.69-.1c.36,0,1,0,1.18-.35A2,2,0,0,0,35,49.66Z" transform="translate(-12.66 -7.03)" style="fill-rule:evenodd;fill:url(#linear-gradient-6)"/><path d="M34.24,30.74c.06-.3-.77-.33-.89-.32-.33,0-.87,0-1.08.35l-.05.09a.5.5,0,0,0-.25.19l0,0a5,5,0,0,0-.81.16l-.42.11a1.86,1.86,0,0,0-.47,0h0a3.51,3.51,0,0,0-.78,0l-.48.05-.05,0a1.71,1.71,0,0,0-1.85.1c-.56,0-1.11,0-1.67-.1l-.34,0,0,0a1.89,1.89,0,0,0-1.28,0,1.4,1.4,0,0,0-.35-.1,1,1,0,0,1-.25-.17,1.06,1.06,0,0,0-.81-.23,1,1,0,0,1,0-.17c-.07-.57-2.06-.39-2,.14.12.95,1,1.26,1.81,1.31a2.81,2.81,0,0,0,.55,0,2.85,2.85,0,0,0,.39.11l.21.11a1.59,1.59,0,0,0,1.22.08c.6,0,1.21,0,1.81,0a1.57,1.57,0,0,0,.55.11l.46,0a1.91,1.91,0,0,0,.42,0,11.2,11.2,0,0,0,1.92,0,1.18,1.18,0,0,0,.56-.21l.51-.1.07,0a3.38,3.38,0,0,0,.45,0,2.53,2.53,0,0,0,1.28-.05h0a1.54,1.54,0,0,0,1.21-.35,2.45,2.45,0,0,0,.45-.95v0h0A.54.54,0,0,1,34.24,30.74Z" transform="translate(-12.66 -7.03)" style="fill-rule:evenodd;fill:url(#linear-gradient-7)"/><path d="M32.55,28.68a4.59,4.59,0,0,0-3.26-.57c-.27.05-1.07.22-.82.65s1.18.39,1.57.39a2.76,2.76,0,0,0,.67,0l.14.08a1.83,1.83,0,0,0,1.38,0C32.47,29.16,32.92,28.92,32.55,28.68Z" transform="translate(-12.66 -7.03)" style="fill-rule:evenodd;fill:url(#linear-gradient-8)"/><path d="M26.25,28.46c-.16-.3-1-.24-1.24-.18-.53.12-1.07.27-1.61.34s-1.07.16-1.25.75,1.77.58,1.93.07l.06-.16c.48-.09,1-.18,1.45-.29C25.81,28.94,26.44,28.81,26.25,28.46Z" transform="translate(-12.66 -7.03)" style="fill-rule:evenodd;fill:url(#linear-gradient-9)"/><path d="M33.46,47.46a.53.53,0,0,0-.24-.2v0a1.65,1.65,0,0,0-1.72-1,2.61,2.61,0,0,0-1,.23c-.17-.43-1.94-.36-2,.2,0,.83.27,1.1,1.12,1.08a2.21,2.21,0,0,0,.74-.14,2.4,2.4,0,0,0,1.1.29h.13C32.05,48.24,33.74,47.94,33.46,47.46Z" transform="translate(-12.66 -7.03)" style="fill-rule:evenodd;fill:url(#linear-gradient-10)"/><path d="M25.75,46.51a2.17,2.17,0,0,0-1.17.12,4,4,0,0,0-.58,0c-.64.13-1.3.26-1.93.45-.43.13-.83.3-.95.76s1.83.49,2-.14c0,0,.14-.1.32-.14a3.07,3.07,0,0,0,2.7-.59C26.47,46.73,26,46.55,25.75,46.51Z" transform="translate(-12.66 -7.03)" style="fill-rule:evenodd;fill:url(#linear-gradient-11)"/></g><g id="Highlights"><path d="M14.12,11.14c0-.25,0-.83-.41-.74s-.39,1-.39,1.2c-.05,1.57,0,3.14,0,4.71,0,.25,0,.83.4.74s.41-1,.4-1.2C14.09,14.28,14.08,12.71,14.12,11.14Z" transform="translate(-12.66 -7.03)" style="fill:#fff;fill-rule:evenodd;opacity:0.6900000000000001;mix-blend-mode:overlay"/><path d="M25,32.41a2,2,0,0,0-1.17-.79c-.41-.06-.82-.14-1.22-.24a6,6,0,0,1-.61-.15c-.07,0-.44-.21-.26-.06-.22-.18-.86-.66-1.17-.46l0,0a1.48,1.48,0,0,0,.19-.65c.29-2.73.5-5.47.65-8.22.07-1.16-.71-1.27-.77-.08q-.22,4.13-.65,8.23c-.09.81.26,1.09.52.79-.11.23.26.58.4.7a7.74,7.74,0,0,0,3.82,1.37C25,32.93,25.18,32.74,25,32.41Z" transform="translate(-12.66 -7.03)" style="fill:#fff;fill-rule:evenodd;opacity:0.6900000000000001;mix-blend-mode:overlay"/><path d="M20.73,32.34c0-1.36-.82-.41-.8.45.11,5.65-.82,11.25-.54,16.93a1.3,1.3,0,0,0,0,.31,1.73,1.73,0,0,0-.16.49,85.08,85.08,0,0,0-.82,11.95,1.66,1.66,0,0,0-.12.67C18.5,66.58,17.78,70,18,73.4h0a1.6,1.6,0,0,0-.11.48c-.26,5.42-.8,10.79-.78,16.22,0,.06,0,.09,0,.13a1.78,1.78,0,0,0-.11.61c.05,3.26-.43,6.49-.52,9.75a1.47,1.47,0,0,0,0,.47l-.67,7.19c-.1,1.17.67,1.27.78.08l.7-7.5a2.15,2.15,0,0,0,0-1.29c.13-3,.54-6.09.49-9.15,0-.06,0-.09,0-.15a1.67,1.67,0,0,0,.11-.59c0-5.37.51-10.68.77-16a1.63,1.63,0,0,0,.12-.67c-.19-3.41.52-6.79.36-10.2a1.79,1.79,0,0,0,.11-.51A79.48,79.48,0,0,1,20,51.12a1.79,1.79,0,0,0-.08-.87,1.55,1.55,0,0,0,.3-1C19.92,43.59,20.84,38,20.73,32.34Z" transform="translate(-12.66 -7.03)" style="fill:#fff;fill-rule:evenodd;opacity:0.6900000000000001;mix-blend-mode:overlay"/><path d="M25.07,51.71a1.91,1.91,0,0,0-1.17-.79,10.6,10.6,0,0,1-3-.92c-.2-.1-.78-.38-.85,0s.64.8.87.92a13.77,13.77,0,0,0,3.8,1.24C25.14,52.23,25.27,52,25.07,51.71Z" transform="translate(-12.66 -7.03)" style="fill:#fff;fill-rule:evenodd;opacity:0.6900000000000001;mix-blend-mode:overlay"/></g><g id="Lines"><path d="M13.2,9.84V17s.46,2.16,13.92,2.16S40.56,17,40.56,17V9.84S39.8,11,26.88,11,13.2,9.84,13.2,9.84Z" transform="translate(-12.66 -7.03)" style="fill:none;stroke:#231f20;stroke-miterlimit:10;fill-rule:evenodd"/><path d="M40.52,8.73s-.46-1.2-14.16-1.2-13.2,1.2-13.2,1.2" transform="translate(-12.66 -7.03)" style="fill:none;stroke:#231f20;stroke-miterlimit:10;fill-rule:evenodd"/><path d="M20.4,21.12l-4.32,87.69a1.16,1.16,0,0,0,1.2.72,1.16,1.16,0,0,0,1.2-.72s1.53-32.62,2.71-58m.07-1.52c.31-6.5.59-12.45.81-17.16m.07-1.5c.26-5.58.42-9.07.42-9.07" transform="translate(-12.66 -7.03)" style="fill:none;stroke:#231f20;stroke-miterlimit:10;fill-rule:evenodd"/><path d="M31.92,21.36s.16,3.62.41,9.38m.07,1.5c.21,4.75.47,10.74.76,17.25M33.22,51c1.12,25.36,2.54,57.77,2.54,57.77a1.36,1.36,0,0,0,2.4,0L34.08,21.12" transform="translate(-12.66 -7.03)" style="fill:none;stroke:#231f20;stroke-miterlimit:10;fill-rule:evenodd"/><path d="M26.16,21.6s0,3.72,0,9.64m0,1.57c0,4.86,0,11-.05,17.62m0,1.55c-.07,26-.16,54.43-.16,54.43a1.36,1.36,0,0,0,2.4,0V52m0-1.58V32.79m0-1.54V21.6" transform="translate(-12.66 -7.03)" style="fill:none;stroke:#231f20;stroke-miterlimit:10;fill-rule:evenodd"/><path d="M21.12,31.92a16.56,16.56,0,0,0,6.24,1,16.5,16.5,0,0,0,6.24-1,1,1,0,0,0,.48-1c-.06-.67-.48-.72-.48-.72a16.5,16.5,0,0,1-6.24,1,16.56,16.56,0,0,1-6.24-1s-.72.31-.72,1S21.12,31.92,21.12,31.92Z" transform="translate(-12.66 -7.03)" style="fill:none;stroke:#231f20;stroke-miterlimit:10;fill-rule:evenodd"/><path d="M22.08,28.56a12.46,12.46,0,0,1,4.13-.67m2.07-.05c3.72,0,3.88.48,3.88.48" transform="translate(-12.66 -7.03)" style="fill:none;stroke:#231f20;stroke-miterlimit:10;fill-rule:evenodd"/><path d="M22.08,30a12.6,12.6,0,0,1,4.14-.67m2,0c3.74,0,3.91.48,3.91.48" transform="translate(-12.66 -7.03)" style="fill:none;stroke:#231f20;stroke-miterlimit:10;fill-rule:evenodd"/><path d="M18.72,18.72v1.92s1.22,1.07,8.64,1,8.4-1,8.4-1V18.72" transform="translate(-12.66 -7.03)" style="fill:none;stroke:#231f20;stroke-miterlimit:10;fill-rule:evenodd"/><path d="M20.64,50.64a15.06,15.06,0,0,0,6.72,1.44,16.8,16.8,0,0,0,7-1.44,1,1,0,0,0,.48-1c-.06-.67-.48-.72-.48-.72a16.8,16.8,0,0,1-7,1.44A15.06,15.06,0,0,1,20.64,49s-.72.31-.72,1S20.64,50.64,20.64,50.64Z" transform="translate(-12.66 -7.03)" style="fill:none;stroke:#231f20;stroke-miterlimit:10;fill-rule:evenodd"/><path d="M21.36,47.28a11.71,11.71,0,0,1,4.78-1.14m2.15-.06c3.71,0,4.83,1,4.83,1" transform="translate(-12.66 -7.03)" style="fill:none;stroke:#231f20;stroke-miterlimit:10;fill-rule:evenodd"/><path d="M21.36,48.72a11.71,11.71,0,0,1,4.78-1.14m2.15-.06c3.71,0,4.83,1,4.83,1" transform="translate(-12.66 -7.03)" style="fill:none;stroke:#231f20;stroke-miterlimit:10;fill-rule:evenodd"/></g></g></svg>