<svg xmlns="http://www.w3.org/2000/svg" xmlns:xlink="http://www.w3.org/1999/xlink" viewBox="0 0 656.59 91.31"><defs><radialGradient id="radial-gradient" cx="344.51" cy="84.73" r="239.06" gradientUnits="userSpaceOnUse"><stop offset="0" stop-color="#fff"/><stop offset="1" stop-color="#d9c3b8"/></radialGradient></defs><title>Carpet</title><g id="Color"><path d="M677,113.23v0a5.83,5.83,0,0,0-2-5.12l-6.2-6.19a4.73,4.73,0,0,0-2-.69,3.54,3.54,0,0,0-1.68-1.26,3.53,3.53,0,0,0-1.5-1.7,65.61,65.61,0,0,0-10.51-4.83,60.54,60.54,0,0,0-10.27-5.61c-.12-.13-.24-.26-.38-.39a74.74,74.74,0,0,0-10.89-8.7c-1.54-1-3.49-.77-5.3-.12-.67-.35-1.33-.72-2-1Q610,68,595.11,59.44c-.14-.08-.28-.13-.43-.2a9.21,9.21,0,0,0-1.36-1.1,10.49,10.49,0,0,0-1.67-.85l-.23-.29a4.39,4.39,0,0,0-2.84-.68,80.77,80.77,0,0,0-20-13,6.81,6.81,0,0,0-.7-.28,65,65,0,0,0-11.79-8.35,5.65,5.65,0,0,0-4-.47c-2.21-1.86-4.43-3.69-6.7-5.48a3.86,3.86,0,0,0-2.81-.7c-.34-.39-.69-.78-1.05-1.14a4.32,4.32,0,0,0-2.93-.67,4.76,4.76,0,0,0-2.81-1,5.71,5.71,0,0,0-1.25,0,6.52,6.52,0,0,0-3.11.17c-.31-.31-.62-.63-.94-.94a4.23,4.23,0,0,0-3.95-.39,8.92,8.92,0,0,0-1,.2H414a13,13,0,0,0-6.66,2.06H295.51c-37.27-1-74.57-.39-111.88-.27l-93.18.29a11,11,0,0,0-2.77.39c-2-1.46-5.43-.06-7.62,1.15-3.1-1.79-6.91-3.19-7.37.19a1.67,1.67,0,0,0-.86.74q-4.27,7.29-8.56,14.58a5.18,5.18,0,0,0-.62,3,45.48,45.48,0,0,0-4.92,10c-.76,1-1.49,2-2.18,3A51.16,51.16,0,0,0,51,65.19c-3.17,4.91-6.15,9.86-9,14.89-2,2.58-4,5.19-6,7.83a41.2,41.2,0,0,0-6.95,14.55c-.07.31-.13.65-.2,1-.56.74-1.11,1.49-1.64,2.24a40.26,40.26,0,0,0-6.81,7.52Z" transform="translate(-20.45 -22.5)" style="fill-rule:evenodd;fill:url(#radial-gradient)"/></g><g id="Lines"><path d="M669.84,103.44,537.08,24,73.44,27.49,22.08,113" transform="translate(-20.45 -22.5)" style="fill:none;stroke:#454342;stroke-miterlimit:10;stroke-width:3px;fill-rule:evenodd"/></g></svg>