<svg xmlns="http://www.w3.org/2000/svg" xmlns:xlink="http://www.w3.org/1999/xlink" viewBox="0 0 70.73 76.21"><defs><linearGradient id="linear-gradient" x1="13.32" y1="31.17" x2="83.9" y2="40.97" gradientUnits="userSpaceOnUse"><stop offset="0" stop-color="#404040"/><stop offset="1" stop-color="#303030"/></linearGradient><linearGradient id="linear-gradient-2" x1="71.41" y1="39.58" x2="77.97" y2="39.58" gradientUnits="userSpaceOnUse"><stop offset="0" stop-color="#383838"/><stop offset="1" stop-color="#1f1f1f"/></linearGradient><linearGradient id="linear-gradient-3" x1="42.13" y1="70.57" x2="54.19" y2="70.57" gradientUnits="userSpaceOnUse"><stop offset="0" stop-color="#404040"/><stop offset="1" stop-color="#242424"/></linearGradient><linearGradient id="linear-gradient-4" x1="39.98" y1="76.8" x2="50.4" y2="76.8" gradientUnits="userSpaceOnUse"><stop offset="0" stop-color="#2b2b2b"/><stop offset="1" stop-color="#1a1a1a"/></linearGradient><linearGradient id="linear-gradient-5" x1="36.46" y1="77.31" x2="45.55" y2="77.31" gradientUnits="userSpaceOnUse"><stop offset="0" stop-color="#171717"/><stop offset="1" stop-color="#0a0a0a"/></linearGradient><linearGradient id="linear-gradient-6" x1="45.87" y1="78.17" x2="54.48" y2="78.17" xlink:href="#linear-gradient-5"/><linearGradient id="linear-gradient-7" x1="57.56" y1="82.35" x2="58.88" y2="82.35" xlink:href="#linear-gradient-5"/><linearGradient id="linear-gradient-8" x1="57.25" y1="81.55" x2="57.6" y2="81.55" xlink:href="#linear-gradient-5"/><linearGradient id="linear-gradient-9" x1="55.58" y1="74" x2="64.29" y2="74" xlink:href="#linear-gradient-5"/><linearGradient id="linear-gradient-10" x1="50.07" y1="83.66" x2="56.93" y2="83.66" xlink:href="#linear-gradient-2"/><linearGradient id="linear-gradient-11" x1="39.61" y1="88.81" x2="43.68" y2="72.93" xlink:href="#linear-gradient-5"/><radialGradient id="radial-gradient" cx="16.94" cy="83.03" r="29.54" xlink:href="#linear-gradient-5"/><radialGradient id="radial-gradient-2" cx="26.39" cy="73.21" r="29.53" gradientUnits="userSpaceOnUse"><stop offset="0" stop-color="#616161"/><stop offset="1" stop-color="#262626"/></radialGradient></defs><title>Computer</title><g style="isolation:isolate"><g id="Color"><path d="M56.5,83.36A8.94,8.94,0,0,0,53,82.53a5.21,5.21,0,0,0-1.72.14,4.53,4.53,0,0,0-1.25.87c-.15.11.14.59.38.76a.35.35,0,0,0,.21.13,21,21,0,0,0,6-.12s0,0,0,0h0c.05,0,.05-.07,0-.18l.17.06C57.15,84.28,56.73,83.46,56.5,83.36Z" transform="translate(-7.67 -9.12)" style="fill-rule:evenodd"/><path d="M47.84,81.31H46.25c-.1-.24-.31-.56-.49-.58-.81-.11-1.62-.17-2.43-.2-.11-.16-.24-.3-.35-.31-1.2-.11-2.39-.2-3.57-.4l-.12-.14A.51.51,0,0,0,39,79.5l-2.41-.37a.43.43,0,0,0-.28-.19h-.91a.28.28,0,0,0-.15-.08h-.43c-.11-.2-.27-.41-.42-.43-.75-.08-1.5-.13-2.25-.17a.31.31,0,0,0-.12-.05h-.65c-.11-.17-.25-.31-.36-.31h-1a.32.32,0,0,0-.19-.1H29.2a.55.55,0,0,0-.25-.2c-.17,0-.35,0-.52-.06a.24.24,0,0,0-.16-.08h-.51l-.26,0c-.11-.15-.24-.28-.34-.28h-1.3c-.1-.15-.22-.28-.32-.29q-1.08-.14-2.16-.18a.39.39,0,0,0-.19-.1l-.52-.08c-.08-.08-.16-.15-.23-.15H21.8c-.11-.16-.24-.29-.35-.29H21a.38.38,0,0,0-.25-.17H9.37c-.1,0,0,.21.07.42C9,76.2,8.5,76.08,8,76c-.14,0,.21.77.5.83,2.5.56,5,1.16,7.48,1.74,0,0,0,0,0-.1a5.15,5.15,0,0,0,1.8.27c.05,0,.06,0,.05-.12,1.84.47,3.69.91,5.56,1.3,2.85.58,5.74,1.58,8.63,1.84a24.16,24.16,0,0,0,2.4.45s0,0,0,0H48.34C48.54,82.14,48.12,81.31,47.84,81.31Z" transform="translate(-7.67 -9.12)" style="fill-rule:evenodd"/><path d="M56.9,79.37h0S56.89,79.39,56.9,79.37Z" transform="translate(-7.67 -9.12)" style="fill-rule:evenodd"/><path d="M58.91,83a.14.14,0,0,0,0-.06c0-.07-.12-.18-.14-.15l0,0a1.38,1.38,0,0,0-.21-.42.42.42,0,0,0-.2-.32l0,0s0-.11,0-.12a2.78,2.78,0,0,1-.47-.28s-.06-.1-.1-.09h-.06l-.46-.28s0-.05,0-.06A3.35,3.35,0,0,1,56,80.37h0s0,0,0,0,0,0,0-.06l0,0h0L56,80s0,0,0-.07h0l.14-.13s0-.07,0-.12.09,0,.12,0l.14-.09h0a0,0,0,0,1,0,0l.26-.13v0h0l.8-.25h0s.09,0,.14-.09a.14.14,0,0,0,.11,0l.14,0s0,0,0,0l.07,0a2.38,2.38,0,0,0,.37-.06c.12,0-.14-.42-.28-.39a2.2,2.2,0,0,1-.37,0s0,0,0,0l-.06,0-.15,0c-.05,0,0,.08,0,.16h0s0,0,0,0,0,0-.06,0-.1-.08-.14-.07l-.83.25a0,0,0,0,0,0,0s0,0,0,0l-.25.13s0,0,0,0h0l-.14.09s0,.07,0,.13-.1-.07-.13,0l-.14.13a.11.11,0,0,0,0,.08.74.74,0,0,0-.1.22.41.41,0,0,0,0,.08s0,0,0,0h0s0,0,0,0a.81.81,0,0,0,.16.48.37.37,0,0,0,.17.18h0a1.09,1.09,0,0,0,.35.29s0,0,0,0a2.53,2.53,0,0,0,.62.4s0,0,0,0c.43.2.77.51,1.2.71a1.56,1.56,0,0,1,.51.83.28.28,0,0,0,0,.09,3.59,3.59,0,0,1-.14.43s0,0,0,0a.43.43,0,0,1-.19.13h0l-.38.17h0a2.86,2.86,0,0,1-.41.15s.08.23.15.2l.07,0h0a5.52,5.52,0,0,0,.67-.27l0,0a.56.56,0,0,0,.37-.36s0-.07,0-.11A2.59,2.59,0,0,0,58.91,83Z" transform="translate(-7.67 -9.12)" style="fill-rule:evenodd"/><path d="M77.54,14.49a1,1,0,0,0-.1-.24,1.35,1.35,0,0,0,0-.28,1.85,1.85,0,0,0,.22-2.06,1.18,1.18,0,0,0-1.18-.4,1.77,1.77,0,0,0-1.69-.14.75.75,0,0,0-.5-.14l-.38,0a2.42,2.42,0,0,0-.84.06A45.5,45.5,0,0,0,66.3,11a3,3,0,0,0-.42,0,80.67,80.67,0,0,0-8.53-.43,3.89,3.89,0,0,0-.49,0c-1.32-.14-2.64-.27-4-.38a5,5,0,0,0-2,.33q-6.94-.77-13.94-.88a5.47,5.47,0,0,0-1.55.21.78.78,0,0,0-.21,0A21.73,21.73,0,0,0,30,9.8a.22.22,0,0,0-.15.11,14.92,14.92,0,0,1-1.79-.36c-.16,0-.25,0-.29.08a.53.53,0,0,0-.35-.09c-.19,0-.24.17-.23.35a.15.15,0,0,0-.16.16q-.36,3.34-.61,6.69a1.32,1.32,0,0,0,.08.55,3,3,0,0,0-.16.73l-.15,2a2.66,2.66,0,0,0-.47,1.65c0,.24.09.48.13.72a4.58,4.58,0,0,0-.15.64c-.39,3.43-.58,6.9-.74,10.38a2.94,2.94,0,0,0-.58,1.69,50.08,50.08,0,0,1-.1,5.2,3.88,3.88,0,0,0-.64,1.88c-.12,3-.29,6-.47,9a4.86,4.86,0,0,0-.32,1,15.37,15.37,0,0,0-.52,4,1.6,1.6,0,0,0,.16.55,5.5,5.5,0,0,0-.38,1.42.64.64,0,0,0,0,.2l-.12.4c-.14.61-.27,1.23.33,1.52a.79.79,0,0,0,.6.33c2.25.32,4.49.63,6.74.91a3.47,3.47,0,0,0,.56,0,.79.79,0,0,0,.57.27l7.26.89a3.62,3.62,0,0,0,.87,0c1.15.22,2.3.38,3.45.51v0a41.66,41.66,0,0,0,1.18,5.12c.33,1.57.66,3.13,1.12,4.67l0,.07c-.3,0-.18.5-.07.79A3.26,3.26,0,0,0,45.83,76a.45.45,0,0,0-.11,0,12.06,12.06,0,0,0-1.59,0h0l-1-.11c-.18,0-.23.1-.23.26A28.59,28.59,0,0,1,39.49,76a6.9,6.9,0,0,0-3.23.19c-.18.08.33.92.59.8L37,77a.39.39,0,0,0,.2.12c.7,0,1.39.13,2.09.24l3.36.61.07,0a22.27,22.27,0,0,0,3.41.73,0,0,0,0,0,0,0,.82.82,0,0,0,.38.16c2.64.09,5.35-.24,8-.26.2,0,.2-.28.08-.64a2.51,2.51,0,0,0-.14-.5,16.63,16.63,0,0,1-.76-4,1.83,1.83,0,0,0-.06-.25s0,0,0-.08c-.37-1.66-.73-3.32-1.1-5a2.62,2.62,0,0,0-.44-.91,8.39,8.39,0,0,1-.1-1c.07-.11.12-.22.2-.33.2-.28,0-.77-.29-1.24,2.75.44,5.49.86,8.22,1.43a3.21,3.21,0,0,0,1.47-.07c.31.07.63.13.94.21h0a2.86,2.86,0,0,0,.4.38s0,0,0,0-.14.11-.13.15a1.87,1.87,0,0,0,.08.32s.06,0,.11,0c.13.57.26,1.13.41,1.69h0c.11.51.18,1,.27,1.53,0,0,0,0,0,0,0,.22,0,.43.06.64s.1.61.16.91a5,5,0,0,1-.2,1.39.26.26,0,0,0,0,.11,2.49,2.49,0,0,1-.25.74s0,.07,0,.12a4.6,4.6,0,0,1-.33.76s0,0,0,0h0a9.37,9.37,0,0,1-.82,1.26v0h0a7.25,7.25,0,0,1-.62.62s0,0-.05,0a2.58,2.58,0,0,0-.5.49h0l-.4.31a0,0,0,0,0,0,0l0,0h0c-.13.08-.25.16-.39.23s0,0,0,0,0,0,0,0l-.37.18h0l-.53.21h0l-.55.11h0l-.33.07h0l-.16,0s0,0,0,0l-.32,0c-.1,0,.14.41.28.4a2.83,2.83,0,0,0,.42-.07v0h.07a2,2,0,0,1,.35-.07s0,0,0,0h0l.54-.1s0,0,0,0h0l.54-.21v0h0l.37-.18s0,0,0,0h0L61,78.2v0h.05a4.35,4.35,0,0,0,.42-.33h0a2.91,2.91,0,0,1,.43-.43s0,0,.06,0a7.17,7.17,0,0,0,.68-.67,0,0,0,0,1,0,0h0a11.83,11.83,0,0,0,.82-1.26s0,0,0,0h0a5.44,5.44,0,0,0,.37-.86s0-.06,0-.1a2.44,2.44,0,0,0,.3-.91.19.19,0,0,0,0-.08A7,7,0,0,0,64.29,72a.08.08,0,0,0,0,0c.06,0,.11-.1.1-.14-.07-.38-.15-.76-.19-1.14a4.08,4.08,0,0,0-.14-1h0c-.06-.36-.12-.73-.2-1.09h0c-.15-.52-.27-1-.39-1.58h0l0-.12h0a13.07,13.07,0,0,0,1.77,0,1,1,0,0,0,.48.21c.89.08,1.71.46,2.6.56s1.56,0,2.34.06a.76.76,0,0,0,.48.2,3.81,3.81,0,0,0,1.65-.18c.47-.31.38-1,.44-1.46A41.27,41.27,0,0,1,74,61.67a1.5,1.5,0,0,0-.37-1c.1-.42.19-.84.31-1.26a1.18,1.18,0,0,0-.22-.8,17.91,17.91,0,0,0,.48-3A.75.75,0,0,0,74,55.1c0-.18.08-.36.13-.54a1.58,1.58,0,0,0,0-1.27c.18-.75.34-1.51.47-2.27a.58.58,0,0,0-.23-.6,2.59,2.59,0,0,0,.17-.78,9.61,9.61,0,0,1,.2-1.51l0,.18a1.15,1.15,0,0,0-.1-.87L75,45.33a.41.41,0,0,0,0-.11.38.38,0,0,0,0-.1,16.35,16.35,0,0,0,.29-2.88.66.66,0,0,0-.07-.36s0-.05,0-.08c.06-.64.16-1.28.28-1.91,0-.14.07-.29.1-.43.16-.58.27-1.18-.25-1.49a9.88,9.88,0,0,0,.19-1.11,2.43,2.43,0,0,0,.39-1.3c0-.48-.08-1-.11-1.43a3.31,3.31,0,0,0,.16-.82c.07-1.88.17-3.75.3-5.62a25.6,25.6,0,0,0,1-5.9.77.77,0,0,0-.38-.8c.25-1.72.52-3.43.93-5.09C78,15.13,77.86,14.7,77.54,14.49Z" transform="translate(-7.67 -9.12)" style="fill-rule:evenodd"/><path d="M54.68,84.28h0c0-.06,0-.11,0-.11-.52,0-1,0-1.55-.08a.88.88,0,0,0-.47.23,2.49,2.49,0,0,1-1-.36c-.23-.12-1,.48-.77.6a3,3,0,0,0,1.7.4,5.57,5.57,0,0,0,1.91-.17C54.67,84.71,55.28,84.06,54.68,84.28Z" transform="translate(-7.67 -9.12)" style="fill-rule:evenodd"/><path d="M75.62,11.09a1.4,1.4,0,0,0-.66.14,1,1,0,0,0-.3,0,.68.68,0,0,0-.29,0l-.4.05a.62.62,0,0,0-.28,0c-.57,0-1.13,0-1.7,0a31.19,31.19,0,0,0-7.22-.42,3,3,0,0,0-.59.13,2.77,2.77,0,0,0-.81-.31,2.71,2.71,0,0,0-1.51.33,22.68,22.68,0,0,0-2.87-.1l-.15,0a4.53,4.53,0,0,0-1.91,0h-.35c-.25,0-.51-.06-.78-.07a14.36,14.36,0,0,1-3.62-.55c-.54-.15-.82-.06-1,.16h-.1c-.37,0-.78,0-1.19,0a6.77,6.77,0,0,0-1-.15H47.52c-.41-.14-1.3-.5-1.69-.05a.16.16,0,0,0,0,.07H45c-1.28-.14-2.58-.18-3.92-.31a1.13,1.13,0,0,0-.84.16l-1.66-.13H38.5a19.63,19.63,0,0,0-3.35-.37A14.65,14.65,0,0,0,32.7,10l-.5,0a1.51,1.51,0,0,0-1.14,0,18.3,18.3,0,0,1-2.33-.13c-.87-.33-1.9-.5-1.81.5a.63.63,0,0,0-.18.49V12a.66.66,0,0,0,0,.15,26.63,26.63,0,0,0-.05,4.64,4.43,4.43,0,0,0-.13,1,.47.47,0,0,0-.38.33c-.22.23-.17.57-.1,1l.24,1.34s0,.07,0,.1c0,.4-.06.8-.07,1.21a7.36,7.36,0,0,0-.24.8,16.57,16.57,0,0,0-.46,4c0,.12-.05.24-.06.36s0,.31,0,.46a16,16,0,0,0-.22,3.32,1,1,0,0,0,0,.17,27.27,27.27,0,0,0-.93,5.24,1.14,1.14,0,0,0,.19.85,42,42,0,0,0-.39,4.37c-.14.84-.26,1.68-.36,2.53-.08.68-.19,1.37-.22,2.06s-.3,1.58-.46,2.37a1.81,1.81,0,0,0,0,.55,47.15,47.15,0,0,0-.76,7.69,2,2,0,0,0,.05.47c-.08.18-.17.35-.23.53A3,3,0,0,0,22,59.58c0,.05,0,.1,0,.15,0,.33.13.9.62.81.19,0,.37-.08.55-.12a27.29,27.29,0,0,0,5.09.74,11.18,11.18,0,0,0,2,.47A23,23,0,0,0,34,62a4.53,4.53,0,0,0,.92.16.79.79,0,0,0,.47.21c1.77.24,3.55.42,5.33.56l.47.09a6.83,6.83,0,0,0,2.67.73,27.44,27.44,0,0,0,3.25.39,1,1,0,0,0,.38,0,12.92,12.92,0,0,0,4.57.62.78.78,0,0,0,.47.19l.82.05a12.79,12.79,0,0,0,2.66.63,8.7,8.7,0,0,0,2.64.08,1.52,1.52,0,0,0,.72.28c.49.11,1,.13,1.52.19l.46,0a8.85,8.85,0,0,0,.87.16h.15a.41.41,0,0,0,.18.19,3.67,3.67,0,0,0,3.07.23,11.39,11.39,0,0,0,4.74.8.48.48,0,0,0,.35-.16.65.65,0,0,0,.41-.21,1.11,1.11,0,0,0,0-1.14c0-.25,0-.51,0-.76a.8.8,0,0,0,.23-.46c0-.14,0-.29.07-.43a.63.63,0,0,0,.31-.53l.44-4.55a1.76,1.76,0,0,0-.17-.81.05.05,0,0,1,0,0,7.41,7.41,0,0,0,.45-5c.08-.55.14-1.09.19-1.64a11.58,11.58,0,0,0,.13-2.88,10.1,10.1,0,0,0,.91-3.08,30.38,30.38,0,0,0,0-5.56c0-.47,0-1,0-1.62A4.45,4.45,0,0,0,74,37.18c0-3.22.59-6.26.55-9.43a15.08,15.08,0,0,0,.76-6.19l.49-3a1.07,1.07,0,0,0-.09-.77,12.14,12.14,0,0,0,.14-3,.5.5,0,0,0-.14-.32c.18-.74.37-1.48.56-2.22A.8.8,0,0,0,75.62,11.09Z" transform="translate(-7.67 -9.12)" style="fill-rule:evenodd;fill:url(#linear-gradient)"/><path d="M77.9,12.62a.9.9,0,0,0-.05-.19,1.32,1.32,0,0,0-.28-.77.28.28,0,0,0-.27-.09.37.37,0,0,0-.25-.2c-.29,0-.54.39-.63.58A5.41,5.41,0,0,0,76,15.1l.13.77c0,.19-.06.35-.07.43,0,.26-.07.52-.09.79s-.08.29-.11.42a6,6,0,0,0-.16,1.86,8,8,0,0,0-.27,1.74c-.05,2.05-.16,4.09-.33,6.14a3.35,3.35,0,0,0,0,.64A7,7,0,0,0,74.88,30c0-.58-.09.13-.14.34-.14.52-.31,1-.43,1.56-.18.81-.54,2.34,0,3.2a5,5,0,0,0-.1.58l-.45,5A9.21,9.21,0,0,0,73.66,42c0,.36-.07.68-.08.85,0,1.1-.13,2.18-.26,3.27-.07.31-.11.58-.13.68-.17,1.19-.32,2.38-.45,3.58a8.85,8.85,0,0,0-.06,1.3c0,.12,0,.24,0,.31-.08,1.34-.18,2.67-.32,4a5.87,5.87,0,0,0,0,1.74c0,.27,0,.55-.08.82a5.75,5.75,0,0,0-.17.88,42.18,42.18,0,0,0-.48,5c-.08.32-.12.6-.14.72-.1.59-.16,2.91.88,2.53a.31.31,0,0,0,.31,0c.71-.36.91-2,.9-2.67,0-.25,0-.5,0-.76a3.12,3.12,0,0,0-.18-1.59l-.08-.12v0c0-.32.07-.64.11-1l.06-.56a5,5,0,0,0,.12-.66,47.75,47.75,0,0,0,.52-5.47,6.84,6.84,0,0,0,0-.85c.09-1,.16-2,.22-3a4.37,4.37,0,0,0,0-.54c.1-1,.23-2,.36-2.92a5.68,5.68,0,0,0,.15-.78c.21-1.63.35-3.26.41-4.9a5.54,5.54,0,0,0,0-.69c0-.13,0-.25,0-.31l.45-5c0-.07,0-.17,0-.29a5.75,5.75,0,0,0,.57-2.39A29.41,29.41,0,0,1,76.75,30c.13-.63.49-2.28-.13-2.79,0-.39.08-.74.1-.92.14-1.65.23-3.3.29-5,0-.19.06-.36.07-.44a18,18,0,0,0,.39-3.09,6.71,6.71,0,0,0,.1-1V16.5a4.23,4.23,0,0,0,.06-.73,7.51,7.51,0,0,0,.23-1.06l0-.48A5.11,5.11,0,0,0,77.9,12.62Z" transform="translate(-7.67 -9.12)" style="fill-rule:evenodd;fill:url(#linear-gradient-2)"/><path d="M53.79,73.37a.29.29,0,0,0-.27-.11l-.19-.16c-.06-.24-.16-.53-.4-.57a2.09,2.09,0,0,0-.34-1.23c-.05-.06-.08-.13-.13-.19v0l0-.26c0-.09,0-.19,0-.28s0-.1,0-.15,0-.12,0-.17c-.1-.32-.18-.64-.27-1,0-.15,0-.31,0-.44,0-.71-.11-1.42-.2-2.12v-.1c0-.33,0-2.07-.72-1.69A.87.87,0,0,0,51,65a.35.35,0,0,0-.11-.13,1.5,1.5,0,0,0-1.24-.31.71.71,0,0,0-.16.07,3.22,3.22,0,0,0-.62,0,1.9,1.9,0,0,0-.57-.1l-.24-.09a5.77,5.77,0,0,0-1.91-.77,2.08,2.08,0,0,0-1,0,.76.76,0,0,0-.25.18,5.43,5.43,0,0,1-1.39-.2.16.16,0,0,0-.13,0l-.65-.35c-.3-.16-.91,1.9-.3,2.23l.53.28c0,.27,0,.78.31.75a5.25,5.25,0,0,0-.07,1.24c0,.33.23,1.25.62,1.18a7.9,7.9,0,0,0,.82,3.38,3.55,3.55,0,0,0,.23,1.24,3.17,3.17,0,0,0,.28.55s0,0,0,.08c0,.72.14,1.32.55,1.48.18.06.34.28.51.38a.72.72,0,0,0,.75,0,9,9,0,0,0,1.37.16,5.9,5.9,0,0,0,1.14.42l.38.1c.19.07.4.12.58.17l1.51.41c.11,0,.23-.05.33-.16a7.63,7.63,0,0,0,.59.53c.62.54,1.08-1.15,1.14-1.43C54.16,75.47,54.43,74.09,53.79,73.37Z" transform="translate(-7.67 -9.12)" style="fill-rule:evenodd;fill:url(#linear-gradient-3)"/><path d="M50.31,76.83a8.88,8.88,0,0,0-.89,0,.1.1,0,0,0-.07-.08,15,15,0,0,0-1.78-.26l-.33,0c-.6-.11-1.19-.23-1.78-.36A1.52,1.52,0,0,0,44.8,76s-.09,0-.12.11A2.49,2.49,0,0,0,44,76c-.93-.08-1.85-.15-2.78-.18a.12.12,0,0,0-.09.06c-.32,0-.64-.08-1-.1s-.27.74-.1.74c.54,0,1.07.1,1.6.16a17.66,17.66,0,0,0,2.16.35l1.2.28c0,.1,0,.18.09.2,1.5.53,3.49,0,5.07,0C50.4,77.59,50.48,76.84,50.31,76.83Z" transform="translate(-7.67 -9.12)" style="fill-rule:evenodd;fill:url(#linear-gradient-4)"/><path d="M45.46,77.79H45c0-.13,0-.24-.1-.26-.76-.12-1.53-.27-2.28-.44,0,0,0,0-.06,0-2-.38-3.9-.73-5.87-1-.18,0-.28.72-.1.75q3.73.54,7.44,1.32c0,.19,0,.37.08.37h1.27C45.55,78.53,45.62,77.79,45.46,77.79Z" transform="translate(-7.67 -9.12)" style="fill-rule:evenodd;fill:url(#linear-gradient-5)"/><path d="M54.39,77.86c-2.78.24-5.56-.44-8.33-.07-.22,0-.24.76-.11.75,2.78-.37,5.56.3,8.34.06C54.5,78.58,54.53,77.85,54.39,77.86Z" transform="translate(-7.67 -9.12)" style="fill-rule:evenodd;fill:url(#linear-gradient-6)"/><path d="M58.88,82.85a3.36,3.36,0,0,0-.26-.54s0,0,0,0l-.15-.23s0,0,0,0-.11-.12-.16-.19a0,0,0,0,0,0,0s0,0,0-.05L58,81.68s-.07,0-.1.08a.21.21,0,0,0,0-.17l-.16-.14c-.08-.07-.21.38-.11.47l.16.14s.06,0,.09-.09a.24.24,0,0,0,0,.18l.25.17s0,0,0,0,0,0,0,0l.21.25s0,0,0,0l.07.1h0c0,.1.23.45.24.47C58.77,83.42,58.91,83,58.88,82.85Z" transform="translate(-7.67 -9.12)" style="fill-rule:evenodd;fill:url(#linear-gradient-7)"/><path d="M57.55,81.35l-.15-.09c-.1-.07-.22.4-.11.47l.19.11C57.54,81.88,57.68,81.42,57.55,81.35Z" transform="translate(-7.67 -9.12)" style="fill-rule:evenodd;fill:url(#linear-gradient-8)"/><path d="M64.21,72c0-.15,0-.29,0-.44s0-.13,0-.15,0-.26-.07-.39a.61.61,0,0,0,0-.22,6.5,6.5,0,0,1-.15-.9.45.45,0,0,0,0-.11c0-.05,0-.11,0-.16a.2.2,0,0,1,0-.07l0,0c-.1-.42-.23-.82-.36-1.22v0a.23.23,0,0,0,0-.1.14.14,0,0,1,0-.06,6.91,6.91,0,0,0-.15-.91h0c.12,0,.2-.47.07-.5l-.56-.08c-.12,0-.19.48-.07.5h.09s0,0,0,0h0s0,0,0,0h0a.33.33,0,0,0,0,.1c.11.4.19.8.26,1.2,0,.1.06.07.09,0a.78.78,0,0,0,0,.16c0,.1,0,.12,0,.11.06.5.13,1,.21,1.51,0,.12.07.06.11,0v0a.45.45,0,0,0-.05.24,7.21,7.21,0,0,1,.14,2.4.34.34,0,0,0,0,.2,6.33,6.33,0,0,1-.67,1.9.45.45,0,0,0,0,.28,6.73,6.73,0,0,1-.54.94h0s0,0,0,0A5.87,5.87,0,0,1,61,77.76v0s0,0,0,0a5.82,5.82,0,0,1-2.86.88s-.07.06-.09.13a3.84,3.84,0,0,0-.69.15s0,0,0,.06,0,0,0,0c-.25,0-.48.14-.72.21,0,0,0,0,0,0a1.69,1.69,0,0,0-.41.29.08.08,0,0,0,0,0s0,0,0,0-.1.11-.15.16h0l-.12.12h0a.43.43,0,0,0-.07.47v0s0,0,0,0h0s0,0,0,0a1.53,1.53,0,0,0,.72,1s0,0,.06,0,0,.06,0,.07l.23.15c.1.07.22-.39.11-.47a1.82,1.82,0,0,0-.23-.15s0,0-.06,0,0-.06,0-.07-.73-.5-.66-.72c0,0,.06-.08.1-.1a.2.2,0,0,0,0-.08s0,0,.06,0a1.74,1.74,0,0,1,.36-.24h0c.23-.06.45-.15.68-.2,0,0,.05,0,.06-.07s0,0,0,0a4.06,4.06,0,0,1,.84-.18.17.17,0,0,0,.08-.1,6,6,0,0,0,2.72-.88s0,0,0,0l0,0a6.2,6.2,0,0,0,1.65-1.66h0s0,0,0,0l.26-.43h0a4.07,4.07,0,0,0,1-2.06s.1,0,.13-.18,0-.41.07-.61a.62.62,0,0,0,0-.1,9.43,9.43,0,0,0,.18-1C64.31,72,64.26,71.94,64.21,72Z" transform="translate(-7.67 -9.12)" style="fill-rule:evenodd;fill:url(#linear-gradient-9)"/><path d="M56.83,83.29l-.34.07c0-.14,0-.27-.12-.31a9.11,9.11,0,0,0-3.65-.38c-.62,0-2,0-2.47.54a.93.93,0,0,0-.09.91c.47.65,2.29.48,3,.52a12.57,12.57,0,0,0,3.56-.36C57,84.21,57,83.25,56.83,83.29Z" transform="translate(-7.67 -9.12)" style="fill-rule:evenodd;fill:url(#linear-gradient-10)"/><path d="M48.28,81.56H34.58c-.07,0-.11.13-.12.26s0,.31,0,.31H48.21c.08,0,.12-.18.12-.32S48.33,81.56,48.28,81.56Z" transform="translate(-7.67 -9.12)" style="fill-rule:evenodd;fill:url(#linear-gradient-11)"/><path d="M34.15,81.29,18.45,78.1s0,0,0,0c-3.45-.65-6.88-1.42-10.3-2.23-.21,0-.39.93-.14,1,3.34.79,6.7,1.54,10.07,2.18a.1.1,0,0,0,.05,0L34,82.28C34.24,82.33,34.41,81.34,34.15,81.29Z" transform="translate(-7.67 -9.12)" style="fill-rule:evenodd;fill:url(#radial-gradient)"/><path d="M44.81,80.56c-2.19-.29-4.38-.65-6.55-1.11a27.72,27.72,0,0,0-4-.74l-.58-.13c-.07,0-.13,0-.19.09L33,78.45s-.08,0-.13.06a1.6,1.6,0,0,0-.26-.08A8.52,8.52,0,0,0,31.27,78c-.05,0-.09,0-.14.05a8.12,8.12,0,0,1-1-.13A.17.17,0,0,0,30,78l-.32-.1a.16.16,0,0,0-.16.06l-.17,0h-.07l-.43-.08a0,0,0,0,0-.05,0,2.4,2.4,0,0,0-1-.32l-.09,0-1.23-.23s0,0-.05,0l-.3,0h0s-.05-.07-.09-.09a10.08,10.08,0,0,0-1.94-.44.18.18,0,0,0-.1,0l-.62-.11a0,0,0,0,1,0,0,2.8,2.8,0,0,0-.31-.09s-.06,0-.1,0a.24.24,0,0,0-.09-.08l-.71-.21c-.05,0-.1,0-.15.06a6.06,6.06,0,0,0-1-.15s0,0-.06,0l-.46-.06a3.69,3.69,0,0,1-.42-.17c-.05,0-.1,0-.15.09a.16.16,0,0,0-.14-.09,6.28,6.28,0,0,1-1.13-.16c-.09,0-.18.06-.26.19h-.29a.23.23,0,0,0-.16.08,2.46,2.46,0,0,0-.66,0,1.34,1.34,0,0,0-.78-.09l-.12.06a1.51,1.51,0,0,0-.3,0c-.28,0-.56,0-.83,0s-.61-.19-.78-.06a.21.21,0,0,0-.06.08c0-.1-.39-.09-.49-.1s-.23,0-.28.07a.92.92,0,0,0-.64,0,.19.19,0,0,0-.12.09,1.48,1.48,0,0,0-.67-.1,2,2,0,0,1-.54,0,5.18,5.18,0,0,0-.66-.14c-.2,0-.85-.11-.78.24s.82.46,1.1.51l0,0a3,3,0,0,0,.77.24,3.84,3.84,0,0,0,.54.13,3.62,3.62,0,0,0,.57,0l.27,0L14,77a.37.37,0,0,0,.29-.08c.15,0,.31.07.47.09l.16,0a4.17,4.17,0,0,0,.73.27,8.69,8.69,0,0,0,1.43.23,2.48,2.48,0,0,0,.58.15c0,.1.08.18.16.18h.4c0,.13.1.2.18.2l.84,0s0,.06.06.07a3.91,3.91,0,0,0,.87.25c.09,0,.17-.06.24-.17h0s.08.1.14.1a7.62,7.62,0,0,1,.81.14l.43.16a.38.38,0,0,0,.12.1l.22,0,.07,0s0,0,0,0a6.52,6.52,0,0,0,1.25.2h0c0,.07.08.12.14.13l1.59.32s.05,0,.08,0a6.4,6.4,0,0,0,1.08.17l.07,0,.9.26a.18.18,0,0,0,.15,0l.19,0a4.73,4.73,0,0,1,.62.25s.08,0,.12,0l.36.11c.06,0,.12,0,.19-.1l.12,0h0l.95.26a.15.15,0,0,0,.12,0l.59.13a.63.63,0,0,0,.12.11,3.73,3.73,0,0,0,2.07.6.31.31,0,0,0,.2-.11c.29.11.65.16.87.23,0,0,.07,0,.1,0l.1,0a.15.15,0,0,0,.15,0h0a1.58,1.58,0,0,0,.65,0,25,25,0,0,0,2.59,0,1.16,1.16,0,0,0,.35,0,4.74,4.74,0,0,0,1.72-.07,2.82,2.82,0,0,0,1.38-.07,14.09,14.09,0,0,0,2.83.12c.15,0,.23,0,.26-.08l1,.14C46.54,81.5,45.62,80.67,44.81,80.56Z" transform="translate(-7.67 -9.12)" style="fill-rule:evenodd;fill:url(#radial-gradient-2)"/></g><g id="Highlights"><path d="M72.4,55.43c0-.06,0-.12,0-.18Q50,32.81,27.51,10.35c-.23,3.24-1.06,6.42-1.58,9.66-.64,4-.13,8.42-1.18,12.36a12.88,12.88,0,0,1-.59,1.72l31,31c5.37.74,10.77,1.76,16.11,2.8C71.53,63.73,72.22,59.48,72.4,55.43Z" transform="translate(-7.67 -9.12)" style="fill:#fff;fill-rule:evenodd;mix-blend-mode:overlay"/><path d="M73.62,37.07Q60.06,23.53,46.52,10c-2.79.11-5.57.13-8.37.08L72.77,44.66A58.93,58.93,0,0,1,73.62,37.07Z" transform="translate(-7.67 -9.12)" style="fill:#fff;fill-rule:evenodd;mix-blend-mode:overlay"/></g><g id="Lines"><path d="M21.84,60.23l49.44,7.58,5-56.59L27.18,9.51Z" transform="translate(-7.67 -9.12)" style="fill:none;stroke:#231f20;stroke-miterlimit:10;stroke-width:0.75px;fill-rule:evenodd"/><path d="M76.3,11.38l1.7.29-4.82,56h-2" transform="translate(-7.67 -9.12)" style="fill:none;stroke:#231f20;stroke-miterlimit:10;stroke-width:0.75px;fill-rule:evenodd"/><path d="M42,63.16l3.4,12.73H36.31V77l9.36,1.7h9.07L51.91,65.14" transform="translate(-7.67 -9.12)" style="fill:none;stroke:#231f20;stroke-miterlimit:10;stroke-width:0.75px;fill-rule:evenodd"/><path d="M51.05,64.86l2.84,12.73H45.67l-9.36-1.7" transform="translate(-7.67 -9.12)" style="fill:none;stroke:#231f20;stroke-miterlimit:10;stroke-width:0.75px;fill-rule:evenodd"/><path d="M53.89,77.59l-8.51-1.7" transform="translate(-7.67 -9.12)" style="fill:none;stroke:#231f20;stroke-miterlimit:10;stroke-width:0.75px;fill-rule:evenodd"/><path d="M45.67,78.72V77.59" transform="translate(-7.67 -9.12)" style="fill:none;stroke:#231f20;stroke-miterlimit:10;stroke-width:0.75px;fill-rule:evenodd"/><path d="M34.32,82.32,7.92,76.8v-1l26.4,5.52Z" transform="translate(-7.67 -9.12)" style="fill:none;stroke:#231f20;stroke-miterlimit:10;stroke-width:0.5px;fill-rule:evenodd"/><path d="M34.32,82.32H48.48v-1H34.32" transform="translate(-7.67 -9.12)" style="fill:none;stroke:#231f20;stroke-miterlimit:10;stroke-width:0.5px;fill-rule:evenodd"/><path d="M48.48,81.36,20.16,75.84H7.92" transform="translate(-7.67 -9.12)" style="fill:none;stroke:#231f20;stroke-miterlimit:10;stroke-width:0.5px;fill-rule:evenodd"/><path d="M62.88,67a24.16,24.16,0,0,1,1,5c.07,2.13-1.43,6.09-5.52,6.72-3.49.5-3.25,1.73-1.44,2.64s2.73,2.51.24,2.64" transform="translate(-7.67 -9.12)" style="fill:none;stroke:#231f20;stroke-miterlimit:10;stroke-width:0.25px;fill-rule:evenodd"/><path d="M63.37,67a24.44,24.44,0,0,1,.95,5c.07,2.13-1.42,6.33-5.49,7s-3.22,1.49-1.43,2.4,2.24,2.75-.24,2.88" transform="translate(-7.67 -9.12)" style="fill:none;stroke:#231f20;stroke-miterlimit:10;stroke-width:0.25px;fill-rule:evenodd"/><path d="M57.12,84c0-.39-.47-1.35-3.76-1.61s-3.9,1.62-3.27,1.94a5.8,5.8,0,0,0,3.62.64C55.94,84.79,57.08,84.35,57.12,84Z" transform="translate(-7.67 -9.12)" style="fill:none;stroke:#231f20;stroke-miterlimit:10;stroke-width:0.75px;fill-rule:evenodd"/></g></g></svg>