<svg xmlns="http://www.w3.org/2000/svg" xmlns:xlink="http://www.w3.org/1999/xlink" viewBox="0 0 627.77 168.33"><defs><linearGradient id="linear-gradient" x1="509.33" y1="150.06" x2="509.33" y2="94.53" gradientUnits="userSpaceOnUse"><stop offset="0" stop-color="#db4b3a"/><stop offset="0.24" stop-color="#c03933"/><stop offset="0.54" stop-color="#a3272d"/><stop offset="0.8" stop-color="#921c28"/><stop offset="1" stop-color="#8c1827"/></linearGradient><linearGradient id="linear-gradient-2" x1="331.03" y1="154.46" x2="331.03" y2="96" gradientUnits="userSpaceOnUse"><stop offset="0" stop-color="#d14b3b"/><stop offset="0.49" stop-color="#b13834"/><stop offset="0.99" stop-color="#8c222b"/></linearGradient><linearGradient id="linear-gradient-3" x1="147.5" y1="154.78" x2="147.5" y2="95.77" xlink:href="#linear-gradient-2"/><linearGradient id="linear-gradient-4" x1="615.79" y1="151.7" x2="615.79" y2="151.66" xlink:href="#linear-gradient-2"/><linearGradient id="linear-gradient-5" x1="611.89" y1="152.57" x2="611.89" y2="44.77" xlink:href="#linear-gradient-2"/><linearGradient id="linear-gradient-6" x1="42.14" y1="155.92" x2="42.14" y2="41.47" xlink:href="#linear-gradient-2"/><linearGradient id="linear-gradient-7" x1="551.47" y1="66.43" x2="616.22" y2="66.43" gradientUnits="userSpaceOnUse"><stop offset="0" stop-color="#c0453a"/><stop offset="0.99" stop-color="#942c31"/></linearGradient><linearGradient id="linear-gradient-8" x1="388.34" y1="70.79" x2="388.76" y2="70.79" gradientUnits="userSpaceOnUse"><stop offset="0" stop-color="#b23834"/><stop offset="0.99" stop-color="#f26a42"/></linearGradient><linearGradient id="linear-gradient-9" x1="388.27" y1="70.88" x2="388.34" y2="70.88" xlink:href="#linear-gradient-8"/><linearGradient id="linear-gradient-10" x1="60.24" y1="84.17" x2="584.92" y2="84.17" xlink:href="#linear-gradient-8"/><linearGradient id="linear-gradient-11" x1="36.03" y1="63.05" x2="86.15" y2="63.05" gradientUnits="userSpaceOnUse"><stop offset="0" stop-color="#b84138"/><stop offset="0.98" stop-color="#902a30"/></linearGradient><linearGradient id="linear-gradient-12" x1="563.67" y1="289.98" x2="65.73" y2="2.5" gradientUnits="userSpaceOnUse"><stop offset="0" stop-color="#693815"/><stop offset="0.09" stop-color="#763f19"/><stop offset="0.23" stop-color="#81461d"/><stop offset="0.43" stop-color="#884a1f"/><stop offset="0.99" stop-color="#8a4b20"/></linearGradient><linearGradient id="linear-gradient-13" x1="617.54" y1="169.64" x2="617.54" y2="158.94" gradientUnits="userSpaceOnUse"><stop offset="0" stop-color="#682f12"/><stop offset="0.65" stop-color="#482807"/><stop offset="0.99" stop-color="#362400"/></linearGradient><linearGradient id="linear-gradient-14" x1="600.05" y1="163.44" x2="609.53" y2="163.44" gradientUnits="userSpaceOnUse"><stop offset="0" stop-color="#623a15"/><stop offset="1" stop-color="#433414"/></linearGradient><linearGradient id="linear-gradient-15" x1="33.92" y1="169.91" x2="53.2" y2="169.91" xlink:href="#linear-gradient-14"/><linearGradient id="linear-gradient-16" x1="33.42" y1="169.91" x2="53.7" y2="169.91" gradientUnits="userSpaceOnUse"><stop offset="0" stop-color="#4f3a1c"/><stop offset="1" stop-color="#433414"/></linearGradient><linearGradient id="linear-gradient-17" x1="52.4" y1="169.19" x2="63.44" y2="169.19" xlink:href="#linear-gradient-16"/><linearGradient id="linear-gradient-18" x1="551.82" y1="34.15" x2="551.88" y2="34.15" xlink:href="#linear-gradient-7"/><linearGradient id="linear-gradient-19" x1="544.1" y1="40.84" x2="554.08" y2="40.84" xlink:href="#linear-gradient-7"/><linearGradient id="linear-gradient-20" x1="389.51" y1="44.14" x2="389.54" y2="44.14" xlink:href="#linear-gradient-7"/><linearGradient id="linear-gradient-21" x1="316.45" y1="49.32" x2="391.59" y2="49.32" xlink:href="#linear-gradient-7"/><linearGradient id="linear-gradient-22" x1="387.8" y1="51.68" x2="404.28" y2="51.68" xlink:href="#linear-gradient-7"/><linearGradient id="linear-gradient-23" x1="232.73" y1="51.36" x2="322.43" y2="51.36" xlink:href="#linear-gradient-7"/><linearGradient id="linear-gradient-24" x1="247.04" y1="58.46" x2="285.98" y2="58.46" gradientUnits="userSpaceOnUse"><stop offset="0" stop-color="#f68b62"/><stop offset="0.99" stop-color="#c06340"/></linearGradient><linearGradient id="linear-gradient-25" x1="220.78" y1="52.75" x2="234.85" y2="52.75" gradientUnits="userSpaceOnUse"><stop offset="0" stop-color="#ef4444"/><stop offset="0.99" stop-color="#682f12"/></linearGradient><linearGradient id="linear-gradient-26" x1="56.93" y1="49.32" x2="234.89" y2="49.32" gradientUnits="userSpaceOnUse"><stop offset="0" stop-color="#f15844"/><stop offset="0.99" stop-color="#aa1e2e"/></linearGradient><linearGradient id="linear-gradient-27" x1="526.24" y1="19" x2="526.67" y2="19" gradientUnits="userSpaceOnUse"><stop offset="0" stop-color="#f16458"/><stop offset="0.99" stop-color="#aa1e23"/></linearGradient><linearGradient id="linear-gradient-28" x1="398.5" y1="44.49" x2="554.38" y2="44.49" xlink:href="#linear-gradient-27"/><linearGradient id="linear-gradient-29" x1="49.04" y1="61.82" x2="238.12" y2="61.82" gradientUnits="userSpaceOnUse"><stop offset="0" stop-color="#231f20"/><stop offset="0.99" stop-color="#231f20"/></linearGradient><linearGradient id="linear-gradient-30" x1="265.53" y1="57.62" x2="294.31" y2="57.62" xlink:href="#linear-gradient-29"/><linearGradient id="linear-gradient-31" x1="518.01" y1="49.97" x2="562.36" y2="49.97" xlink:href="#linear-gradient-29"/><linearGradient id="linear-gradient-32" x1="171.53" y1="128.72" x2="239.44" y2="128.72" xlink:href="#linear-gradient-29"/><linearGradient id="linear-gradient-33" x1="551.65" y1="123.57" x2="595.1" y2="123.57" xlink:href="#linear-gradient-29"/><linearGradient id="linear-gradient-34" x1="297.82" y1="51.44" x2="322.94" y2="51.44" xlink:href="#linear-gradient-29"/><linearGradient id="linear-gradient-35" x1="364.15" y1="52.59" x2="392.93" y2="52.59" xlink:href="#linear-gradient-29"/><linearGradient id="linear-gradient-36" x1="369.25" y1="113.18" x2="432.1" y2="113.18" xlink:href="#linear-gradient-29"/><linearGradient id="linear-gradient-37" x1="27.96" y1="134.76" x2="59.93" y2="134.76" xlink:href="#linear-gradient-29"/><linearGradient id="linear-gradient-38" x1="52.28" y1="168.71" x2="64.86" y2="168.71" xlink:href="#linear-gradient-29"/><linearGradient id="linear-gradient-39" x1="57.8" y1="35.1" x2="75.02" y2="35.1" gradientUnits="userSpaceOnUse"><stop offset="0" stop-color="#fff"/><stop offset="0.99" stop-color="#fff"/></linearGradient><linearGradient id="linear-gradient-40" x1="36" y1="37.22" x2="55.14" y2="37.22" xlink:href="#linear-gradient-39"/><linearGradient id="linear-gradient-41" x1="17.2" y1="61.12" x2="30.6" y2="61.12" xlink:href="#linear-gradient-39"/><linearGradient id="linear-gradient-42" x1="19.23" y1="123.64" x2="24.07" y2="123.64" xlink:href="#linear-gradient-39"/><linearGradient id="linear-gradient-43" x1="247.3" y1="56.32" x2="254.15" y2="56.32" xlink:href="#linear-gradient-39"/><linearGradient id="linear-gradient-44" x1="237.37" y1="32.71" x2="257.26" y2="32.71" xlink:href="#linear-gradient-39"/><linearGradient id="linear-gradient-45" x1="319.75" y1="31.24" x2="335.92" y2="31.24" xlink:href="#linear-gradient-39"/><linearGradient id="linear-gradient-46" x1="402.27" y1="22.75" x2="417.35" y2="22.75" xlink:href="#linear-gradient-39"/><linearGradient id="linear-gradient-47" x1="556.61" y1="47.36" x2="598.24" y2="47.36" xlink:href="#linear-gradient-39"/><linearGradient id="linear-gradient-48" x1="592.15" y1="144.71" x2="599.07" y2="144.71" xlink:href="#linear-gradient-39"/><linearGradient id="linear-gradient-49" x1="425.24" y1="145.37" x2="435.79" y2="145.37" xlink:href="#linear-gradient-39"/><linearGradient id="linear-gradient-50" x1="236.46" y1="146.69" x2="247.37" y2="146.69" xlink:href="#linear-gradient-39"/><linearGradient id="linear-gradient-51" x1="58.2" y1="150.21" x2="68.05" y2="150.21" xlink:href="#linear-gradient-39"/></defs><title>Couch</title><g style="isolation:isolate"><g id="Color"><g id="CouchGeneral"><path d="M592.26,140.47c1.89-10.61,3.14-22,1.52-32.78a21.4,21.4,0,0,0-1.89-5.29,2.36,2.36,0,0,0-.13-.2c0-.26-.09-.57-.16-1,0-.14-.07-.28-.1-.42a4.55,4.55,0,0,0-1.72-3.39c-2.76-2.94-7.58-2.87-11.36-2.89a6,6,0,0,0-2.51.5,4.92,4.92,0,0,0-1.44,0q-7.07.87-14.11,1.91a194,194,0,0,0-39.26.6,6,6,0,0,0-2.53-.5c-7.47.06-14.93.46-22.39.86a6.08,6.08,0,0,0-2.93-.85c-11.72-.47-23.41,1.13-35.06-.45a7.56,7.56,0,0,0-1.77,0l-1.53-.33a6.23,6.23,0,0,0-2.64-.06,6,6,0,0,0-3.55-.23c-1.47.33-2.91.64-4.36.89a8.17,8.17,0,0,0-1-.19,37.86,37.86,0,0,0-10.3.51,6.47,6.47,0,0,0-5.58.15l-.22,0a2.89,2.89,0,0,0-2.83,3.54,5.83,5.83,0,0,0,0,3.16,36.1,36.1,0,0,1,1,13.72c-.1.79-.2,1.58-.31,2.38a4.59,4.59,0,0,0,.71,3.2c-.42,2.56-1,5.19-.73,7.63a33.15,33.15,0,0,0,1,5c-.07.12-.15.23-.21.35a5.83,5.83,0,0,0-.6,4.59l.06.16a6.1,6.1,0,0,0,3.93,8.05,9.82,9.82,0,0,0,3.33.34,9.52,9.52,0,0,0,1.11-.18,6.68,6.68,0,0,0,1,.3c4.32.91,9.65-.16,14.08-.41a6,6,0,0,0,2.67.74,196.82,196.82,0,0,0,30.91-.88l.47.2a10.63,10.63,0,0,0,4,.66,6.24,6.24,0,0,0,3.05-.86c.94,0,1.88,0,2.83-.08a119.49,119.49,0,0,0,14.53.35q5.79-.18,11.58-.48a5.87,5.87,0,0,0,3,.69c15.7-.34,31.45-1.13,47.15-.93a108.2,108.2,0,0,1,11.51.8,8.93,8.93,0,0,0,4.4-.31,19.08,19.08,0,0,0,2.19.23c5,.26,6.75-4.79,5.16-8.4C592.21,140.69,592.24,140.59,592.26,140.47Z" transform="translate(-15.58 -8.6)" style="fill:url(#linear-gradient)"/><path d="M425.4,143.18a6.9,6.9,0,0,0,.22-3.32,5.38,5.38,0,0,0,.1-1.44,14.84,14.84,0,0,0-.81-3.95,5.07,5.07,0,0,0,.32-1.11,24,24,0,0,0-.82-12.29,25.3,25.3,0,0,0,.33-2.62,14.44,14.44,0,0,0-.31-5.48v0a15.1,15.1,0,0,0-.26-8.32,9.34,9.34,0,0,0,.3-2.69,6.84,6.84,0,0,0-4.18-6.22,6.4,6.4,0,0,0-3.17-.49,5.24,5.24,0,0,0-2.41-1.36,7.22,7.22,0,0,0-3.27,0,4.54,4.54,0,0,0-2.09,1.1,4.19,4.19,0,0,0-.93.8,9.6,9.6,0,0,0-2.72.27c-1.56-1.07-3.76-.81-5.68-.18a7.36,7.36,0,0,0-1.16-.11,12.92,12.92,0,0,0-3.5.44,3.56,3.56,0,0,0-1.61,1,2.83,2.83,0,0,0-.61.41,23.37,23.37,0,0,0-5.69-.21l-2.44.09a10.14,10.14,0,0,0-2.74-.82c-4.5-.58-8.84.35-13.31.23a3.05,3.05,0,0,0-2.56,1.6,38.6,38.6,0,0,0-8.1.13l-.3-.26-.35-.27a3,3,0,0,0-1.41-.74,5.56,5.56,0,0,0-1.4-.25,6.36,6.36,0,0,0-2.4.38,7.46,7.46,0,0,0-1.81.9,12,12,0,0,0-5.61-.06,18.57,18.57,0,0,0-3.72-.25c-2.62.05-5.27-.34-7.82.37a2.74,2.74,0,0,0-.4.15c-3.68-.56-8,.67-11.82,1.58a11.35,11.35,0,0,0-5.48-.72,20.25,20.25,0,0,1-6.77,0,3.23,3.23,0,0,0-2.47.48,18.2,18.2,0,0,0-3.22-.06,2.52,2.52,0,0,0-.29-.12,17.61,17.61,0,0,0-3-.53,10.72,10.72,0,0,0-4,.2c-3.28-1.36-6.13-1.14-9.66-.88-4.06.29-8.14.2-12.19.68l-.11,0h0c-2.71-.11-5.92-.87-8.55,0-4.5-2.26-11.73-.62-16.31-1.19a2.72,2.72,0,0,0-2.19.6,17.32,17.32,0,0,0-3.22,0,3,3,0,0,0-1.79.87,3.44,3.44,0,0,0-4.57,1.27,5.23,5.23,0,0,0-.55,1.83,3.88,3.88,0,0,0-.23.56,10.43,10.43,0,0,0,.47,7.23c0,.22-.09.43-.12.66a19.17,19.17,0,0,0,.81,8.26,20,20,0,0,0-.42,6.07c0,2.68.11,5.3.25,7.57a6.34,6.34,0,0,0,.76,2.72,7.36,7.36,0,0,0-.92,5.5,9.54,9.54,0,0,0,.85,2.58,2.75,2.75,0,0,0-.16.46,5.84,5.84,0,0,0,.11,3,6,6,0,0,0,4.05,4.29,3.26,3.26,0,0,0,2.05-.15,3,3,0,0,0,1.92.68,54.78,54.78,0,0,0,7.24-.28,19.59,19.59,0,0,0,4.21-.68,20.52,20.52,0,0,0,8.28.31,14.18,14.18,0,0,0,5.1.58c2.5-.1,5.55-.37,7.79-1.73a26.7,26.7,0,0,0,4.81-.07,3.13,3.13,0,0,0,3.3,1.14l.18,0a3.32,3.32,0,0,0,1.67-1.21l2.1.11a49.11,49.11,0,0,0,6.31-.21c2.28,1.34,5.36,1.55,8,1.6a9.62,9.62,0,0,0,5.67-1.45,12.84,12.84,0,0,0,4.54.06c2.46,1,5.43,1.12,7.35-.27l.49-.4c7.93.22,15.86.44,23.79.6,13.47.27,26.95-.72,40.32.59a9.23,9.23,0,0,0,4.21-.52c.32.14.64.27,1,.37a6.87,6.87,0,0,0,3.3.21,3.87,3.87,0,0,0,2-.53l1.15-.49.24-.11a10.5,10.5,0,0,0,7.38,1.15,15.59,15.59,0,0,0,4.92-1.49,6.8,6.8,0,0,0,2.39.44,7.31,7.31,0,0,0,4.25-1.43c.13,0,.26,0,.4,0a7,7,0,0,0,1.39-.15,3.78,3.78,0,0,0,2,.6,4,4,0,0,0,3.92-3.92A4.29,4.29,0,0,0,425.4,143.18Z" transform="translate(-15.58 -8.6)" style="fill:url(#linear-gradient-2)"/><path d="M237,143.68l-.1-.23a10.87,10.87,0,0,0,.24-1.88,7.58,7.58,0,0,0-.5-3.89,20.32,20.32,0,0,0,.15-5.63,6.52,6.52,0,0,0-.77-7.81c0-.15,0-.3,0-.45a57.17,57.17,0,0,0,.55-11.25,13.17,13.17,0,0,0-.53-3,17.33,17.33,0,0,0-.07-2.56s0-.11,0-.16a3.74,3.74,0,0,0,1.05-3.47c-.33-1.74-.84-4-2.64-4.84a2.28,2.28,0,0,0-1.87-.09,4.26,4.26,0,0,0-.53-.51,7.64,7.64,0,0,0-4.79-2.11,3.16,3.16,0,0,0-1.91.64h0a12.94,12.94,0,0,0-2.9-.49A8.67,8.67,0,0,0,217.06,97a3.94,3.94,0,0,0-.45.36,8.34,8.34,0,0,0-2.39-.24,13.7,13.7,0,0,0-4.55,1.18,12.93,12.93,0,0,0-2.8-.71,4.18,4.18,0,0,0-2.8.55,6.12,6.12,0,0,0-2.13-.39c-13-.12-25.92,1.16-38.87,2.15a28.35,28.35,0,0,0-3.71-.78,3.94,3.94,0,0,0-2.8.49,24.87,24.87,0,0,0-8.58-.12,2.28,2.28,0,0,0-1.34.69c-3.38-.17-6.71-.46-10.12-.93a4.82,4.82,0,0,0-.65,0c-4.69-1.56-11.47-1-16.76,0a5.74,5.74,0,0,0-3.29-1,5.92,5.92,0,0,0-2.76.64,30.23,30.23,0,0,0-6.73-.38,6.36,6.36,0,0,0-2.12-.35,6,6,0,0,0-2.28.42l-.49-.13c-3.79-1-8.41-2.9-12-.66a4.3,4.3,0,0,0-.49.38c-3.61-.53-7.22-.92-10.88-1.17a3.83,3.83,0,0,0-2.34.61,4.72,4.72,0,0,0-2.32-.47c-1.54.1-3,.17-4.59.13a4.9,4.9,0,0,0-3.42,1.14,2.55,2.55,0,0,0-1.79.29,2.93,2.93,0,0,0-2.44,0l-.2-.07a2.09,2.09,0,0,0-2.61,2,8.76,8.76,0,0,0,.14,2.18,7.89,7.89,0,0,0,.1,1.74,3.23,3.23,0,0,0-.14.47c-.6,3.44-1.33,6.88-1.1,10.4A4.8,4.8,0,0,0,59,118.92c-.14,2.38-.19,4.72-.13,7.13a12,12,0,0,0,.9,4.45c-.18,2-.45,4.07-.73,6.11h.08a17.56,17.56,0,0,0-.47,2.86,8.94,8.94,0,0,0,.86,4.38c-2.18,2.86-2.31,7.62,1.06,9.51a9.93,9.93,0,0,0,5.8.86,5,5,0,0,0,3.61.36c.35-.11.71-.2,1.06-.3a15.21,15.21,0,0,0,7.29-.58c2.3,1.06,5.41.47,7.76,0h0c2,1.11,4.53,1.14,6.72.94s4.58-.28,6.16-1.64a23.3,23.3,0,0,0,12.68-.88,3.16,3.16,0,0,0,.72.17c3.54.38,7.9,1,11.69.13a11.41,11.41,0,0,0,4,.88,10.75,10.75,0,0,0,5.23-.86h0c2.36.25,4.77.57,6.76-.26a55.27,55.27,0,0,0,6.86.83c3.42.36,7.07.88,10.16-.42l.34.25a4.44,4.44,0,0,0,2.77.73,4.36,4.36,0,0,0,2.15-.63,32.22,32.22,0,0,0,7.31.52,47.67,47.67,0,0,0,9.72-.9,13.85,13.85,0,0,0,5,.45,22,22,0,0,0,3.1-.44c.42,0,.85,0,1.28.06a30.17,30.17,0,0,0,8.4-.61,17.36,17.36,0,0,0,5.33.47,4.3,4.3,0,0,0,2-.68q.66.06,1.32.09c3.9,1,8,.28,12.14.3a4.4,4.4,0,0,0,2.76-1,16.84,16.84,0,0,0,5.21.27l.95.14a4.92,4.92,0,0,0,2.42-.12,3.53,3.53,0,0,0,1.93-1.07,1.58,1.58,0,0,0,.12-.15,4,4,0,0,0,1.13.19,4.56,4.56,0,0,0,3.81-2.19,5.43,5.43,0,0,0,.83-3.43A5.2,5.2,0,0,0,237,143.68Z" transform="translate(-15.58 -8.6)" style="fill:url(#linear-gradient-3)"/><path d="M615.84,151.7l-.09,0Z" transform="translate(-15.58 -8.6)" style="fill:url(#linear-gradient-4)"/><path d="M630.72,131.46a6.66,6.66,0,0,0-.48-3.69v-.57a6,6,0,0,0-.41-2.4c.16-2.6.31-5.21.51-7.81a4.92,4.92,0,0,0-.45-2.49,6.78,6.78,0,0,0-.28-5.3,104,104,0,0,0-.25-18.75c.92-3.84.91-7.92,1.1-11.88.21-4.31.31-8.62.35-12.94a13.91,13.91,0,0,0,1.58-8.35,7.21,7.21,0,0,0-2.81-4.55c-.13-.4-.28-.81-.44-1.21a6.86,6.86,0,0,0-5-4.18,5.7,5.7,0,0,0-3.53-1.11c-.23,0-.44,0-.66,0a11.64,11.64,0,0,0-5.82-.81,12.82,12.82,0,0,0-5.55-.52,6.57,6.57,0,0,0-3.39.14,9.48,9.48,0,0,0-1.3.44l-.32,0a7,7,0,0,0-3.82.79,6,6,0,0,0-2.85,3.51,4.55,4.55,0,0,0-.16,1.7A6.15,6.15,0,0,0,593.56,54a7,7,0,0,0-.49,1.83l.06-.58-.12.9a4.21,4.21,0,0,0,.08.78,7.82,7.82,0,0,0-.51,1.55,8.1,8.1,0,0,0-.07,3.36c-1.36,3.54-2,7.39.11,10.3a20.37,20.37,0,0,0,.33,6.46c-.84,2.94.13,6.85.45,9.59.37,3.06.52,6.48,1.68,9.38a27.83,27.83,0,0,0,0,9.42,6.77,6.77,0,0,0,.32,1.73q0,5.79,0,11.6a6.71,6.71,0,0,0,.18,1.54,6.81,6.81,0,0,0-.28,4.3,6.59,6.59,0,0,0-.47,2.5l0,5.82a11.9,11.9,0,0,0-1.13,3.22,14.38,14.38,0,0,0-.51,4.11,6.22,6.22,0,0,0-.44,5.31,4.29,4.29,0,0,0,.23.63,2.84,2.84,0,0,0,.9,1.57A4.5,4.5,0,0,0,599,151a4,4,0,0,0,.63-.29,12.11,12.11,0,0,0,7.86.49,3.83,3.83,0,0,0,.76-.28,16.13,16.13,0,0,0,5.37,0,5.51,5.51,0,0,0,2,.54c.14.1.23.17.2.17a7,7,0,0,0,.84.34,4.09,4.09,0,0,0,1,.39,4.68,4.68,0,0,0,4.45-1.18l.14-.16,1.29.23c3.76.55,7.57-1.51,7.57-5.77V133.66A6.25,6.25,0,0,0,630.72,131.46Z" transform="translate(-15.58 -8.6)" style="fill:url(#linear-gradient-5)"/><path d="M67.93,79a22.21,22.21,0,0,0-.85-5.32,19,19,0,0,0-.53-5.19,15.2,15.2,0,0,0-1.09-5.13A5.91,5.91,0,0,0,65,60.88a9.85,9.85,0,0,0-2.25-3.5,11.55,11.55,0,0,0-2.3-4,12.57,12.57,0,0,0-2.24-2.07c-.19-.26-.39-.5-.6-.74a11.93,11.93,0,0,0-1.94-1.78,10,10,0,0,0-4.28-4,8.48,8.48,0,0,0-3.87-.89,11.54,11.54,0,0,0-4.9-2.11A10.26,10.26,0,0,0,37,42a11.8,11.8,0,0,0-2.06,0,10,10,0,0,0-1.91.34A15,15,0,0,0,25.2,44a5.55,5.55,0,0,0-2.74,3.59,7.21,7.21,0,0,0-2,1.93,6.79,6.79,0,0,0-.43.74,5.17,5.17,0,0,0-.8.88,17.11,17.11,0,0,0-2.83,8.34,7.32,7.32,0,0,0,.2,2.11,5.57,5.57,0,0,0-.33,1.58c-.1,2.89.78,7,3,9.35A8.44,8.44,0,0,0,21,75.37a3.41,3.41,0,0,0,.38.38A5.19,5.19,0,0,0,24,78.17a5.87,5.87,0,0,0,1.31,2.46,6.16,6.16,0,0,0,1.55,2.76,5.83,5.83,0,0,0,.89.72c0,.48-.08,1-.1,1.44,0,.78-.06,1.61,0,2.45a3.82,3.82,0,0,0-.48,1.24,19.64,19.64,0,0,0,1.07,10.12,6.81,6.81,0,0,0-.15,2.06c-1.93,4.83-1.16,10.39-.53,15.5.37,3.06.63,6.13,1.11,9.15a6.77,6.77,0,0,0,.14,3.86l0,.08c-.38,2.55-1,6.45.15,9.1v.26a5.88,5.88,0,0,0,.37,2l-.07.41a4.62,4.62,0,0,0-.2,1.51,6.22,6.22,0,0,0,.08,3.21,4.55,4.55,0,0,0,0,1.91c0,.05,0,.09,0,.14a5.7,5.7,0,0,0,4,5.64,6.25,6.25,0,0,0,1.46.6,6.8,6.8,0,0,0,3.69,0,9.89,9.89,0,0,0,3.39-.05,2.11,2.11,0,0,0,.34.16,10.29,10.29,0,0,0,3.83.46c.72,0,1.46.06,2.18,0a1.39,1.39,0,0,0,.51.22,10.73,10.73,0,0,0,3.83.28,8.72,8.72,0,0,0,3.87-2.06,3.06,3.06,0,0,0,.74-3.47,12.08,12.08,0,0,0,.89-7.3,5.92,5.92,0,0,0,.25-2.36,6.53,6.53,0,0,0-.19-.9,11.9,11.9,0,0,0,.08-3.94,3.17,3.17,0,0,0,.2-.51,5.5,5.5,0,0,0,.06-2.93,3.32,3.32,0,0,0-.46-1.06c0-.36,0-.73,0-1.08,0-.58,0-1.17,0-1.76a10.57,10.57,0,0,0,0-2,6.72,6.72,0,0,0,.23-1.67,5.51,5.51,0,0,0-.1-2.45,6.16,6.16,0,0,0-.28-.74,6.75,6.75,0,0,0-.22-4.5c0-.88-.1-1.74-.18-2.61a6.44,6.44,0,0,0-.06-1.24.43.43,0,0,1,0,0v0s0-.06,0-.09a4.18,4.18,0,0,0,.22-1.77c0-.32-.06-.65-.11-1,0-.06,0-.11,0-.18.1-3,.21-6,.32-9a6.15,6.15,0,0,0-.11-1.31l.11-1.5.41-.19c.83-.48-1.13.38.38-.26A5.91,5.91,0,0,0,59.85,97a12.45,12.45,0,0,0,1.33-1.29,11.76,11.76,0,0,0,1.58-2.28,6.2,6.2,0,0,0,2.75-3.84,10.88,10.88,0,0,0,1.75-4.43A13,13,0,0,0,67.93,79Z" transform="translate(-15.58 -8.6)" style="fill:url(#linear-gradient-6)"/><path d="M289.44,160.68s0,0,0,0" transform="translate(-15.58 -8.6)" style="fill:none;stroke:#000;stroke-linecap:round;stroke-linejoin:round;stroke-width:0px"/><path d="M615.62,43a4.45,4.45,0,0,0-1-.37h-.07a1.31,1.31,0,0,0-.23-.4,1.42,1.42,0,0,0-1.39-.35,4.47,4.47,0,0,0-.63.16,3.93,3.93,0,0,0-1.58-.48,4.65,4.65,0,0,0-1.91.28,4.54,4.54,0,0,0-1.35-.4,18.56,18.56,0,0,0-2.19-.3c-.68-.13-1.36-.25-2-.33a1.13,1.13,0,0,0,0-.18,1.8,1.8,0,0,0-1.27-1.28c-.8-.17-1.6-.36-2.38-.6a6.13,6.13,0,0,0-2.42-.46,1.58,1.58,0,0,0-1.09.63l-.45-.08A12.93,12.93,0,0,0,589.12,37c-1.75-2.42-5.07-2.49-7.85-3.06s-5.6-1.32-8.37-.89c-1.6-1.56-4.46-1.68-6.59-2-1.74-.25-4.31-1.2-6-.59a1.52,1.52,0,0,0-.41.24l-.09-.06c-1.17-.69-2.53-1.3-3.88-.67a2.33,2.33,0,0,0-1.42,2.4c-2.51,2.1-2.91,6-2.54,9.17a21.9,21.9,0,0,0,1,12.59,44.48,44.48,0,0,0,.17,4.89,2.11,2.11,0,0,0-.16,1,41.4,41.4,0,0,0,2.28,11.06s.05.08.07.13a1.65,1.65,0,0,0-1,1,4.11,4.11,0,0,0,1,3.44c.62.81,1.68,1.89,2.8,1.87a19.19,19.19,0,0,0,3.21,2.44c2.18,1.47,5.25,3.75,7.93,2.89q3,2.05,6,4c2.24,1.43,4.69,3.58,7.36,4.24,1.45,1,3,2,4.31,3a2.37,2.37,0,0,0,.7.37c.23.47.47.94.71,1.41a1.64,1.64,0,0,0,1.84.76l.27.31a4.51,4.51,0,0,0,1.33,3.18,3.55,3.55,0,0,0,1,2.5,1.41,1.41,0,0,0,2.31-.61c.44-1.12-.25-2.25-.76-3.25-.17-.33-.37-.65-.56-1a18,18,0,0,0-.55-2.42.29.29,0,0,1,0-.09,11.14,11.14,0,0,0-.19-3.61c-.15-1-.35-2-.58-2.94a12.71,12.71,0,0,0-.77-6.82,25.17,25.17,0,0,0,.08-6c-.2-2.56-.2-5.33-1.39-7.64,0-.35-.06-.7-.08-1-.1-1.71.44-3.34.46-5.11.27-1,0-2.12.27-3.1.06-.07.1-.16.16-.23a1.27,1.27,0,0,0,.19-.13,2.06,2.06,0,0,0,1.31-1.43,10.34,10.34,0,0,0,.23-2.93,2.28,2.28,0,0,0,1.93-1,3.75,3.75,0,0,0,.47-3.71c.28-.28.55-.57.81-.86a11.77,11.77,0,0,0,1.91-2.45,13.43,13.43,0,0,0,3.43-1.25,2.16,2.16,0,0,0,.61-.49,4.07,4.07,0,0,0,1.27-.39,1.47,1.47,0,0,0,.43-.35l1.27.33a4.63,4.63,0,0,0,2.34.21,2.74,2.74,0,0,0,1.92-.39l.12-.11a10.18,10.18,0,0,0,1.08.08c.33,0,.66-.06,1,0a1.84,1.84,0,0,0,.88-.13,1.61,1.61,0,0,0,.45.17.68.68,0,0,0,.14,0l0,0a2.61,2.61,0,0,0,1.28,1,1.29,1.29,0,0,0,1.69-.44A1.26,1.26,0,0,0,615.62,43Z" transform="translate(-15.58 -8.6)" style="fill-rule:evenodd;fill:url(#linear-gradient-7)"/><path d="M586.53,87.19s0,0,0,0" transform="translate(-15.58 -8.6)" style="fill:none;stroke:#000;stroke-linecap:round;stroke-linejoin:round;stroke-width:0px"/><path d="M388.34,70.86l.42-.14Z" transform="translate(-15.58 -8.6)" style="fill-rule:evenodd;fill:url(#linear-gradient-8)"/><path d="M388.27,70.89l.07,0Z" transform="translate(-15.58 -8.6)" style="fill-rule:evenodd;fill:url(#linear-gradient-9)"/><path d="M583.65,91.32l-.11,0h0a1.27,1.27,0,0,0-.13-.11,3.31,3.31,0,0,0-.47-.29c-.1,0-.42-.33-.1,0a2.37,2.37,0,0,0-.83-.44,6.67,6.67,0,0,0-1.76-.9c-.6-.21-1.2-.39-1.81-.58A7.92,7.92,0,0,0,576.7,88l-.4-.14a3.3,3.3,0,0,0-1.17-1.08A17.25,17.25,0,0,0,571,85.15a5.75,5.75,0,0,0-1.64-1.07c-1.11-.51-2.24-1-3.35-1.48-.52-.23-1-.44-1.59-.66a4.47,4.47,0,0,0-.82-1.32,11.38,11.38,0,0,0-1.27-1.45,21.32,21.32,0,0,0-2-1.52,12.78,12.78,0,0,0-3.76-2.06,3.42,3.42,0,0,0-4,1.72h-.24a4.22,4.22,0,0,0-3,.68,3.59,3.59,0,0,0-.65.64,9.77,9.77,0,0,0-1.94-.16h0a2.32,2.32,0,0,0-.7.09c-2-1.59-4.61-1.61-7.14-1.82a42.66,42.66,0,0,0-8.68.12,12.83,12.83,0,0,0-1.72-.36,9.14,9.14,0,0,0-1.88-.18l-1,.13c.34,0,.27.08-.21.08a3.19,3.19,0,0,0-.63.1,31.85,31.85,0,0,0-5.34-.9c-3-.41-6.1-.89-9.06-.06l-.11,0c-2.79-1.9-7-2.15-10-1.41a2.86,2.86,0,0,0-1.37.78c-.39-.07-.77-.16-1.15-.21-3.62-1.45-8.62-.66-12.44.3a30.33,30.33,0,0,0-13.94.5,48.57,48.57,0,0,0-7.59.3c-3.71-1.73-7.91-1-12.22-.21l-.1,0a10.8,10.8,0,0,0-3.72.39,9.63,9.63,0,0,0-4.1-.48c-1.53.16-3.13.3-4.75.46-2.92-1.69-6.64-1.52-10.16-.57a12.2,12.2,0,0,0-2.74.17c-2.38.39-4.91.71-7.24,1.3a3.1,3.1,0,0,0-1,.44,3.73,3.73,0,0,0-2.59-.17,9.94,9.94,0,0,0-1-.37,3.89,3.89,0,0,0-3.17.08,4.1,4.1,0,0,0-1.4-.55,8.79,8.79,0,0,0-2.17-.12,2.9,2.9,0,0,0-1.77.76h0a1.4,1.4,0,0,0-.61-.57,3.35,3.35,0,0,0-2.22-.37,1.09,1.09,0,0,0-.88,1.39v0a1.28,1.28,0,0,0,.06.33,4.59,4.59,0,0,0-1.7-1.38c-1-.49-2.09-.91-3.14-1.3a3.64,3.64,0,0,0-.38-.66A15.46,15.46,0,0,0,394.59,72a6.9,6.9,0,0,0-2.65-1.52,4.68,4.68,0,0,0-1.74-.13,5.11,5.11,0,0,0-4.32-1.14,6.32,6.32,0,0,0-1.52-.32,6.09,6.09,0,0,0-3.54.8,3.5,3.5,0,0,0-.53.31,54.3,54.3,0,0,0-6.62-.48,32.8,32.8,0,0,0-8,.51l-1.24-.11c-2.08-.18-4.06-.45-5.84.23-4.88-1.1-10.47-.67-15.56,0-5.88-.72-12.56.1-17.27-.31a2.84,2.84,0,0,0-1.2.14,57.65,57.65,0,0,0-9.86-.51,3.19,3.19,0,0,0-.88.17,47.06,47.06,0,0,0-8.93-.92c-3.57-.11-7.48-.36-10.75,1.06a4.06,4.06,0,0,0-2.09-.31,3.68,3.68,0,0,0-1.39.47,2.72,2.72,0,0,0-3.1-.27,3.13,3.13,0,0,0-1,1,2.67,2.67,0,0,0-.3,1.85c-2.62.13-5.58.4-7.85,1.64a3.19,3.19,0,0,0-.75.56,23.58,23.58,0,0,0-5.26-.46c-3.08,0-6.05-.15-8.91,1.12a2.13,2.13,0,0,0-.54.39,12.21,12.21,0,0,0-3.53-.38,14,14,0,0,0-6.19,1.94,2.29,2.29,0,0,0-.28-.09,3.89,3.89,0,0,0-2,.11c-.06-.22-.11-.46-.18-.68,0,0,0,0,0-.07a6.53,6.53,0,0,0-.25-2.88,3.29,3.29,0,0,0-2.68-2.3,3.13,3.13,0,0,0-2.59.82,2.18,2.18,0,0,0-.52-.33,4.74,4.74,0,0,0-3.48-.47,6.4,6.4,0,0,0-1.36.62,5.86,5.86,0,0,0-1.44,1.28,3.27,3.27,0,0,0-1.9.5,3.38,3.38,0,0,0-.36.27,6.08,6.08,0,0,0-1.65,0,5.39,5.39,0,0,0-2.26-1.24,4.27,4.27,0,0,0-3.22.53,8.6,8.6,0,0,0-2.07.06.58.58,0,0,0-.18,0,7.08,7.08,0,0,0-3.37-.85,2.73,2.73,0,0,0-2.63,2.56,3,3,0,0,0-.71.92,15.51,15.51,0,0,0-.88,2.1c-2.09-1-4.66-1-7-1.23-.9-.08-1.79-.16-2.68-.21a2.53,2.53,0,0,0-.81-.34L207,76.17a3.69,3.69,0,0,0-1.5-1.46,13.75,13.75,0,0,0-5-1.37,8.54,8.54,0,0,0-1.13,0,9.44,9.44,0,0,0-3.63-1.26,11.5,11.5,0,0,0-5.22.17,7.43,7.43,0,0,0-6.95-1,10,10,0,0,0-1.08.45,9.11,9.11,0,0,0-3.29.06c-4.3-2.64-11.45-2.24-15.72-1.52a3.57,3.57,0,0,0-2.58,1.59L160,72a3.82,3.82,0,0,0-.91-.53,5.81,5.81,0,0,0-2.78-.53,4.82,4.82,0,0,0-3,1.26,53.83,53.83,0,0,0-5.63.52,20.67,20.67,0,0,0-4.85,1c-4.88-2.66-11.63.12-16.63,1.52a4.35,4.35,0,0,0-1.37.65c-2.29-.76-5,.49-7.2,1.25-.87.31-1.72.62-2.57,1l0,0c-1.82-.57-3.89.14-5.62,1.07a25.26,25.26,0,0,0-2.91.39,79.17,79.17,0,0,0-8.06,1.88l-1.43,0c-3.09-1.33-6.87-2.33-9.73-1a2.57,2.57,0,0,0-1,.88,3.84,3.84,0,0,0-2.3.45,8.25,8.25,0,0,0-2.49,2.07,2.22,2.22,0,0,0-.27.19c-1.65,1.53-3.82,2.67-5.32,4.38a5.5,5.5,0,0,0-1.75.78,3.19,3.19,0,0,0-.71.13,4.26,4.26,0,0,0-2.36,1.89,2.78,2.78,0,0,0-.35.84,2.16,2.16,0,0,0-.75.18,1.62,1.62,0,0,0-.32.17,2.84,2.84,0,0,0-.84-.14H68.6a2.91,2.91,0,0,0-2.84,2.59,1.66,1.66,0,0,0-1.13-.43,2.55,2.55,0,0,0-1.74-.69,2.65,2.65,0,0,0,0,5.3,2.72,2.72,0,0,0,2-.89,1.68,1.68,0,0,0,1-.52l.1-.1a1.9,1.9,0,0,0,.39-.67,2.78,2.78,0,0,0,2.24,1.13h.19a2.93,2.93,0,0,0,2.26-1.15,2.17,2.17,0,0,0,.62.25,2.53,2.53,0,0,0,1.77-.21,4.44,4.44,0,0,0,1,.5,4.24,4.24,0,0,0,3.4-.23l.34-.12a4.14,4.14,0,0,0,1.18-.62,4.37,4.37,0,0,0,.62.17,13.39,13.39,0,0,0,5.53.5,12.6,12.6,0,0,0,3.24-.77,13.08,13.08,0,0,0,1.68-.1,24.8,24.8,0,0,0,5,.43,27.37,27.37,0,0,0,6.13,1,38.76,38.76,0,0,0,8.81.31c3.24,1.33,7.11,1.11,10.47.61a2.68,2.68,0,0,0,.78-.27,11,11,0,0,0,4.87-.54,48.78,48.78,0,0,0,9.83,1.65,4.13,4.13,0,0,0,2.95-.83,17.67,17.67,0,0,0,8.16-.15l.12,0a31.8,31.8,0,0,0,12.4.76,6.24,6.24,0,0,0,1.29-.32l.86.13a13.69,13.69,0,0,0,2.47.18,9.19,9.19,0,0,0,2.37-.54,11.8,11.8,0,0,0,4.3-.32l1.67.2a9.71,9.71,0,0,0,7.78-.4,27.21,27.21,0,0,0,6.6-.19,17.08,17.08,0,0,0,3.05-.17c3.74.77,8,.91,11.5-.33.71-.06,1.4-.12,2.1-.22a29.39,29.39,0,0,0,11.36,1.24,14,14,0,0,0,4-1c3.33,0,7-.4,8.27-2.48,2.27,3.61,8.33,5.77,11.93,4.5a5.32,5.32,0,0,0,1.29-.69,17.4,17.4,0,0,0,8.76-.89,42,42,0,0,0,7,0,24.56,24.56,0,0,0,3.47-.4,17,17,0,0,0,2.56.1l.29,0c4.18.49,8.68,1.14,12.8.11a4.45,4.45,0,0,0,1.68.85,4.65,4.65,0,0,0,3.41-.43,3,3,0,0,0,.47-.32c1.54.18,3.09.32,4.64.44a33.93,33.93,0,0,0,5,.1,24.77,24.77,0,0,0,6.88,1.24c3.31.22,7.08.46,10.17-.93,5.22,1.46,11.21,1.74,15.83-.55l.49.1c.4.15.8.29,1.17.39a14.07,14.07,0,0,0,8.4-.86h0a10.38,10.38,0,0,0,5.74.54,14.61,14.61,0,0,0,1.7-.46,22.48,22.48,0,0,0,4,.58,20.53,20.53,0,0,0,6.1-.48,15,15,0,0,0,5,0c.92-.14,2-.3,3.18-.51,3.57,2.4,10,1.13,14.44-.13a10,10,0,0,0,3.63.1,10.23,10.23,0,0,0,1.23-.28l.21.09,1.18.16c-.75-.06-.72,0,.09,0a8.24,8.24,0,0,0,5.23-1l.07,0a32.26,32.26,0,0,0,7.43-.3l.84-.11a5.1,5.1,0,0,0,3.43,1.51,6.77,6.77,0,0,0,3.89-.83,4.54,4.54,0,0,0,1.11-.94,21.58,21.58,0,0,0,3.19.19,8.3,8.3,0,0,0,4.57-1.47c.4,0,.64,0,.21-.14h0a8.93,8.93,0,0,0,2.31,0h0a40.28,40.28,0,0,0,5.44,1,4.16,4.16,0,0,0,2.87-.89A9.81,9.81,0,0,0,424.12,97a3.39,3.39,0,0,0,4.34-.86,2.9,2.9,0,0,0,.19-.29,71,71,0,0,0,10.38.14c.44-.1.9-.22,1.36-.36a32.18,32.18,0,0,0,3.76.47,18.39,18.39,0,0,0,6.84-.38c2.86.69,6.11.75,8.34-.47a28.25,28.25,0,0,0,8.55.27,14.86,14.86,0,0,0,3.17.93c2.53.49,5.66.84,8-.42h.61a9.12,9.12,0,0,0,4.84,1.62,15.74,15.74,0,0,0,6.45-.55,23.56,23.56,0,0,0,5.39-.82,87.32,87.32,0,0,0,10.58,1.11c3.46.15,6,.13,8.42-.88a19.92,19.92,0,0,0,5.93.3l.48,0c1.07.15,2.15.29,3.2.39,3.74.37,6.73.29,9.86-1.34.78,0,1.55.1,2.33.13a36.09,36.09,0,0,0,8.88-.26,27.45,27.45,0,0,0,7.43,1,5,5,0,0,0,2.76-1c3.61.71,7.93.87,10.42-.74.35,0,.69-.07,1-.12a9.55,9.55,0,0,0,1.41.3,12.24,12.24,0,0,0,8.1-.34,2.68,2.68,0,0,0,.82-.55,5.58,5.58,0,0,0,3.65.37,4.31,4.31,0,0,0,1.57.25,1.76,1.76,0,0,0,1.73-1.52A1.79,1.79,0,0,0,583.65,91.32Z" transform="translate(-15.58 -8.6)" style="fill-rule:evenodd;fill:url(#linear-gradient-10)"/><path d="M84.85,77.84a1.24,1.24,0,0,0-.89.35,2.92,2.92,0,0,0-.37-.48,1.94,1.94,0,0,0-.31-.76,3.27,3.27,0,0,0-1.39-1.24,2.93,2.93,0,0,0-1.81-.66l-.13,0a2,2,0,0,0-.38-.24c-.15-.07-.3-.11-.44-.16a1.72,1.72,0,0,0,0-.32,12.39,12.39,0,0,0-2.23-6.19,3.27,3.27,0,0,0,0-1.87l-.45-1.7a26.16,26.16,0,0,0-1.08-5.94C74.76,55.82,74,53.12,72,50.94a4.21,4.21,0,0,0-1-.83,12.87,12.87,0,0,0-.83-4.65,10.2,10.2,0,0,0-1-4.93,18.52,18.52,0,0,0-3.67-5.86l0,0c-.14-.25-.28-.49-.44-.75a2.67,2.67,0,0,0-2.63-1.26,3.18,3.18,0,0,0-.33.1,3.3,3.3,0,0,0-2.64-.17,4.66,4.66,0,0,0-4.7.95,1.19,1.19,0,0,0-.16.23A2.08,2.08,0,0,0,53,33.53h0a4.64,4.64,0,0,0-1.87-.4,4.88,4.88,0,0,0-3.33,1.38,4.52,4.52,0,0,0-.43.53A6.16,6.16,0,0,0,44,36.8a2.53,2.53,0,0,0-.41.76,1.93,1.93,0,0,0-1.51.32,1.42,1.42,0,0,0-.3.3h-.1a1.44,1.44,0,0,0-1,.74h-.18a6.11,6.11,0,0,0-1.34.26,1.82,1.82,0,0,0-1.31-.56,1.85,1.85,0,0,0,0,3.7,1.91,1.91,0,0,0,1.63-1,5,5,0,0,0,1,.18,1.24,1.24,0,0,0,.66-.15,5.52,5.52,0,0,0,3.6,1.4,1.56,1.56,0,0,0,1-.26h0c.9.45,1.78.91,2.68,1.35a3.26,3.26,0,0,0,2.23.3q1.86,1.22,3.78,2.37a31.5,31.5,0,0,0,3.11,2.6c.31.58.66,1.15,1,1.74.54.83,1,1.67,1.63,2.46a12.63,12.63,0,0,0,1,1.28,3.24,3.24,0,0,0,1.06.66c.16.25.32.5.5.75a7.65,7.65,0,0,0,1.44,1.71,2.74,2.74,0,0,0,.36.23c.34,1.46.74,2.91,1.06,4.36.55,2.56,1,4.77,2.88,6.73-.06.58-.1,1.18-.12,1.79a12.11,12.11,0,0,0,.74,8.11,17,17,0,0,0-.07,3.19c0,.28,0,.55.07.82a9.88,9.88,0,0,0-.11,1.72,4.28,4.28,0,0,0,0,.6,1.55,1.55,0,0,0-.7.48,2.63,2.63,0,0,0-.75,1.88,2.15,2.15,0,0,0,.21.81,3,3,0,0,0-.21.48c-.06.16-.11.33-.18.49v0a2.25,2.25,0,1,0-.7,4.38A2.32,2.32,0,0,0,69,92.16a1.57,1.57,0,0,0,1.22-.78A10.69,10.69,0,0,0,70.85,90c0-.08,0-.14.06-.21a2.45,2.45,0,0,0,1.42,0,5.46,5.46,0,0,0,3-2.27h0a5.23,5.23,0,0,0,1.92-1.18,8.08,8.08,0,0,0,1.22-1.47,3.88,3.88,0,0,0,.66-.46,4.7,4.7,0,0,0,2.07-1.27,4.91,4.91,0,0,0,.47-.63,2.91,2.91,0,0,0,2.66-2.08,1.31,1.31,0,0,0,.5.1A1.34,1.34,0,0,0,84.85,77.84Z" transform="translate(-15.58 -8.6)" style="fill-rule:evenodd;fill:url(#linear-gradient-11)"/><path d="M255.05,73.13s0,0,0,0" transform="translate(-15.58 -8.6)" style="fill:none;stroke:#000;stroke-linecap:round;stroke-linejoin:round;stroke-width:0px"/></g><g id="CouchWood"><g id="Wood"><path d="M640.15,154.28a9.32,9.32,0,0,0-.17-.92c-.08-.29-.16-.61-.26-.91,1.72-1.31.31-4-1.69-3.87a6,6,0,0,0-.54-.87,5.11,5.11,0,0,0-2.27-3.27,1.78,1.78,0,0,0-2.65,1.52,4.94,4.94,0,0,0,.08.95,3.49,3.49,0,0,0,0,.56c0,.15,0,.42,0,.45,0,.27,0,.44,0,.54a4.36,4.36,0,0,0-2.6,1.44,2.68,2.68,0,0,0-.48,1.11l-.4.17a.56.56,0,0,0-.13,0,81.46,81.46,0,0,1-8.56.15,2.8,2.8,0,0,0-.51,0c-3.12-.16-6.21-.14-9,1.22a10.2,10.2,0,0,0-2.57-.12,13.08,13.08,0,0,0-5.62-1,17.64,17.64,0,0,0-6.39.79l-.24-.21a2.23,2.23,0,0,0-1-1.15,17.36,17.36,0,0,0-1.74-.84,3,3,0,0,0-2.48-.47,2.18,2.18,0,0,0-.69.25,10.78,10.78,0,0,0-3.81-.15,19.74,19.74,0,0,0-3.7.51,3.8,3.8,0,0,0-.62-.11l-1.6-.13a2.62,2.62,0,0,0-.75-.12c-.54,0-1.07,0-1.6-.07l-2.91-.23a2.82,2.82,0,0,0-1.59.31,3.48,3.48,0,0,0-1.22-.24,41.36,41.36,0,0,0-5.79.28,17.7,17.7,0,0,0-2.82,0,42.59,42.59,0,0,0-8.14.12,3.46,3.46,0,0,0-1.09.33,12.39,12.39,0,0,0-4.43-.27l-.14,0a18.45,18.45,0,0,0-3.3.15,32.69,32.69,0,0,0-4-.6c-1-.09-2.06-.08-3.09-.07a15.3,15.3,0,0,0-5.39-.17,2.2,2.2,0,0,0-1.48.84l-.13-.08a6.06,6.06,0,0,0-4.19-.4l-.15,0a10.91,10.91,0,0,0-1.84.69,7.8,7.8,0,0,0-2.31-.15,20.94,20.94,0,0,0-2.17-.16,2.47,2.47,0,0,0-1.06.19,1.52,1.52,0,0,0-.21,0l-4.16-.21a2.91,2.91,0,0,0-1.43.29l-4.9.07a3.49,3.49,0,0,0-.95-.16c-5,0-10.05-.3-15,0-.57,0-1.14.08-1.71.16l-7.24.09a16.82,16.82,0,0,0-3.63-.05,3.91,3.91,0,0,0-.72-.1h-.22l-2.59-.08a2.83,2.83,0,0,0-1.41.3h0a3,3,0,0,0-.43.06l-2.71-.13a3.76,3.76,0,0,0-.48,0,6,6,0,0,0-2.66-.58,5.77,5.77,0,0,0-3.19.89,23.64,23.64,0,0,0-7.38-.18,5.76,5.76,0,0,0-3.07-.81,6,6,0,0,0-2.74.63,117.12,117.12,0,0,0-21,0,5.57,5.57,0,0,0-3.92-1.44,6.62,6.62,0,0,0-.91.06,12.27,12.27,0,0,0-3-1.52,2.88,2.88,0,0,0-3.52,1.78,3.06,3.06,0,0,0-.78.47,4.8,4.8,0,0,0-2.65.54,6.83,6.83,0,0,0-1.81,0,2.7,2.7,0,0,0-1.23-.2c-2.85.15-5.66-.28-8.5,0a18.63,18.63,0,0,0-2.28.43,2.77,2.77,0,0,0-.65-.05l-.68.05a34.18,34.18,0,0,0-3.92,0,2.19,2.19,0,0,0-1-.58v0l-.16,0-.26-.05c-.36-.05-.72-.08-1.07-.1a2.42,2.42,0,0,0-2,1,92.47,92.47,0,0,0-11.29-.24c-5.25,0-10.5,0-15.76,0q-14.77,0-29.55,0H292.78c-4.74,0-9.84-.61-14.45.58a2.31,2.31,0,0,0-.86.42c-3.16-.67-6.62-.23-9.85-.24-5,0-9.95,0-14.93,0-4.09,0-8.37-.23-12.65-.33a4.91,4.91,0,0,0-.28-.5,13.35,13.35,0,0,0-1.24-1.53,1.69,1.69,0,0,0-.67-1.69c-2.1-1.43-3.73,1.49-4.74,3.74a50.75,50.75,0,0,0-9.86,1.21,1.86,1.86,0,0,0-.85.47c-2.16-.95-4-.55-6.5,0a14.9,14.9,0,0,1-2.4.33,66.48,66.48,0,0,0-7.05-.32,3.2,3.2,0,0,0-.78.1,5.89,5.89,0,0,0-3-.79,6.09,6.09,0,0,0-2.5.51,6,6,0,0,0-2.24-.41,5.45,5.45,0,0,0-4.35,1.91H192.4a3.2,3.2,0,0,0-.78.1c-3.15-.14-6.36.08-9.46.08H177a5.42,5.42,0,0,0-4.5-2.1,5.82,5.82,0,0,0-3.19.89c-2.12-.47-4.55.13-6.67.21-1.31.05-3.6-.3-5.18.25-1.34-.77-2.93-.73-4.72-.59-1.56.11-3.13.2-4.69.25a13.73,13.73,0,0,0-4.3-.75c-1.94-.13-4.52-.39-6.15.85a1.81,1.81,0,0,0-.3.32,7.75,7.75,0,0,0-3-.47,26.62,26.62,0,0,0-4.6.55c-2-.13-4-.19-6.06-.2-1.56-.56-3.38-.12-5.14.06-1.53.15-3.47-.15-5.06.24a30.26,30.26,0,0,0-4.85-.42c-1.78-.08-3.94-.21-5.48.67a5.08,5.08,0,0,0-.81.24h-2.14c-11.28,0-22.71-.52-34,.18a3.42,3.42,0,0,0-.89.19,5.57,5.57,0,0,0-.79.08,2.78,2.78,0,0,0-1.25.42c-.12.09-.22.18-.32.27a2.9,2.9,0,0,0-.41-.06,1,1,0,0,0-.35,0l-.12,0a1.34,1.34,0,0,0-.2,0,6,6,0,0,0-1.15-1.15,4.27,4.27,0,0,0-1.41-.79l-.29-.06a2.72,2.72,0,0,0-1.29-.26,1.44,1.44,0,0,0-1.41,1.41l-.38,0c-1.82.16-4.21.25-5.95,1.09a3.32,3.32,0,0,0-.81-.18c-5.61-.49-11.28-.43-16.91-.39a3.58,3.58,0,0,0-.48,0h-.07c.08-1.15-.83-1.94-1.59-2.79a12.47,12.47,0,0,0-1.08-1.1l-.07-.06a11.54,11.54,0,0,0-.44-5.54c-.19-.79-.41-1.53-.63-2.26a49.36,49.36,0,0,0,.28-6.56c.1-4.8.63-9.62-.83-14.2a2.89,2.89,0,0,0-.75-4.66v-1.4c0-10.15,1-20.87-.31-30.95a2,2,0,0,0-.26-1.43,26.38,26.38,0,0,0-.52-2.85c-.76-3.18-5.32-2.3-5.49.74,0,.28,0,.57,0,.85-.06.06-.12.1-.18.17a.52.52,0,0,0-.1.11l0,0-.09.12.05,0a2.94,2.94,0,0,0-.58,1.81,4.31,4.31,0,0,0,.14,1.19,2.44,2.44,0,0,0,.91,1.25,8.23,8.23,0,0,0,.39,2.46c-.34,5-.25,10.13-.12,15.22l0,0a8.38,8.38,0,0,0-1.12,4.32,2.93,2.93,0,0,0-.14.39c-.84,3.67-.46,9.27,1.53,12.88v9.34c0,3.89-.54,8.16.36,12,0,.57.06,1.13.11,1.7,0,0,0,0,0,.06-.72,1.83-.4,4.15-.36,6.09a25.38,25.38,0,0,0,.09,2.72,2.4,2.4,0,0,0-.17.32,6,6,0,0,0-.37,4.15C19.22,161.06,20,164,22.73,164H149.48c14,0,28.08.57,42-.1,7.66,1,15.72.29,23.41.29h26.8c16.18,0,32.61,1,48.65-1.13,2.21.44,4.69.14,7,.16,4.62,0,9.24,0,13.86,0,9.1,0,19.46,1.4,28.28-1l0,0c4.44.65,9.4,0,13.68,0h36.1c5.83,0,12.46.91,18.1-.62.75,0,1.5,0,2.26,0a3.17,3.17,0,0,0,1.47-.41,6.4,6.4,0,0,0,2,1.27,5,5,0,0,0,5-.85,3.94,3.94,0,0,0,2.88.43,2.75,2.75,0,0,0,1.25-.72,13.37,13.37,0,0,0,3.16.35,2.84,2.84,0,0,0,2-.76,53.15,53.15,0,0,0,9.31.27,26.33,26.33,0,0,0,3.2,0,3.15,3.15,0,0,0,1.36-.41c.72.07,1.45.11,2.17.14a15,15,0,0,0,5.25.58,2.91,2.91,0,0,0,1.9-.84c1,.1,1.93.15,2.89.17a5.76,5.76,0,0,0,3.24.92,5.61,5.61,0,0,0,3.69-1.26l.19,0c1.92.09,3.85.14,5.79.13l.27,0a6,6,0,0,0,7.75-.31l4,.28a30.29,30.29,0,0,0,4.48.31,3.14,3.14,0,0,0,1.28-.26c3.11,1.23,6.27-.17,9.75.12a2.41,2.41,0,0,0,1.86-.57c1.09,0,2.08,0,2.81,0a2.53,2.53,0,0,0,1.4-.4c1.62.14,3.24.21,4.89.22a1.51,1.51,0,0,0,.3,0l.2,0a14.7,14.7,0,0,0,3.71-.36l10.42.69a2.49,2.49,0,0,0,1.39-.32,8.18,8.18,0,0,0,4,0,2.81,2.81,0,0,0,1-.38,53.57,53.57,0,0,0,5.54.21,3,3,0,0,0,2.76.85,13.89,13.89,0,0,1,3.31-.28c.66.06,1.32.11,2,.15a2.47,2.47,0,0,0,2.13-1,26.67,26.67,0,0,0,9.38-.15c2.12.16,4.24.29,6.35.42a2.71,2.71,0,0,0,1.34-.24l3.52-.39a3.77,3.77,0,0,0,.69.06,27.48,27.48,0,0,0,3.31-.21l2.6-.16a2.62,2.62,0,0,0,.57.12,15.45,15.45,0,0,0,3-.1,3.57,3.57,0,0,0,2.59,1.09,3.81,3.81,0,0,0,2.68-1.18c.16,0,.33.09.5.12l.19.07A3,3,0,0,0,581,159a6.16,6.16,0,0,0,2.33-.34,3.29,3.29,0,0,0,1.52.54,10.88,10.88,0,0,0,2.55,0c.22,0,1-.05,1.36-.11a3.37,3.37,0,0,0,1.81-.13,5,5,0,0,0,3.08-.25,19.21,19.21,0,0,0,2.73.06l.24,0a2.94,2.94,0,0,0,1.12.22,2.89,2.89,0,0,0,1.48-.43l.75.08a2.91,2.91,0,0,0,.67,0c1,.08,2.06.13,3.09.13a44.35,44.35,0,0,0,8.47-.31,26.14,26.14,0,0,0,6.56.73,2.32,2.32,0,0,0,1.86-.82l2.1.12a15.14,15.14,0,0,0,4.8-.1,16.45,16.45,0,0,0,2.9.11,2.81,2.81,0,0,0,1.55,0,2.62,2.62,0,0,0,.57-.11,1.84,1.84,0,0,0,2.72-.29c.1,0,.2,0,.3-.05a2.25,2.25,0,0,0,3.38.3,2.42,2.42,0,0,0,1.78-2.33A2.57,2.57,0,0,0,640.15,154.28Z" transform="translate(-15.58 -8.6)" style="fill:url(#linear-gradient-12)"/><path d="M627.32,162.6a3.48,3.48,0,0,0-1.11-2.39,2.39,2.39,0,0,0-2-1,2.58,2.58,0,0,0-1.19.27,4.2,4.2,0,0,0-1.33-.23,3.91,3.91,0,0,0-1.84.44,3.46,3.46,0,0,0-2.22-.74,3.59,3.59,0,0,0-1.27.23,4.92,4.92,0,0,0-.86-.09,5.14,5.14,0,0,0-3,1,2.54,2.54,0,0,0-2-.88c-2.77,0-3.38,3.34-1.84,4.83A3,3,0,0,0,608,166a3.58,3.58,0,0,0,3.52,3.51,3.52,3.52,0,0,0,2.21-.83,4.72,4.72,0,0,0,1.76.35,5.16,5.16,0,0,0,2.09-.49l.17,0a2.78,2.78,0,0,0,1.12.24,2.74,2.74,0,0,0,1-.21,1.87,1.87,0,0,0,.34,0,2.27,2.27,0,0,0,1-.25,2,2,0,0,0,.65.11,1.84,1.84,0,0,0,.47-.06.61.61,0,0,0,.13,0,2,2,0,0,0,1.84,1.24,2,2,0,0,0,2-2,2.14,2.14,0,0,0-.46-1.24,3.08,3.08,0,0,0,0-1.13A3.15,3.15,0,0,0,627.32,162.6Z" transform="translate(-15.58 -8.6)" style="fill:url(#linear-gradient-13)"/><path d="M607.73,162.6a2.4,2.4,0,0,0-.11-.23s0,0,0-.06a3,3,0,0,0-3-3,2.8,2.8,0,0,0-1.11.24,2.1,2.1,0,0,0-1.31-.46,2.18,2.18,0,0,0-2.16,2.15,2.24,2.24,0,0,0,1.74,2.12l.08,0a3,3,0,0,0,2.33,1.86,2.67,2.67,0,0,0,5.33-.15A2.79,2.79,0,0,0,607.73,162.6Z" transform="translate(-15.58 -8.6)" style="fill-rule:evenodd;fill:url(#linear-gradient-14)"/><path d="M53.2,170.15a5.17,5.17,0,0,0-.77-2.46,1.85,1.85,0,0,0,0-2.46l-.09-.13a1.24,1.24,0,0,0-.47-.34,1.7,1.7,0,0,0-1.94,0,1.25,1.25,0,0,0-.19,0h-.17l-.26-.19a1.9,1.9,0,0,0-1-.24,1.56,1.56,0,0,0-1,.35,5.82,5.82,0,0,0-3-.8,5.7,5.7,0,0,0-3.22.94l-.32-.05a14,14,0,0,0-3.28.28,2.53,2.53,0,0,0-.36.07l-.33,0a2.67,2.67,0,0,0-.64-.46,1.46,1.46,0,0,0-2.12,1.63,2.85,2.85,0,0,0,.48,1.15,4.22,4.22,0,0,0,.38.46,8.05,8.05,0,0,0,.4,1.38,1.75,1.75,0,0,0,.68.85,6.23,6.23,0,0,0,.32,2,2.09,2.09,0,0,0,.39.66,1.55,1.55,0,0,0,0,.8,1.69,1.69,0,0,0,.09,1.31,2.21,2.21,0,0,0,2.08,1,3.7,3.7,0,0,0,1-.08,1.83,1.83,0,0,0,1-.68L41,175l0-.05a5.69,5.69,0,0,0,3.16.89,5.84,5.84,0,0,0,2.88-.7,5.83,5.83,0,0,0,.83.08,4.66,4.66,0,0,0,1.33-.2c.1.12.19.23.31.35a1.62,1.62,0,0,0,1.59.42,1.91,1.91,0,0,0,1.33-1.71,1.94,1.94,0,0,0,.1-.49,1.6,1.6,0,0,0-.19-.8A4.59,4.59,0,0,0,53.2,170.15Z" transform="translate(-15.58 -8.6)" style="stroke-miterlimit:10;fill-rule:evenodd;fill:url(#linear-gradient-15);stroke:url(#linear-gradient-16)"/><path d="M63.14,165.39a2.4,2.4,0,0,0-2.58-1.17l-.07,0-.34-.14a4,4,0,0,0-2.18,0,2.48,2.48,0,0,0-.89.37,1.69,1.69,0,0,0-.5.46l-.16,0c-.26-.19-.52-.37-.8-.54v0A2.12,2.12,0,0,0,53.35,168a4,4,0,0,0-.35,1.6,3.12,3.12,0,0,0,0,1.29,2.52,2.52,0,0,0,.39,2.33,1.46,1.46,0,0,0,2.72.42,2.08,2.08,0,0,0,.77-1,1.2,1.2,0,0,0,0-.2l.09-.11a3.17,3.17,0,0,0,1.81.55,3.36,3.36,0,0,0,3.32-3.32,3.4,3.4,0,0,0-.18-1,2.12,2.12,0,0,0,1.31-1.35l-.11.27A2.06,2.06,0,0,0,63.14,165.39Z" transform="translate(-15.58 -8.6)" style="fill-rule:evenodd;fill:url(#linear-gradient-17)"/></g></g><g id="Pillows"><path d="M551.82,34.19h0l.06-.09h0Z" transform="translate(-15.58 -8.6)" style="fill-rule:evenodd;fill:url(#linear-gradient-18)"/><path d="M553.69,29.83a1.94,1.94,0,0,0-2.44-.48,1.71,1.71,0,0,0-.64.51,1.55,1.55,0,0,0-.27-.23,2,2,0,0,0-2.32.3,3.56,3.56,0,0,0-.42-.32,8.9,8.9,0,0,0-1.33-.71c-1.25-.51-2.44,1-2.11,2.12a3.42,3.42,0,0,0,1.5,1.94,3.89,3.89,0,0,0-.23,1.73,6.44,6.44,0,0,0,.2,1.23,2.65,2.65,0,0,0,1,1.39,4.74,4.74,0,0,0,.71,2.9,4.71,4.71,0,0,0,.29,1.19,7,7,0,0,0,.45,5,4.8,4.8,0,0,0,.17,2.33,8.61,8.61,0,0,0,1.11,3.5,1.4,1.4,0,0,0,2.59-.7,10.53,10.53,0,0,0-1.12-4.17c-.06-.11-.16-.28-.28-.46a6.42,6.42,0,0,0,.17-3.56,14.06,14.06,0,0,0-.27-1.6c0-.09-.05-.18-.07-.27a6.32,6.32,0,0,0,.48-2.29,6.94,6.94,0,0,0,.5-2.11c.12-.92.32-1.85.35-2.78l.08-.08,0,0-.09.05a1,1,0,0,0,.15-.14,2.43,2.43,0,0,0,.65-1.12,1,1,0,0,0,.18-.09l-.17.06h0a1.48,1.48,0,0,0,.29-.12,1.64,1.64,0,0,0,.71-.51A1.93,1.93,0,0,0,553.69,29.83Z" transform="translate(-15.58 -8.6)" style="fill-rule:evenodd;fill:url(#linear-gradient-19)"/><path d="M389.51,44.21v0C389.56,44,389.54,44,389.51,44.21Z" transform="translate(-15.58 -8.6)" style="fill-rule:evenodd;fill:url(#linear-gradient-20)"/><path d="M390.94,66.79a3,3,0,0,0,0-2,8.19,8.19,0,0,0-.64-1.33c1.27-1.78,1.38-3.81,1.27-6.07a23.36,23.36,0,0,0-.87-6.46,4.17,4.17,0,0,0-.69-1.24,10.7,10.7,0,0,0-.33-2.09c-.14-.55-.32-1.1-.52-1.65a2.75,2.75,0,0,0,.13-.47c0-.14.17-1,.23-1.31a6.6,6.6,0,0,0,0-2.26,12.73,12.73,0,0,0-.47-2,8.94,8.94,0,0,0-.34-3,8.35,8.35,0,0,0-.75-1.8l-.15-.24a6.2,6.2,0,0,0-5.22-3.55c.92.11-1.2-.21-1.41-.25l-2-.38a8.85,8.85,0,0,0-5.56.26,18,18,0,0,0-2.45-.87c-2-.58-4.09-.76-6-1.48a2.59,2.59,0,0,0-2.28.24,18.17,18.17,0,0,0-11.61-.17,21.47,21.47,0,0,0-7.31-.12,13.58,13.58,0,0,0-3.46,1.07c-1,.09-2,.23-2.87.36a8.76,8.76,0,0,0-3.53-.59,26.71,26.71,0,0,0-8.32,1.77c-.38-.05-.77-.09-1.15-.12a2.59,2.59,0,0,0-1.89.59,1.55,1.55,0,0,0-.37,0,4.88,4.88,0,0,0-3.62.49,4,4,0,0,0-.63.47,2.66,2.66,0,0,0-1.54,3.12,2.8,2.8,0,0,0,.15.3,5,5,0,0,0,1.19,2.88,8.44,8.44,0,0,0,.78,1.79,49.73,49.73,0,0,0,1.26,5c.13.46.25.9.37,1.34a11.66,11.66,0,0,0-.43,3.4,18,18,0,0,0,1.54,7.64,4.68,4.68,0,0,0,1.08,4.27,7.33,7.33,0,0,0-1,2.16,4.63,4.63,0,0,0-.11,1.65,2.25,2.25,0,0,0,.85,2.79,2,2,0,0,0,1.26.37,3.53,3.53,0,0,0,3.76-.34,3.46,3.46,0,0,0,.68-.7,8.12,8.12,0,0,0,.8.62,3.72,3.72,0,0,0,4.68-.74,9.74,9.74,0,0,0,1.82.61c3.31.72,8,1.36,11.19-.43a19.38,19.38,0,0,0,2.41,0c3.65,2.46,8.87,1.87,13.1,1.77,4.06-.1,9.2.32,12.5-2.2a15.29,15.29,0,0,0,10,1.49,5,5,0,0,0,.85-.29,4.15,4.15,0,0,0,.61.14l.4.1a2.68,2.68,0,0,0,2.22,1.21,2.65,2.65,0,0,0,2.62-2.63l0-.19A3.28,3.28,0,0,0,390.94,66.79Z" transform="translate(-15.58 -8.6)" style="fill-rule:evenodd;fill:url(#linear-gradient-21)"/><path d="M404.09,31.81a4.21,4.21,0,0,0-.87-1.49,3.34,3.34,0,0,0-1.92-.92,3.24,3.24,0,0,0-2.68.85,4.77,4.77,0,0,0-2-.55A5,5,0,0,0,393,30.94a3,3,0,0,0-2,.43c-.11.08-.2.17-.3.25a2.84,2.84,0,0,0-.31.06h0a2,2,0,0,0-.35.06,3.2,3.2,0,0,0-2.09,2,3.49,3.49,0,0,0,.49,3c.05.09.11.17.17.26s0,.1,0,.15a5.9,5.9,0,0,0,.7,2.63,7.1,7.1,0,0,0,.24,1.59,5.35,5.35,0,0,0-.07,2.08,25.63,25.63,0,0,0,1,4.08,28.4,28.4,0,0,0,.61,4.69c.07.48.13,1,.2,1.46a18.83,18.83,0,0,0,.46,5.09,6.61,6.61,0,0,0-.32,3.82,10.21,10.21,0,0,0-.25,4.57,5.28,5.28,0,0,0,1.09,2.56,6.09,6.09,0,0,0,.72,2.67c1.5,2.82,6.06,1.52,6-1.62a9.07,9.07,0,0,0-.45-2.42,9.49,9.49,0,0,0,.39-5.76,18.41,18.41,0,0,0-.08-3.06,11.48,11.48,0,0,0,1-2.59,4.23,4.23,0,0,0,.51-1.28,31.2,31.2,0,0,0,.7-9.55,8.37,8.37,0,0,0,.82-4.15c1.4-1.47,1.81-4.13,1.48-6.46l.25-.32A4.14,4.14,0,0,0,404.09,31.81Z" transform="translate(-15.58 -8.6)" style="fill-rule:evenodd;fill:url(#linear-gradient-22)"/><path d="M320,52.4a18.48,18.48,0,0,0-1.42-8.06,1.8,1.8,0,0,0-.08-.21,4.5,4.5,0,0,0,.54-1.2,7,7,0,0,0-.49-5.37,5.81,5.81,0,0,0-.54-.85,5.29,5.29,0,0,0-2.27-1.94,5.61,5.61,0,0,0-1.48-.36,9.34,9.34,0,0,0-2.49-1.81,12,12,0,0,0-4.69-1.16,7.41,7.41,0,0,0-2.48.3,21.9,21.9,0,0,0-7.4-1.29,28.78,28.78,0,0,0-5.49.16,10.1,10.1,0,0,0-3.91.39,28,28,0,0,0-8.06-.38c-3.28-2.94-9.09-1.33-13.78.39a15.4,15.4,0,0,0-4.05-.51,6.38,6.38,0,0,0-3.69,1c-.95,0-1.87.09-2.71.17s-1.67.18-2.5.3a9.34,9.34,0,0,0-1.23-.4,11.59,11.59,0,0,0-5.55.2,9.7,9.7,0,0,0-2.91,1.4,9.91,9.91,0,0,0-3.8.59,9.07,9.07,0,0,0-1.85.91l-.07,0a3.77,3.77,0,0,0-4,1.38,3.72,3.72,0,0,0-.76,1.82,4.14,4.14,0,0,0,.46,2.46A3.84,3.84,0,0,0,234.86,42a6.13,6.13,0,0,0,.83,2.56,6.72,6.72,0,0,0-.44,1.68c-.31,2.47-.45,5.92.6,8.53a22.67,22.67,0,0,0-.17,3.49,6.21,6.21,0,0,0-.92,2.42,14,14,0,0,0-.16,5.65,6.51,6.51,0,0,0-.1,3.25,2.46,2.46,0,0,0-.69,1.24,2.36,2.36,0,0,0,1.59,2.8,3,3,0,0,0,2.07-.16c.26-.09.54-.2.8-.32h.06c-.08,0,0,0,0,0a3,3,0,0,0,1.3-.4,4.92,4.92,0,0,0,.55-.14l-.29,0,.07,0c.16,0,.46,0,.89-.09a8.58,8.58,0,0,0,2.63-1.33l.39.12A4.25,4.25,0,0,0,250.3,69c.75-2,.23-4.6-.43-6.58a11.67,11.67,0,0,0-.75-1.78c0-.16-.1-.32-.15-.48s0-.59,0-.88a12.31,12.31,0,0,0-.14-6.3,31.31,31.31,0,0,0-3.47-8.08,13,13,0,0,0,10.07.27,14,14,0,0,0,9.28-1.49A4.79,4.79,0,0,0,266.43,42c.25-.1.51-.19.75-.31.63-.06,1.26-.12,1.9-.2s1.59-.17,2.43-.31a24.21,24.21,0,0,0,4.31.17,5.64,5.64,0,0,0,2.42-.73,31.51,31.51,0,0,0,.87,4.95,27.28,27.28,0,0,0,2.08,7,18.11,18.11,0,0,0,1.42,6.7c0,.17.05.37.08.63.17.44.35.87.54,1.31a11.56,11.56,0,0,0,.85,1.56,5.4,5.4,0,0,0,.7,2,4.86,4.86,0,0,0,.11,1.89,4.27,4.27,0,0,0,5,2.94,2.62,2.62,0,0,0,1-.51,4,4,0,0,0,1.39-.92,8.32,8.32,0,0,0,3.34-.17h.14a18.8,18.8,0,0,0,5.75,1.33,3.84,3.84,0,0,0,2.5-.74,21.66,21.66,0,0,0,9.23.34,4.48,4.48,0,0,0,1.1-.41,5.78,5.78,0,0,0,1.88.23,3.93,3.93,0,0,0,1.78.43,4.08,4.08,0,0,0,3.49-2,3.91,3.91,0,0,0,.46-1.26,4,4,0,0,0-.31-3.49,5.75,5.75,0,0,0,.75-2.36C322.6,57.55,322.1,54,320,52.4Z" transform="translate(-15.58 -8.6)" style="fill-rule:evenodd;fill:url(#linear-gradient-23)"/><path d="M285.12,69.59a3.42,3.42,0,0,0-.7-1.33,15.17,15.17,0,0,0-1.69-6.15c-.31-.72-.62-1.39-1-2a31.41,31.41,0,0,0-1.23-8.22,28.13,28.13,0,0,0-1.46-4.57c.85-.58.07-1.64.1-2.71,0-1.4.3-2.32-.14-3.6-.58-1.68-3.13-1.66-3.93-.24.35-.47-.47.31-.55.35-.46-.15-.9.44-1.47.57s-1.14,0-1.59.4c-.11,0-1,.05-.71.26,0,0,.33.18.33.17A5.17,5.17,0,0,0,269,43c-.32.12-.7-.28-1-.09-1.2.2-2.38,1-3.59,1.33a5,5,0,0,0-1.94-.26,17,17,0,0,0-2.13.23,7.75,7.75,0,0,0-3.71.75c-.48.2-1,.43-1.63.69-1.59-.7-3.53-1-4.86-.18l-.19.16a1.67,1.67,0,0,0-.65-.22,1.69,1.69,0,0,0-2.25,1.94,13.21,13.21,0,0,0,1.35,3.72,7.47,7.47,0,0,0,1.09,3.42c.14.55.29,1.09.42,1.61a1.92,1.92,0,0,0,0,.63c.21,1.24.37,2.55.56,3.85,0,.81.15,1.62.24,2.43.06.51-.38.38-.31.9-.32-.24.24.84.24.87a17.39,17.39,0,0,0,.39,3.15,4,4,0,0,0-.09.48,10.37,10.37,0,0,0,.17,3.2c-.62,1.66-.79,4,.39,5.26A1.24,1.24,0,0,0,253,77a3.52,3.52,0,0,0,1.35-1.69,5,5,0,0,0,.67-.28l.39-.11a3.9,3.9,0,0,0,.57-.21l.1,0a1.81,1.81,0,0,0,.37,0,.93.93,0,0,0,.24,0,8.38,8.38,0,0,0,3.19,0,1.88,1.88,0,0,0,1-.51c.89.09,1.79.1,2.5.13a22.26,22.26,0,0,0,6.2-.5,2.26,2.26,0,0,0,.91-.5,1.66,1.66,0,0,0,.21-.06h0l.62.23a3.22,3.22,0,0,0,1.48,0,1.54,1.54,0,0,0,.69-.3,7.59,7.59,0,0,0,1.07-.08,7.83,7.83,0,0,0,2.52-.14,6.58,6.58,0,0,0,2.69-.14l0,0a2.94,2.94,0,0,0,1.35.63,3.61,3.61,0,0,0,2.44-.29,2,2,0,0,0,2.39-1.44A2.14,2.14,0,0,0,285.12,69.59Z" transform="translate(-15.58 -8.6)" style="fill-rule:evenodd;fill:url(#linear-gradient-24)"/><path d="M234.84,56a2.42,2.42,0,0,0-.53-1.79,36.66,36.66,0,0,0,.43-4.16,24.21,24.21,0,0,0-.5-4.39,5.55,5.55,0,0,0-.77-5.27,1.8,1.8,0,0,0-.05-.19,4.92,4.92,0,0,0-2.54-4.59c-1.32-2.11-4.22-3.05-6.57-3.13a2.61,2.61,0,0,0-1.1.22,2,2,0,0,0-.35-.09,1.67,1.67,0,0,0-2.08,1.58,3.21,3.21,0,0,0,.35,1.61,3.15,3.15,0,0,0,.22.33,2.17,2.17,0,0,0,.39.83l.27.36a2.56,2.56,0,0,0-.14,1.81,6.5,6.5,0,0,0,1.41,2.59,2.29,2.29,0,0,0,.78,1.25c-.14,2.08.66,4,.69,6.09a31.82,31.82,0,0,1-.7,6.07,5.86,5.86,0,0,0,.39,3.48c-1,1-1.22,2.81-1.39,4.2a10.21,10.21,0,0,0,0,4,9.39,9.39,0,0,0-.9,1.15c-1,1.47-.06,4.11,1.79,4.39a5.49,5.49,0,0,0,2.06.07,7.07,7.07,0,0,1,1-.26,16.54,16.54,0,0,1,3.5.79,2.92,2.92,0,0,0,3.64-2.86,3.08,3.08,0,0,0-.18-1.65c0-.13,0-.26.05-.4a19.09,19.09,0,0,0-.07-2.89,24.88,24.88,0,0,0,.37-3.08C234.59,60.05,234.7,58,234.84,56Z" transform="translate(-15.58 -8.6)" style="fill-rule:evenodd;fill:url(#linear-gradient-25)"/><path d="M221.66,71.54c-.43-5.76,3.25-11.8,3.08-17.51A53.93,53.93,0,0,0,223,43.13c0,.32,0,.64,0,.95a11.81,11.81,0,0,0-1.28-2.74c-.07-.36-.14-.72-.22-1.08a7.48,7.48,0,0,0,0-.82,21,21,0,0,0-.95-4.44A17.81,17.81,0,0,0,219,31.18a5.38,5.38,0,0,0-.48-1.93,15.93,15.93,0,0,0-.25-1.93,4.14,4.14,0,0,0-1.58-2.3,4.3,4.3,0,0,0-2.68-.95,4.91,4.91,0,0,0-2.57.87c-.42-.07-.84-.12-1.29-.15a8.83,8.83,0,0,0-3.18.42,7.13,7.13,0,0,0-1.35.62,15.35,15.35,0,0,0-4.45-.23c-.68.07-1.4.15-2.12.27a16.41,16.41,0,0,0-8.06.44,13.36,13.36,0,0,0-6.9.08,14.63,14.63,0,0,0-4.21.79,14.93,14.93,0,0,0-9,.54,10.82,10.82,0,0,0-5.6.47h-.73a19.78,19.78,0,0,0-7.48.86,8.25,8.25,0,0,0-1.12-.31,18.78,18.78,0,0,0-5.6-.12,17.62,17.62,0,0,0-3.35.68c-4.17-1.47-9.39-1.37-13.3-.84a19.77,19.77,0,0,0-3.2-1.47,9.68,9.68,0,0,0-5.12-.79c-3.48-1.2-7.14-2.43-10.8-2.44a3.52,3.52,0,0,0-1.6.34,23,23,0,0,0-7.28-1.38,21.22,21.22,0,0,0-7.35.26,7.9,7.9,0,0,0-1.94.07c-3.25-1.76-7.88-1.87-11.69-1.09a7.17,7.17,0,0,0-1.5-.36l-2.19-.25a10.59,10.59,0,0,0-2,0,29.79,29.79,0,0,0-6.27-.66c-2.17,0-4.39.32-6.53.13a2.64,2.64,0,0,0-1.21.17,9.73,9.73,0,0,0-3.81-.34l-.07,0a3.59,3.59,0,0,0-.12-.35A2.35,2.35,0,0,0,59.27,19a1.89,1.89,0,0,0-1.94.66,1.85,1.85,0,0,0-.15,2.06,2.6,2.6,0,0,0,1.13,1.07,2.56,2.56,0,0,0,.49.16,2.52,2.52,0,0,0,.39.41,2.43,2.43,0,0,0,.28.2,6.21,6.21,0,0,0,.92,1.39,5.74,5.74,0,0,0,1.23,1.18,2,2,0,0,0,.12.85,12.71,12.71,0,0,0,1.51,2.79A31.62,31.62,0,0,0,64.91,33a11.89,11.89,0,0,0,3.57,4.2c.2.43.39.87.56,1.3.72,1.78,1.27,3.5,2,5.14.34,1.38.68,2.76,1,4.14a24.79,24.79,0,0,0,1.95,5.54,63.71,63.71,0,0,0,2,8.72c.73,2.52,1.37,5.76,3.24,7.63,0,.1,0,.21,0,.31a7.64,7.64,0,0,0,1.66,4.45,13.33,13.33,0,0,0,1.54,1.9,8,8,0,0,0,1.4,1.14l1,.45.76.08.1.06-.24,0a3.2,3.2,0,0,0,.42.1,10.86,10.86,0,0,0,5.85,1,11.74,11.74,0,0,0,2.73.37A20.09,20.09,0,0,0,97,79.39a17.57,17.57,0,0,0,9.15-.68c.22-.07.45-.16.68-.25a6.13,6.13,0,0,0,1.67.29,10.15,10.15,0,0,0,3.38-.45,4.08,4.08,0,0,0,1.38-.77,15,15,0,0,0,4.61-.23,21.24,21.24,0,0,0,5.32-2.16,9.26,9.26,0,0,0,6.25-.07h.24a8,8,0,0,0,5.22-1.23c1.84,0,3.68-.21,5.54-.39s4-.31,5.9-.68a10.54,10.54,0,0,0,3.07-1.09c3.22.72,6.79.34,10-.06a17,17,0,0,0,6-1.56,36.22,36.22,0,0,0,5,.32,21.93,21.93,0,0,0,3.37-.17,7.71,7.71,0,0,0,.86.2l1.6.26a11.19,11.19,0,0,0,2.52.06,3.86,3.86,0,0,0,1.77-.58l1.6.22c2.32,1.31,5.18,1.77,8.05,2.18,3.52.51,6.94.92,10.21,0,1.31.49,2.66.94,4,1.49,3.43,1.46,6.54,3.57,10,3.41A4.14,4.14,0,0,0,219.89,76l.08-.14a4.12,4.12,0,0,0,.47-2.84A9.14,9.14,0,0,0,221.66,71.54Zm1.85-22.18a14.39,14.39,0,0,0,1,3.9,13.41,13.41,0,0,0-1,3.12,4.08,4.08,0,0,0-.07-.93,29.18,29.18,0,0,0-.12-5.36A5.55,5.55,0,0,0,223.51,49.36Z" transform="translate(-15.58 -8.6)" style="fill-rule:evenodd;fill:url(#linear-gradient-26)"/><path d="M526.28,19l.39-.05C526.26,19,526.17,19,526.28,19Z" transform="translate(-15.58 -8.6)" style="fill-rule:evenodd;fill:url(#linear-gradient-27)"/><path d="M554.21,67.18a12.43,12.43,0,0,0-2.48-4.7c-.05-.24-.1-.47-.16-.7-.13-.47-.28-1-.45-1.44a14.37,14.37,0,0,0-.34-3.07l.05-.1a7,7,0,0,0,0-3.29,13,13,0,0,0-.61-1.92,14.31,14.31,0,0,0-1.2-2.57,5.72,5.72,0,0,0-.32-.48,17.25,17.25,0,0,0-.48-7,13.82,13.82,0,0,0,0-2.95c-.27-2.61-.89-5.6-2.77-7.54a11.94,11.94,0,0,0-11.65-12.57c-2,.26-2.26.3-.81.13-.65.07-1.3.15-2,.25l-.09,0a10.9,10.9,0,0,0-2-.36c-.33,0-2.37.09-2.7.1a11.51,11.51,0,0,0-2.69.61,16,16,0,0,0-2.05-.13,14.25,14.25,0,0,0-6.75,1.69,9.06,9.06,0,0,0-1.62,1.23,5.42,5.42,0,0,0-1.23-.48c-3.36-.8-6.26.43-8.82,2.47l-1,.27c-.84.23-1.71.47-2.57.73a6.27,6.27,0,0,0-4.86.6c-3.58-.58-7.63-.15-11-.15-.74,0-1.53,0-2.33,0a10.14,10.14,0,0,0-1.24-.6,14.24,14.24,0,0,0-3.56-.65c1.56.2-2-.19-2.45-.18a11.94,11.94,0,0,0-2.41.27,8.24,8.24,0,0,0-3.7-1.19c-3.32-.32-6.84-.83-9.73,1l-2-.35a7.48,7.48,0,0,0-1.2-.72c-.83-.39-1.72-.7-2.57-1.06-2.16-.94-4.58-1.85-6.95-1.2a3.43,3.43,0,0,0-1.68,1.07l-.74-.07a10,10,0,0,0-2.52-1.46c-1.07-.37-2.22-.67-3.31-.94a13.69,13.69,0,0,0-5.06-.4,8.55,8.55,0,0,0-.74-.46c-1.36-.76-2.73-1.55-4.14-2.22-2.68-1.27-6-2.86-9-2.54a20.54,20.54,0,0,0-4.81-2.65,3.59,3.59,0,0,0-1-.21,6.9,6.9,0,0,0-1.25-.53,4,4,0,0,0-4,1.06,4.7,4.7,0,0,0-1.43,3.46c0,.36,0,.25.11-.35L405.88,16a11.1,11.1,0,0,0-1,6.14c0,.23.07.44.11.66-1.94,4.09-2.8,9.32-1.39,13.46,0,.35-.07.7-.1,1.05a24.42,24.42,0,0,0-.24,5.32c0,.47-.05.95-.07,1.43-1.56,2.36-1.83,5.44-2.23,8.21a16.11,16.11,0,0,0,.06,6c-.07.31-.14.62-.19.94a30,30,0,0,0-.53,4.44,6.72,6.72,0,0,0-.44,2.84,5.07,5.07,0,0,0-1.29,4.14,5.89,5.89,0,0,0,3,4.51l.16.08a8.62,8.62,0,0,0,5.94,2.45,12.19,12.19,0,0,0,5.76-1.23,8.72,8.72,0,0,0,2.48-.46c.42.07.85.11,1.28.16l1.68-.23.69-.29c.44,0,.86,0,1.26,0a32,32,0,0,0,3.81-.3,23.78,23.78,0,0,0,14-.58,33.71,33.71,0,0,0,5,.23c.77,0,1.6,0,2.45-.12a5.07,5.07,0,0,0,4.69.92,6.12,6.12,0,0,0,1.63-.84c5.33.91,10.84,1.06,15.19-.7a32.1,32.1,0,0,0,4.32.55l.31,0a30.54,30.54,0,0,0,3.37.13c3.54.08,7-.06,10.13-1.42l.27,0c2.51.07,5.23.2,7.95.13a26.24,26.24,0,0,0,9.38.57h.06c.32,0,.63-.08,1-.14h.23A28.88,28.88,0,0,0,511,75.49a15.2,15.2,0,0,0,5.46,0,21.16,21.16,0,0,0,2.35.61c2.74.57,6.07,1.32,8.63-.09,3.25,1.13,6.62,1.81,9.45,1.07a9.23,9.23,0,0,0,2.25.86c2.82.66,6.09.82,8.43-1a4.6,4.6,0,0,0,5.56-1.37,4.76,4.76,0,0,0,1-2.81,4.18,4.18,0,0,0-.28-1.55A6.75,6.75,0,0,0,554.21,67.18Z" transform="translate(-15.58 -8.6)" style="fill-rule:evenodd;fill:url(#linear-gradient-28)"/></g></g><g id="Shadows" style="opacity:0.25;mix-blend-mode:multiply"><g id="shadowLayer"><path d="M231.46,74a5.77,5.77,0,0,0,2.3-1.8,6.4,6.4,0,0,0,1.09-5.3,6,6,0,0,0-.15-.64c.26-.39.5-.79.73-1.21-.14-7.37-.23-14.75,0-22.11a15.91,15.91,0,0,0-1.12-1.76c-.11-.14-.22-.26-.34-.39-.88-2.63-2.46-5-5.38-5.64a6,6,0,0,0-6.29,2.29,18.87,18.87,0,0,0-8.06-12l-3.62-.11a4.22,4.22,0,0,0-1.89,2.47c.26,3.88,1.05,7.79,1.18,11.64a49.57,49.57,0,0,1-2.09,15.49c-3,9.85-10.73,16.31-21.42,14.91a23,23,0,0,1-10.54-4.31,25.28,25.28,0,0,1-6.32-3.83,4.77,4.77,0,0,1-.91-.2l-1.56.13c.05-.24.09-.48.12-.75v-.13a5.56,5.56,0,0,1-1.09-1.08c-7.55-9.87-18.5-16.48-29-22.72a142.85,142.85,0,0,0-13.73-7l-.59-.14a63.35,63.35,0,0,0-20.12-5.15,36.36,36.36,0,0,0-10.95-1.15,6.59,6.59,0,0,0-2.45.63c4.18,4.66,8.26,9.41,12.09,14.38,5.22,6.77,9.94,14,10.6,22.74.31,4.16-3.75,5.59-6.79,4.38a5,5,0,0,1-2.38-.07c-9.54-2.5-18.31-7.29-28.13-8.78-3.65-.55-4.29-4-3-6.58-1.58-4.72-2.85-9.52-4.06-14.35a9.12,9.12,0,0,0-4.14-1.27,40.13,40.13,0,0,1-5.53,3.71c-1,.8-1.9,1.59-2.88,2.35-1.42,1.11-3,2.13-4.59,3.21,7.58,4.29,12.95,11.28,16.13,20,2,5.44,4,11.8,2.54,17.59a20.46,20.46,0,0,1-2,5v.37a7.26,7.26,0,0,0,.69,3.2l-.39.37a2,2,0,0,0-.54.87c-1.34.79-2.71,1.52-4.08,2.24-.37.66-.73,1.34-1.05,2a4.28,4.28,0,0,1-2.31,2.32,3,3,0,0,0,2.91,2.38,17.54,17.54,0,0,0,9.18-2.91,3.69,3.69,0,0,0,.86-.76c3.3,1.53,6.84,1.19,10.52.29a28.06,28.06,0,0,0,10.78.3c.55.13,1.11.22,1.68.3a396,396,0,0,1,63.6-13q12.72-2.69,25.66-4.31c12.58-1.55,25.39-3.31,38-1.24A4.56,4.56,0,0,1,225,80a4.31,4.31,0,0,1,2.36,3.14c1.21,5.43,4.17,8.25,8.63,10.08,1.16-2.87.69-6.7,0-9.5C235.12,80.21,234,76.41,231.46,74Z" transform="translate(-15.58 -8.6)" style="fill-rule:evenodd;fill:url(#linear-gradient-29)"/><path d="M279.05,74.54a5.37,5.37,0,0,1,1.55-.23c2.92,0,5.84-.21,8.76-.35a37.16,37.16,0,0,1-3.54-15.58,47.14,47.14,0,0,1-7-16.93,4.88,4.88,0,0,1-3.34-1.52c-.06.12-.13.23-.18.35a6.37,6.37,0,0,0-6,1.63c-4.27,4.51-4.4,11.35-3,17.15,1.26,5.08,1.83,10.64,5.6,14.53a8.86,8.86,0,0,0,2.33,1.72l1-.09a5,5,0,0,1,2.52-.65Z" transform="translate(-15.58 -8.6)" style="fill-rule:evenodd;fill:url(#linear-gradient-30)"/><path d="M555.69,52.79a81,81,0,0,1,3.4-17.67,8.52,8.52,0,0,0-5.86-1,9.75,9.75,0,0,0-1.57.4,5.3,5.3,0,0,0-5.74-.69c-.25-.56-.5-1.12-.78-1.68a9.12,9.12,0,0,0,.18-2.85,4.18,4.18,0,0,1-.91-1.1,41,41,0,0,1-2.18-4.59,11.16,11.16,0,0,0-1.61-1.1,8.2,8.2,0,0,0-7.48-1.68c3.36,9.73,4,21.32,3.94,30.55,0,6.48-.53,14.5-2.77,21.63a24.12,24.12,0,0,0,4.83,3c2.73,2,5.75,3.57,9.24,3.5a6.84,6.84,0,0,0,5.28-2.57,8.57,8.57,0,0,0,2.1-2.55C554.61,67.22,555.08,59.53,555.69,52.79Z" transform="translate(-15.58 -8.6)" style="fill-rule:evenodd;fill:url(#linear-gradient-31)"/><path d="M238.14,132.93c-1.31-8.15-1-16.73-.74-24.72,0,0,0-.1,0-.14-.33-1.4-.67-2.79-1-4.16h0c-.18.7-.37,1.39-.58,2.07a5.24,5.24,0,0,1-.41,2.7c-3.8,8.85-5.7,18.37-9.41,27.26a47,47,0,0,1-12.58,17.2l-.45.39a46.6,46.6,0,0,0,12.89-1.36,7.8,7.8,0,0,0,3.37.78,8.29,8.29,0,0,0,5.69-2.36,6,6,0,0,0,1.67-2.59,6.11,6.11,0,0,0,.69-3.1A11.25,11.25,0,0,0,237,143a9.21,9.21,0,0,0-.37-5.9c.32-.69.61-1.4.88-2.13S237.94,133.61,238.14,132.93Z" transform="translate(-15.58 -8.6)" style="fill-rule:evenodd;fill:url(#linear-gradient-32)"/><path d="M595,121.05c-.22-3.41-.31-7.65-1.6-11.11,1.59-2.46.13-6.47-.93-8.87-.18-.43-.37-.86-.58-1.27a4,4,0,0,1-1.3-1.45c-.09-.19-.16-.37-.24-.56l-.25-.2a3.67,3.67,0,0,0-2.27-.62c.13,7.45.29,14.77-2.3,21.94-.43,1.18-.9,2.33-1.4,3.48a59.48,59.48,0,0,1-3.88,8.23,5.54,5.54,0,0,0-.58.17c-1.26,2-2.62,4-4.06,5.85a106.9,106.9,0,0,1-11.72,12.88,22.71,22.71,0,0,0,4.21-.09c1.18.16,2.35.26,3.46.35,3.44.3,7.46.69,10.6-.63a7.91,7.91,0,0,0,2.81.94,7.49,7.49,0,0,0,5.86-1.56c1.77-1.36,3.45-3.84,3.13-6.22a24,24,0,0,0-.73-4.13,11.1,11.1,0,0,0-.48-1.28A36.25,36.25,0,0,0,595,121.05Z" transform="translate(-15.58 -8.6)" style="fill-rule:evenodd;fill:url(#linear-gradient-33)"/><path d="M305.74,68.92a42.61,42.61,0,0,0,5.05.87,6.63,6.63,0,0,1,1.55-.38,51.11,51.11,0,0,1,8.48-.2l.19-.16a5.44,5.44,0,0,0,1.41-2.42,5.56,5.56,0,0,0,0-2.92l-.22-.55a20.8,20.8,0,0,0,.61-8.06,50.56,50.56,0,0,0-.73-7.08c-.73-4.94-1.81-12.06-6.75-14.46a4.51,4.51,0,0,0-2.16-.46c.89,7.83,3.28,15.49.54,23.3C312,61.21,309.06,65.2,305.74,68.92Z" transform="translate(-15.58 -8.6)" style="fill-rule:evenodd;fill:url(#linear-gradient-34)"/><path d="M388.08,70.66h1.38c.14-.12.29-.23.42-.36a5.35,5.35,0,0,1,0-1.88q.62-4.11.89-8.28l-.14-.16a8.32,8.32,0,0,0-.26-1,5,5,0,0,0-.24-.63c.28-.51.54-1,.78-1.46a79.09,79.09,0,0,0-2.15-21.25,11.65,11.65,0,0,0-1.57-1.17c-.83,5-.9,10.07-2.38,14.91a30.29,30.29,0,0,1-7.58,12.67,35.14,35.14,0,0,1-11.61,7.53l.31.24A197.87,197.87,0,0,1,388.08,70.66Z" transform="translate(-15.58 -8.6)" style="fill-rule:evenodd;fill:url(#linear-gradient-35)"/><path d="M426.25,125.64a17.38,17.38,0,0,1-.32-7c-.62-5.37-1.17-10.77-.42-16.1a5,5,0,0,0-1-2,2.11,2.11,0,0,0-.27-.25,7.68,7.68,0,0,0-1.43-2.89,1.37,1.37,0,0,0-.57-.41,3.16,3.16,0,0,0,1-.14,8.11,8.11,0,0,0,3.19,1.76,4.5,4.5,0,0,0,.64.11,3.84,3.84,0,0,1,1.52-.86c-.72-1.47-1.4-3-2.09-4.45-6-2.52-10.49-9.2-12.35-15a4.87,4.87,0,0,1-.19-.8,23.06,23.06,0,0,0-3.47-1.59,16.74,16.74,0,0,0-4-.4,1.51,1.51,0,0,0-.88.18,13.42,13.42,0,0,0-2-.28,1.45,1.45,0,0,0-1.25,2.18l.06.09A3.74,3.74,0,0,1,404.3,79a5.53,5.53,0,0,1,2.15,2.83,10.36,10.36,0,0,0,.52,1.2c4.75,3.51,8.33,8.32,12.9,12.34a5.13,5.13,0,0,1,1.07,1.26l.1.08.25.08-.12,0a4.11,4.11,0,0,1,1,4.7c-.24.67-.47,1.34-.68,2a4.85,4.85,0,0,1-.09,2.63c-1.13,3.81-2.08,7.43-3.4,10.76-1.24,8.83-7.44,14.81-14.61,19.76l-.09.06c-4.22,2.91-8.77,5.46-12.84,8a4.64,4.64,0,0,1-2.93.75,74.54,74.54,0,0,1-9.9,4.31c-1.14.39-2.29.75-3.44,1.1h13.67a8.93,8.93,0,0,0,.87-.95c1.48-.06,3.19-.11,4.89-.3a7.68,7.68,0,0,0,2.25,1.25h16.28a16.77,16.77,0,0,0,2.8-2.36,5.19,5.19,0,0,0,4.62.5,7.74,7.74,0,0,0,5.24-4.9,17.94,17.94,0,0,0,.91-3.62,12.77,12.77,0,0,0-1-7.7A26.88,26.88,0,0,0,426.25,125.64Z" transform="translate(-15.58 -8.6)" style="fill-rule:evenodd;fill:url(#linear-gradient-36)"/><path d="M57.11,150.16A14.35,14.35,0,0,0,59,146.81c.09-.58.18-1.17.23-1.76a48,48,0,0,0-.1-6.34,5.24,5.24,0,0,0-.32-.57,22.1,22.1,0,0,0-.8-9.54c0-.44,0-.89.09-1.32.36-4.45.87-9.49-1-13.67-2.53,12.46-2.7,25.12-9.64,36.53a38.29,38.29,0,0,1-3,4.19c.41,0,.83.06,1.24.06l.48.26a4.26,4.26,0,0,0,3,1.26,12.59,12.59,0,0,0,4.88-.73c1.78-.77,3.34-2.6,3.08-4.65C57.16,150.4,57.14,150.28,57.11,150.16Z" transform="translate(-15.58 -8.6)" style="fill-rule:evenodd;fill:url(#linear-gradient-37)"/><path d="M63.74,165.29A6.79,6.79,0,0,0,61.89,164c-2.61.51-5.23,1-7.85,1.46l0,0a4.78,4.78,0,0,0-1,1.2c0,.12,0,.23,0,.35,0,1.5-.1,3-.23,4.5,1.14,1.65,3.73,2.49,5.38,1.29.43-.31.89-.56,1.29-.9h0c.38,0,1.63.16.35-.07a4.8,4.8,0,0,0,2.83-.32,19.39,19.39,0,0,1,.92-5.57,5,5,0,0,1,.23-.53Z" transform="translate(-15.58 -8.6)" style="fill-rule:evenodd;fill:url(#linear-gradient-38)"/></g></g><g id="Highlights" style="opacity:0.49;mix-blend-mode:overlay"><g id="HighlightsLayer"><path d="M74.3,50.1a6.21,6.21,0,0,0,.36-1.16l0,0c0-.13,0-.27,0-.41.38-4-.69-8-2-11.72a77.9,77.9,0,0,0-4.91-10.52C66.9,25.33,66,24.45,65,23.59A10.87,10.87,0,0,0,62.61,21a1.33,1.33,0,0,0-1.45-.16,3.76,3.76,0,0,0-1.72-1.25,1.31,1.31,0,0,0-1.46.59,1.85,1.85,0,0,0-.18.62c-.12,1,1.19,2.06,1.72,2.72a10.93,10.93,0,0,0,2.16,2.29c.41.65.83,1.28,1.27,1.9a1.11,1.11,0,0,0,.28.59l.89,1,.09.14a.62.62,0,0,0,.12.42c3.12,4.24,3.74,9.76,6.54,14.07l.24,1.55c.27,1.59.21,3.25,1.21,4.6C72.76,50.7,73.91,51,74.3,50.1Z" transform="translate(-15.58 -8.6)" style="fill-rule:evenodd;fill:url(#linear-gradient-39)"/><path d="M54,33.19a8.79,8.79,0,0,0-5.19,1.11c-1.54.72-3.33,1.53-4.25,3a.65.65,0,0,0-.08.17l-.47.14c-2.4.72-4.9,1.35-7.22,2.27a1.29,1.29,0,0,0-.73.82,4.15,4.15,0,0,1,1.08.62,5.49,5.49,0,0,1,1.08-.39c5-1.25,9.62-3.11,14.74-3.79l.39,0a3.19,3.19,0,0,0,1.1-.85,1.76,1.76,0,0,0,.31-.68l.15-.18A1.52,1.52,0,0,0,54,33.19Z" transform="translate(-15.58 -8.6)" style="fill-rule:evenodd;fill:url(#linear-gradient-40)"/><path d="M24.69,80.36l.32-.17a57.4,57.4,0,0,1-2.83-13C21.4,59,24,49.39,29.92,43.41a3.06,3.06,0,0,0-1.22-1L27.76,42a2.9,2.9,0,0,0-2.9.77C15.56,52,13.85,71.56,24.69,80.36Z" transform="translate(-15.58 -8.6)" style="fill-rule:evenodd;fill:url(#linear-gradient-41)"/><path d="M21,83.58a0,0,0,1,0,0,0" transform="translate(-15.58 -8.6)" style="fill:none;stroke:#000;stroke-linecap:round;stroke-linejoin:round;stroke-width:0px"/><path d="M22.44,95.24h0V84.47c0-.16,0-.31,0-.46l-.05,0-.14-.5A.77.77,0,0,0,21,83.15a.54.54,0,0,0-.37.08v0C18.9,84,19.41,86.4,19.43,88c0,1.34.06,2.64.14,3.93a1,1,0,0,0-.07.44c.12,2.37.15,4.78.13,7.15s-.55,4.82-.35,7.16a1.38,1.38,0,0,0,.89,1.26c0,.63-.06,1.26-.11,1.88-.21,2.71-.57,5.48.57,8l0,0c-.06,2.21,0,4.42.17,6.61a.89.89,0,0,0-.32.53,38,38,0,0,0-.38,6.66,31.32,31.32,0,0,0,.13,6.71,1,1,0,0,0,.35.6c-.07,1.15.09,2.38.11,3.45,0,.55,0,1.1,0,1.66a4.72,4.72,0,0,0-.54,2,26.3,26.3,0,0,0,.18,3.55c.07.94.15,1.84.26,2.72a31.42,31.42,0,0,0,0,3.88,21,21,0,0,0,.51,4.5l0,.91c0,.8.1,2.6,1.24,2.7Z" transform="translate(-15.58 -8.6)" style="fill-rule:evenodd;fill:url(#linear-gradient-42)"/><path d="M250.41,66.25a48.73,48.73,0,0,0,1.93-8.62c.21-2.1.43-4.14.83-6.12a14,14,0,0,0-2.12-4.32c-1.21-1.57-4.5-.77-3.6,1.52,2.08,5.27.47,11.24,2.09,16.56A1.5,1.5,0,0,0,250.41,66.25Z" transform="translate(-15.58 -8.6)" style="fill-rule:evenodd;fill:url(#linear-gradient-43)"/><path d="M247.78,34.49a59,59,0,0,0,9.34-2.88,1.79,1.79,0,0,0-.69-.85c-2.57-1.75-5.81-1.13-8.61-.21A42.34,42.34,0,0,0,238,34.87a1.41,1.41,0,0,0-.64.9c2.89-.1,5.75-.29,8.6-.56A4.86,4.86,0,0,1,247.78,34.49Z" transform="translate(-15.58 -8.6)" style="fill-rule:evenodd;fill:url(#linear-gradient-44)"/><path d="M333.2,31.91c.9-.17,1.8-.37,2.69-.58a2.51,2.51,0,0,0-1.69-1.79c-2-.55-4,0-6,.43-2.42.53-4.86,1-7.25,1.7a1.5,1.5,0,0,0-.73.5C323.63,34.23,329.6,32.59,333.2,31.91Z" transform="translate(-15.58 -8.6)" style="fill-rule:evenodd;fill:url(#linear-gradient-45)"/><path d="M402.48,35.37a20.55,20.55,0,0,1,1-2.94,36.62,36.62,0,0,0,2.8-8.81c1-5.93,3.87-9.34,9.82-10.84l.37-.08c-2.65-3.25-7.84-3.68-10.18.3-1.63,2.76-1.66,6.9-2.32,10-.82,3.91-1.9,7.74-1.7,11.76A1.6,1.6,0,0,0,402.48,35.37Z" transform="translate(-15.58 -8.6)" style="fill-rule:evenodd;fill:url(#linear-gradient-46)"/><path d="M569.34,43.32c-4.22-.61-8.41-1.37-12.6-2.14a1.84,1.84,0,0,0,1.38,2.54c3.18.67,5.93,2.74,8.9,4a49.93,49.93,0,0,0,8.85,2.86c5.57,1.25,11.85,3.06,17.56,3a.81.81,0,0,0,.74-1.16h.05a1.81,1.81,0,0,0,1.65-.94.92.92,0,0,1,.16-.27.87.87,0,0,0,.14-.29,1.89,1.89,0,0,0,.72-.15A5.05,5.05,0,0,1,598,48.8C588.9,45.36,578.86,44.72,569.34,43.32Z" transform="translate(-15.58 -8.6)" style="fill-rule:evenodd;fill:url(#linear-gradient-47)"/><path d="M592.88,138.76a20.27,20.27,0,0,0-.59,7.62,4.88,4.88,0,0,0,4.08,4.29A33,33,0,0,1,592.88,138.76Z" transform="translate(-15.58 -8.6)" style="fill-rule:evenodd;fill:url(#linear-gradient-48)"/><path d="M425.27,140.66a12.27,12.27,0,0,0,1.41,6.82c1.44,2.37,5.6,3.46,8,1.8A29.46,29.46,0,0,1,425.27,140.66Z" transform="translate(-15.58 -8.6)" style="fill-rule:evenodd;fill:url(#linear-gradient-49)"/><path d="M236.46,141.73c0,5.11,3.44,10.68,8.79,9.83a2.34,2.34,0,0,0,1.46-1A23.24,23.24,0,0,1,236.46,141.73Z" transform="translate(-15.58 -8.6)" style="fill-rule:evenodd;fill:url(#linear-gradient-50)"/><path d="M58.44,145.11a11.75,11.75,0,0,0,.71,7.18,6.23,6.23,0,0,0,4.66,3A34,34,0,0,1,58.44,145.11Z" transform="translate(-15.58 -8.6)" style="fill-rule:evenodd;fill:url(#linear-gradient-51)"/></g></g><g id="Filter" style="opacity:0.08;mix-blend-mode:overlay"><g id="Layer_12" data-name="Layer 12"><path d="M643.3,154.92a.05.05,0,0,0,0,.1A.05.05,0,1,0,643.3,154.92Z" transform="translate(-15.58 -8.6)" style="fill:#3e1854;fill-rule:evenodd"/><path d="M640.3,152.4a1,1,0,0,0,0-.1,5.51,5.51,0,0,0-.3-1.79,5.34,5.34,0,0,0-2-3.2,10.17,10.17,0,0,0-2.75-1.45,12.41,12.41,0,0,0-1.32-.51,8.86,8.86,0,0,0-1.15-.17,2.44,2.44,0,0,0-.44-.13,3.7,3.7,0,0,0-.48-.06c0-1,0-1.92,0-2.81a6.61,6.61,0,0,0-.47-2.36,35.18,35.18,0,0,0-1.28-13.41,6.69,6.69,0,0,0,.18-1.4v-.37a4.64,4.64,0,0,0,.78-3c-.41-7-.6-14-.63-21l0-5.13a5.3,5.3,0,0,0,.44-2.18c.08-14.06,2.89-29-2.14-42.3-1-2.56-2-6.35-5.43-4.8a4.36,4.36,0,0,0-.86-.59l-1.42-.6a5.94,5.94,0,0,0-2.78-.08h-.57a5.69,5.69,0,0,0-2.07-2.17c-4.51-2.82-11.5-3.26-16.7-4.17a65.11,65.11,0,0,0-9.27-1.06A6.44,6.44,0,0,0,588,35.76c-2.69-2-6.23-2-9.43-2.37a39.5,39.5,0,0,0-6.68-.6c-4-2.74-9.93-3.9-14.26-2.5A5.11,5.11,0,0,0,554,28.88c-.53,0-1.05,0-1.57,0a12.16,12.16,0,0,0-5.5-.09,4.47,4.47,0,0,0-1.49.59,4.82,4.82,0,0,0-1.12.54c-.12-.23-.24-.45-.37-.67-.66-3.35-2.82-6.46-5.76-7.68a10,10,0,0,0-4.24-1.4,6.74,6.74,0,0,0-2.9-.57L530,19.7a12.77,12.77,0,0,0-5.13-.53,27.58,27.58,0,0,0-4.08.52c-2.87.21-6,.92-7.74,2.74l-.19.06c-3.21-1.39-7.47.46-10.73,2.7a24.51,24.51,0,0,0-7.9.35,24.78,24.78,0,0,0-5.66-.27,46.34,46.34,0,0,0-6.3-.44c-2,0-3.81,0-5.19,1a26,26,0,0,0-4.38-.38c-2.84-.69-7.13-2-10-.69a35.67,35.67,0,0,0-9-.52c-3.5-1.7-7.38-1.92-11.43-2.39l-.25,0-1-.21a86.35,86.35,0,0,0-12.21-2.17,21.68,21.68,0,0,0-4.2-2.57c-.67-.36-1.34-.67-2-1a23.88,23.88,0,0,0-4.19-2.45,5.41,5.41,0,0,0-2.65-.49,10.22,10.22,0,0,0-4-2.78c-3.26-1.35-7.08,2.67-5.87,5.86,0,.08.07.16.1.23a50.68,50.68,0,0,0-1,6.94.66.66,0,0,0,0,.14,25.92,25.92,0,0,0-1.22,7.2h-.18a8.8,8.8,0,0,0-1.78-.47,7,7,0,0,0-4.38.54c-4.43-.05-9.12.92-11.26,4a7,7,0,0,0-1-.74,13,13,0,0,0-2-1c-3.05-2.33-6.57-2.83-10.37-3.25a24.85,24.85,0,0,0-5.65-.18,8.56,8.56,0,0,0-4.9.4,31.07,31.07,0,0,0-7.47-.05,4.26,4.26,0,0,0-2.21-1.42,5.65,5.65,0,0,0-4.29.63,6,6,0,0,0-1.21,1h-.72c-3.66-1.25-10.82-1.45-14.48.85a25.23,25.23,0,0,0-5.75,1.07,11.5,11.5,0,0,0-10.33,3.38c-3.17-3.37-9.75-4.2-16.39-4a5,5,0,0,0-.82-.62,6.73,6.73,0,0,0-4.78-.63,17.11,17.11,0,0,0-3.15.82,14,14,0,0,0-1.44,0,17.14,17.14,0,0,0-8,.21,70.61,70.61,0,0,0-9-.18c-2.48.12-5,.37-7.43.7-3.54-1.12-7.72-.2-11.27.47l-1,.18a4.32,4.32,0,0,0-2.87-1,5.9,5.9,0,0,0-3.9,1.53,16.14,16.14,0,0,0-6.12,1.9l-.24,0a3.86,3.86,0,0,0-2.1-.34,8.1,8.1,0,0,0-3.77,1.74,24.62,24.62,0,0,0-8.75-3c-1.62-1.15-3.58-2.53-5.45-2.37a11.27,11.27,0,0,0-.86-2.72,3.21,3.21,0,0,0-1.79-1.6,4.51,4.51,0,0,0-6.52-.94,11.64,11.64,0,0,0-1.16-.42c-2.69-.81-5.49-.75-7.66,1.06-3.89-1.7-9.44-1.88-12-.9a4,4,0,0,0-1.66,1.2c-2,0-3.95.2-5.64.27-4.26.18-9.14.32-13.14,2.05a18.43,18.43,0,0,0-8.34,1.07c-.8,0-1.59.08-2.34.1a52.05,52.05,0,0,0-5.24-.69c-4.09-.4-8.32-.69-12.22.59-3.67-.91-7.9-2.67-11.63-1.73a62.91,62.91,0,0,0-8.3-1.81c-3.09-.56-8.41-2.5-12.54-2.21a28.61,28.61,0,0,0-6.71-1.6c-5-.66-11-1.52-15.82.53-4.7-1.18-10.24-3.67-14.79-1.44-.07,0-.11.09-.18.13-.92-.08-1.85-.13-2.79-.13a3.64,3.64,0,0,0-1.37.28A4,4,0,0,0,63.14,21l-.4-.23-.08-.05-.2-.1c-.14-.07-.28-.15-.42-.21a5,5,0,0,0-1.7-.47,1.77,1.77,0,0,0-1,.14,6.37,6.37,0,0,0-.63-.35.73.73,0,0,0-.88,1.14,5.66,5.66,0,0,0,.61.67.8.8,0,0,0,.05.21,5.12,5.12,0,0,0,.6,1.48,16.22,16.22,0,0,0,1.1,1.38l.13.13c.38.56.78,1.1,1.2,1.63a7.76,7.76,0,0,0,.31,1c.44,1.07,1,2.1,1.53,3.13A22.12,22.12,0,0,0,65,33.16l.06.17A11,11,0,0,0,63,32.88c-.25,0-.5,0-.76-.05a7.71,7.71,0,0,0-3.75-.32,19.84,19.84,0,0,0-2.34.51c-6.77.16-15,4.95-19.85,7.35a4.9,4.9,0,0,0-2.12,2C29.27,43.46,23.89,44.54,20.93,49a25.54,25.54,0,0,0-3.82,15.69c.53,5.46,4.48,10.43,7.62,15a3.76,3.76,0,0,0-.58,0,5.06,5.06,0,0,0-4.74,3.61,13,13,0,0,0-.32,3.17A9.57,9.57,0,0,0,19.18,88a4.8,4.8,0,0,0,.34,1.2l.15.67a3.54,3.54,0,0,0,.37.93,42.07,42.07,0,0,0,0,4.9c0,6.65-.73,13.22-.92,19.88-.1,3.86-.11,8.06,1.05,11.72a16.85,16.85,0,0,0,.86,5.39c-.06.8-.08,1.6-.09,2.41a51.66,51.66,0,0,0-.12,7.14c0,3.27-.2,6.67.06,10-.21,1.16-.35,2.34-.48,3.51a3.14,3.14,0,0,0,.14,1.3,4.24,4.24,0,0,0-.64,1.36l0,0c0,.06,0,.13,0,.19l-.06.37c0,.15,0,.31,0,.46s0,0,0,.07v.06a4.59,4.59,0,0,0,.34,2.06,5,5,0,0,0,1.26,1.82,4,4,0,0,0,3.94,1,3,3,0,0,0,2.41.84c2.36-.22,4.7-.48,7.06-.68a7.87,7.87,0,0,0,.35,2.85c0,.06.05.11.07.17.19.8.4,1.59.59,2.4-.89,2.65,1.19,6.23,4.23,5.9,2.16-.23,4.32-.45,6.47-.72l.85.35a6.06,6.06,0,0,0,1.17.29,7.64,7.64,0,0,0,4-.15A8.42,8.42,0,0,0,56,173.12l.39-.28a9.35,9.35,0,0,0,1.88-1l.32.08a3.83,3.83,0,0,0,3-.79A3.79,3.79,0,0,0,63.11,168a9.47,9.47,0,0,0-.23-1.87,5.1,5.1,0,0,0-.35-.9,7,7,0,0,0,.33-.82c4.5,1.28,10,.68,14.71-.62a3.47,3.47,0,0,0,1.08.48,7.34,7.34,0,0,0,4.8-.6,2.57,2.57,0,0,0,1.15.49c4,.57,9.4,1.32,13-.83H227.69a6.4,6.4,0,0,0,1.09-.1c3.43.85,6.84,1.84,10.36,1.83a3.9,3.9,0,0,0,3.51-2.23c2.07.1,4.08.18,6.06.13a31.38,31.38,0,0,0,7.87,0c1.05-.08,2.18-.12,3.33-.17,4.43,1.17,9.34.61,14,.17,3.46,1.81,8.54,1.3,12.08,1.28,4.71,0,11.71.75,15.79-2.23a35,35,0,0,0,10.52,0,23.88,23.88,0,0,0,5.86.05l.71,0a5.72,5.72,0,0,0,2.75.82,30.78,30.78,0,0,0,6.45-.16,24.06,24.06,0,0,0,6.07-.42c1.12,0,2.24,0,3.34,0a4.92,4.92,0,0,0,1-.14c3.89.88,8.47.28,12.16,0,2.34-.2,5.15-.16,7.88-.4,3.68,1.39,8.41,1.08,11.88.69,1.6-.18,3.62-.32,5.55-.69,3.7.24,7.4.37,11.1.56,6.22.33,14.1,1.91,20-.38a4.25,4.25,0,0,0,1.11-.68c2.84.25,5.68.32,8.43.29a74.69,74.69,0,0,0,12.88-.79c3.18.87,6.59.58,10,.25,2.52-.25,5.27-.25,7.95-.51a4.75,4.75,0,0,0,1.05.45c3.79,1.07,8,1.43,11.59-.17a10.37,10.37,0,0,0,1.79-.41,44.3,44.3,0,0,0,9.64,0l.85-.06a4.21,4.21,0,0,0,.52.4,1.87,1.87,0,0,0,.31.17,3.75,3.75,0,0,0,1.18.6,4.36,4.36,0,0,0,.8.16,6,6,0,0,0,2.82-.07,4,4,0,0,0,2.11-1.28c.06,0,.14-.07.21-.12q5.87.71,11.75,1.31a17.28,17.28,0,0,0,6.79-.69,41.35,41.35,0,0,0,8.75.35,35.51,35.51,0,0,0,5.78-.65,42.69,42.69,0,0,0,8.61,0,49.25,49.25,0,0,0,5.48-.44c.8,0,1.59,0,2.36,0a43.59,43.59,0,0,0,5.29-.38c3.18.67,7.25.22,10.79-.48a41.4,41.4,0,0,0,9.2.38,69.17,69.17,0,0,0,9-.74c2.74.33,5.51.46,8.27.56a27.59,27.59,0,0,0,6.47-.2l2.31.05a5.08,5.08,0,0,0,1.08-.11c3,.75,5.44,1.24,8.56-.15a4.3,4.3,0,0,0,.88-.08l1,.31a18.35,18.35,0,0,0,6.2,1.2c.11,0,.23,0,.34,0a11.23,11.23,0,0,0,3.3,4.07,12.52,12.52,0,0,0,3.31,2.32,2.18,2.18,0,0,0,1.2,1.23,10.85,10.85,0,0,0,5.27,1.2,11.43,11.43,0,0,0,2.6-.39l.21-.08a10.49,10.49,0,0,0,4.32.41l.19,0a4.23,4.23,0,0,0,3.56-.07c2.61-1.14,3.15-4.44,3.42-6.91a3.64,3.64,0,0,0-.43-1.93,7.28,7.28,0,0,0,0-1c.21-.09.43-.18.64-.29l.27-.17a8.52,8.52,0,0,0,.9-.26,34.32,34.32,0,0,0,6.73.66,5.06,5.06,0,0,0,1.86-.38,3.89,3.89,0,0,0,.82-.13,2.64,2.64,0,0,0,.6-.2,4.09,4.09,0,0,0,1.3-.86,4.24,4.24,0,0,0,1.21-2.92c0-.09,0-.18,0-.26A4.71,4.71,0,0,0,640.3,152.4Z" transform="translate(-15.58 -8.6)" style="fill:#3e1854;fill-rule:evenodd"/></g></g><g id="Lines"><path d="M23.28,79.44l-3.84,2.64" transform="translate(-15.58 -8.6)" style="fill:none;stroke:#3e0400;stroke-width:2px;fill-rule:evenodd"/><path d="M631.44,148.08h9.12v10.56l-88.08,1.56L247.2,163.92l-226.56.24-1.2-82.08H25.2" transform="translate(-15.58 -8.6)" style="fill:none;stroke:#3e0400;stroke-miterlimit:10;stroke-width:2px;fill-rule:evenodd"/><path d="M640.56,147.84,631.92,144" transform="translate(-15.58 -8.6)" style="fill:none;stroke:#3e0400;stroke-width:2px;fill-rule:evenodd"/><path d="M553.92,75.12S585.44,92.07,589.2,96s5.25,10.4,5.76,20.16-2.17,27.55-2.88,31.68c-.42,2.24-12.72,1.28-12.72,1.28l-147.12,1s-6.52-1.52-6.72-3.6-.72-42.32-.72-42.32.15-5.46-1.2-7-3.67-2.62-7.68-2.64-12.47,1.09-21.36,1.92-28.73,1-36,1.44-28.21,1-35.28,1.2-34.13-.24-41-.48-34.12-.3-38.88-.24-7,1.44-7,1.44" transform="translate(-15.58 -8.6)" style="fill:none;stroke:#3e0400;stroke-width:2px;fill-rule:evenodd"/><path d="M591.84,148.32s3.5,2.92,5.52,3.12,27.54,0,29,0,5.22-.83,5.52-5.52-.78-17.52-1.2-23.76-.38-29.88-.48-36.48,2.82-25.2,1.68-29.28-4.28-10.15-9.84-11.76S569.47,30.9,563,30c-4.23-.6-13.26-1-19.1-1.26m-140.44.59c-2.45.11-3.89.18-4.38.19-2.35,0-9.92,2.27-13,3.6-3.57-1.69-19.17-4.5-36.48-4.08s-29.72,1.43-34.8,5.28c-3.66-1.66-13.06-5.08-35.28-4.32s-34.68,0-47.28,6.48a24.44,24.44,0,0,0-12.6-4.55h-.12M64.45,32.4a28.64,28.64,0,0,0-6.85-.48C46.74,34.7,25,44.4,25,44.4S15,50,16.8,65.28c.82,5.58,4.41,11.21,10.08,18.48.3,5.55,1.44,64.43,1.44,64.43s-.39,5.57,6.48,6.72,19.61.93,21.84-.72,2.39-21.91,1.92-28.43-.9-26,0-27.12S73.33,89.21,76.8,86.4A131.45,131.45,0,0,1,88.08,79" transform="translate(-15.58 -8.6)" style="fill:none;stroke:#3e0400;stroke-width:2px;fill-rule:evenodd"/><path d="M58.08,150.83s1.14,3.68,6,4.08,35.37-1.13,42.48-1.75,27.45.13,40.56-.13,36.86.74,44.88.24,36.66-.58,39.38-2.36c3.74-1.63,6-3.75,6-4.84.33-2.41-.91-37.9-.94-39.95s.22-7.24.22-7.24S228.65,96,227,96s-7.23,1.25-13.2,1.68-48.91,1.39-69.6,1.44S90.54,96.73,79.92,97A209.9,209.9,0,0,0,58.8,98.64" transform="translate(-15.58 -8.6)" style="fill:none;stroke:#3e0400;stroke-width:2px;fill-rule:evenodd"/><path d="M590.16,96.72c-5.37-4.16-17.42-1.61-23.52-1s-20.74.79-30.24,1-55.71,1-73-.48-39.6,1.2-39.6,1.2c-.52-.45-23.5-22.16-32.88-27.6" transform="translate(-15.58 -8.6)" style="fill:none;stroke:#3e0400;stroke-width:2px;fill-rule:evenodd"/><path d="M58.56,98.64s8.31-6,9.6-13-.09-26.26-9.36-34.8c-8.07-7.44-20-12.68-34.26-6.16" transform="translate(-15.58 -8.6)" style="fill:none;stroke:#3e0400;stroke-width:2px;fill-rule:evenodd"/><path d="M236.64,98.64s1-2.84-3.6-25.2" transform="translate(-15.58 -8.6)" style="fill:none;stroke:#3e0400;stroke-width:2px;fill-rule:evenodd"/><path d="M626.88,47.76c-10.69-4-25.5-4.61-29,.24s-7.47,11.29-6.48,20.64,3,24.5,3.6,46.08" transform="translate(-15.58 -8.6)" style="fill:none;stroke:#3e0400;stroke-width:2px;fill-rule:evenodd"/><path d="M232.56,36.24c.88,2.34,2.38,5.14,2.64,7.92s-.74,23.09-1,25.2a16.13,16.13,0,0,1-1.06,4.08s6.33-1,17.21-2m35-2.27c9.27-.33,19.44-.47,30.23-.28,47.11.81,56.41-.26,58.08-.24s16.91,1.8,17.28,1,0-7.79-.24-14.64-2.84-18.83-2.88-19.68-1.44-2.16-1.44-2.16" transform="translate(-15.58 -8.6)" style="fill:none;stroke:#3e0400;stroke-width:2px;fill-rule:evenodd"/><path d="M315.12,34.08a15,15,0,0,1,3.12,6.48c.79,3.9,5.92,25.3,2.88,28.08" transform="translate(-15.58 -8.6)" style="fill:none;stroke:#3e0400;stroke-width:2px;fill-rule:evenodd"/><path d="M549.6,50.88c1.19,4.51,5,20.4,5,20.4s1.26,4.89-2.88,6.24-36.54-1.71-42.24-2.4-25.33-.9-33.6-.48-39.89.54-43.44.48-24.38,2.94-28.56,1.44-6.85-.74-5-10.32,4.13-28.86,4.08-31,2-15,1.92-16.8,1.1-9,4.8-8.88,9,4.64,17.76,7.92S456.9,23.71,466.08,24s25.9,3.35,39.12-.24,11.24-4.58,20.64-4.56,10.51.19,14.4,2.64,3.34,6.6,5,10.08S548.41,46.37,549.6,50.88Z" transform="translate(-15.58 -8.6)" style="fill:none;stroke:#3e0400;stroke-width:2px;fill-rule:evenodd"/><path d="M128.4,74.88c-7.84,1-27.4,5.58-29.52,5.52s-13.31-.88-17.28-4.32-4.85-15.71-6.48-17.76S70.74,45.76,69.6,41.76,57.36,21.12,57.36,21.12s-1.52-3.39,3.6-1.44,29.15,1.79,38.16,2.4,26.21,4.3,37.92,6.48,35.37-1.09,42.24-2.16,33.6-1.55,36.24-1.44,8.78,19.45,8.88,24.72a102.17,102.17,0,0,1-1.92,18c-.89,4.46-2.35,9.74-3.6,10.8s-13.69-6.42-37-7.44-34.42,1.47-37.44,1.68S136.24,73.92,128.4,74.88Z" transform="translate(-15.58 -8.6)" style="fill:none;stroke:#3e0400;stroke-width:2px;fill-rule:evenodd"/><path d="M233.28,73.44s-9.45-1.53-11.76-1.42" transform="translate(-15.58 -8.6)" style="fill:none;stroke:#3e0400;stroke-width:2px;fill-rule:evenodd"/><path d="M627.12,158.88l-1.44,10.32-16.32.2-2.12-10.08" transform="translate(-15.58 -8.6)" style="fill:none;stroke:#3e0400;stroke-width:2px;fill-rule:evenodd"/><path d="M609.12,169.2l-9.21-6.55-.61-3.33" transform="translate(-15.58 -8.6)" style="fill:none;stroke:#3e0400;stroke-width:2px;fill-rule:evenodd"/><path d="M33.6,164.16l3,11.66,16.63.1-.48-11.76" transform="translate(-15.58 -8.6)" style="fill:none;stroke:#3e0400;stroke-width:2px;fill-rule:evenodd"/><path d="M53.28,175.68l9.12-5.76.69-5.62" transform="translate(-15.58 -8.6)" style="fill:none;stroke:#3e0400;stroke-width:2px;fill-rule:evenodd"/><path d="M237.36,146.07s2.32,5.43,6.48,5.52,82.55-1.21,88.56-1,81.1-.61,84-.84,9.43-1.95,9.12-5.07" transform="translate(-15.58 -8.6)" style="fill:none;stroke:#3e0400;stroke-width:2px;fill-rule:evenodd"/><path d="M553,63.6s-2.43-19.73-1.44-25,2.7-8.9,5.52-9.12" transform="translate(-15.58 -8.6)" style="fill:none;stroke:#3e0400;stroke-width:2px;fill-rule:evenodd"/><path d="M499.92,74.64s-6.11-3.82-4.41-24.72S508.32,22.8,508.32,22.8" transform="translate(-15.58 -8.6)" style="fill:none;stroke:#3e0400;stroke-width:2px;fill-rule:evenodd"/><path d="M451.68,75.12s-3.77-14.91-1.77-26.64,9.21-25,9.21-25" transform="translate(-15.58 -8.6)" style="fill:none;stroke:#3e0400;stroke-width:2px;fill-rule:evenodd"/><path d="M121.92,25.68s13.35,8.64,14.4,22.08-7.44,27.12-7.44,27.12" transform="translate(-15.58 -8.6)" style="fill:none;stroke:#3e0400;stroke-width:2px;fill-rule:evenodd"/><path d="M167.52,28.08s6.61,7.71,6.72,18.24S168,70.8,168,70.8" transform="translate(-15.58 -8.6)" style="fill:none;stroke:#3e0400;stroke-width:2px;fill-rule:evenodd"/><path d="M246.24,45.12s9.23.39,16.56-1.44,15.6-4.08,15.6-4.08a171,171,0,0,0,3.36,17.28c1.84,6.56,5,16.56,5,16.56s-11,.64-18.48,1a141,141,0,0,0-17.76,2.4s-.18-6.11-1-15.6A62.49,62.49,0,0,0,246.24,45.12Z" transform="translate(-15.58 -8.6)" style="fill:none;stroke:#3e0400;stroke-width:2px;fill-rule:evenodd"/></g></g></svg>