<svg xmlns="http://www.w3.org/2000/svg" xmlns:xlink="http://www.w3.org/1999/xlink" viewBox="0 0 102.47 125.15"><defs><radialGradient id="radial-gradient" cx="8.9" cy="91.15" r="128.92" gradientUnits="userSpaceOnUse"><stop offset="0" stop-color="#fff"/><stop offset="1" stop-color="#404040"/></radialGradient><radialGradient id="radial-gradient-2" cx="-33.68" cy="89.22" r="118.45" xlink:href="#radial-gradient"/><linearGradient id="linear-gradient" x1="60.9" y1="72.12" x2="101.72" y2="72.12" gradientUnits="userSpaceOnUse"><stop offset="0" stop-color="#414042"/><stop offset="1" stop-color="#363436"/></linearGradient><radialGradient id="radial-gradient-3" cx="43.84" cy="60.77" r="73.66" gradientUnits="userSpaceOnUse"><stop offset="0" stop-color="#4a4b4c"/><stop offset="1" stop-color="#302e2f"/></radialGradient><linearGradient id="linear-gradient-2" x1="59.83" y1="64.99" x2="99.7" y2="64.99" gradientUnits="userSpaceOnUse"><stop offset="0" stop-color="#363436"/><stop offset="1" stop-color="#464547"/></linearGradient></defs><title>DeskChair</title><g style="isolation:isolate"><g id="Color"><path d="M112.07,131.71a4,4,0,0,0-.33-1c-.07-.37-.14-.73-.22-1.1a10.56,10.56,0,0,0-.44-2.34,4.86,4.86,0,0,0-.21-.47,1.54,1.54,0,0,0-.07-.38c-.18-.71-.34-1.43-.5-2.14a2.86,2.86,0,0,0-.13-.91,6.32,6.32,0,0,0-.23-1.3l-.33-3a4.07,4.07,0,0,0-.44-1c-.13-.61-.26-1.23-.36-1.84,0,0,0,0,0,0a21.64,21.64,0,0,0-.27-4.4,3.25,3.25,0,0,0-.58-1.47c-.23-.28-.42-.32-.34.13s.13,1,.17,1.57a2.76,2.76,0,0,0-.08-.27,1.14,1.14,0,0,0,0-.32c0-.27-.11-.54-.16-.81s-.05-.42-.1-.72a2.42,2.42,0,0,0-.12-.33q-.11-.47-.24-.93c.21.12.11-.74,0-1.09s-.26-.74-.37-1.11c-.14-.91-.28-1.82-.45-2.72,0-.09,0-.19-.07-.3a.81.81,0,0,0,0-.44,18.85,18.85,0,0,1-.44-2.69,8.09,8.09,0,0,1-.29-2.7,2.36,2.36,0,0,0-.34-1.36,4.18,4.18,0,0,0-.38-.57,6.38,6.38,0,0,0-.1-.73,5.06,5.06,0,0,0-.23-.84v0c-.06-.47-.12-.94-.19-1.4a1.64,1.64,0,0,0-.16-.45,1,1,0,0,0-.06-.47l-.48-1.78v0a.34.34,0,0,1,0-.1s0,0,0,0l0-.28c.06.06.11.07.1,0a6.45,6.45,0,0,0-.39-2s-.11-.23-.22-.43c0-.53-.06-1.05-.07-1.57a2.69,2.69,0,0,0-.32-.87c0-.09-.08-.21-.13-.33a.09.09,0,0,0,0-.06v0a1.48,1.48,0,0,0-.13-.88,9.87,9.87,0,0,0-.28-2.23c0-.12,0-.24,0-.35a10.86,10.86,0,0,0-.79-2.31v0c0-.19-.05-.39-.08-.58a5.11,5.11,0,0,0,.1-.76,3.29,3.29,0,0,0-.24-1.31h.46c.19,0,.16-.12,0-.29l.13-.13c.1-.09,0-.24-.12-.41a.37.37,0,0,0,.3-.1.43.43,0,0,0,.16-.31c0-.2-.08-.41-.28-.61a.42.42,0,0,0,.18-.11c.09-.1,0-.26-.14-.43a4.6,4.6,0,0,1,0-.83c0-.15,0-.3,0-.45a5.77,5.77,0,0,1,.1-1c.2,0,.29-.11.08-.43a2.48,2.48,0,0,0-.52-.56c0-.19-.06-.37-.1-.55s-.81-.87-1.63-1.33l-.16-.2a7.43,7.43,0,0,0-3.27-1.91,7.07,7.07,0,0,0-4.38-.84l-1-.34a8.86,8.86,0,0,0-1.26-.4l-.26-.13a10.71,10.71,0,0,0-3-.64h-.11a8.76,8.76,0,0,0-.82-.33,17.69,17.69,0,0,0-5.08-.74c-.24-.1-.47-.18-.69-.25a14.54,14.54,0,0,0-3.08-.49l-.31,0c-.48-.28-1.65-1-2.15-.65a3.11,3.11,0,0,0-.33.29l-.11,0c-.24-.09-.81-.39-1-.25a2.36,2.36,0,0,0-.35.23,1.57,1.57,0,0,0-.85-.17,5.37,5.37,0,0,0-1.55.61l-.11-.06-.35-.14-.08,0c-.25-.1-.8-.38-1-.25l-.6.31c-.84-.12-1.7-.16-2.54-.23-.33,0-.41.07-.36.22a18.67,18.67,0,0,0-5.46.21c-.61-1.9-1.21-3.8-1.76-5.72-.21-1-.41-2.06-.58-3.1a2,2,0,0,0-.54-1c-.12-.47-.26-.95-.38-1.43a2.41,2.41,0,0,0-.15-.33,68.88,68.88,0,0,0-3.76-10,13.76,13.76,0,0,0-1.25-4A40.64,40.64,0,0,1,49.7,32a2,2,0,0,0-.1-.29,33,33,0,0,0-1.42-4.83,1.5,1.5,0,0,0-.19-.32L47.84,26a.56.56,0,0,0,0-.17c0-.14-.09-.27-.13-.4-.2-.73-.39-1.47-.55-2.21a1.69,1.69,0,0,0-.45-.7c-.18-.48-.38-1-.56-1.42s-.26-1-.39-1.48a.15.15,0,0,0,0-.16c0-.1-.08-.2-.11-.3l-.09-.33a.57.57,0,0,0-.11-.48l0-.07a3.4,3.4,0,0,1,0-.9c0-.26-.22-.5-.39-.65a6.5,6.5,0,0,0-1.29-.93c-.08-.05-.63-.33-1.16-.55s-1.29-.55-1.42-.26a.56.56,0,0,0,0,.12,6.34,6.34,0,0,0-2.95-1,4.6,4.6,0,0,0-1.7-.68,8.69,8.69,0,0,0-.88-.07l-.27-.14a3.56,3.56,0,0,0-2.12-.6,1.45,1.45,0,0,0-.22.09l-.07,0a2,2,0,0,0-.77,0,3.53,3.53,0,0,0-1.43-.4,3,3,0,0,0-1.13.2A6.17,6.17,0,0,0,28.37,12c-.21-.06-.56-.2-.75,0l-.11.12a6.54,6.54,0,0,0-.75-.13,1.33,1.33,0,0,0-.32,0A13.65,13.65,0,0,0,24,12l-.25,0c-.3,0-.61,0-.91,0s-1-.24-.41,0c-.66-.25-1.79-.61-1.93-.16a2.22,2.22,0,0,0-.06.43,1.54,1.54,0,0,0-1-.07c-.2.09-.39.15-.47.37a.53.53,0,0,0,0,.22.38.38,0,0,0-.3.18c-.21.37.43,1,.69,1.23a.35.35,0,0,0,0,.33A14.94,14.94,0,0,0,20.9,18.4c.36.91.77,1.79,1.19,2.67a5.78,5.78,0,0,0,.63,2.2c.12.23.25.45.38.67l.25.54c-.19.05-.28.16-.19.39.23.6.45,1.25.67,1.91a18.75,18.75,0,0,0,1.88,5.15,1.1,1.1,0,0,0,.09.14.07.07,0,0,1,0,0c.26.6.55,1.18.85,1.76l1.91,4.4a.18.18,0,0,0,0,.09,7.46,7.46,0,0,0,1.29,3.81.42.42,0,0,0,0,.25c.12.39.26.77.39,1.15a.32.32,0,0,0,0,.23c.12.34.27.67.4,1s.18.47.27.7a.66.66,0,0,0,0,.21,6.66,6.66,0,0,0,1.25,3l.44.71a9.19,9.19,0,0,0,1.07,2.86A14.54,14.54,0,0,0,35,56.16c.08.2.17.39.26.58.46,1.3.9,2.64,1.43,3.92a23.08,23.08,0,0,0,1.18,2.87,8.56,8.56,0,0,0,.83,3.21,2.78,2.78,0,0,0,.3.4c0,.12,0,.24.07.36a.67.67,0,0,0,.06.12c-.19.2.47.79.68.94l.49.35-.47,1.38c-.25-.09-.45-.12-.51,0a15,15,0,0,1-1.07,1.45s0,.08.05.15l-.26.38a6.47,6.47,0,0,0-.58,1l-1.61,2.68c0,.06,0,.14.09.23a10.46,10.46,0,0,0-.65.84c-.08,0-.13,0-.15,0a13.6,13.6,0,0,1-1.55,2.46c0,.06,0,.17.17.3-.31.56-.63,1.12-1,1.66,0,0,0,.14.1.24-.39.74-.81,1.46-1.27,2.16,0,0-.06,0-.08,0a8.27,8.27,0,0,0-1.11,1.46c-.28.49-.45,1-.77,1.49h0s-.05,0-.06,0A11.59,11.59,0,0,1,28,89.29c-.05,0,0,.18.2.32-.48.67-.94,1.35-1.38,2-.12,0-.21,0-.22,0A7.41,7.41,0,0,1,25.7,94h-.05c-1.32,1.14-1.88,2.85-2.92,4.21,0,0,0,.07,0,.13a.18.18,0,0,0-.15.06l-.37.57c0,.06,0,.16.14.27l-.07.08h0a4.48,4.48,0,0,0-.48.58l-1.05,1.27s0,.07,0,.11l-.23.31s0,.15.14.26A17,17,0,0,0,19.3,104a.24.24,0,0,0,.07.21,8.41,8.41,0,0,1-.6,1.29c0,.06,0,.16.11.26-.48.4-1.22,1.2-1,1.54l.14.22a3.49,3.49,0,0,0-.68,1.06l0,.11a1.3,1.3,0,0,0-.14.26,2.66,2.66,0,0,0-.69,1.08l-.18.64-.18.24a1.85,1.85,0,0,0-.58,1v0a2.91,2.91,0,0,0-.46.68,3.63,3.63,0,0,0-.47.64,2,2,0,0,0-.25.73c-.18.16-.35.35-.36.36a2.39,2.39,0,0,0-.62,1.09v0a2.06,2.06,0,0,0-.2.19,2.47,2.47,0,0,0-.71,1.2.76.76,0,0,0,0,.15,1.15,1.15,0,0,0-.15.23,0,0,0,0,0,0,0l-.19.24a2.76,2.76,0,0,0-.45.71c-.41.47-.77,1.09-.61,1.22.33.25.48.34.82.08l.06-.05,0,.06s.36-.19.69-.51a3.32,3.32,0,0,0,.42-.37c.11-.12,1.08-1.31.7-1.48a4.62,4.62,0,0,0,.89-1.41c0-.1,0-.19,0-.28l0,0a6,6,0,0,0,.76-1,2.16,2.16,0,0,0,.22-.36,3.16,3.16,0,0,0,.47-.39,2.5,2.5,0,0,0,.71-1.2v-.1h0c0-.19,0-.38.06-.57a1.38,1.38,0,0,0,.22-.59v-.06a4.38,4.38,0,0,0,.59-.47,2.55,2.55,0,0,0,.71-1.2.28.28,0,0,1,0-.09l.07-.11a3.06,3.06,0,0,0,.46-1.25,4.64,4.64,0,0,0,.25-.42c.39-.41.76-.92.6-1.17l0,0c.41.21.8.34.88.2a9.07,9.07,0,0,0,.78-1.74s0-.08,0-.13a17.42,17.42,0,0,1,1.37-2s0-.15-.14-.26c.26-.33.5-.65.74-1h0l.16-.23.22-.3.79-1s0-.17-.18-.31l.09-.13s0-.08,0-.14a.16.16,0,0,0,.14-.05c1-1.36,1.6-3,2.91-4.18,0,0,.05,0,.06,0a7.19,7.19,0,0,0,.88-2.19c.1,0,.18,0,.21,0,.51-.83,1.06-1.64,1.64-2.43,0-.06,0-.18-.19-.32A11.1,11.1,0,0,0,31.51,88h0s0,0,.06,0a15,15,0,0,0,.78-1.49,8.43,8.43,0,0,1,.94-1.28.17.17,0,0,0,.15,0A25.31,25.31,0,0,0,35.25,82c0-.06,0-.13-.06-.21.34-.56.65-1.13,1-1.72a.24.24,0,0,0-.07-.21c.19-.3.38-.6.55-.9.05,0,.09,0,.1,0a11.79,11.79,0,0,1,1.94-2.51c.05-.06-.08-.2-.27-.38l.72-1.2c.07,0,.12,0,.12,0a3.45,3.45,0,0,1,.14-.42l.42-.69a.1.1,0,0,1,0,0l.18-.26c.31-.47.62-.94.92-1.41,0,0,0,0,0-.08l.05-.07c.34.13.62.2.65.11.23-.68.46-1.35.7-2l.26,0h.24A11.2,11.2,0,0,0,45.15,71c.36.1,1.23.44,1.51,0a.86.86,0,0,1,.07-.1c.27.12.53.25.81.36a6.87,6.87,0,0,0,1.67.67,6.07,6.07,0,0,1,1,.33,2.88,2.88,0,0,0,1,.24,9.4,9.4,0,0,0,1.82.71,3.51,3.51,0,0,0,.68.09c.18.1.35.2.53.28a6.37,6.37,0,0,0,1.63.49l.17.08c.18.07.81.35,1.05.25a.18.18,0,0,0,.1-.09l.31.15a10.87,10.87,0,0,0,1.17.63,4.45,4.45,0,0,0,2.57.55,5.26,5.26,0,0,0,.66.25,6.07,6.07,0,0,0,.59.24,17.16,17.16,0,0,0-.41,1.7c-.22.82-.4,1.66-.56,2.49-.07.16-.13.32-.2.47s-.1,0-.11,0A24.18,24.18,0,0,0,59.68,84a8.23,8.23,0,0,0-.82,1.87.12.12,0,0,0-.1,0,8.47,8.47,0,0,0-1,3.44h0a7.05,7.05,0,0,0-1.07,1.36c-.25.42-.58.85-.28,1.31l0,0a10.92,10.92,0,0,0-.61,1.44l-.23.61a3.45,3.45,0,0,0-.18.51l-.57,1.5q-1.08,2.43-2.32,4.77c0,.09,0,.23.21.38l-.07.17a1,1,0,0,1,0,.1c-.3.54-.6,1.08-.92,1.61,0,0,0,.12.07.2v0A3.52,3.52,0,0,0,51,105a.43.43,0,0,0,.15.3l-.12.42c-.06,0-.1,0-.12,0a2.31,2.31,0,0,0-.16.57h0a.44.44,0,0,0-.22.21c-.07,0-.13,0-.14,0l-1.1,2.91a.27.27,0,0,0,0,.09c-.09.26-.19.53-.27.8l-.35.59a5.56,5.56,0,0,0-.91,1.86c0,.1.06.21.16.32-.09.22-.18.43-.25.65a.6.6,0,0,1-.06.11s0,0,0,.07-.06.26-.08.39-.09,0-.1,0c-.56,1.75-1.7,3.29-2.36,5s-1.4,3.48-2.23,5.17a.19.19,0,0,0,0,.17l-1.49,3.48c0,.09,0,.2.16.33l0,.07c-.19,0-.33-.07-.35,0a6.46,6.46,0,0,1-.49,1.11c0,.09.05.23.22.38-.41.86-.8,1.73-1.15,2.62-.16.43,1.85,1.4,2,1.13a38.13,38.13,0,0,1,1.57-3.52.13.13,0,0,0,0-.13l.05,0,.36-.92c0-.08,0-.19-.15-.31l1.33-3.13a.21.21,0,0,0,0-.17c.82-1.67,1.54-3.38,2.2-5.12s1.61-3.05,2.21-4.64c.13,0,.23,0,.22-.12a3.38,3.38,0,0,1,.12-.81,1.68,1.68,0,0,0,.33-.82c.3-.63.69-1.23,1-1.73,0-.06,0-.15-.11-.25l.09-.11s0-.06,0-.12.06-.25.09-.35a.36.36,0,0,0,0-.11l.84-1.4c0-.08,0-.2-.18-.33.13-.31.26-.63.4-.93.07,0,.13,0,.14,0,0-.2.13-.39.19-.58v0h0l.15-.46a.21.21,0,0,0,.14-.07l0,0s0,0,0,0v0a5.3,5.3,0,0,0,.5-1.47l.06,0c.1-.23.21-.46.32-.68,0,0,0,0,0,0l.6-1.25a6.94,6.94,0,0,0,.81-1.75c.12-.21.24-.43.35-.65,0-.07,0-.18-.15-.3.25-.46.49-.92.72-1.4,0-.06,0-.14-.08-.23l.73-1.71c.4-.7.79-1.41,1.17-2.12.13,0,.21,0,.22,0,.1-.32.2-.63.31-1s.3-.52.44-.78a.21.21,0,0,0,0-.19c0-.08.07-.17.11-.26.18-.38.7-1.75,1.15-1.84.12,0,.08-.12,0-.23L60,91.6s0,0,0-.09a6.78,6.78,0,0,0,1.42-3.6.32.32,0,0,0,0-.09,11,11,0,0,0,1.31-3c0-.08,0-.19-.16-.31l1.16-2.21a6.76,6.76,0,0,1,1.42-2.35s-.06-.11-.18-.24c.24-.35.48-.7.71-1.07a10,10,0,0,0,.68-1.12c.12.08.24.14.36.21-.13.19-.25.4-.21.55s.25.51.34.77a3.91,3.91,0,0,1,.2.87,4,4,0,0,0,.21.88.4.4,0,0,0,0,.16c0,.08.06.16.1.24s-.1.26,0,.31l0,0h0a6.8,6.8,0,0,1,.77,2.22c.08.33.16.66.22,1,0,.15.06.31.08.46s0,0,0,0c0,.29.11.58.15.87,0,.12.12.09.25,0A13.11,13.11,0,0,0,69,87.56c0,.1.1.09.2,0a7.27,7.27,0,0,1-.07,1.33c0,.1.06.09.16,0,0,.53,0,1.18.28,1.46l0,.43s.05,0,.12,0a21.68,21.68,0,0,0,.63,3.13c.12,1,.25,2,.37,3,0,0,.08,0,.19-.07v0a7.33,7.33,0,0,1,.36,2.44c0,.17.19,0,.39-.12.08,1.07.16,2.13.27,3.19,0,.14.14.1.28,0a.39.39,0,0,0,0,.24,4.79,4.79,0,0,1,.3,1.17.33.33,0,0,0,0,.14s0,.07,0,.1a1.86,1.86,0,0,1,0,.33,1.49,1.49,0,0,0,.34,1.12h0s0,.09,0,.13a.61.61,0,0,0-.1.41c.21.77.38,1.55.55,2.33a.46.46,0,0,0-.06.33A12.06,12.06,0,0,1,74,111c0,.24,0,.88.2,1.07a.45.45,0,0,0-.06.34c.12.36.23.73.33,1.1a.31.31,0,0,0,0,.22.71.71,0,0,1,.08.18c.08.31.16.61.22.92s0,.45.07.66c0,.39.1.78.14,1.17,0,0,0,0,0,.06a10.13,10.13,0,0,0,.21,1.45c.06.3.11.87.41,1,0,0,0,0,0,0,.18.35.38.6.48.54.28-.23.56.39.84.06.15-.16.1-.47,0-.78a.73.73,0,0,0,.08-.33,2.59,2.59,0,0,0-.16-.8c.12-.24.18-.42.11-.46-.29-.15-.34-.77-.4-1.06s0-.37-.07-.55c0,0,0,0,0-.05l-.27-2.18v0a.39.39,0,0,0,0-.18c0-.09,0-.18-.07-.27a3,3,0,0,0-.21-.88c-.13-.47-.27-.94-.43-1.41.1-.19.21-.49,0-.46a6,6,0,0,1-.28-1.53,12.12,12.12,0,0,0-.42-1.42.6.6,0,0,0,0-.28c-.06-.27-.13-.54-.19-.81,0,0,0-.07,0-.11a18.52,18.52,0,0,0-.72-3.6.86.86,0,0,0,0-.16,4.59,4.59,0,0,0-.1-.51.44.44,0,0,0,.06-.32c-.45-1.48-.36-3.1-.75-4.61,0,0,0,0,0,0a.19.19,0,0,0,0-.17c-.07-.1-.11-.09-.23-.1a.38.38,0,0,0-.23.08c-.1-.61-.29-1.23-.39-1.78a6.06,6.06,0,0,0-.45-2.25v0a.41.41,0,0,0,0-.19s0-.11-.05-.16l-.42-3.43s-.06,0-.13,0a.21.21,0,0,0,0-.16h0c.18-.31.29-.58.19-.63-1.28-.79.84-3.49-.89-3.87a17.58,17.58,0,0,0-.46-1.87h0c-.06-.23-.11-.45-.17-.67,0,0-.07,0-.15,0A18.48,18.48,0,0,0,69.44,79c0-.09,0-.19,0-.28.19,0,.31,0,.27-.22a13.54,13.54,0,0,0-.82-2.23,1.19,1.19,0,0,0-.09-.15H92.53l-.41-.38H99a6,6,0,0,0,.21.75,1,1,0,0,1,.07.17.87.87,0,0,0,0,.49,20,20,0,0,1,.92,4.34,2.67,2.67,0,0,0,.28,1.09s-.06.18,0,.51c.17.6.3,1.21.41,1.82a3.71,3.71,0,0,0,.23.61c0,.09,0,.18,0,.28a4.16,4.16,0,0,0,.23,1.57c-.1,0-.14.17-.06.53.15.7.58,1.49.7,2.18a5.18,5.18,0,0,0,.17,1.65,1.76,1.76,0,0,0,.09.21,3,3,0,0,0,.25,1c.05.11.09.22.14.32a8.35,8.35,0,0,1,.28,1.66,13.39,13.39,0,0,0,.39,1.51.54.54,0,0,0,0,.11c-.15,0-.19.23,0,.75a27,27,0,0,1,.45,2.86c.1.44.31.95.48,1.46s.13.76.22,1.13c0,.13,0,.25,0,.38a1.33,1.33,0,0,0,.1.36,8,8,0,0,0,.44,1.36c0,.24.08.47.13.71a.63.63,0,0,0,0,.23c.15,1.38.77,2.77,1,4.14-.11-.08-.14,0,0,.46l.09.31a4,4,0,0,0,.32,1.3l.12.28c.18.82.45,1.62.62,2.44l.12.76c-.27-.31-.47-.3-.2.56a29.22,29.22,0,0,1,1,4.14,4.2,4.2,0,0,0,.39,1.22.43.43,0,0,1,0,0,.09.09,0,0,0-.07,0c-.25.1.13,1,.17,1.14a10.58,10.58,0,0,1,.37,1.55s0,0,0,.07c.1.8.19,1.6.35,2.39a8.08,8.08,0,0,0,.68,1.57,9,9,0,0,0,.37,2.1,4,4,0,0,0,.16,1.6,2.42,2.42,0,0,0,.53.86c.14.28.27.46.37.4.15.2.37.44.37.08,0-.19,0-.37,0-.55A1.42,1.42,0,0,0,112.07,131.71Z" transform="translate(-10.35 -11.46)" style="fill-rule:evenodd"/><path d="M112,128.56c0-.11-.09-.18-.21-.24q-.81-4-1.57-8s0,0,0-.07,0,0,0-.07c-.83-2.87-.93-5.9-1.9-8.73.07-.05.11-.11.09-.17-.69-2.59-1.38-5.18-1.94-7.8-.45-2.08-.24-4.19-.82-6.24,0,0-.06-.09-.1-.13a.21.21,0,0,0,.09-.26c-2.74-6.71-2.88-14.62-4.66-21.63,0,0,0,0,0,0,.52-.39.22-1-.94-1.13a2.9,2.9,0,0,0-1.77-.42H67.6c-.15-.27-.55-.12-.89.09a.45.45,0,0,0-.34-.26,1.93,1.93,0,0,0-1.93.79A7,7,0,0,0,63,76.53a2.85,2.85,0,0,0-.41,1.09,5.05,5.05,0,0,0-.87,1.65c-.1.37-.19.75-.28,1.12a5.25,5.25,0,0,0-1.32,2.22,67.89,67.89,0,0,1-2.31,7,5.44,5.44,0,0,0-1.17,1.79c-.41,1.07-.78,2.15-1.12,3.24l-.15.23c-.25.39-.67,1.23-.36,1.65a5.08,5.08,0,0,0-.82,1.58c-.15.51-.32,1-.49,1.52a6.18,6.18,0,0,0-.87,1.45c-.56,1.39-1.15,2.76-1.77,4.12a4.67,4.67,0,0,0-.45,1c0,.18-.11.35-.16.52a22.14,22.14,0,0,0-1.05,2.06l-1.33,2.91a1.71,1.71,0,0,0-.15,1.16c-.2.35-.4.7-.62,1s-1.27,1.86-.64,2.3a.35.35,0,0,0,.11,0c-.05.12-.11.24-.15.35-.12.34-.23.68-.33,1a5.94,5.94,0,0,0-1.22,2.08c-.09.27-.17.55-.25.82a10,10,0,0,0-.51.92,40,40,0,0,0-1.88,4.84,1.4,1.4,0,0,0-.06.24c-.14.26-.29.54-.49.86a5,5,0,0,0-.36.78,19.41,19.41,0,0,0-.84,1.93,2.88,2.88,0,0,0-.19,1c-.07.14-.15.32-.22.5s-.14.25-.2.38l-.06.12c-.21.42-.42,1.48.28,1.32.12.68,1,.12,1.32-.21a6,6,0,0,0,1.06-1.38,3,3,0,0,0,.47-1.31v-1c.41-.78.82-1.57,1.2-2.37a1.78,1.78,0,0,0,.16-1.15,22,22,0,0,0,1.08-2.31,2.72,2.72,0,0,0,.14-.43,4.72,4.72,0,0,0,1-1.85c.14-.55.29-1.1.44-1.65a.15.15,0,0,0,.06-.05A4.69,4.69,0,0,0,48.82,117a2,2,0,0,1,0-.34l.12-.22a42.28,42.28,0,0,0,2.8-5.64c.17-.43.37-1.16,0-1.29.06-.13.16-.31.25-.52a8.08,8.08,0,0,0,1-1.65A37.13,37.13,0,0,0,54.82,103a1,1,0,0,0,.06-.52,1.62,1.62,0,0,0,.14-.24,26.42,26.42,0,0,0,2.11-5.44,6.24,6.24,0,0,0,.33-.61,41.65,41.65,0,0,0,1.63-3.9A14.81,14.81,0,0,0,60.57,90a15.49,15.49,0,0,0,1.22-3.46,5.7,5.7,0,0,0,1-1.81s.11-.32.13-.36c.07-.2.15-.39.23-.59.16-.4.33-.8.5-1.19a2,2,0,0,0,.17-1.1,12,12,0,0,0,.61-1.64,5.23,5.23,0,0,0,1.37-2l.29-.78s0-.13.06-.2a5.61,5.61,0,0,0,1.16-1.68l.42,0H97.51a2.83,2.83,0,0,0,1.26.33c1.73,7,1.92,14.82,4.66,21.54,0,0,0,0,0,0a.18.18,0,0,0-.09.17c.58,2,.37,4.16.82,6.24.52,2.45,1.17,4.87,1.81,7.29-.09,0-.16.11-.13.17,1.14,3,1.19,6.19,2.07,9.24,0,0,0,0,.06.07s0,0,0,.06c.54,2.85,1.09,5.69,1.67,8.52a.4.4,0,0,0,.16.21,21.7,21.7,0,0,0,.54,3.66c.16.63,2.36.4,2.25,0A22.12,22.12,0,0,1,112,128.56Z" transform="translate(-10.35 -11.46)" style="fill-rule:evenodd;fill:url(#radial-gradient)"/><path d="M40,69.61c-.1.25-.21.49-.31.74-.27.06-.48.16-.53.34a11.46,11.46,0,0,1-.64,1.57c-.3,0-.55.14-.62.3a34.85,34.85,0,0,1-4.17,6.85c-.08.12.06.22.28.3-1.31,2.05-2.78,4-4,6.12-.08.14.06.26.3.34-1.22,2-2.58,3.92-3.87,5.86a.12.12,0,0,0,0,.15s-.07.06-.08.09a12.83,12.83,0,0,1-.69,1.45c-.07.12,0,.23.24.32a3.4,3.4,0,0,0-.31.64,2.5,2.5,0,0,0-1.11,1.52,2.9,2.9,0,0,0-.36.36,3.07,3.07,0,0,0-.43.74,2.59,2.59,0,0,0-.83,1.34,1.34,1.34,0,0,0,0,.34,2.43,2.43,0,0,0-.47,1.11v0l0-.05c-.09-.22-.31-.1-.5.06a1.4,1.4,0,0,0-.29.23,2.27,2.27,0,0,0-.7,1.38l.05.68a1.21,1.21,0,0,0-.29.22,2.36,2.36,0,0,0-.7,1.37v.24l0,0-2.63,4.21a14.69,14.69,0,0,0-1.07,1.72,3.34,3.34,0,0,0-.29.31,11.56,11.56,0,0,0-1.71,3.12,2.49,2.49,0,0,0-.08.32,1.91,1.91,0,0,0-.32,1,3.19,3.19,0,0,0-.44.86l-.18.2a2,2,0,0,0-.29.34l0,0-.06.09a2.46,2.46,0,0,0-.38.76,6.75,6.75,0,0,0-.53.54,2.3,2.3,0,0,0-.7,1.36c0,.24,0,.41.14.41h.58c.33,0,.73-.56,1-1.08a1.62,1.62,0,0,0,.66-.32,2.51,2.51,0,0,0,.85-1.35c0-.2,0-.34-.08-.4s0,0,0,0a3.17,3.17,0,0,0,.68-1.18,1.54,1.54,0,0,0,.27-.25l.09-.08a2.38,2.38,0,0,0,.7-1.38,2.69,2.69,0,0,1,.3-1c.31.07.76-.61.86-.76a11.5,11.5,0,0,0,1.24-2.51,1.38,1.38,0,0,0,.07-.32,27.43,27.43,0,0,0,2.34-3.54,2.43,2.43,0,0,0,.37-.69c.06-.13.13-.24.19-.37a1.79,1.79,0,0,0,.17-.52l0,0c.15,0,.39-.15.52-.28a2.27,2.27,0,0,0,.7-1.38,3.11,3.11,0,0,0,.4-.38,2,2,0,0,0,.5-1.25c.47-.3,1.17-1.32,1-1.72a.08.08,0,0,0,0,0,3.75,3.75,0,0,0,.69-.93,2.26,2.26,0,0,0,.2-.52,1.64,1.64,0,0,0,.67-.58,2.77,2.77,0,0,0,.55-1.13c.1-.12.18-.23.22-.29a2,2,0,0,0,.42-1.08.61.61,0,0,0,.41-.24,13.56,13.56,0,0,0,.69-1.44.18.18,0,0,0,0-.16s.08-.05.1-.08A79.89,79.89,0,0,0,34,83.56c0-.11,0-.2-.15-.28,1.12-1.66,2.29-3.28,3.27-5,.06-.1,0-.2-.16-.27a30.77,30.77,0,0,0,2.49-4,.73.73,0,0,0,.47-.24,13,13,0,0,0,.87-1.65.63.63,0,0,0,.46-.27c.29-.67.57-1.34.85-2S40.17,69.08,40,69.61Z" transform="translate(-10.35 -11.46)" style="fill-rule:evenodd;fill:url(#radial-gradient-2)"/><path d="M77.22,118.35a21.61,21.61,0,0,1-.46-2.12.12.12,0,0,0-.06-.11.61.61,0,0,0,0-.19l-.54-1.74s0,0,0,0,0-.08,0-.12a10.24,10.24,0,0,1-.49-2c0-.12-.09-.14-.18-.11,0-.18-.09-.37-.13-.55a28.23,28.23,0,0,1-.27-3.3.28.28,0,0,0-.05-.18,11.33,11.33,0,0,0-.61-3.2c0-.14-.15-.14-.27-.09q-.56-3.8-1.49-7.53a1.29,1.29,0,0,0,.28-.71,35.8,35.8,0,0,0-1.79-8.32h0c-.31-2.17-1.1-4.24-1.3-6.43,0-.15-.09-.19-.19-.17a.19.19,0,0,0,0-.08.66.66,0,0,0,0-.14A31.48,31.48,0,0,1,69.11,76c0-.5-.5-.11-.67,0l-.08.09s0-.09,0-.14c0-.32-.29-.19-.58.1l-.09-.25c-.14-.4-.73.29-.83.41-.23.29-.64.91-.5,1.32.3.84.59,1.68.88,2.52a54.09,54.09,0,0,0,1.34,7.14c0,.09.11.07.22,0,0,.17,0,.35,0,.53s.08.2.19.17c.59,3.31,1.17,6.62,1.76,9.94,0,.09.13,0,.27-.06a78.27,78.27,0,0,1,1.81,9c0,.09.13,0,.28-.08a10.35,10.35,0,0,1,.51,3.12.26.26,0,0,0,0,.18,29.72,29.72,0,0,0,.27,3s0,0,0,0v0l0,.29a.15.15,0,0,0,.06.11c.19.84.38,1.68.6,2.51a.14.14,0,0,0,.21.1l.48,1.54a.17.17,0,0,0,.08.1,1.28,1.28,0,0,0,0,.19c.12.72.27,1.43.46,2.13.11.41.75-.31.83-.41C77,119.35,77.34,118.79,77.22,118.35Z" transform="translate(-10.35 -11.46)" style="fill:#404040;fill-rule:evenodd"/><path d="M101.43,72.76l0,0a3.36,3.36,0,0,0,0-2.53,2,2,0,0,0-1.61-1.3,19.22,19.22,0,0,0-4.08-.25.32.32,0,0,0-.15.06A87.19,87.19,0,0,0,86,68.35a21.26,21.26,0,0,0-7.24-.29.63.63,0,0,0-.31.18,15.85,15.85,0,0,0-5.45.07.53.53,0,0,0-.27.15c-1.7,0-3.4,0-5.1.09a.41.41,0,0,0-.22.09.68.68,0,0,0-.49-.18c-.79.17-1.58.32-2.38.41-.49,0-1.6-.08-2,.21s-.41.85-.5,1.32a22.57,22.57,0,0,1-.66,2.54.85.85,0,0,0,.24.65q-.33.54-.63,1.08c-.33.59,1.32,2,1.51,1.67A18.55,18.55,0,0,1,64,73.84a.66.66,0,0,0,.24,0,1.78,1.78,0,0,0,1.12-.54Q74,73,82.64,73.27A.67.67,0,0,0,83.1,73a3.47,3.47,0,0,0,1.11,0l1.14.13a.36.36,0,0,0,.28-.1c1.32,0,2.63,0,3.94-.1,0,.14,0,.24.14.24,3.31-.19,6.84-.74,10.1.07a.38.38,0,0,0,.23,0,.45.45,0,0,0,.08.44.43.43,0,0,0,.45,0l.26.21c.23.17.69.41.67-.06s0-.74-.07-1.12Z" transform="translate(-10.35 -11.46)" style="fill-rule:evenodd;fill:url(#linear-gradient)"/><path d="M61.79,70.84a10.31,10.31,0,0,0-.45-2.7,16.27,16.27,0,0,0-1.26-3.23l-.14-.28c-.08-.23-.14-.46-.23-.69l-.12-.38c-.09-.29-.19-.57-.29-.86s-.18-.69-.28-1a14.11,14.11,0,0,0-1.1-3.14,16.85,16.85,0,0,0-1.48-5c-.1-.31-.19-.62-.31-.93s-.14-.56-.23-.84a.24.24,0,0,0,0-.09c0-.2-.06-.39-.1-.58a13.76,13.76,0,0,0-.89-2.91c-.1-.32-.18-.63-.3-.93l-.3-.77v0a19.23,19.23,0,0,0-.93-2.84l-.21-.47,0-.13a22.33,22.33,0,0,0-.64-2.26l-.09-.29,0-.08v0l-.19-.78a15.73,15.73,0,0,0-.68-2c-.09-.26-.17-.52-.25-.79l-.1-.29c-.13-.41-.3-.84-.48-1.26l0-.11-.1-.39c0-.15-.09-.3-.13-.46-.09-.42-.18-.74-.19-.79L50,32.82A18.61,18.61,0,0,0,49.38,31a17.93,17.93,0,0,0-.52-1.83c-.1-.29-.22-.59-.33-.89l-.28-1a19,19,0,0,0-1-2.6v-.33a7.06,7.06,0,0,0-.1-1.12,11.84,11.84,0,0,0-.43-2.07A17.16,17.16,0,0,0,45.48,18l-.1-.19a2.73,2.73,0,0,0-.08-.32c-.08-.3-.28-1.11-.63-1.24a.35.35,0,0,0-.41.05l0,0-.29-.2c-.48-.34-.58.46-.6.69a7.55,7.55,0,0,0,.39,2.47,12.54,12.54,0,0,0,.34,1.5c.05.18.12.37.18.55a13.48,13.48,0,0,0,.39,2l.19.68a19,19,0,0,0,1,2.6l.08.3c.17.59.37,1.19.6,1.77A19.07,19.07,0,0,0,47,30.44c.11.31.23.63.36.95l.15.52c0,.11.07.21.1.32.11.49.21.88.22.93l.1.39A14.24,14.24,0,0,0,48.8,36c.11.41.24.81.37,1.21l.09.29c.08.24.17.49.26.73s.1.37.14.56c.12.45.27.91.44,1.37a13,13,0,0,0,.34,1.43,21,21,0,0,0,1.09,2.86c.09.31.18.62.28.93a13.49,13.49,0,0,0,.53,1.81l.3.77c0,.06,0,.13.08.19A12.08,12.08,0,0,0,53,49.39c.15.69.36,1.36.58,2l.1.29a2.25,2.25,0,0,0,.08.24l.21.85c.05.15.11.3.15.44a15,15,0,0,0,.42,1.88,19.22,19.22,0,0,0,1.12,3l.15.66,0,.12a16.71,16.71,0,0,0,1,3.17c.08.28.19.55.29.82a16.94,16.94,0,0,0,.7,2.08c0,.16.09.32.13.48.08.37.16.73.26,1.08a18.11,18.11,0,0,0,.88,2.39,2.32,2.32,0,0,0,.19,1.1,4.16,4.16,0,0,0,.45.95,6.35,6.35,0,0,0,1.14,3.11.19.19,0,0,0,.17.1c.35-.12.42-.56.44-.89s0-.53,0-.78.09-.51.13-.77h0l0-.13c0-.06,0-.13,0-.19a1.39,1.39,0,0,0,.09-.5Z" transform="translate(-10.35 -11.46)" style="fill:#434345;fill-rule:evenodd"/><path d="M43.45,15.52A3.15,3.15,0,0,0,42,14.9a5.88,5.88,0,0,0-1,0,14.41,14.41,0,0,0-2-.44,1.82,1.82,0,0,0-.38-.11L38,14.25a3.55,3.55,0,0,0-.83-.32,12.94,12.94,0,0,0-2.48-.39h0l-.11,0-.1-.08a3.2,3.2,0,0,0-1.41-.62,12.58,12.58,0,0,0-1.62-.1,3.07,3.07,0,0,0-1.11-.42,11.58,11.58,0,0,0-2-.11c-.1,0-.15,0-.17.06l-2.78-.2c-.47,0,.09.41.2.5a3.07,3.07,0,0,0,1.41.61l3,.22c.1,0,.15,0,.17,0s.07.05.08.07a3.11,3.11,0,0,0,1.42.61h.57a3.19,3.19,0,0,0,1.34.57,15.78,15.78,0,0,0,2.75.1l.78.16a3.33,3.33,0,0,0,.4.16c.1,0,.47.13.57.06l1.26.24a2.17,2.17,0,0,0,.62.18,8.89,8.89,0,0,1,.9.15l.05,0c.32.19.91.56,1.32.47l.38-.07.06,0c.22.08.62.21.53-.07h.44C44.13,16.05,43.57,15.6,43.45,15.52Z" transform="translate(-10.35 -11.46)" style="fill:#434345;fill-rule:evenodd"/><path d="M60.77,75a4,4,0,0,1-.46-1.56,1.23,1.23,0,0,0-.41-.6.31.31,0,0,0,0-.34C56.39,61.74,52.92,51,50.08,40a.35.35,0,0,0,0-.33.35.35,0,0,0,0-.24c-.58-1.44-1.15-2.9-1.69-4.36a13.67,13.67,0,0,1-1.28-4.51,2,2,0,0,0-.85-1.39c0-.22-.06-.45-.07-.67a1.23,1.23,0,0,0-.41-.6c-.36-1.34-.79-2.65-1.19-3.95.1,0,.16-.08.11-.2a6.6,6.6,0,0,1-.84-4.28c.08-.32-.31-.69-.86-1a2.61,2.61,0,0,1-.27-1c0-.4,0-.75-.39-1a5.46,5.46,0,0,0-1.41-.32l-1.74-.37a.66.66,0,0,0-.39,0,4.11,4.11,0,0,0-1.29-.37c-1-.1-2.08-.24-3.11-.43a14,14,0,0,0-2.53-.92,19.26,19.26,0,0,0-2.75-.52,6.42,6.42,0,0,0-2.93-.64,27.07,27.07,0,0,1-5.09-.18c-.43,0-.64,0-.72.13-.83-.22-1.61-.27-1.52.37a3.14,3.14,0,0,0,.79,1.44.47.47,0,0,0,0,.21,11,11,0,0,0,.93,3.57,2.75,2.75,0,0,0,.33.48,3.31,3.31,0,0,0,.42,1.56,2.75,2.75,0,0,0,.32.44.38.38,0,0,0,0,.33,9.19,9.19,0,0,0,.33,1.47,2,2,0,0,0,.68.84v0l.21,1.26a1.6,1.6,0,0,0,.52.7.76.76,0,0,0,0,.16,10.55,10.55,0,0,0,.54,1.76,2.59,2.59,0,0,0,.72.87c-.08,0-.14.08-.14.16a3,3,0,0,0,.7,1.9l.06.06a.47.47,0,0,0,0,.2c.13.61.27,1.22.4,1.84.1.43.85,1,1.31,1.31-.2,0-.36.07-.35.2a3.54,3.54,0,0,0,.22,1.29,1.87,1.87,0,0,0,.44.62.39.39,0,0,0-.06.35l.36,1.46a1.71,1.71,0,0,0,.52.7.33.33,0,0,0,0,.35,2.74,2.74,0,0,0,.3,1,3,3,0,0,0,.56.69.33.33,0,0,0-.09.38,14.71,14.71,0,0,0,.69,2,3.12,3.12,0,0,0,1,1.07.35.35,0,0,0-.31.48,6.76,6.76,0,0,0,.58,1.45,3.7,3.7,0,0,0,1,1.1c-.24.05-.36.18-.28.45.14.49.27,1,.41,1.45a1.15,1.15,0,0,0,.2.35.36.36,0,0,0,0,.23c.06.26.13.51.19.77a1.54,1.54,0,0,0,.47.65A4,4,0,0,0,32.88,52a1.28,1.28,0,0,0,.29.47l.18.7a1.29,1.29,0,0,0,.31.49c-.09.21.08.5.29.71l.09.09a8.42,8.42,0,0,0,.72.62c-.29,0-.54.11-.45.51s.15.7.23,1.06a1.72,1.72,0,0,0,.57.74.67.67,0,0,0,.12.38A4.39,4.39,0,0,1,35.77,59a1.16,1.16,0,0,0,.18.32.47.47,0,0,0,0,.16c.2.61.39,1.22.58,1.84a1.48,1.48,0,0,0,.3.47h0a11.21,11.21,0,0,0,.66,1.75,2.11,2.11,0,0,0,.18.27.39.39,0,0,0,0,.2l.45,1.18,0,.06a.43.43,0,0,0,0,.31l.28.77a1.34,1.34,0,0,0,.17.31s0,.05,0,.08l.09.29a1.84,1.84,0,0,0,.4.58,1.1,1.1,0,0,0-.06.26c-.13,1.44,2,1.87,3.07,1.93a.47.47,0,0,0,.24-.06c.32.15.64.32,1,.45l.73.28a10.41,10.41,0,0,0,2.24.82l.63.31c.28.14,4.23,1.83,4.46,1.18.27.1.54.21.82.29,1.12.34,2.26.6,3.41.84a17.15,17.15,0,0,0,1.72.85,7.74,7.74,0,0,0,2.61.79C60.28,75.5,61.06,75.52,60.77,75Z" transform="translate(-10.35 -11.46)" style="fill-rule:evenodd;fill:url(#radial-gradient-3)"/><path d="M98.12,67.05l-.92-.33c0-.06,0-.11,0-.11a18.59,18.59,0,0,0-1.89-.41,1.48,1.48,0,0,0,.22-.43,51.12,51.12,0,0,0-5.89-1c0-.08,0-.14,0-.17a21.33,21.33,0,0,0-6.7-1.66c-1-.25-2.13-.33-2.84-.45-1-.16-2-.29-2.93-.39a8.91,8.91,0,0,0-2.63-.61.89.89,0,0,0-.4.11c-.2,0-.41-.06-.62-.09,0-.1,0-.16-.07-.16a1.5,1.5,0,0,0-.45.09c-2.66-.24-5.27.37-7.92.65-.5-.17-1-.35-1.49-.54-.33-.12-.76.17-1.14.52l-.35-.1c-.16,0-.36.07-.54.23,0-.07-.11-.13-.16-.21s-.23,0-.46.21a2.52,2.52,0,0,0-.51-.14c-.27-.11-.51-.19-.53-.08a1.07,1.07,0,0,0,.12.66,1.1,1.1,0,0,0,.19.25c-.27.3-.44.61-.33.77a7.8,7.8,0,0,0,.68.84c-.09.2-.1.34,0,.38l.11,0a.17.17,0,0,0,0,.07.75.75,0,0,1,.06.13c-.12.28-.14.5.1.49H61a5,5,0,0,0,.34.46c0,.06,0,.12,0,.18a7.27,7.27,0,0,0,.55,2.14c.06.19.22.2.42.12l.23,0a.24.24,0,0,0,.1.06,10.51,10.51,0,0,0,2.91,0,.38.38,0,0,0,.13,0l1.29-.1a1.61,1.61,0,0,0,.8-.37H68s0,0,0,0a1.32,1.32,0,0,0,.39-.06A24.7,24.7,0,0,0,71.1,68c0,.13,0,.21.05.22,2.48.27,5-.17,7.52-.2s4.75,0,7.13,0a64.53,64.53,0,0,0,7.62.1.77.77,0,0,0,.34-.17,15.47,15.47,0,0,1,2,.41.51.51,0,0,0,.43-.15c.46.24.92.4,1,.26l.12-.29h0l1.5.16c.23,0,.75.17.89-.09S98.34,67.13,98.12,67.05Z" transform="translate(-10.35 -11.46)" style="fill-rule:evenodd;fill:url(#linear-gradient-2)"/></g><g id="Shadows" style="opacity:0.45;mix-blend-mode:multiply"><path d="M66.28,75a10.72,10.72,0,0,0-1.14,1.34,1.6,1.6,0,0,1-.11.3,3.65,3.65,0,0,0-.17.62s0,0,0,0a1.61,1.61,0,0,0-.17.28q-1.89,4.5-3.64,9.06a1.79,1.79,0,0,0-.26.42l-.93,2.12a1.75,1.75,0,0,0-.2.35c-.21.51-.43,1-.63,1.52l-2.29,5.16a2.16,2.16,0,0,0-.16.6c-.55,1.26-1.09,2.51-1.66,3.76a.69.69,0,0,0,0,.13,1.51,1.51,0,0,1-.21.64l-.22.38c-.66,1.64-1.53,3.25-2.19,4.82q-1.27,3-2.61,5.88c-1.12,2.91-2.14,5.83-3.51,8.66a74.8,74.8,0,0,1-4,9.93l.37.65q1-2.25,2.08-4.49a2.39,2.39,0,0,0,.25-.84l1-2.17a1.5,1.5,0,0,0,.16-.8c.64-1.53,1.32-3,2.06-4.53,0,0,0-.07,0-.1a1.9,1.9,0,0,0,.29-.48c1.18-2.69,2.35-5.37,3.52-8.06a.64.64,0,0,1,0-.07c.65-1.46,1.26-2.93,1.85-4.42a1,1,0,0,0,.1-.72l.36-.84a1.69,1.69,0,0,0,.78-.93c.31-.91.64-1.81,1-2.7l1.74-3.49a1.4,1.4,0,0,0,.18-.79c.57-1.13,1.15-2.25,1.79-3.35a1.58,1.58,0,0,0,.14-1.39l.06-.15c.5-1.13,1-2.27,1.51-3.41a3.25,3.25,0,0,0,.55-.93c.84-2.16,1.79-4.28,2.82-6.36.11-.22.4-1,.13-1.17.1-.24.19-.48.29-.71a1.87,1.87,0,0,0,.43-.59l0-.07c.06-.13.11-.25.14-.33a11.41,11.41,0,0,1,.59-1.22c.51.12,1.1-1,1.14-1.58A11.28,11.28,0,0,0,66.28,75Z" transform="translate(-10.35 -11.46)" style="fill-rule:evenodd"/><path d="M75.93,110.81a25.42,25.42,0,0,1-.55-3.46,8.43,8.43,0,0,1-.74-3.83c0-.21-.08-.42-.1-.63s0-.22,0-.33l-.09-.39a1,1,0,0,1-.1-.17,19.19,19.19,0,0,1-.53-2.9,1.61,1.61,0,0,1,0-.9s0-.08,0-.12c-.23-1-.47-2-.76-3.07a.85.85,0,0,0,0-.46c-.75-2.73-1.42-5.47-2-8.24A.28.28,0,0,0,71,86.1l0-.18a.85.85,0,0,0,0-.22c-.17-1.08-.38-2.16-.58-3.24-.1-.55-.19-1.1-.29-1.65v0l0-.1c-.26-1.46-.53-2.91-.81-4.36,0-.19-.13-.24-.25-.21a.25.25,0,0,0-.1-.15v0c-.13-.58-.75.08-1.08.74a.93.93,0,0,1,.42.58c.94,3.84,1.36,7.76,2.13,11.63a1,1,0,0,1,.1.18,84.93,84.93,0,0,1,1.69,8.37,1.09,1.09,0,0,1,0,.44c1.37,5.38,1.93,10.78,4.13,16,.06.15.2.11.37,0C76.32,112.86,76.15,111.78,75.93,110.81Z" transform="translate(-10.35 -11.46)" style="fill-rule:evenodd"/><path d="M110,121.61c.23,1,.42,2,.59,3a.84.84,0,0,1,.43.26s0,0,0,0a63,63,0,0,1-1.44-7,.75.75,0,0,1,.17-.56l-.18-.7a28.79,28.79,0,0,1-.79-3.17,23.76,23.76,0,0,1-1-4.83,1,1,0,0,1,.11-.72v-.06a1,1,0,0,1,0-.5c-.78-3.53-1.33-7.09-2.16-10.63a1,1,0,0,1-.15-.29c-.46-1.62-.84-3.26-1.2-4.91a17.2,17.2,0,0,1-.64-2.93c-.15-.71-.31-1.42-.48-2.12a1,1,0,0,1,0-.5A11.13,11.13,0,0,1,103,84.3c-.34-1.37-.63-2.75-.92-4.06a1,1,0,0,1,.07-.62,1.07,1.07,0,0,1,.12-.37c-.26-1.17-.49-2.34-.77-3.51a.94.94,0,0,1,.2-.85c0-.16,0-.33-.07-.49s-.21-.26-.41-.11a1.7,1.7,0,0,0-.33-.43A3.11,3.11,0,0,0,98.72,73c-.33,0-.66.57-.84,1.07a6.14,6.14,0,0,1,.68.53,4,4,0,0,1,.5.51,4.64,4.64,0,0,1,.42.5l.07,0,0,.08,0,0a9.86,9.86,0,0,1,1.32,4,.81.81,0,0,1,0,.27c0,.13,0,.27.07.4a.94.94,0,0,1,.18.39c.7,2.85,1.09,5.75,1.7,8.62,0,0,0,.08,0,.12a18.42,18.42,0,0,1,.66,3.12,1.13,1.13,0,0,1,0,.41c.29,1.16.56,2.31.8,3.48a1.46,1.46,0,0,0,0,.2l.06.37a38,38,0,0,1,1.28,6,2.26,2.26,0,0,1,0,.26v.07l0,.18a1,1,0,0,1,.11.26c.06.31.11.62.17.93a1,1,0,0,1,.25.55c.08.67.19,1.35.29,2l0,.17s0,0,0,.06a28.33,28.33,0,0,1,.91,4.32s0,0,0,0c.91,3,1.28,6,2.12,9A.87.87,0,0,1,110,121.61Z" transform="translate(-10.35 -11.46)" style="fill-rule:evenodd"/><path d="M41.7,69.47a1.55,1.55,0,0,1-.39-.18,18,18,0,0,0-2.07,2.41c-.08.14-.15.29-.23.44l-.67.94a2.29,2.29,0,0,0-.39,1,1.26,1.26,0,0,0-.08.49c-.17.28-.35.56-.51.84-.14-.13-.39,0-.73.45-.66.95-1.29,1.93-1.92,2.9A1.31,1.31,0,0,1,34.54,80c-1.91,3-3.91,5.91-5.64,9-.6,1.2-1.19,2.4-1.75,3.62,0,.08,0,.14-.08.21a1.49,1.49,0,0,0-.21.22c-.15.34-.31.67-.45,1a1.61,1.61,0,0,1-.37.56l-.85,1.74c-.48.74-1,1.48-1.45,2.22a1.17,1.17,0,0,0-.64.68l-1.2,2.41c-.19-.22-.61-.08-1,.6q-2.31,4.48-4.79,8.86a1.9,1.9,0,0,0-.22.76A37.66,37.66,0,0,0,12,119.33c-.11.28-.26.91.18,1s.79-.83.9-1.1a33,33,0,0,1,3.61-6.69,1.74,1.74,0,0,0,.3-.94c.55-1,1.08-2,1.62-2.93.12.37.62.29,1-.49q1.86-3.52,3.63-7.11c.17.28.62.15,1-.58L25.9,97l2.4-3.7a1.28,1.28,0,0,0,.62-.66Q32.4,86,36.17,79.56a2.12,2.12,0,0,0,.25-.4,50.34,50.34,0,0,1,4.42-7.27,1.81,1.81,0,0,0,.28-.64l.18-.38a2.27,2.27,0,0,0,.42-.89,2.15,2.15,0,0,0,.14-.47Z" transform="translate(-10.35 -11.46)" style="fill-rule:evenodd"/><path d="M61.8,68.88c-.69-1.88-1.44-3.74-2.22-5.58a1.66,1.66,0,0,0,.21-.87q-2.57-7.59-5.11-15.18c-.07-.18-.16-.25-.26-.25a53.87,53.87,0,0,0-2-7.27h0a.88.88,0,0,1,0-.15c-.07-.19-.2-.16-.35,0-.7-2.84-1.42-5.68-2.18-8.51-.09-.35-.3-.31-.52-.09q-.59-2.58-1.3-5.15c-.1-.35-.29-.31-.5-.11q-1.38-5.19-3-10.32c-.26-.86-1.46.94-1.28,1.54Q44.9,22,46.24,27.12c.69,2.14,1.37,4.29,2,6.45l.1-.07c.14.61.26,1.23.38,1.85.1.38.21.75.31,1.13.46,1.84.94,3.66,1.46,5.47a3.56,3.56,0,0,0,.39-.57c.34,1.39.65,2.78,1,4.17.15.77.33,1.54.52,2.31.14.45.28.9.4,1.35.12.1.3,0,.48-.19.06.33.11.66.16,1a14.79,14.79,0,0,0,.29,1.83,1.29,1.29,0,0,0-.15.76q2,6.3,4.07,12.59a5.53,5.53,0,0,0,1.33,4.09.3.3,0,0,0,.44,0c.31,1.53.57,3,.75,4.6.1.82,1.36-.91,1.28-1.53s-.16-1.17-.25-1.74A2.59,2.59,0,0,0,61.8,68.88Z" transform="translate(-10.35 -11.46)" style="fill-rule:evenodd"/></g><g id="Highlights"><path d="M66.11,73.26A2.64,2.64,0,0,0,64,74.55a16.64,16.64,0,0,0-1.51,2.62c-.11.2-.24.52,0,.53a3.9,3.9,0,0,0-.42.71c-.26.42-.53.85-.78,1.28a1.85,1.85,0,0,0-.27.65,7.94,7.94,0,0,0-.51,1.28c0,.14,0,.19,0,.19s0,0,0,.06a19.47,19.47,0,0,0-1.61,4.48c0,.13,0,.18,0,.19-.36.86-.67,1.73-.95,2.62a3,3,0,0,0-.38.31,2.81,2.81,0,0,0-.76,1.29,1.64,1.64,0,0,0-.26.52.29.29,0,0,1,0,.09c-.37.56-.66,1.34-.49,1.35-.55,1.17-1.1,2.33-1.77,3.46a19.25,19.25,0,0,0-2.09,4.76c-.07.28.48-.27.89-.8-.07.25-.12.5-.17.76a2.74,2.74,0,0,0-.39.6c0,.12-.1.24-.14.37a1.92,1.92,0,0,0-.3.45c-.35.75-.66,1.52-1,2.29.5-.78,1-1.56,1.53-2.33.26-.61.56-1.2.83-1.79.49-1.09,1-2.16,1.56-3.2.08-.23.15-.46.24-.69s.13-.25.2-.38a20.9,20.9,0,0,1,1.81-4.4l.27-.54c0-.09,0-.17.07-.26s0-.13.07-.2c.17-.36.34-.72.52-1.08a22.73,22.73,0,0,1,1.89-4.38c.41-1,.85-2,1.29-3a29.08,29.08,0,0,1,1.07-3c.24-.55.51-1.23.84-1.88a.37.37,0,0,0,0-.09l.06-.09c.14-.25.27-.51.41-.77.06-.09.12-.18.17-.27a7.83,7.83,0,0,1,.4-1,3.38,3.38,0,0,1,1.3-1.5,2.49,2.49,0,0,1,.47-.21C66.24,73.4,66.24,73.26,66.11,73.26Z" transform="translate(-10.35 -11.46)" style="fill:#fff;fill-rule:evenodd"/><path d="M40.22,69.17a4.56,4.56,0,0,0-.65.83,70.38,70.38,0,0,1-4.21,7.54,2.63,2.63,0,0,0-.28.56,2.86,2.86,0,0,0-.22.3Q32,83.19,29.42,88.15a1.84,1.84,0,0,0-.15.36C25.09,93.9,22,100.22,18.52,106.16c-2.71,4-4.91,8.51-7.32,12.71-.78,1.36.34.49.74-.22,1.61-2.81,3.13-5.77,4.78-8.61a3.17,3.17,0,0,0,.32-.44c.83-1.31,1.63-2.62,2.43-3.93l.06-.09a2.63,2.63,0,0,0,.24-.4c.94-1.56,1.85-3.13,2.74-4.74a89,89,0,0,1,7.32-11.78,2.9,2.9,0,0,0,.51-1.08l.08-.13q2.44-4.73,5.19-9.27a2.63,2.63,0,0,0,.19-.37,80.45,80.45,0,0,0,4.71-8.4A3.07,3.07,0,0,1,40.22,69.17Z" transform="translate(-10.35 -11.46)" style="fill:#fff;fill-rule:evenodd"/></g><g id="Lines"><path d="M62.9,76H61L42.72,16.5l2.16-.72s16.45,52.81,17,53.1,10.24-1.16,16.8-1,22.08.72,22.08.72l1,1.92s.45,4-.72,4.86m-2.55.3c-6.4.37-23.16.39-32,.38" transform="translate(-10.35 -11.46)" style="fill:none;stroke:#231f20;stroke-miterlimit:10;fill-rule:evenodd"/><path d="M44.88,15.78s-9.5-2.73-13.2-3.34A69.63,69.63,0,0,0,21.6,12l-3.12.48" transform="translate(-10.35 -11.46)" style="fill:none;stroke:#231f20;stroke-miterlimit:10;fill-rule:evenodd"/><path d="M61.92,68.82,61,76s-21.07-6.5-21.6-7.44S18.48,12.46,18.48,12.46s9.25.33,11.76,1.18S42.72,16.5,42.72,16.5" transform="translate(-10.35 -11.46)" style="fill:none;stroke:#231f20;stroke-miterlimit:10;fill-rule:evenodd"/><path d="M100.8,68.82c-.14-2-9.94-4.16-12.24-4.74s-13.65-2.75-14.64-2.7-5.41-.13-14.16.48" transform="translate(-10.35 -11.46)" style="fill:none;stroke:#231f20;stroke-miterlimit:10;fill-rule:evenodd"/><path d="M79.68,73.38H66s-1.8.46-2.16,1.2-1.2,2.16-1.2,2.16l-23,56s-.19.57,1,.75S42,133,42,133L66.24,77a1.27,1.27,0,0,1,1.2-1.44c1.39-.22,30.48-.48,30.48-.48a2.36,2.36,0,0,1,1,1.44c.21,1,12,56.7,12,56.7a1.51,1.51,0,0,0,1,0c.48-.18.48-.48.48-.48l-11-56.22s0-2.56-1.44-2.88a13.66,13.66,0,0,0-3.12-.24Z" transform="translate(-10.35 -11.46)" style="fill:none;stroke:#231f20;stroke-miterlimit:10;fill-rule:evenodd"/><path d="M42.24,70,12.48,119.76s-.37.3-1.2,0-.24-1-.24-1l29-49.74" transform="translate(-10.35 -11.46)" style="fill:none;stroke:#231f20;stroke-miterlimit:10;fill-rule:evenodd"/><path d="M69.12,76.08l8.16,43.2s.25.27-.48.48-1-.24-1-.24L66.24,76.8" transform="translate(-10.35 -11.46)" style="fill:none;stroke:#231f20;stroke-miterlimit:10;fill-rule:evenodd"/></g></g></svg>