<svg xmlns="http://www.w3.org/2000/svg" xmlns:xlink="http://www.w3.org/1999/xlink" viewBox="0 0 144.08 106.9"><defs><linearGradient id="linear-gradient" x1="88.73" y1="38.53" x2="152.53" y2="38.53" gradientUnits="userSpaceOnUse"><stop offset="0" stop-color="#fcba7f"/><stop offset="1" stop-color="#f47e58"/></linearGradient><linearGradient id="linear-gradient-2" x1="74.36" y1="87.65" x2="121.78" y2="77.2" gradientUnits="userSpaceOnUse"><stop offset="0" stop-color="#fcba7f"/><stop offset="0.23" stop-color="#fbb47b"/><stop offset="0.54" stop-color="#f9a471"/><stop offset="0.87" stop-color="#f68a60"/><stop offset="1" stop-color="#f47e58"/></linearGradient><linearGradient id="linear-gradient-3" x1="120.42" y1="80.1" x2="145.58" y2="82.81" gradientUnits="userSpaceOnUse"><stop offset="0" stop-color="#f47e58"/><stop offset="1" stop-color="#fcba7f"/></linearGradient><linearGradient id="linear-gradient-4" x1="9.19" y1="64.01" x2="38.81" y2="57.43" xlink:href="#linear-gradient"/><linearGradient id="linear-gradient-5" x1="69.04" y1="47.67" x2="36.52" y2="87.16" gradientUnits="userSpaceOnUse"><stop offset="0.07" stop-color="#f47e58"/><stop offset="1" stop-color="#fcba7f"/></linearGradient><linearGradient id="linear-gradient-6" x1="46.95" y1="69.85" x2="53.92" y2="27.65" gradientUnits="userSpaceOnUse"><stop offset="0" stop-color="#fff2c0"/><stop offset="1" stop-color="#fdc380"/></linearGradient><linearGradient id="linear-gradient-7" x1="22.48" y1="25.43" x2="147.11" y2="25.43" gradientUnits="userSpaceOnUse"><stop offset="0" stop-color="#fff2c0"/><stop offset="1" stop-color="#fcc5a9"/></linearGradient></defs><title>Desk</title><g style="isolation:isolate"><g id="Color"><path d="M152.08,40.22a.25.25,0,0,0,0-.07,11.47,11.47,0,0,0-.41-3.57.06.06,0,0,1,0,0c0-.1,0-.18-.05-.27v-.11a0,0,0,0,0,0,0c0-.05,0-.1.07-.14a1.38,1.38,0,0,0,.28-1.08c.05-.27.09-.54.12-.82a1.5,1.5,0,0,0-1.5-1.5,1.48,1.48,0,0,0-1,.46,1.29,1.29,0,0,0-.49-.07,1.35,1.35,0,0,0-.75-.21q-6.67-.09-13.35.33a1.72,1.72,0,0,0-.52.12c-6.17-.6-12.26.3-18.4-.25a1.31,1.31,0,0,0-.91.23l-10.86.45a1.33,1.33,0,0,0-.74-.13l-1.38.12a1.29,1.29,0,0,0-1.07-.38l-4.57.29a1.45,1.45,0,0,0-.71.22h0c-1.19-.06-3-.59-4.26-.11l-.06,0a1,1,0,0,0-.27-.14,1.54,1.54,0,0,0-1.92.17,1.52,1.52,0,0,0,0,2.12h0a1.44,1.44,0,0,0,.32,1.36v0a1.6,1.6,0,0,0-.14.6v.3a2.62,2.62,0,0,0,0,.28v0a3.65,3.65,0,0,0-.09.74,1.38,1.38,0,0,0,.08.45c0,.47,0,.94-.06,1.4a1.52,1.52,0,0,0,0,.67,1.83,1.83,0,0,0-.63,1.24V43a1.49,1.49,0,0,0,1.1,1.44,7.62,7.62,0,0,0,2.6-.18l.89-.13c1.56-.15,3.12-.32,4.67-.51h0a28.36,28.36,0,0,0,6.11,0c1.29.59,3,.25,4.36.25,3.25,0,6.49,0,9.73,0,4.81-.05,9.63-.39,14.43-.73a1.78,1.78,0,0,0,.72.22,7.64,7.64,0,0,0,3-.41H151.1A1.51,1.51,0,0,0,152.08,40.22Z" transform="translate(-10.86 -16.7)" style="fill-rule:evenodd;fill:url(#linear-gradient)"/><path d="M106,43.79a1.44,1.44,0,0,0-1.64.11,1.68,1.68,0,0,0-1.2.16,1.31,1.31,0,0,0-.47.2l-.14,0a1.4,1.4,0,0,0-1.1-.52,1.52,1.52,0,0,0-1.5,1.5l0,.49a1.7,1.7,0,0,0,.1.47c0,.12,0,.25,0,.37a1.67,1.67,0,0,0-.36.82c0,.41-.1.83-.16,1.24,0,0,0,0,0,0l-.68,3.4c-.89,1.78-1,4.4-1.53,6.34a34.14,34.14,0,0,0-.79,4.08,1.41,1.41,0,0,0-1.22,1,11.35,11.35,0,0,0-.55,4,1.36,1.36,0,0,0,0,.3c-.13.84-.27,1.69-.4,2.53q-.78,3.3-1.27,6.66a1.59,1.59,0,0,0-.07.2,1.28,1.28,0,0,0-.42.75c-.81,3.9-2.35,7.63-2.48,11.62-.64,3-1.69,5.91-2.28,8.92,0,.2-.1.39-.14.58,0,0,0,0,0,.05a1.26,1.26,0,0,0-.21.5q-.55,2.49-1.09,5a1.35,1.35,0,0,0-.44.7,29.55,29.55,0,0,0-1.14,6.47c0,.11,0,.21,0,.31-.09.47-.21.94-.31,1.41a1.56,1.56,0,0,0-.18.34,16.8,16.8,0,0,0-1,4.79.49.49,0,0,0,0,.12s0,.05,0,.07c0,.19,0,.38,0,.57v0a1.32,1.32,0,0,0-.45.73l-.34,1.43a1.53,1.53,0,0,0,1,1.85,1.52,1.52,0,0,0,1.84-1l0-.06a1.07,1.07,0,0,0,.16-.25,7.09,7.09,0,0,0,.76-3.32c0-.31,0-.62.09-.92a1.84,1.84,0,0,0,.15-.35c.42-1.43.76-2.88,1.07-4.33a1.4,1.4,0,0,0,.37-1c0-.21,0-.43,0-.64a1.35,1.35,0,0,0,.27-.52,1.22,1.22,0,0,0,.69-.9c.15-1,.26-2,.35-3a5.17,5.17,0,0,0,.37-1.09,1.26,1.26,0,0,0,.74-1l1.14-5.25a41.57,41.57,0,0,0,1.37-6.47,1.25,1.25,0,0,0,.52-.81c.14-.69.27-1.38.41-2.07a1.31,1.31,0,0,0,.42-.76c.25-1.18.5-2.36.74-3.53a1.35,1.35,0,0,0,.24-.61c.11-.6.23-1.2.34-1.79l.06-.15L96,83a1.27,1.27,0,0,0,.58-.9c.18-1,.41-2.1.61-3.15a1.36,1.36,0,0,0,.69-.86q1.59-5.52,2.78-11.15l0,0c1.14-3.72,2.15-7.46,3-11.25a1.43,1.43,0,0,0-.17-1.11,31.36,31.36,0,0,0,1-3.77l.06-.15,1.21-3.72.73-1.06A1.51,1.51,0,0,0,106,43.79Z" transform="translate(-10.86 -16.7)" style="fill-rule:evenodd;fill:url(#linear-gradient-2)"/><path d="M154.43,118.82l-.36-1a1.59,1.59,0,0,0-.22-.43c0-.09,0-.17,0-.27q-.57-2.64-1.33-5.23a1.34,1.34,0,0,0-.19-.4,1.12,1.12,0,0,0-.05-.36,59.73,59.73,0,0,0-2.28-7.17l-.09-.19a1.29,1.29,0,0,0,0-.19c-.27-1-.55-2-.83-3a1.56,1.56,0,0,0,.07-.87c-.14-.65-.32-1.3-.51-1.93a1.48,1.48,0,0,0-.06-.68c-.38-1.2-.78-2.39-1.17-3.59a1.18,1.18,0,0,0,.45-1.52c-.47-1.23-.91-2.47-1.34-3.72a1.24,1.24,0,0,0-.09-.55c-.46-1.23-.87-2.47-1.25-3.72-.29-1-.56-2-.82-3.07,0,0,0,0,0,0-.13-.56-.27-1.12-.38-1.69a1.31,1.31,0,0,0-.58-.87c-.14-.58-.3-1.17-.45-1.75a1.38,1.38,0,0,0,.06-1L140.34,67a1.47,1.47,0,0,0,.32-1.27q-1-5.07-2.51-10a1.36,1.36,0,0,0-.91-1,58.58,58.58,0,0,0-2-9.13,1.52,1.52,0,0,0-.31-.58s0-.06,0-.09a1.57,1.57,0,0,0-2.35-1.25,1.54,1.54,0,0,0-1.19-.16,1.46,1.46,0,0,0-.71-.18,1.51,1.51,0,0,0-1.5,1.5,12.31,12.31,0,0,0,1.13,3.84.49.49,0,0,0,.1.15c.17.48.35,1,.53,1.43a1.93,1.93,0,0,0,.42.63s0,.1,0,.15l.2.48a2.56,2.56,0,0,0,.11.24c.25,1.33.47,2.67.64,4a1.57,1.57,0,0,0,1.18,1.35c.31,1.48.67,3,1.08,4.42a1.29,1.29,0,0,0,0,.34,30.15,30.15,0,0,0,2.09,7.5,1.29,1.29,0,0,0-.16,1.23q1.84,5.4,4,10.69a.52.52,0,0,0,.06.13c.51,2.37,1,4.75,1.35,7.15a1.18,1.18,0,0,0,.93,1c.5,1.41,1,2.83,1.45,4.25,0,.06,0,.11-.07.17a2.27,2.27,0,0,0,.23,1.69c.42,1.38.82,2.75,1.22,4.13a1.36,1.36,0,0,0,0,1l2.23,7a1.49,1.49,0,0,0,.52.75c.34,1.09.66,2.19.94,3.31a1.38,1.38,0,0,0,.18.41,1.12,1.12,0,0,0,.06.35q.77,2.59,1.32,5.23a1.46,1.46,0,0,0,.22.52.85.85,0,0,0,0,.17l0,.16a3.08,3.08,0,0,0,0,.52,1.63,1.63,0,0,0,.3,1.87,1.72,1.72,0,0,0,2.91-1.44A1.27,1.27,0,0,0,154.43,118.82Z" transform="translate(-10.86 -16.7)" style="fill-rule:evenodd;fill:url(#linear-gradient-3)"/><path d="M32.22,30.21a.52.52,0,0,0-.62,0,.29.29,0,0,0-.19,0,.5.5,0,0,0-.19-.22.58.58,0,0,0-.6.08l-.05,0a3.14,3.14,0,0,0-.51-.12c-.08-.09-.15-.2-.24-.29-.57-.57-2.65,2.23-2.11,3.3a1.1,1.1,0,0,0,.06.26,6.4,6.4,0,0,0-.68,1.42,37.93,37.93,0,0,0-1.72,7.93,4.4,4.4,0,0,0-1.22,2.28l-.29,1.45a2.79,2.79,0,0,0-.1.39l-.09.58c-.13.62-.25,1.25-.38,1.88a19.35,19.35,0,0,1-.67,2.21c-.13.33-.44,1.12-.2,1.49l-.82,2.06a2.27,2.27,0,0,0-.24,1.37c-.22.63-.41,1.26-.61,1.88-.35,1-1.55,3.15-.73,4.13A9.64,9.64,0,0,0,18.59,66c-.26,1.13-.48,2.26-.7,3.39-.14.49-.26,1-.37,1.48a4.29,4.29,0,0,0-.91,2c-.19,1.18-.37,2.35-.56,3.53a5.25,5.25,0,0,0-.33.8l-1.53,5.33a1.82,1.82,0,0,0,0,.95c-.05.16-.11.32-.17.49a4.44,4.44,0,0,0-.19.49l0,.08-.18.5a2.27,2.27,0,0,0-.06.25c-1.26,1.76-1.34,4.29-1.7,6.35-.08.44.06.69.3.75a.29.29,0,0,0,.1.12v.26c0,.57.4.51.77.3.82-.16,2.52-2.73,1.72-3.53l0,0a24.42,24.42,0,0,0,1.09-4,3.38,3.38,0,0,0,.29-.56,23.75,23.75,0,0,0,1.47-5.15c0-.08.06-.16.08-.23l.75-2.72a2.7,2.7,0,0,0,.07-.35l.08-.21v0a8,8,0,0,0,.52-1,11.32,11.32,0,0,0,.63-2.13c.06-.3.1-.61.14-.92s.21-.74,0-.47a3.53,3.53,0,0,0,.56-1.65c.25-.77.48-1.55.66-2.35a30.12,30.12,0,0,0,1.57-5.43c1.75-2.32,2.26-5.91,3-8.46.11-.39.17-.84,0-1.06.05-.14.1-.28.14-.42a16.72,16.72,0,0,0,2.39-7.83v0a32.12,32.12,0,0,0,2.46-7.81l.15-.28a5.37,5.37,0,0,0,.77-3.16l.6-1.46C32.21,31.43,32.59,30.54,32.22,30.21Z" transform="translate(-10.86 -16.7)" style="fill-rule:evenodd;fill:url(#linear-gradient-4)"/><path d="M54.68,65.8a9.23,9.23,0,0,1,.79,2.74c.35,2.8,1.21,5.49,1.42,8.35,0,.48,0,1,.07,1.45a6.31,6.31,0,0,1,.83,3.37c0,.78,0,1.56,0,2.34a6.26,6.26,0,0,1,.75,3.2c0,1,0,2.09.1,3.12a6.88,6.88,0,0,1,1.2,2.11A6.84,6.84,0,0,1,61,92.37c.4,0,.8,0,1.2-.08v0c-.28-10.93-3.15-21.92-4.4-32.79-.62-5.37-1.46-10.71-2.28-16-.54-3.56-.27-8.41-4.65-9a1.69,1.69,0,0,0-1.15.43,2.8,2.8,0,0,1,.06.28,6.14,6.14,0,0,1,1.07,3.7c0,.7,0,1.41,0,2.12a6.17,6.17,0,0,1,1,3.55c0,3.51.73,6.93,1.15,10.4a6.51,6.51,0,0,1,.66,2.89c0,.56,0,1.11.05,1.67a6.38,6.38,0,0,1,.85,3.24Q54.59,64.27,54.68,65.8Z" transform="translate(-10.86 -16.7)" style="fill-rule:evenodd;fill:url(#linear-gradient-5)"/><path d="M89,35.68a2.14,2.14,0,0,0,0-1.44.79.79,0,0,0-.3-.28.7.7,0,0,0-.35-.47l-.19-.09a.82.82,0,0,0-.51-.06.44.44,0,0,0-.3-.08,25,25,0,0,0-6.4-1.32,1.55,1.55,0,0,0-.21,0l-1.26-.44h0l-.08-.05-.22,0a18.36,18.36,0,0,0-2.75-.56,12.81,12.81,0,0,1-2.46-.78,1.08,1.08,0,0,0-.79,0,14.24,14.24,0,0,0-1.92-1c-.54-.23-1.14.15-1.54.47a1.54,1.54,0,0,0-.19.17l-.13,0c-.61-.15-1.22-.28-1.84-.39a7.41,7.41,0,0,0-3.29-.88.88.88,0,0,0-.28.06c-.33-.12-.67-.2-1-.3l-2.22-.63a1.44,1.44,0,0,0-.62,0c-1.14-.39-2.37-.57-3.55-.9a1.35,1.35,0,0,0-.69,0l-.63-.16a1.35,1.35,0,0,0-.63,0,.46.46,0,0,0-.32-.27c-1.57-.31-3.13-.59-4.7-.85-.37-.13-.73-.27-1.1-.42a1.2,1.2,0,0,0-1,0,.69.69,0,0,0-.24-.24,6.23,6.23,0,0,0-1.8-.48l-.86-.16a.49.49,0,0,0-.2-.11,49,49,0,0,0-6.14-1.34.38.38,0,0,0-.15,0,6.38,6.38,0,0,0-.89-.19,1.07,1.07,0,0,0-.25-.22c-1.58-.93-3.77-1.12-5.54-1.53a1.59,1.59,0,0,0-1,.14l-.95-.22a1.44,1.44,0,0,0-.79.07l-3.27-1a1.34,1.34,0,0,0-.84,0c-.39-.11-.78-.2-1.18-.28h-.15l-.45-.2a.92.92,0,0,0-.69,0,3,3,0,0,0-1.35-.55,2.53,2.53,0,0,0-.78,0l-.48-.32c-.28-.17-1.68-.87-1.7-.09,0,.63,0,1.25,0,1.87a.33.33,0,0,0-.19.27,10.24,10.24,0,0,0,0,2.71,1.31,1.31,0,0,0,.09.34,4.86,4.86,0,0,0-.27,1.11c-.05.49-.15,1.27.37,1.56a7.81,7.81,0,0,0,1.61.69,1,1,0,0,0,.56.24A13.85,13.85,0,0,1,24,28.34a1.33,1.33,0,0,0,1.34-.25c.48.12,1,.21,1.46.3.26.09.52.2.78.3a.61.61,0,0,0,.32.25,34.12,34.12,0,0,0,3.28.95,18.89,18.89,0,0,0,2.12.41,18.11,18.11,0,0,0,3.24.67,1,1,0,0,0,.76.57c.48.09,1,.15,1.46.2a.55.55,0,0,0,.33.29c1.46.34,2.93.63,4.4.86a1.05,1.05,0,0,0,.57-.17,17.09,17.09,0,0,0,6.45,1.76.61.61,0,0,0,.29.19,37.71,37.71,0,0,0,7.8,1.63s.08,0,.12,0a22,22,0,0,0,3.2.71.87.87,0,0,0,.83.77c.81.1,1.57.46,2.37.63l.23,0A23.68,23.68,0,0,0,73,39.77a.65.65,0,0,0,.24,0c1.14.31,2.32.69,3.51,1a1.17,1.17,0,0,0,.36.58c.74.6,2,.47,2.89.51l.8,0a11.56,11.56,0,0,0,2.92.53,9.71,9.71,0,0,0,1.31.47,1.38,1.38,0,0,0,.94.21l.13,0h.12a1.88,1.88,0,0,0,.91.21c.28.16,1.15.61,1.51.35a.4.4,0,0,0,.28-.16.59.59,0,0,0,0-.65v-.34l0-.18s0-.1,0-.15v-.44a1.13,1.13,0,0,0,0-.18l.21-.88a1,1,0,0,0-.22-.62,28.32,28.32,0,0,1,.49-3.43A1.27,1.27,0,0,0,89,35.68Z" transform="translate(-10.86 -16.7)" style="fill-rule:evenodd;fill:url(#linear-gradient-6)"/><path d="M145.53,31.69a3.81,3.81,0,0,0-2.3-.38c-.25-.08-.49-.14-.71-.19a6.78,6.78,0,0,0-1.68-.15l-.29,0a7.84,7.84,0,0,0-2.2-.47l-.17,0a2,2,0,0,0-.74,0c-.31,0-.62,0-.93.06a4.27,4.27,0,0,0-.61-.18,3,3,0,0,0-1.39-.25l-.11,0-.3-.11-.83-.23a5.66,5.66,0,0,0-1.4-.63,33.28,33.28,0,0,0-4.83-1,2.94,2.94,0,0,0-.78,0,15.37,15.37,0,0,0-3.05-.79c-.8-.12-2.15-.43-2.94,0a16.94,16.94,0,0,0-4.59-1,.82.82,0,0,0-.54.11l-.72-.12a16.44,16.44,0,0,0-3-.74,2.62,2.62,0,0,0-.74,0,6.14,6.14,0,0,0-1.07-.3l-.3-.12c-.35-.15-1.39-.53-1.9-.28l-.08,0-.49-.11a7.42,7.42,0,0,0-2-.59c-1-.13-2-.21-3-.31a3.8,3.8,0,0,0-1.59-.56,1.69,1.69,0,0,0-.38,0l-.78,0a4.5,4.5,0,0,0-2.41-.57l-.3.08a4.32,4.32,0,0,0-2.62-1c-.42,0-.88.06-1.34.12a4.4,4.4,0,0,0-2.15-.7c-.51,0-1,0-1.53.1a4.26,4.26,0,0,0-1.92-.56c-.47,0-1,0-1.45,0a4,4,0,0,0-1.1-.3,5,5,0,0,0-2-.83,6.76,6.76,0,0,0-2-.11,3.47,3.47,0,0,0-1.65-.43c-.55,0-1.1.06-1.64.14a3.76,3.76,0,0,0-.51-.17,6.87,6.87,0,0,0-1.81-.25,5,5,0,0,0-1.77-.51c-.41,0-.83-.06-1.25-.05a5.67,5.67,0,0,0-.65-.33,4.46,4.46,0,0,0-1.84-.43l0,0a2.8,2.8,0,0,0-2-.22,3,3,0,0,0-.57.34h0a4.52,4.52,0,0,0-2-.16,5.19,5.19,0,0,0-.8.06,2.35,2.35,0,0,0-1.26-.25,13.55,13.55,0,0,1-2,.43c-.82-.4-1.77-.61-2.15-.26a1.18,1.18,0,0,1-.18.13l-.25-.1a2.4,2.4,0,0,0-1.24-.13c-.21.07-.43.12-.64.17a2.55,2.55,0,0,0-1.49-.18c-.32.08-.63.17-.94.27a7.69,7.69,0,0,0-3.78-.08,12,12,0,0,0-2.31.19,5.66,5.66,0,0,0-2,.2l0,0c-.49-.2-1.52-.59-2-.17a2.62,2.62,0,0,0-1.93-.2,2.31,2.31,0,0,0-1.07-.05,1.12,1.12,0,0,0-.43.18,5.4,5.4,0,0,0-.9-.23,4.06,4.06,0,0,0-1.59,0,1.09,1.09,0,0,0-.53.29,1.81,1.81,0,0,0-.62,0,1.2,1.2,0,0,0-.6.32,2,2,0,0,0-.49,0h-.16l-.11,0a3.84,3.84,0,0,0-1,0,1.83,1.83,0,0,0-.25-.06A2.2,2.2,0,0,0,33,18a2,2,0,0,0-.6,0,3.63,3.63,0,0,0-.87,0,2.74,2.74,0,0,0-1.06-.1l-.34,0-.18,0a.86.86,0,0,0-.61.17l-.32.1c-1.32-.21-2.66-.37-4-.45a1.05,1.05,0,0,0-.42.05c-.46-.18-1.84-.69-2.11,0s1.17,1.34,1.54,1.49a11.61,11.61,0,0,0,2,.61,1.74,1.74,0,0,0,.9-.05l.3.05c.88.05,1.76.16,2.64.29l.18.05a3.87,3.87,0,0,0,1.69.47h.18l.25,0a4.72,4.72,0,0,0,2.07.63c.35,0,.71,0,1.07,0a5.14,5.14,0,0,0,1.8.69l3.71.56.12,0a3.13,3.13,0,0,0,.62.16,11.09,11.09,0,0,1,2.31,1c.53.29,1.91.93,2.48.44A.47.47,0,0,0,46.5,24a2.26,2.26,0,0,0,.57.06,5,5,0,0,1,.77,0h.07c.24.08.48.18.72.25.43.11.85.19,1.29.26l.41.06.86.23a4.23,4.23,0,0,0,1,.16,1.15,1.15,0,0,1,.17.06,4.87,4.87,0,0,0,1.07.15h0l.64.16a2.15,2.15,0,0,0,.4,0,4.05,4.05,0,0,0,1.78.75,2.15,2.15,0,0,0,.52,0,3.82,3.82,0,0,0,2.46,1c.55,0,.77-.23.68-.57a3.77,3.77,0,0,0,.56.27c.4.15.81.28,1.22.41a4.78,4.78,0,0,0,.95.37c.32.08.63.14.94.19.64.16,1.27.32,1.92.46a1.37,1.37,0,0,0,1.08-.17l.16,0,.24.1a2.93,2.93,0,0,0,1,.16,4.18,4.18,0,0,0,1.23.39,2.34,2.34,0,0,0,.54,0,15.85,15.85,0,0,0,2.71.87l.11,0,.07,0a2.43,2.43,0,0,0,1,.1,2.13,2.13,0,0,0,1.49.09c.23.09.45.21.69.29l.17.05.16.1a5,5,0,0,0,2.33.88,1.24,1.24,0,0,0,.81-.24c.23.1.45.18.67.26a33.71,33.71,0,0,0,4.85,1.21.87.87,0,0,0,.86-.3c.31.15.62.29.94.42.84.69,2.56,1.36,3.18.79a7.07,7.07,0,0,0,1,0c.46,0,.89-.11,1-.59a33.57,33.57,0,0,0,5.76-.07,1.27,1.27,0,0,0,.18.06,1.81,1.81,0,0,0,1.41,0h.25a31.52,31.52,0,0,0,5.41-.06,29.12,29.12,0,0,0,8.49-.1,3.23,3.23,0,0,0,1.63.27l1.83-.26.58,0h.08l1,.08a2.7,2.7,0,0,0,.82.1c.25,0,.5,0,.76,0,.45,0,.91,0,1.37,0a1.17,1.17,0,0,0,.36-.06l1.16.06.22,0a3.16,3.16,0,0,0,.86.1l1.18.13c.73.08,2,.4,2.52-.22a.43.43,0,0,0,.11-.25,20.22,20.22,0,0,0,4.73,0A28.45,28.45,0,0,0,136,33c.48,0,.69-.08.72-.24a4.32,4.32,0,0,0,1.1.37,1.65,1.65,0,0,0,1-.08.33.33,0,0,0,.16-.27l1.65.1a1.16,1.16,0,0,0,.4,0l.05,0a1.85,1.85,0,0,0,.74,0,3,3,0,0,0,1.14.22h.49l.34.06a1.57,1.57,0,0,1,.87.12,3,3,0,0,0,1.07.16c.53.12,1.11.15,1.27-.24C147.35,32.52,145.89,31.86,145.53,31.69Z" transform="translate(-10.86 -16.7)" style="fill-rule:evenodd;fill:url(#linear-gradient-7)"/></g><g id="Shadows" style="opacity:0.37;mix-blend-mode:multiply"><path d="M105.41,43.86c-1,4.32-3,8.63-4.24,12.69-.91,2.93-1.78,5.87-2.64,8.82-.06.27-.12.55-.17.82,0,.06-.09.14-.14.21-.35,1.17-.69,2.35-1,3.53a21.66,21.66,0,0,1-.69,3,169.22,169.22,0,0,1-4.89,19.26,6.51,6.51,0,0,1-.25,1.52c-.09.33-.17.67-.26,1S91,95.52,91,95.9a5.31,5.31,0,0,0-.14.53c-.26,1.27-.55,2.53-.86,3.79a4.61,4.61,0,0,0-.57,1.33l0,.22a3.2,3.2,0,0,0-.07.41,20.46,20.46,0,0,1-.47,2.8,5.78,5.78,0,0,0-.42.92c-.77,3.4-1.52,6.79-2.33,10.18a6.6,6.6,0,0,1-.51,1.44q-.44,2.25-.84,4.5a6,6,0,0,1-.12.76.54.54,0,0,0,.34-.09,3.78,3.78,0,0,0,1.4-2.36c.2-1,.41-2.06.62-3.09v0a.93.93,0,0,0,0-.1c.16-.49.31-1,.46-1.47a5.56,5.56,0,0,0,.54-1.42c.18-.74.35-1.48.53-2.21a1.82,1.82,0,0,0,0-.42,1.14,1.14,0,0,0-.13-.82,6,6,0,0,0,.52-1.11c.28-.93.57-1.86.85-2.79a5.61,5.61,0,0,0,.61-1.27,29.63,29.63,0,0,0,.85-3.82,8.8,8.8,0,0,0,.3-.92q.73-2.7,1.29-5.45a4,4,0,0,0,.28-1.15c0-.25,0-.49.07-.73v0c.1-.6.23-1.19.34-1.78l1.23-4.49a4.45,4.45,0,0,0,.59-1.79,15.8,15.8,0,0,1,.26-1.83c.1-.27.18-.53.24-.75L97,78.6a5.41,5.41,0,0,0,.83-1.55,42.13,42.13,0,0,0,1.67-6.84l0-.21a6.23,6.23,0,0,0,.55-1.45c.22-1,.42-1.93.63-2.9a5.53,5.53,0,0,0,.42-1.42,7.64,7.64,0,0,0,.25-.8c.42-1.72.83-3.44,1.25-5.16,0-.13.07-.25.09-.35l.12-.53c0-.14.07-.28.1-.41.55-2,1.44-3.8,1.69-5.84,0,0,0,0,0-.06s0-.1,0-.15,0-.36,0-.54c.18-1.28,1-2.44,1.16-3.74a1.89,1.89,0,0,1,.11-.25l.73-1.62C106.86,44.43,106,44,105.41,43.86Z" transform="translate(-10.86 -16.7)" style="fill:#0b0b0b;fill-rule:evenodd"/><path d="M32.34,30c-.7,1.73-1.5,3.46-2.28,5.17-.33,1-.67,2-1,3.07a7.44,7.44,0,0,1-.27,1.16c-1.66,5.19-3.55,10.28-5.38,15.39-.06.27-.13.54-.19.82a7.81,7.81,0,0,1-.21.87q-.75,3.14-1.44,6.28a6.69,6.69,0,0,1-.74,1.93c-.24.88-.49,1.75-.74,2.63,0,.06,0,.12,0,.17l-.1.29-.18.51a.81.81,0,0,1,0,.11l0,0c-.43,1.43-.88,2.86-1.36,4.29s-.78,2.79-1.25,4.16c-.16.49-.11.69,0,.72a38.43,38.43,0,0,0-1.29,4c-.32,1-.64,1.92-1,2.88-.08.26-.15.52-.23.78-.22.8-.55,1.78-.92,2.84a.38.38,0,0,0,.05.21c-.05.24-.09.49-.14.74,0,0,0,0,0,.05a1.8,1.8,0,0,0-.12.29,17.25,17.25,0,0,0-.94,3.64c0,.4.22.47.5.24l.16-.18a.55.55,0,0,0,.23-.13,1.76,1.76,0,0,0,.43-.61,2.42,2.42,0,0,0,.42-.94L14.87,89a22,22,0,0,0,1.74-5.17c0-.06,0-.11,0-.16a8.63,8.63,0,0,0,.77-2.58,1.12,1.12,0,0,0,.11-.26c.15-.6.33-1.19.52-1.78a1.69,1.69,0,0,0,.28-.49c.79-2.38,1.49-4.79,2.13-7.22a.68.68,0,0,0,0-.46c0-.1.09-.19.13-.29a4.14,4.14,0,0,0,.27-.39A10.28,10.28,0,0,0,22.27,65a1.09,1.09,0,0,1,0-.19,6.25,6.25,0,0,0,.28-.67l1.38-4.73a5.06,5.06,0,0,0,.18-.76c.34-1.07.69-2.15,1-3.22a2.82,2.82,0,0,0,.18-1.27l.39-1.34a5.23,5.23,0,0,0,.67-1.36,34.92,34.92,0,0,0,.89-3.87,6.49,6.49,0,0,0,.44-1l.15-.45a4,4,0,0,0,1.33-2.31c.12-.49.25-1,.37-1.46a4.29,4.29,0,0,0,.27-.87l.1-.49s0-.12,0-.19l.12-.47a1.42,1.42,0,0,0-.08-1c.11-.46.22-.92.32-1.38l.11-.26c.14-.4.27-.79.4-1.19A5.64,5.64,0,0,0,31.48,35l1-3.86A1.32,1.32,0,0,0,32.34,30Z" transform="translate(-10.86 -16.7)" style="fill:#0b0b0b;fill-rule:evenodd"/><path d="M62.22,90.68c-.13-.94-.29-1.87-.48-2.8a4.68,4.68,0,0,0,0-.49,20.74,20.74,0,0,0-.56-3.32c0-.3-.08-.58-.11-.78l-.2-1c0-.08,0-.16,0-.21-.19-2.31-.51-4.61-.91-6.9a2.81,2.81,0,0,0-.32-.92c-.1-.65-.21-1.3-.31-2a6.31,6.31,0,0,0-.22-1c-.09-1.59-.21-3.18-.37-4.77a4.37,4.37,0,0,0-.32-1.31,1.21,1.21,0,0,0,0-.23q-.35-3.29-.63-6.59a6.07,6.07,0,0,0-.19-1c0-.37-.07-.75-.09-1.12a10.09,10.09,0,0,0-.11-1.15,9.15,9.15,0,0,0-.13-1c-.22-1.29-.46-2.58-.7-3.87a7.24,7.24,0,0,0-.13-1.36q-.59-3.24-.91-6.52c0-.08,0-.21-.05-.35a4.49,4.49,0,0,0-.21-1,1.73,1.73,0,0,0-.51-.82c-.08-.39-.17-.78-.23-1.17a.24.24,0,0,0,.08-.11l.1-.28a3.08,3.08,0,0,0-.5-2.47L54,35.91c-.14-.32-.33-.57-.59-.62a.77.77,0,0,0-.41-.21c.2,2.54.46,5.08.75,7.63a1.74,1.74,0,0,0,.2.3.28.28,0,0,1,0,.09l0,.68a5.19,5.19,0,0,0,.25,1.51c.07.61.16,1.22.23,1.83a7.45,7.45,0,0,0,.14,1.31c0,.19.07.39.11.58.07.56.14,1.13.22,1.69A5.14,5.14,0,0,0,55.22,52c.2,1.12.41,2.24.61,3.36h0c.08,1.51.2,3,.41,4.51a7.08,7.08,0,0,0,.13.71c.14,1.5.27,3,.43,4.51a4.83,4.83,0,0,0,.33,1.32c0,.09,0,.17,0,.22.1,1,.19,2,.26,3.08.06.36.14.72.21,1.08a69.43,69.43,0,0,1,1.53,7.7,84.77,84.77,0,0,1,1.62,11.57,8.25,8.25,0,0,1,0,1.12c.1.62.34,1.58.94,1.54S62.28,91.05,62.22,90.68Z" transform="translate(-10.86 -16.7)" style="fill:#0b0b0b;fill-rule:evenodd"/><path d="M153.91,117.81a3,3,0,0,0-.15-1.31c-.14-.43-.28-.86-.4-1.29l-.09-.3c0,.1,0,.09,0,0s-.12-.47-.17-.7a5.72,5.72,0,0,0-.44-1.28c-.18-.63-.35-1.27-.53-1.91a3.09,3.09,0,0,0-.12-.37,25.6,25.6,0,0,0-.75-3.11,6.19,6.19,0,0,0-.32-.83c-.2-1.34-.46-2.66-.78-4a3.64,3.64,0,0,0-.36-1.79l-.07-.16,0-.09c-.06-.17-.11-.35-.16-.52l-.08-.38-.09-.59a4,4,0,0,0-.8-1.87c-.11-.59-.23-1.17-.37-1.74.28-.17.29-.81.21-1.15A15.76,15.76,0,0,0,147,90.59a6.29,6.29,0,0,0-.34-1.11,10.74,10.74,0,0,1-.45-1.39,1.84,1.84,0,0,0,0-.84c-.15-.77-.28-1.54-.38-2.32a3.82,3.82,0,0,0-1.16-2.24v0a1.23,1.23,0,0,0,0-.4,39.68,39.68,0,0,0-1.19-6.42,4.77,4.77,0,0,0-.75-1.53c-.09-.33-.18-.66-.25-1a7.88,7.88,0,0,0-.84-2.77,5.76,5.76,0,0,0-.56-.73,8.77,8.77,0,0,0-.5-3.32l0-.07a2.62,2.62,0,0,0-.1-1.41l-1.08-3.78a4.52,4.52,0,0,0-.19-.54,3.11,3.11,0,0,0,0-.62,13.8,13.8,0,0,0-1.38-4.18c-.38-1.45-.75-2.91-1.14-4.35a1.31,1.31,0,0,0,0-.15c-.09-.38-.17-.76-.27-1.14a.4.4,0,0,0,.15-.12c.48-.56-.25-2-.51-2.46-.15-.28-.27-.59-.4-.9a4.34,4.34,0,0,0,0-.51,4.19,4.19,0,0,0-1.15-2.59,1.58,1.58,0,0,0-.41-.29,1.22,1.22,0,0,0-.19-.12h17.35a1.2,1.2,0,0,0,.67.06.74.74,0,0,0,.6-.65,1.61,1.61,0,0,0,.13-.74v-.39a.59.59,0,0,0,0-.13,8.3,8.3,0,0,0,.09-1.26c0-.13.08-.27.12-.43a19.36,19.36,0,0,1-.07-3.88c-.32-1.46-1-2.66-1.9-2.66H90.59c-1,0-1.34,1.79-1.23,3.68a4.48,4.48,0,0,0-.22.59A7.65,7.65,0,0,0,89,40.31a9.86,9.86,0,0,0,.45,2.06c-.37.81-.41,1.39.12,1.39a2.11,2.11,0,0,0,.58-.11,1,1,0,0,0,.84.46,15.43,15.43,0,0,0,2.15-.29l.08,0h1.89a1.3,1.3,0,0,0,.72.34A11.71,11.71,0,0,0,99.47,44l.45-.1a12.93,12.93,0,0,0,2.16-.16,1.82,1.82,0,0,1,.3.11.76.76,0,0,0,1.09-.4h0a6.2,6.2,0,0,0,.72-.16H133a.34.34,0,0,0-.08.09.3.3,0,0,0-.13,0,6.62,6.62,0,0,1,.62,1.25,61.2,61.2,0,0,1,2.83,11.77,124.14,124.14,0,0,1,5,18.66c1.09,2.82,1.45,5.8,2.15,8.79,0,.07,0,.13,0,.19.12.28.25.55.39.82a22.3,22.3,0,0,0,.88,3.8,5.07,5.07,0,0,1,.89,2c.43,2.36,1,4.71,1.48,7.06a3.67,3.67,0,0,0,.36.57,14,14,0,0,0,.44,1.78,2,2,0,0,0,.06.37c.21.8.39,1.6.55,2.41a6.49,6.49,0,0,1,.33,1c1.16,4.47,2.46,8.89,3.87,13.29a6.39,6.39,0,0,1,.33,2.37c.07.11.12.22.19.32s.49.61.8.65.51-.35.48-.79a3.49,3.49,0,0,0-.52-1.79Z" transform="translate(-10.86 -16.7)" style="fill:#0b0b0b;fill-rule:evenodd"/></g><g id="Highlights" style="opacity:0.37;mix-blend-mode:overlay"><path d="M73.22,39.83C66.1,37.94,59.1,35.68,52,33.75c-11.43-3.12-23.89-5.66-34.93-10.56l.06,1.16a5.2,5.2,0,0,1,0,.68c0,.49,0,1,.05,1.48,19.63,5,39.53,9,59.12,14.19C75.28,40.4,74.25,40.1,73.22,39.83Z" transform="translate(-10.86 -16.7)" style="fill:#fff;fill-rule:evenodd;mix-blend-mode:overlay"/></g><g id="Lines"><path d="M152,32.85l-62.73.5L89.17,44l63.21-1Z" transform="translate(-10.86 -16.7)" style="fill:none;stroke:#353132;stroke-miterlimit:10;fill-rule:evenodd"/><path d="M89.54,33.59,17.7,17.8l-.39,8.7L89.17,44" transform="translate(-10.86 -16.7)" style="fill:none;stroke:#353132;stroke-miterlimit:10;fill-rule:evenodd"/><path d="M152.27,33.1l-84-15.9-50.58.85" transform="translate(-10.86 -16.7)" style="fill:none;stroke:#353132;stroke-miterlimit:10;fill-rule:evenodd"/><path d="M100.57,43.39,82.4,121.84a1.12,1.12,0,0,0,1,1.23,2.9,2.9,0,0,0,2.22-.78L107,43.57" transform="translate(-10.86 -16.7)" style="fill:none;stroke:#353132;stroke-miterlimit:10;fill-rule:evenodd"/><path d="M129,43.59l22.56,76.68a1.58,1.58,0,0,0,2,.73c1.39-.49.73-1.5.73-1.5L135,43.52" transform="translate(-10.86 -16.7)" style="fill:none;stroke:#353132;stroke-miterlimit:10;fill-rule:evenodd"/><path d="M28.5,29.34,11.43,91.57a1.06,1.06,0,0,0,1,1.47c1.47.18,1.72-.76,1.72-.76L33,30.28" transform="translate(-10.86 -16.7)" style="fill:none;stroke:#353132;stroke-miterlimit:10;fill-rule:evenodd"/><path d="M50.05,34.29l9.44,57.77s.16.58,1.49.48,1-1,1-1l-7.68-56" transform="translate(-10.86 -16.7)" style="fill:none;stroke:#353132;stroke-miterlimit:10;fill-rule:evenodd"/></g></g></svg>