<svg xmlns="http://www.w3.org/2000/svg" xmlns:xlink="http://www.w3.org/1999/xlink" viewBox="0 0 88.52 172.27"><defs><radialGradient id="radial-gradient" cx="52.13" cy="190.42" r="239.61" gradientUnits="userSpaceOnUse"><stop offset="0" stop-color="#1a1a1a"/><stop offset="0.23" stop-color="#737373"/><stop offset="0.71" stop-color="#383838"/><stop offset="1" stop-color="#5d5e60"/></radialGradient></defs><title>Fridge</title><g style="isolation:isolate"><g id="Color"><path d="M98.29,13a8.44,8.44,0,0,0-.53-3.12c0-.55.11-1.11.16-1.66.07-.71-.23-1.21-1-1.15a6.5,6.5,0,0,0-1.83.43,4,4,0,0,0-1.76.13,3.64,3.64,0,0,0-1.37-.25H33.29a5,5,0,0,0-1.36.21,53.85,53.85,0,0,0-5.81-.31c-.88-.16-1.76-.32-2.64-.45a1.58,1.58,0,0,0-1.18.47,35.38,35.38,0,0,0-4,.21,2.25,2.25,0,0,0-1.92-.46c-1.52.61-3.87-.54-4,1.7a35.39,35.39,0,0,0,.12,5.91l0,.1c-.6,2.24-.14,4.93-.09,7.23.06,2.76.11,5.53.17,8.3,0,.05,0,.08,0,.12V170.58a9.36,9.36,0,0,0,.24,2.08A4.28,4.28,0,0,0,12,175c0,.95,0,1.91.07,2.86,0,.47.66.71,1,.65a7.65,7.65,0,0,1,2.29-.1,3.22,3.22,0,0,0,1.69-.3h3.18a2.23,2.23,0,0,0,.44.29,2.89,2.89,0,0,0,2.61.05,5.28,5.28,0,0,0,1.11-.34H94.71l.14,0a3.18,3.18,0,0,0,3,0,.78.78,0,0,0,.28-.9,46.29,46.29,0,0,0-.26-9.12,30.41,30.41,0,0,0-.19-3.8,12.4,12.4,0,0,0-.06-5,16.17,16.17,0,0,0,.66-4.34Z" transform="translate(-11.82 -6.7)" style="fill-rule:evenodd;fill:url(#radial-gradient)"/><path d="M99.59,47.24v-36c0-.58-1.43-1.88-1.43-1.07V47.44a.89.89,0,0,0,.14.38V73.91c-.08,0-.14.08-.14.24v43.23a.26.26,0,0,0,0,.17v40.66a.24.24,0,0,0-.1.23v12.19a1,1,0,0,0-.11.46c0,1.17.11,2.33.2,3.49,0,.44.48.25.71.08a1.63,1.63,0,0,0,.68-1.2c0-.29,0-.58,0-.86V160.69a.22.22,0,0,0,.1-.22v-40a.34.34,0,0,0,0-.17V80.14c.08,0,.14-.08.14-.23V47.63A.93.93,0,0,0,99.59,47.24Z" transform="translate(-11.82 -6.7)" style="fill:#191919"/><path d="M58.7,85.59V67c.4-.5.65-1.22.26-1.22h-6.1a.73.73,0,0,0-.37.16,1,1,0,0,0-.26-.27c-.51-.37-1.7,1.25-1.18,1.61V87.65c-.12.31-.11.55.12.55h.29c0,.2.25.17.49,0H57.6c0,.37.51.17.7,0A1.73,1.73,0,0,0,59,87V85.86C59,85.63,58.85,85.57,58.7,85.59Z" transform="translate(-11.82 -6.7)" style="fill:#2a2a2a"/></g><g id="Shadows"><path d="M98,123.61c0-.76-.25-1.34-.73-1.34H13.55c-.59,0-1.06.58-1.36,1.34Z" transform="translate(-11.82 -6.7)" style="fill:#161616;opacity:0.64;mix-blend-mode:multiply"/><path d="M98.08,109.81c0-.92-.18-1.67-.72-1.67H47.24a4.58,4.58,0,0,0,.55-1.85V8.23c0-1.14-.3-1.41-.69-1.23a.49.49,0,0,0-.39-.19c-1.56,0-2.28,4.08-1.34,4.78v96.55H13.46c-.68,0-1.19.75-1.49,1.67Z" transform="translate(-11.82 -6.7)" style="fill:#161616;opacity:0.64;mix-blend-mode:multiply"/></g><g id="Highlights"><path d="M12.11,10.39V177.23c0,3.22,2.43-.41,2.43-2.07V8.33C14.54,5.1,12.11,8.74,12.11,10.39Z" transform="translate(-11.82 -6.7)" style="fill:#fff;opacity:0.08;mix-blend-mode:overlay"/><path d="M98.29,48,58,7.61H27.17a3.72,3.72,0,0,0,.43.52L98.29,78.86Z" transform="translate(-11.82 -6.7)" style="fill:#fff;opacity:0.08;mix-blend-mode:overlay"/><path d="M98.29,84.65l-77-77H12.16v44.1l86.13,86.13Z" transform="translate(-11.82 -6.7)" style="fill:#fff;opacity:0.08;mix-blend-mode:overlay"/><path d="M58.33,177.87H89.22L20.74,109.39a2.49,2.49,0,0,0-3.46-.26L16,107.83c-1.43-1.44-3.31,2-3.81,5.12v2.76a2.9,2.9,0,0,0,.42,1c-.15.43-.29.86-.42,1.3v13.48a4.41,4.41,0,0,0,.65.83Z" transform="translate(-11.82 -6.7)" style="fill:#fff;opacity:0.08;mix-blend-mode:overlay"/></g><g id="Lines"><path d="M12.32,7.2V178.47h85.6V7.2Z" transform="translate(-11.82 -6.7)" style="fill:none;stroke:#231f20;stroke-miterlimit:10;fill-rule:evenodd"/><path d="M98.16,7.44,99.84,13,99.6,172.08l-1.68,6.48" transform="translate(-11.82 -6.7)" style="fill:none;stroke:#231f20;stroke-miterlimit:10;fill-rule:evenodd"/><path d="M98.16,108.07H12.24" transform="translate(-11.82 -6.7)" style="fill:none;stroke:#231f20;stroke-miterlimit:10;fill-rule:evenodd"/><path d="M45.46,7.44l0,100.91" transform="translate(-11.82 -6.7)" style="fill:none;stroke:#231f20;stroke-miterlimit:10;fill-rule:evenodd"/><path d="M12.24,122.15,98,122.07" transform="translate(-11.82 -6.7)" style="fill:none;stroke:#231f20;stroke-miterlimit:10;fill-rule:evenodd"/><path d="M50.88,88.47V65.68H58.8V88.49Z" transform="translate(-11.82 -6.7)" style="fill:none;stroke:#231f20;stroke-miterlimit:10;fill-rule:evenodd"/></g></g></svg>