<svg xmlns="http://www.w3.org/2000/svg" xmlns:xlink="http://www.w3.org/1999/xlink" viewBox="0 0 63.77 117.91"><defs><radialGradient id="radial-gradient" cx="62.97" cy="83.79" r="23.49" gradientUnits="userSpaceOnUse"><stop offset="0" stop-color="#404040"/><stop offset="0.99" stop-color="#303030"/></radialGradient><radialGradient id="radial-gradient-2" cx="51.6" cy="39.39" r="16.12" xlink:href="#radial-gradient"/><linearGradient id="linear-gradient" x1="32.62" y1="40.67" x2="66.85" y2="40.67" gradientUnits="userSpaceOnUse"><stop offset="0.01" stop-color="#141414"/><stop offset="1" stop-color="#262626"/></linearGradient><radialGradient id="radial-gradient-3" cx="4.31" cy="21.75" r="37.64" gradientUnits="userSpaceOnUse"><stop offset="0" stop-color="#8c8c8c"/><stop offset="0.99" stop-color="#383838"/></radialGradient><radialGradient id="radial-gradient-4" cx="19.79" cy="44.01" r="11.22" gradientUnits="userSpaceOnUse"><stop offset="0" stop-color="#616161"/><stop offset="0.99" stop-color="#262626"/></radialGradient><linearGradient id="linear-gradient-2" x1="16.53" y1="35.72" x2="26.17" y2="35.72" gradientUnits="userSpaceOnUse"><stop offset="0" stop-color="#b6dfcd"/><stop offset="0.99" stop-color="#64a5c0"/></linearGradient></defs><title>Lamp</title><g style="isolation:isolate"><g id="Color"><path d="M71.37,117.07a8.05,8.05,0,0,0-1.09-.06.68.68,0,0,0-.44-.51,14,14,0,0,0-2.9-.27l-.13,0c-1.24-.13-2.48-.29-3.71-.48a3.29,3.29,0,0,0-.21-1.59c0-.17,0-.33,0-.5.18-2.31.68-4.57.78-6.89a49.22,49.22,0,0,0,.94-6.39.72.72,0,0,0,0-.31c.4-2.37.8-4.73,1.23-7.1.06-.33,0-.6-.11-.72a2,2,0,0,0,.21-.6c.43-3.36.85-6.73,1.27-10.09,0-.45,0-.67-.09-.74,0-.42.11-.84.15-1.26A3.24,3.24,0,0,0,68,77.68a89.63,89.63,0,0,1,1.35-10.59,2.34,2.34,0,0,0,.07-.32,2.52,2.52,0,0,0,.1-.29,11.64,11.64,0,0,0,.22-3c0-.38,0-.76,0-1.14a35.38,35.38,0,0,0,.91-5.3.47.47,0,0,0-.1-.39,4,4,0,0,0,.19-.89l.18-2.05A5.88,5.88,0,0,0,71,52.27v-.12a.71.71,0,0,0-.06-.36s0-.07,0-.1c-.07-.29-.21-.33-.36-.25a.64.64,0,0,0,0-.07c0-.27-.06-.48-.23-.55s-.61-.28-.91-.42a1.28,1.28,0,0,0-.07-.28,1.59,1.59,0,0,1-.09-.61,1.43,1.43,0,0,0-.53-.89l-.06,0s0,0,0-.06a1.45,1.45,0,0,0-.3-.61c.1,0,.17-.06.13-.15l-.15-.29a.63.63,0,0,0-.19-.24l-.39-.65a1.18,1.18,0,0,0-.63-.41,1.81,1.81,0,0,0-.63-.53l-.34-.15a3.24,3.24,0,0,0-.5-.62,1.74,1.74,0,0,0-.71-.38h0l0,0a.33.33,0,0,0-.12-.18l-.14-.12a2.3,2.3,0,0,0-.41-.35l-.37-.32a1.74,1.74,0,0,0-.74-.38L63.05,43a1.71,1.71,0,0,0-.45-.28l-.24-.21c0-.22-.47-.45-.59-.5a2.3,2.3,0,0,0-.42-.14l-.08-.05L61,41.62a.67.67,0,0,1-.11-.07,3.85,3.85,0,0,0-.43-.31,2.76,2.76,0,0,0-.68-.3l0,0a3.88,3.88,0,0,0-.52-.3l-.08-.05-.06,0a1.4,1.4,0,0,0-.27-.11c-.12,0-.23-.11-.35-.15a1.3,1.3,0,0,0-.39-.07,5.18,5.18,0,0,1-.56-.17c-.17-.06-.33-.16-.5-.22s-.6-.21-.29-.07a1.68,1.68,0,0,0-.48-.13L56,39.48c-.11,0-.58-.21-.74-.09l-.67-.26a10.37,10.37,0,0,0-1.91-.9,2.71,2.71,0,0,0-.27,0,1.58,1.58,0,0,0-.15-.12,6.85,6.85,0,0,0-.77-.51,1.56,1.56,0,0,0-.37-.12c0-.38-1.27-.85-1.38-.52a.9.9,0,0,0,0,.4l-.2-.14c0-.41.1-.83.12-1.25,0-.15,0-.47-.19-.55s-.42.16-.52.28a1.13,1.13,0,0,0-.12.18,1.51,1.51,0,0,0-.87-.32,1,1,0,0,1-.23-.49c0-.13-.17-.26-.38-.36a2.18,2.18,0,0,1-.09-.23h0a.12.12,0,0,0,0-.08s0-.05,0-.08,0-.11-.07-.16l-.06-.32c0-.08-.07-.15-.16-.23a2.36,2.36,0,0,1-.12-.28c-.06-.18-.21-.44-.24-.58a.31.31,0,0,0-.12-.18c-.08-.18-.14-.36-.2-.54a.62.62,0,0,0-.26-.3l-.2-.55a.64.64,0,0,0-.2-.24,2.06,2.06,0,0,0-.93-.78.41.41,0,0,0-.07-.11,2.39,2.39,0,0,0-1-.49,1.76,1.76,0,0,0-.85-.25,2,2,0,0,0-1.38-.17,6.84,6.84,0,0,0-1.21-.26.29.29,0,0,0-.21,0l-.35-.08a1.54,1.54,0,0,0-.83-.22h-.15c-.23-.11-.63-.27-.8-.12a.13.13,0,0,0,0,.06h-.08c0-.09.05-.19.07-.28.05-.36,0-1.12-.5-.77a1.89,1.89,0,0,0-.2.2l-.41-.46a.11.11,0,0,0-.09,0,3,3,0,0,1-.3-.4s0-.05,0-.08-.07-.16-.13-.14a.16.16,0,0,1,0-.07l-.48-1c0-.06-.07-.08-.11-.07h0a.24.24,0,0,0-.06-.17,7.67,7.67,0,0,1-.15-.81c0-.2-.09-.4-.14-.6a1.27,1.27,0,0,0,0-.33c0-.17,0-.34-.06-.5a.63.63,0,0,0,0-.27,5.13,5.13,0,0,1,.12-1.55v-.05c0-.51.09-1,.14-1.54a.4.4,0,0,0,0-.17.59.59,0,0,0,0-.14,4.76,4.76,0,0,0,.33-.86l.06-.19a2.29,2.29,0,0,0,.08-1,3.17,3.17,0,0,0,.42-1.46v-.38a3.33,3.33,0,0,0,.5-1.6V13.2c0-.06,0-.15,0-.24a1.71,1.71,0,0,0,.14-.51,7,7,0,0,0,.06-1.21c0-.28.07-.55.09-.83a3.61,3.61,0,0,0-.11-1.79,1.66,1.66,0,0,0-.15-.39,2.13,2.13,0,0,0-.24-.92c-.06-.32-.17-.62-.36-.7a1.55,1.55,0,0,0-.63-.9s-.1,0-.16,0a2.28,2.28,0,0,0-.52-.1h-.22a1.39,1.39,0,0,0-1.22.41,1.93,1.93,0,0,0-.78.59l0,0h0a1.23,1.23,0,0,0-.51.79,1.59,1.59,0,0,0-.3-.06.51.51,0,0,0-.12-.31,1.26,1.26,0,0,0-.26-.21C31.6,6,31.78,5,31.9,4,32,3.66,32,3,31.41,3.27a2.9,2.9,0,0,0-.93,1.84c-.06.52-.15,1-.24,1.55a.32.32,0,0,0-.14,0c-.05,0-.08,0-.12,0a.52.52,0,0,0-.11-.1,2,2,0,0,0-1.82.06l0,0c-.07-.15-.21-.22-.45-.07a4.16,4.16,0,0,0-1.33,1.66l-.15.29a1.72,1.72,0,0,0-.36.4c-.19-.14-.42.25-.47.38a3.31,3.31,0,0,0-.33,1.14l-.08.14a37,37,0,0,1-2.4,3.77,4,4,0,0,0-.35.66l-.15.19a15.83,15.83,0,0,0-1.31,2.6l-.4.72c-.09.15-.19.33-.29.53a8.34,8.34,0,0,0-.68,1.12c-.35.57-.66,1.16-1,1.72a16.51,16.51,0,0,0-2.1,3.55,3.7,3.7,0,0,0-1.1,1.27c-.07-.16-.21-.22-.44-.07a5.55,5.55,0,0,0-1,.85c-.22-.06-.55.3-.69.51a4.34,4.34,0,0,0-.44.89,3.13,3.13,0,0,0-.3.61,1.62,1.62,0,0,0-.47.47c-.48.75-.94,1.53-1.36,2.31a3.25,3.25,0,0,0-.23.54,3.68,3.68,0,0,0-.8,2V35h0c-.26.72-.67,2.35.23,2.51h0a2.69,2.69,0,0,0,1.52,1.35,4.63,4.63,0,0,0,.5.58,3.49,3.49,0,0,0,1.08.69.31.31,0,0,0,.26,0c0,.11.1.2.19.22.25.08.5.14.75.2l.11,0,0,.06a2.34,2.34,0,0,0,1.68.7h0a1.05,1.05,0,0,0,.11.07c0,.19.09.33.22.37l2.42.7a.42.42,0,0,0,.38-.11,4.5,4.5,0,0,0,1,.15,5.86,5.86,0,0,0,1.87.48.31.31,0,0,0,.2.26,5.87,5.87,0,0,0,2.43.2.63.63,0,0,0,.25-.12H25s0,0,.05,0a3.31,3.31,0,0,0,.41.14,2.64,2.64,0,0,0,1.59.21,3.67,3.67,0,0,0,1.51-.21,4,4,0,0,0,1.08-.35,2.93,2.93,0,0,0,1.22-.43h0a1.1,1.1,0,0,0,1.12-.6,3.52,3.52,0,0,0,.39-.75l.06-.14h0s0,0,0,0a3.49,3.49,0,0,0,.15-.34,5.31,5.31,0,0,0,.27-.87c.1-.51.18-1,.25-1.56a4.11,4.11,0,0,0,.6-1.5,7.16,7.16,0,0,0,.15-1.67,3.43,3.43,0,0,0,0-1.28,1.17,1.17,0,0,0-.05-.81,1,1,0,0,0,0-.24,1.75,1.75,0,0,0-.45-.82l0,0a1.23,1.23,0,0,0-.07-.39A3.33,3.33,0,0,0,31.76,30a.19.19,0,0,0-.15,0s0-.1-.05-.15c-.09-.22-.19-.44-.3-.67l.29.15h.06l0,0a8.13,8.13,0,0,1,.78.52h0a.43.43,0,0,0,.11.12c.61.45,1.24.89,1.87,1.3h0a.33.33,0,0,0,.15.16,12.71,12.71,0,0,1,1.27.78,3.75,3.75,0,0,0,1.22.64.41.41,0,0,0,.3-.06,8.86,8.86,0,0,0,2.7,1.82l.11,0c1.24.92,2.5,1.8,3.8,2.64a.56.56,0,0,0,.23.46c.6.32,1.22.62,1.84.93a.43.43,0,0,0,.17.24,17.74,17.74,0,0,0,2.46,1.34,10.43,10.43,0,0,1,1.08.62c.37.25.7.68,1.11.82h0a31.5,31.5,0,0,0,3.3,2.36.59.59,0,0,0,.22.5,14.53,14.53,0,0,0,3,1.68A17.28,17.28,0,0,0,60.6,49,16.89,16.89,0,0,0,64.51,51h.07a7.89,7.89,0,0,0,.66.62.18.18,0,0,0,.16,0l1,.55a5.42,5.42,0,0,0-.36.93c-.51,2-1.38,4.27-1.2,6.34v0c-.46,1.51-.84,3-1.18,4.57-.08.26-.14.51-.18.71l-1,4.36a1.21,1.21,0,0,0,0,.39c-.08.18-.15.36-.2.49A3.33,3.33,0,0,0,62,71.2c-.13.6-.24,1.2-.32,1.81a2.75,2.75,0,0,0-.1.33q-.57,2.39-1,4.8a1.06,1.06,0,0,0,.06.72c0,.11-.07.22-.09.29A28.54,28.54,0,0,0,59.74,82a2,2,0,0,0,0,.54,5.39,5.39,0,0,0-.08.56,5.82,5.82,0,0,0-.34.87,59.24,59.24,0,0,0-1.26,6.45,5.85,5.85,0,0,0-.32.83,60.65,60.65,0,0,0-1.59,8l0,.34c0,.1,0,.2-.07.3a5.06,5.06,0,0,0-.35.89q-.73,2.73-1.22,5.5a1.36,1.36,0,0,0,0,.29,19.65,19.65,0,0,0-1,4.75.65.65,0,0,0,0,.33c-.63.65-1.11,2.44-.58,2.57h0a3.73,3.73,0,0,0-.46,1.71c-.44.76-.73,1.91-.27,2.13a5.24,5.24,0,0,0,1.93.53.58.58,0,0,0,.37-.12c.73,0,1.47.06,2.21.14h.07a.45.45,0,0,0,.12.06A27.28,27.28,0,0,0,63,120a.42.42,0,0,0,.33.22c2.09.11,4.19-.1,6.28,0a.29.29,0,0,0,.26-.15,10.06,10.06,0,0,1,1.55.07C72.07,120.16,72.22,117.18,71.37,117.07ZM36.44,29a.3.3,0,0,1,0,.08c-.25-.15-.5-.3-.75-.43h0a.5.5,0,0,0-.14-.15c-.64-.42-1.26-.85-1.87-1.31h0a.63.63,0,0,0-.11-.12,8.13,8.13,0,0,0-.78-.52l-.07,0h0c-.14-.06-.27-.14-.41-.21A2.91,2.91,0,0,0,32.65,25c-.09-.61-.14-1.23-.18-1.85a1.36,1.36,0,0,0,.16-.78c0-.23-.05-.46-.07-.69a.89.89,0,0,0,0-.36c.07-.4.14-.79.23-1.19a1.18,1.18,0,0,0,0-.53,2.42,2.42,0,0,0,.21-.69c0-1.73,0-3.45-.14-5.18a3.15,3.15,0,0,0,.27-1.16,12.18,12.18,0,0,0-.11-3.35,1.16,1.16,0,0,0,0-1l-.13-.14c.19,0,.38-.37.48-.71l.11,0c.11,0,.22-.14.32-.31a4,4,0,0,1,.5,0h0a1.77,1.77,0,0,1,.84.24h0a1.09,1.09,0,0,1,.3.57c0,.11.07.15.13.14s.1.12.14.23a.36.36,0,0,0,0,.22l0,.09c.05.26.08.53.09.63s.07.15.13.14v.11A.94.94,0,0,0,36,10a4.6,4.6,0,0,1,.15,1.47,1.94,1.94,0,0,0-.28.85c0,.32,0,.63,0,.94a3.24,3.24,0,0,0-.56,1.68c0,.18,0,.35,0,.53a3.23,3.23,0,0,0-.5,1.6v.44a1.73,1.73,0,0,0,0,.3,4.8,4.8,0,0,0-.3.82l-.06.19c-.06.26-.26,1.09.12,1.2,0,0,0,0,0,.06l-.3,1.44a1.81,1.81,0,0,0-.08,1,1.8,1.8,0,0,0,0,.22A8.13,8.13,0,0,0,34.35,24a2,2,0,0,0,0,.24.61.61,0,0,0,0,.3c0,.11,0,.23.07.34s0,.35.06.53,0,.1.05.12a.66.66,0,0,0,0,.34,3,3,0,0,0,.26.65l0,.1s0,0,0,0a1.25,1.25,0,0,0,.32.56h0l.22.47a0,0,0,0,1,0,0,.43.43,0,0,0,0,.07l.12.25a.12.12,0,0,0,.07.07,3,3,0,0,0,.67.76h0l.11.13A.06.06,0,0,1,36.44,29Zm9.37,6.21a.51.51,0,0,0-.21-.37q-2.41-1.51-4.69-3.24c-.06-.05-.13,0-.22,0a8,8,0,0,1-2.38-1.76c-.14-.14-.32-.09-.51.07a4.09,4.09,0,0,1-.47-.23,5.66,5.66,0,0,0,.32-.9h0a1.48,1.48,0,0,0,.86.43l.1,0,.09,0a1.42,1.42,0,0,0,.59.17.28.28,0,0,0,.23-.1,1.83,1.83,0,0,0,.36.1,3.22,3.22,0,0,1,.74.19c.15.06.7.28.8,0v0l.24.09.18.07a1.65,1.65,0,0,0,.78.22,1,1,0,0,0,.35,0h0a1.19,1.19,0,0,0,.18.1,1.84,1.84,0,0,1,.28.19,1,1,0,0,0,.39.32,2,2,0,0,0,.6.29.33.33,0,0,1,0,.06.65.65,0,0,0,.1.15l.29.79a.62.62,0,0,0,.29.31,3.13,3.13,0,0,0,.15.32c.06.15.13.29.17.42a6.4,6.4,0,0,0,.29.65,3.4,3.4,0,0,0,.6,1.29,1.18,1.18,0,0,0,.18.13,8.84,8.84,0,0,0,.68.84ZM64.19,93.07a.77.77,0,0,0,0,.15c0,.35-.12.7-.17,1.06,0,0,0,0-.07,0a.21.21,0,0,0-.11,0c.14-.72.26-1.44.37-2.17l.08,0C64.24,92.37,64.22,92.72,64.19,93.07Zm1-45.42c-.11-.12-.23-.24-.35-.35A13.26,13.26,0,0,0,63,46.11c-1.44-.88-2.84-1.84-4.2-2.84-.1-.08-.24,0-.4.16a13.76,13.76,0,0,1-2.64-1.49c0-.24-.07-.43-.23-.51a26.43,26.43,0,0,1-3.25-2.28.67.67,0,0,0,.37,0,.2.2,0,0,0,.11-.08.75.75,0,0,0,.13.06c.11,0,.41.11.54,0l.25.15.07,0a1.9,1.9,0,0,0,.56.26l0,0,.38.17a1.85,1.85,0,0,0,.45.14l.08,0a3.59,3.59,0,0,0,.51.2c.1,0,.51.23.24.05.23.15.68.4,1,.31l.08,0c.08,0,.5.26.23.07.23.16.69.41,1,.31a.19.19,0,0,0,.12-.08l.39.12a.47.47,0,0,1,.12.07,2.38,2.38,0,0,0,.53.27,1.59,1.59,0,0,0,.54.31l.36.27a5.82,5.82,0,0,1,.68.52,2,2,0,0,0,.6.34l.4.35a1.56,1.56,0,0,0,.46.29l.5.43a1.74,1.74,0,0,0,.67.36l0,0a1.44,1.44,0,0,0,.81.46.31.31,0,0,0,.09.12,1.82,1.82,0,0,1,.39.52,1.21,1.21,0,0,0,.77.53l.07,0L66,46c-.08-.06-.07,0,0,.1a1.06,1.06,0,0,0,.59.39c.11.19.22.38.34.57a.49.49,0,0,0,.15.17l.07.13a1,1,0,0,0,.61.47,5.46,5.46,0,0,0,.26,1,2,2,0,0,0,.25.48l0,.14a1.43,1.43,0,0,0,.31.63c-.55-.28-1.1-.57-1.64-.88.07-.44,0-.78-.16-.8A4.21,4.21,0,0,1,65.16,47.65ZM62.38,95.36c0,.15-.05.29-.08.44-.06.33,0,.59.1.71a3.38,3.38,0,0,0-.45,1c-.1.53-.18,1.06-.27,1.59v0a3.22,3.22,0,0,0-.12.69q-.73,4.5-1.09,9.06a4.86,4.86,0,0,0-.34.89c-.34,1.38-.63,2.77-.9,4.16l-2.38,0a2.59,2.59,0,0,0,.24-1.63c.44-.76.72-1.92.26-2.12l0,0c.22-1.24.38-2.48.51-3.73a4.36,4.36,0,0,0,.27-.73,7.69,7.69,0,0,0,.23-1.18.89.89,0,0,0,0-.14q.26-1.26.6-2.52a2.29,2.29,0,0,0,.1-.91,2.49,2.49,0,0,0,.08-.38,8.08,8.08,0,0,0,.3-1c.61-2.79,1.1-5.59,1.49-8.42a2.62,2.62,0,0,0,0-.37.93.93,0,0,0,0-.1,47.6,47.6,0,0,0,1.18-5.77,3.69,3.69,0,0,0,.64-2,.62.62,0,0,0-.15-.5,2.28,2.28,0,0,0,.08-.49,2.37,2.37,0,0,0,.09-.36c0-.06,0-.15,0-.25a3.71,3.71,0,0,0,.12-.41,4.41,4.41,0,0,0,.19-.73c.05-.41.11-.83.17-1.25.13-.66.26-1.32.43-2a4.43,4.43,0,0,0,.1-.59c.12-.59.2-1.19.26-1.78A4,4,0,0,0,64.6,73c0-.33.06-.66.1-1l.48-3.21A3.64,3.64,0,0,0,65.76,67l0-.36.83.68a4.41,4.41,0,0,0-.28,1.24c-.1,1.59-.22,3.18-.37,4.76-.07.23-.12.45-.16.61a64.15,64.15,0,0,0-1.11,6.75,2,2,0,0,0,0,.56A25.9,25.9,0,0,0,64,85.76c0,.09,0,.17,0,.26s-.06.25-.08.33-.05.23-.07.35-.11.41-.14.53c-.07.36-.13.73-.2,1.09-.25,1.26-.5,2.53-.72,3.8-.22.8-.42,1.61-.59,2.43C62.14,94.88,62.15,95.28,62.38,95.36Z" transform="translate(-8.41 -2.78)"/><path d="M70.9,51.68h-.07a.47.47,0,0,0-.22.05,4.12,4.12,0,0,0-.93,0s0-.06-.08-.06a3.2,3.2,0,0,0-1.83.31,2.52,2.52,0,0,0-.7,2c-.06.19-.11.36-.13.45a38.21,38.21,0,0,0-1.09,5.62,4.23,4.23,0,0,0-.23.79l-.09.29-.1.31c-.05.19-.12.37-.17.56s-.17.84.1,1A9.67,9.67,0,0,0,65,64.6h0a3.21,3.21,0,0,0-.57,2,.59.59,0,0,0,0,.2,5.67,5.67,0,0,0-.87,2.87A5.53,5.53,0,0,0,63,72.16a2.82,2.82,0,0,0-.13,1.75,3.42,3.42,0,0,0-.24,1.82,4.1,4.1,0,0,0-.43,2.35A4.66,4.66,0,0,0,61.5,81a5.61,5.61,0,0,0-.3,1.21,2.84,2.84,0,0,0-.09,1.32,5.15,5.15,0,0,0-.74,2.85,3.61,3.61,0,0,0-.4,2.56,4.52,4.52,0,0,0-.57,2.7,6.47,6.47,0,0,0-.79,2.28,4.24,4.24,0,0,0-.31,1.66,3,3,0,0,0-.25,2.26,4.11,4.11,0,0,0-.28,1.64,4.08,4.08,0,0,0-.43,2.41,6,6,0,0,0-.68,2.33,4.73,4.73,0,0,0-.22,1.18,3.76,3.76,0,0,0-.28,1.81,3.34,3.34,0,0,0-.19,1.6,5.4,5.4,0,0,0-.45,1.85,3.25,3.25,0,0,0-.12,1.06c-.07.2-.12.4-.17.59-.66,1.33-1,3-.13,3l.08,0c-.17.35.22.65,1.61.65a5,5,0,0,0,1.86-.41,3.67,3.67,0,0,0,1.38.19,4.77,4.77,0,0,0,1.72-.36l.17,0c.1.21.34.19.55-.07l.08-.12a2.92,2.92,0,0,0,.54-1.94,5.51,5.51,0,0,0,.22-1.2c0-.14.08-.26.09-.32a33.3,33.3,0,0,0,.61-5,9.58,9.58,0,0,0,.59-2.51c.08-1.84.49-3.54.64-5.37a3,3,0,0,0,0-.52c0-.26,0-.47-.1-.57l.16-.94c.07-.27.13-.53.21-.79s.27-.89.11-1.19h0c0-.15.08-.3.11-.46A13.44,13.44,0,0,0,65.9,93v-.15a.78.78,0,0,0,0-.14.34.34,0,0,0,0-.1l0-.36v0l0-.17a3.92,3.92,0,0,0,.06-.55l0-.1.16-.92a.17.17,0,0,1,0-.07,5.85,5.85,0,0,0,.26-1.06,1.7,1.7,0,0,0,.07-1q0-.17,0-.36a.77.77,0,0,1,0-.15c0-.22,0-.45,0-.67a7.05,7.05,0,0,0,.3-1.66c.08-1.74.49-3.47.64-5.22a6.12,6.12,0,0,0,.16-1.14v0A5,5,0,0,0,67.87,78c0-.14,0-.28.06-.43a.53.53,0,0,0,0-.11A3.93,3.93,0,0,0,68,76.9a6.81,6.81,0,0,0,.35-1l0-.2a5.57,5.57,0,0,0,.2-1.77,1.44,1.44,0,0,0-.21-.71,6.55,6.55,0,0,0,.56-2l.07-.42a5.65,5.65,0,0,0,.07-.91,5.2,5.2,0,0,0,.13-1.07v-.28c0-.29.09-.57.12-.83l0-.24v-.07c0-.23.07-.44.1-.65a5.2,5.2,0,0,0,.12-1.18v0a3.14,3.14,0,0,0-.06-.7h0l0-.1a.08.08,0,0,0,0,0A6.17,6.17,0,0,0,70,62.86c0-.11,0-.22,0-.33v0c0-.27.1-.53.16-.8a.25.25,0,0,1,0-.08l0-.16,0-.2c0-.09,0-.26,0-.45s.07-.25.09-.37l0-.29a4.51,4.51,0,0,0,.06-.58s0-.1,0-.15c0-.21,0-.43.08-.65s0-.48.06-.84c0-.15.08-.29.1-.44l0-.44a3.36,3.36,0,0,0,.05-.48c0-.19,0-.38.06-.55V56a4.7,4.7,0,0,0,.05-.63v-.12c0-.14,0-.28,0-.42a1.52,1.52,0,0,0,0-.21,5.31,5.31,0,0,0,.23-1.45v-.07s0-.08,0-.12C71.36,52.23,71.24,51.68,70.9,51.68ZM69.25,54.4a4.76,4.76,0,0,0-.17,1l0,.15c0,.11,0,.33,0,.57a2.11,2.11,0,0,0,0,.25,4.11,4.11,0,0,0-.09.82v.23l0,.26,0,.43v0l0,.22c0,.15-.06.5-.07.87a3.15,3.15,0,0,0-.09.42c0,.21-.06.43-.08.65s0,.32-.06.56c0,.06,0,.11,0,.17l0,.29a3.17,3.17,0,0,0,0,.45c0,.13-.07.24-.09.37l0,.19a.17.17,0,0,0,0,.07c0,.06,0,.12,0,.17l-.15.8c0,.11,0,.31-.06.55a6.85,6.85,0,0,0-.07,1.21,1.48,1.48,0,0,0,0,.32,6.11,6.11,0,0,0-.51,2.18v.15l0,.26c0,.21,0,.42-.07.63,0,0,0,.07,0,.1a7.87,7.87,0,0,0-.11.79l0,.22a4.94,4.94,0,0,0-.12,1v.17c0,.13,0,.3,0,.48s0,.19-.07.29l-.07.44c0,.1,0,.3,0,.53A3.25,3.25,0,0,0,67,73.92a1.29,1.29,0,0,1,0,.19,8.93,8.93,0,0,0-.35,1l-.22.87a8.17,8.17,0,0,0-.19,1A7,7,0,0,0,66,78a3.58,3.58,0,0,0-.09.35,7,7,0,0,0-.11,1.2,9,9,0,0,0-.2,1.37,6.35,6.35,0,0,0-.14,1c-.11,1.79-.54,3.52-.66,5.31a6.22,6.22,0,0,0-.31,2.13c0-.28,0-.12,0,.07s0,.28,0,.43V90a1.49,1.49,0,0,0,0,.21c0,.13,0,.27,0,.4a6.8,6.8,0,0,0-.18.75l-.17.93c0,.1,0,.3,0,.53l0,.12a9.38,9.38,0,0,0-.16,1.4,1.91,1.91,0,0,0,0,.24l-.06.44v0l0,.17a5.41,5.41,0,0,0-.15.71l-.84,5.11a4,4,0,0,0,0,1.58l0,.36c-.06.25-.11.51-.15.76a.76.76,0,0,1,0,.15v0a.27.27,0,0,0,0,.09c0,.28,0,.55-.07.83a4.13,4.13,0,0,0-.16,1.2c-.19.59-.36,1.28-.41,1.49a16,16,0,0,0-.46,3.38,3.07,3.07,0,0,0,.06.81c0,.18,0,.35-.08.53a6.11,6.11,0,0,0-.23,1c0,.25-.08.54-.09.83a4.68,4.68,0,0,0-1.34.26.34.34,0,0,0-.16-.15.47.47,0,0,1-.39.2,17.65,17.65,0,0,0-2.06.09.43.43,0,0,1-.43-.26l-.4.14a5.26,5.26,0,0,0,.35-.67.88.88,0,0,1,.16-.41,4.68,4.68,0,0,0,.18-.48s0-.06,0-.11c.42-4,1.42-7.85,2.22-11.76a.06.06,0,0,1,0,0l0-.08c.12-.6.24-1.21.35-1.81.8-4.46,1.57-8.93,2.56-13.35a.36.36,0,0,1,0-.15c.18-2.16,1-4.23,1.35-6.37.45-2.57,1-5.15,1.38-7.73a.39.39,0,0,1,.2-.31.81.81,0,0,1,0-.11,6.08,6.08,0,0,1,.3-2c.22-.86.37-1.73.56-2.59a.42.42,0,0,1,.19-.28.08.08,0,0,1,0,0,3.42,3.42,0,0,0,.38-1,2.1,2.1,0,0,0,0-.9,3.07,3.07,0,0,0,.46-1.52,5,5,0,0,1,.08-.77,1.05,1.05,0,0,0,0-.31A.72.72,0,0,0,66.9,61,7.8,7.8,0,0,0,67,59.59a2.61,2.61,0,0,0,.6-1.48,10.92,10.92,0,0,1,.16-1.28c0-.09,0-.23.06-.38a2.81,2.81,0,0,0,.51-1.37c0-.34,0-.68,0-1h0a.09.09,0,0,1,0,0l.41,0h0a.21.21,0,0,0,.18.07h.3A1.65,1.65,0,0,0,69.25,54.4Z" transform="translate(-8.41 -2.78)" style="fill:url(#radial-gradient)"/><path d="M68.68,50.12l-.08,0a2.59,2.59,0,0,0-.92-.49,3.19,3.19,0,0,0-1.58-1.11,2.47,2.47,0,0,0-.54-.47,2.83,2.83,0,0,0-.58-.36,1.58,1.58,0,0,0-.88-.35h0L64,47.24,63.7,47l-.18-.14-.38-.25A2.45,2.45,0,0,0,62.5,46a3.29,3.29,0,0,0-.73-.44c-.33-.53-1.39-1.17-1.81-1a3.48,3.48,0,0,0-.74-.38l-.15-.16a4.3,4.3,0,0,0-1-.68,3.66,3.66,0,0,0-.76-.58,3.51,3.51,0,0,0-.62-.25l-.1-.07c.24-.59-1.72-1.93-2-1.42h0c-.15-.14-.31-.26-.41-.34l-.34-.23a2.6,2.6,0,0,0-1.54-1.11,1,1,0,0,0-.32,0L51.56,39a2.57,2.57,0,0,0-1.11-.7,3.76,3.76,0,0,0-.62-.44,1.7,1.7,0,0,0-.23-.11,2.76,2.76,0,0,0-1.52-1.12,3,3,0,0,0-1.34-.84.59.59,0,0,0-.25,0,3.77,3.77,0,0,0-.41-.28h0a3,3,0,0,0-.6-.44l-.24-.11a3.81,3.81,0,0,0-.34-.22l-.23-.12a2.52,2.52,0,0,0-1.25-1,1.6,1.6,0,0,0-.42-.12l0,0a3.49,3.49,0,0,0-.5-.31c-.14-.1-.27-.19-.39-.26l-.16-.08a2.88,2.88,0,0,0-.84-.5L40.7,32a2.69,2.69,0,0,0-.94-.8,1.4,1.4,0,0,0-.28-.14,3.89,3.89,0,0,0-.45-.3,2.85,2.85,0,0,0-.47-.21,2.38,2.38,0,0,0-.3-.18,3.13,3.13,0,0,0-.77-.62,2.85,2.85,0,0,0-.6-.24,2.39,2.39,0,0,0-.67-.35l-.1-.08a2.74,2.74,0,0,0-.9-.8,3,3,0,0,0-.47-.4c-.35-.64-1.89-1.5-2-.92a5,5,0,0,0-.12,1.22c0,.49.69.94,1.06,1.16l.29.14a3,3,0,0,0,.78.63,1.92,1.92,0,0,0,.36.16l.23.17a2.73,2.73,0,0,0,1.18.93,1,1,0,0,0,.62.1l.17.09.14.05.08.05a3.18,3.18,0,0,0,1.3.82,3.21,3.21,0,0,0,1,.74c.08.51,1.2,1.24,1.75,1.29a3.88,3.88,0,0,0,.57.39,2.32,2.32,0,0,0,.46.21,4.65,4.65,0,0,0,.56.34c.1.45.93,1,1.51,1.22a3.4,3.4,0,0,0,.79.47,4.39,4.39,0,0,0,.84.56,2.71,2.71,0,0,0,1.2,1c.26.58,1.55,1.34,1.93,1.14a3.5,3.5,0,0,0,.49.29,3.09,3.09,0,0,0,1.21.83,3.24,3.24,0,0,0,.62.35.52.52,0,0,0,.11.13,2.72,2.72,0,0,0,.75.6l.21.12a3.18,3.18,0,0,0,1.58,1,3.31,3.31,0,0,0,1.24.86,3.33,3.33,0,0,0,1.17.69,4.18,4.18,0,0,0,.57.33l.07.08a3.28,3.28,0,0,0,.71.58c.11.6,1.51,1.51,1.94,1.31l.11.07a2.7,2.7,0,0,0,1.73,1.38,2.73,2.73,0,0,0,1.13.72,6.45,6.45,0,0,0,.65.5,3.92,3.92,0,0,0,1.24.51l.14.13a2.84,2.84,0,0,0,.62.46,1.77,1.77,0,0,0,.23.35,2.56,2.56,0,0,0,1.48.87,1.65,1.65,0,0,0,1.45-.55,3.38,3.38,0,0,0,.42.13h0a1.11,1.11,0,0,0,.7.19.85.85,0,0,0,.17,0,.4.4,0,0,0,.36-.13C70.9,51.25,69.3,49.94,68.68,50.12Z" transform="translate(-8.41 -2.78)" style="fill:url(#radial-gradient-2)"/><path d="M69.3,54.18s0,0,0,0c-.05-.19-.18-.3-.31-.06a10.19,10.19,0,0,0-.73,3.34c0,.12,0,.38.09.45s0,.28,0,.42l0,.07a1.65,1.65,0,0,0-.2.61c0,.57-.12,1.13-.21,1.7a1,1,0,0,0,0,.15,1.74,1.74,0,0,0-.22.64l-.12,1c0,.12,0,.36.08.45a2,2,0,0,0-.09.35c-.1.62-.18,1.25-.26,1.87v.06c0,.11,0,.22-.08.33l-.21.93c0,.12-.1.55.06.64l-.15.65a1.3,1.3,0,0,0,0,.18v0q-.27,1.39-.45,2.82a.71.71,0,0,1,0,.14,5,5,0,0,0-.13,1.16s0,0,0,.06a2.6,2.6,0,0,1,0,.26c-.07.32-.13.64-.22,1a1.76,1.76,0,0,0-.09.44,16.12,16.12,0,0,0-.35,2.06.83.83,0,0,0,0,.38l0,.15c-.06.39-.13.77-.18,1.16a1.42,1.42,0,0,0,0,.23s0,.06,0,.09a.61.61,0,0,0,0,.12h0c-.2-.05-.33.45-.35.56-.08.43-.15.86-.19,1.3,0,.1,0,.46.12.48-.12.5-.24,1-.33,1.51a4.48,4.48,0,0,0-.11,1.32c-.1.41-.19.82-.26,1.23a1.35,1.35,0,0,0-.25.67A18.46,18.46,0,0,0,63.63,88s0,0,0,0a2.06,2.06,0,0,0,0,.21,12.81,12.81,0,0,1-.23,1.38c-.11.55-.21,1.11-.27,1.67h0q-.13.72-.21,1.44a10.78,10.78,0,0,0-.35,2,.61.61,0,0,0,0,.14,1.74,1.74,0,0,0-.17.42c-.08.46-.13.93-.17,1.39A7.81,7.81,0,0,0,62,98.8c0,.14,0,.28-.05.42h0a11.53,11.53,0,0,0-.31,1.19,8.4,8.4,0,0,0-.15,1.66.5.5,0,0,0,0,.19.46.46,0,0,1,0,.09c-.13.51-.25,1-.37,1.53a2.51,2.51,0,0,0-.12,1c-.14.71-.27,1.43-.38,2.15a.79.79,0,0,0,0,.4l-.11.83a1.74,1.74,0,0,0,0,.31,1.83,1.83,0,0,0-.08.25,2.18,2.18,0,0,0-.12.64l0,.17v.14a1.56,1.56,0,0,0-.09.56.8.8,0,0,0,0,.27,1.53,1.53,0,0,0-.18.9,1.16,1.16,0,0,0-.24.71,1.2,1.2,0,0,0-.2.54c-.2.34-.22,1.06,0,1a1.51,1.51,0,0,1,.3,0s0,0,.06.06a1.42,1.42,0,0,0,.61.09.24.24,0,0,0,.15-.09c.19,0,.36-.56.35-.91a1.58,1.58,0,0,0,.13-.26c0-.12.15-.56,0-.72a1.06,1.06,0,0,0,0-.26c.08-.22.18-.56.06-.75a1.49,1.49,0,0,0,.13-.61.83.83,0,0,0,0-.13.38.38,0,0,0,0-.1,1.71,1.71,0,0,0,.16-.57v-.15h0v0c0-.34,0-.67,0-1a1.69,1.69,0,0,0,.13-.38,3,3,0,0,0,.07-.43c0-.13,0-.37-.08-.45v0c0-.2.12-.44.13-.5a2.7,2.7,0,0,0,0-.28,1.35,1.35,0,0,0,.17-.38,3,3,0,0,0,.08-.32.62.62,0,0,0,0-.18,11.58,11.58,0,0,1,.63-3.69.81.81,0,0,0-.06-.75c.16-1,.32-1.92.49-2.89,0,0,0-.12,0-.21s.08-.42.11-.63a.73.73,0,0,0,0-.38,13.16,13.16,0,0,0,.32-2.06v-.24a1.83,1.83,0,0,0,.15-.69,11.88,11.88,0,0,1,.3-2.13,1.38,1.38,0,0,0,0-.51c0-.13,0-.25.06-.31.11-.86.3-1.76.36-2.64l0-.14a1.55,1.55,0,0,0,0-.49,1.62,1.62,0,0,0,.09-.68,7,7,0,0,1,.36-1.8c0-.12.09-.49,0-.61a.5.5,0,0,1,0-.12c0-.08,0-.15,0-.23s.09-.37.11-.44l0-.12q.1-.54.18-1.08l.09-.56c.1-.33.19-.66.29-1,0-.15.19-.69,0-.79a.15.15,0,0,0-.19,0h0s0,0,0-.08l0,0a5.09,5.09,0,0,0,.26-1.62,11.62,11.62,0,0,0,.46-2.26,1,1,0,0,0,0-.3,1.34,1.34,0,0,0,0-.19A16.75,16.75,0,0,1,66.43,74v-.17c0-.11,0-.22.06-.33a1.37,1.37,0,0,0,.24-.66,2.35,2.35,0,0,1,0-.37,1.61,1.61,0,0,0,0-.45.86.86,0,0,0,0-.17A9.12,9.12,0,0,0,67,70.34c0-.2.1-.39.16-.59a2.09,2.09,0,0,0,.15-.55q.17-1,.24-2a1,1,0,0,0,0-.3c.07-.27.13-.55.2-.82,0-.12.09-.51,0-.62h0l0-.2.2-.89s0-.15,0-.26l.14-.61a1.37,1.37,0,0,0,0-.48l.1-.64.16-.84a1,1,0,0,0,0-.58,11.9,11.9,0,0,1,.26-1.45c0-.05,0-.15,0-.26a1.53,1.53,0,0,0,.09-.41c0-.33.09-.65.15-1a1.1,1.1,0,0,0,0-.57s0-.07,0-.11a2.27,2.27,0,0,0,.14-.52c0-.12,0-.24,0-.36a2,2,0,0,0,.09-.27q.12-.69.21-1.38C69.39,54.51,69.4,54.27,69.3,54.18Z" transform="translate(-8.41 -2.78)" style="fill:#141414"/><path d="M66.91,53.39c.13-.69.06-1.42-.29-1.3s-.59.71-.72,1.08-.28,1-.4,1.48a2,2,0,0,0,0,1.18c-.06.4-.11.79-.18,1.18,0,0,0,.06,0,.1s0,0,0,0l-.11.06a2.46,2.46,0,0,0-.52,1.64V59a4.88,4.88,0,0,0-.22.92c0,.35-.12.69-.18,1A3,3,0,0,0,64,62.2c0,.08,0,.16,0,.23s0,.2-.05.3a4.14,4.14,0,0,0-.08.46,4.34,4.34,0,0,0-.29,1.09A23,23,0,0,1,63,67.1l-.08.3a3.65,3.65,0,0,0-.29,1.08A11.81,11.81,0,0,1,62,71.17c0,.09-.07.22-.11.37a6.4,6.4,0,0,0-.63,3,6.17,6.17,0,0,0-.64,3.5,6.35,6.35,0,0,0-.67,2.52A7,7,0,0,0,59.49,83a6.08,6.08,0,0,0-.61,2.34,6.3,6.3,0,0,0-.7,2.8,7.49,7.49,0,0,0-.36,1.64,6,6,0,0,0-.34,1.15l-.11.53q-.07.39-.12.81a8.89,8.89,0,0,0-.3,1.62,6.07,6.07,0,0,0-.21,1l0,.24,0,.07a7.51,7.51,0,0,0-.49,1.86c-.16,1.09-.25,2.18-.31,3.27a1.33,1.33,0,0,0,0,.2l0,.09a7.49,7.49,0,0,0-.5,1.87l0,.1c-.08.28-.14.52-.17.64L54.79,105c0,.13,0,.27-.07.4a7.18,7.18,0,0,0-.33,1.29,6.34,6.34,0,0,0-.64,3.21c-.13.39-.26.79-.37,1.19a7.2,7.2,0,0,0-.32,1.9,4.63,4.63,0,0,0,0,.49,2.67,2.67,0,0,0-.47,1.07l0,.11a2.72,2.72,0,0,0-.13,1.23,3.78,3.78,0,0,0-.25.55l0,.14c-.07.23-.41,1.53.09,1.64l.33.07h0l.91.37c.49.19,1.15-2,.6-2.4,0,0,0,0,0,0l0-.26a6.84,6.84,0,0,0,.05-.79,2.57,2.57,0,0,0,.14-1.17c0-.09,0-.2.07-.31a4.36,4.36,0,0,0,.41-.93c.14-.48.29-1,.45-1.44a5.77,5.77,0,0,0,.26-1.18v0a5.89,5.89,0,0,0,.75-3.46c0,.35,0,0,0-.24v0a6.75,6.75,0,0,0,.28-1c.12-.55.23-1.11.34-1.66a11.06,11.06,0,0,0,.27-1.17c.05-.32.1-.64.16-1a5.12,5.12,0,0,0,0-.77,6.63,6.63,0,0,0,.58-2.59c0,.5,0-.18,0-.22l.06-.62,0-.28s.05-.1.07-.14a6.39,6.39,0,0,0,.5-1.87c0-.36.07-.73.11-1.1a7,7,0,0,0,.18-1c0-.22.08-.44.11-.66s.1-.4.12-.5l.1-.53c0-.19.07-.39.1-.59a6.61,6.61,0,0,0,.55-2.53,7,7,0,0,0,.37-1.8,6.37,6.37,0,0,0,.7-2.87,6.31,6.31,0,0,0,.62-2.43,6.36,6.36,0,0,0,.39-3,6.28,6.28,0,0,0,.67-3.13A5.62,5.62,0,0,0,63.16,71a11.31,11.31,0,0,0,.54-2.3,3.23,3.23,0,0,0,.36-.93c.22-.85.44-1.71.65-2.56.07-.26.22-1.13-.13-1.29a4.23,4.23,0,0,0,.25-.75,7,7,0,0,0,.2-1.28c.06-.33.11-.66.17-1a3.42,3.42,0,0,0,.3-.83c0-.2.06-.41.09-.61a2.48,2.48,0,0,0,.23-.51,7.87,7.87,0,0,0,.42-1.91.37.37,0,0,0,0-.11,4.2,4.2,0,0,0,.08-.43c.06-.37.11-.74.17-1.11a3.87,3.87,0,0,0,.26-.53,2.55,2.55,0,0,0,.14-1.23A1.34,1.34,0,0,0,66.91,53.39Z" transform="translate(-8.41 -2.78)" style="fill:#898989"/><path d="M66.81,51.89a2.08,2.08,0,0,0-1-.81l-.15-.18a2.73,2.73,0,0,0-1.07-.75,3.85,3.85,0,0,0-.81-.53,4,4,0,0,0-.43-.3,3.12,3.12,0,0,0-.59-.34,4.05,4.05,0,0,0-1.38-.93l-.07,0a5.06,5.06,0,0,0-.61-.33l0,0-.07-.07a2.69,2.69,0,0,0-1.31-.82,5,5,0,0,0-.64-.46,2,2,0,0,1-.22-.16l-.1-.11a2.56,2.56,0,0,0-1.27-.81l-.22-.17A2.72,2.72,0,0,0,55,43.91a4.2,4.2,0,0,0-1-.8,2.61,2.61,0,0,0-.91-.36c-.22-.19-.44-.38-.64-.59a3.16,3.16,0,0,0-1.13-.77,4.29,4.29,0,0,0-.44-.4l-.38-.29a3.44,3.44,0,0,0-.65-.39l-.53-.43a2.93,2.93,0,0,0-1.25-.68,4.29,4.29,0,0,0-.46-.2.92.92,0,0,1-.19-.07l-.24-.14a6,6,0,0,0-1.47-1.07,1.22,1.22,0,0,0-.3-.37l-1.13-.9a2.48,2.48,0,0,0-1.56-.71l-.05,0L42,35.19a2.92,2.92,0,0,0-1.21-.67l-.06-.08c-.46-.38-.89-.78-1.32-1.2a2.58,2.58,0,0,0-1.33-.69,3.79,3.79,0,0,0-.78-.39L37,32a2.64,2.64,0,0,0-.27-.22,2,2,0,0,1-.3-.35,2.57,2.57,0,0,0-1.33-.83l-.48-.6a2.73,2.73,0,0,0-1.54-.88c-.46-.07-.62.18-.31.55l.69.86a2.7,2.7,0,0,0,1.36.83,7.92,7.92,0,0,0,.9.84,3.6,3.6,0,0,0,.3.21l.26.21a6.15,6.15,0,0,0,1.61.83,1.55,1.55,0,0,0,.23.06c.36.34.72.68,1.1,1a5,5,0,0,0,.59.41,3.24,3.24,0,0,0,1,.72c-.28-.14-.09,0,0,.09a2.9,2.9,0,0,0,1.12.76,1.85,1.85,0,0,0,1.2.43h.07l.64.51a4.76,4.76,0,0,0,.64.44c.12.31.63.61.95.78A4.66,4.66,0,0,0,46,39a2.58,2.58,0,0,0,.4.35,7.84,7.84,0,0,0,1.88.93l.53.44a3.71,3.71,0,0,0,.91.57l.14.12a4.15,4.15,0,0,0,.74.43c.33.33.66.66,1,1a2.72,2.72,0,0,0,1.38.7l.26.2.06.11a2.34,2.34,0,0,0,1.4,1,1.51,1.51,0,0,0,.4.07c.24.21.5.4.59.47a3.56,3.56,0,0,0,1,.63,5,5,0,0,0,.58.55,5.87,5.87,0,0,0,.58.39l.18.1a3,3,0,0,0,1.08.63,6.22,6.22,0,0,0,1.72,1.12l.07,0,.36.22a2.35,2.35,0,0,0,.71.57l0,0a5.63,5.63,0,0,0,.84.57,3.17,3.17,0,0,0,.8.49,4.93,4.93,0,0,0,.54.34l.09.11a2.66,2.66,0,0,0,.73.59l.2.12.15.08.16.08.33.13h0l.11,0,.14,0h0C66.49,52.29,67,52.35,66.81,51.89Z" transform="translate(-8.41 -2.78)" style="fill:url(#linear-gradient)"/><path d="M67.52,116.32a1.32,1.32,0,0,0-.39-.22,1.31,1.31,0,0,0-.69-.19.36.36,0,0,0-.22.07.08.08,0,0,0,0,.1,3,3,0,0,0-.57-.25l-.39-.11h0a1.5,1.5,0,0,0-.48-.13,8.19,8.19,0,0,0-1.4,0l-.15,0H63a.94.94,0,0,0-.57,0l-.14,0h-.11c-.16,0-.23.06-.25.13l-.11,0h0a1.15,1.15,0,0,0-.41-.08,1.33,1.33,0,0,0-.34,0,4.45,4.45,0,0,0-.89-.13h-.38l-.27,0h-.14l-.23,0-.18-.05c-.12,0-.51-.15-.51.08v.06c-.09,0-.07.15,0,.27a1.3,1.3,0,0,0,.81.35h0l.11,0,.24.06a.79.79,0,0,0,.34,0h.25c.3.13.64.18.7.09a1.3,1.3,0,0,0,.48.12c.2,0,.41,0,.61,0l.23.19c.35.25,1,.67,1.49.49l.32-.11.69,0a.44.44,0,0,0,.16,0,6.15,6.15,0,0,1,1,0h0l.39.11c.28.08.91.19.69-.31a.18.18,0,0,0,0-.07h0a.77.77,0,0,1,.17-.07h.06l.36,0C67.8,116.62,67.61,116.4,67.52,116.32Z" transform="translate(-8.41 -2.78)" style="fill:#141414"/><path d="M71.86,117.51c0-.38-1.13-.72-1.15-.49v0l-.12,0a3.08,3.08,0,0,0-.61.07h0a2.11,2.11,0,0,0-.38.09,2.82,2.82,0,0,0-.86-.21,3.53,3.53,0,0,0-.86.06l-.28,0h-.13c-.24,0-.48,0-.72,0a1,1,0,0,0-.32-.07,8.73,8.73,0,0,0-1.77,0,.4.4,0,0,0-.39,0s0,0,0,.07a.67.67,0,0,0-.46,0l0,0a.39.39,0,0,0-.35.07.52.52,0,0,0-.07.15.15.15,0,0,0-.13.08,1.38,1.38,0,0,0,0,.83l.06.5a.34.34,0,0,0,0,.1v.1s0,0,0,0,0,.27,0,.41a.38.38,0,0,0,0,.1.35.35,0,0,0-.19.13c-.18.26.79.55.92.56a1.18,1.18,0,0,0,.46,0,.74.74,0,0,0,.21-.09c.19.07.38.09.43,0s0-.11,0-.16l.16,0c.11,0,.35,0,.36-.09,1,.14,1.93,0,2.9.1h.11A1.06,1.06,0,0,0,69,120q.66,0,1.32,0c.11,0,.16,0,.18-.07a2.07,2.07,0,0,0,.3.12.69.69,0,0,0,.57,0c.16,0,.28,0,.31-.08a8.55,8.55,0,0,0,.14-1.43,2.37,2.37,0,0,0,0-.6C71.82,117.8,71.85,117.66,71.86,117.51Z" transform="translate(-8.41 -2.78)" style="fill:#333"/><path d="M63.19,118A1.48,1.48,0,0,0,63,117c-.31-.36-1.55-.34-2-.4a28.28,28.28,0,0,1-6.26-1.2c-.54-.21-1,1.32-1,1.63-.19,1.49,1.19,1.47,2.39,1.74A51.91,51.91,0,0,1,61.71,120a.3.3,0,0,0,.27,0c0,.27.12.33.24.28s0,.06.08.06C63.06,120.27,63.57,118,63.19,118Z" transform="translate(-8.41 -2.78)" style="fill:#595959"/><path d="M37.84,28l-.4-.37c-.25-.23-.76.87-.52,1.09l.4.37C37.57,29.32,38.08,28.21,37.84,28Z" transform="translate(-8.41 -2.78)" style="fill:#595959"/><path d="M49.8,36a3.18,3.18,0,0,1-.62-.37c-.19-.14-.74.94-.43,1.17a3.55,3.55,0,0,0,.62.38C49.63,37.31,50.11,36.16,49.8,36Z" transform="translate(-8.41 -2.78)" style="fill:#595959"/><path d="M31.39,3.46a2.34,2.34,0,0,0-.33.84s0,.1,0,.14l0,.07,0,.08a1.59,1.59,0,0,0-.41.8c-.22.31-.39.92-.17,1,.4.16.64-.35.78-.74a1.75,1.75,0,0,0,.22-.51,4.08,4.08,0,0,0,.11-.59,1,1,0,0,1,0-.12l.05-.09a2,2,0,0,0,.19-.42C31.88,3.59,31.79,3,31.39,3.46Z" transform="translate(-8.41 -2.78)" style="fill:#595959"/><path d="M37,11.27h0a1.46,1.46,0,0,0,.13-.55,12.62,12.62,0,0,0-.23-2.13A4.2,4.2,0,0,0,36.5,7a1.69,1.69,0,0,0-1.59-1.16.26.26,0,0,0-.2.1c0-.1-.06-.17-.14-.17a4.06,4.06,0,0,0-1.4.51c-.15,0-.31,0-.44.11s-.24.35-.31.52-.2.59,0,.66a.17.17,0,0,0,.17-.06,1.33,1.33,0,0,0,.21,0,2.92,2.92,0,0,0,.5-.25,2,2,0,0,1,1-.28.28.28,0,0,0,.13-.07c0,.07,0,.13.08.13a1.5,1.5,0,0,1,1.4.89l0,0v0a1,1,0,0,0-.12.78,5.12,5.12,0,0,1,.41,1.47,1.3,1.3,0,0,0-.09.48c0,.27,0,.53,0,.79a1.88,1.88,0,0,0-.13.47l-.21,1.72c-.05.13-.09.26-.11.31a11.67,11.67,0,0,0-.27,1.17,1.72,1.72,0,0,0-.19.48c-.18.82-.31,1.64-.41,2.48a.51.51,0,0,0,0,.28c-.09.3-.19.59-.27.89a1.15,1.15,0,0,0,0,.33,1.11,1.11,0,0,0-.11.34c-.09,1.18-.15,2.36-.17,3.55,0,.09,0,.14,0,.16s0,.07,0,.11a3.41,3.41,0,0,0,.1.46,4.42,4.42,0,0,0,.24,1.18.15.15,0,0,0,.08.09v.06a.53.53,0,0,0,0,.13,4.78,4.78,0,0,0,1.52,2.67c.26.23.76-.88.53-1.09a4.55,4.55,0,0,1-1.45-2.45v0c-.11-.64-.19-1.28-.25-1.92,0-.38,0-.77,0-1.15a.45.45,0,0,0,0-.12c0-.09,0-.18,0-.27a.35.35,0,0,0,.15-.09,1.3,1.3,0,0,0,.3-.83c0-.66,0-1.33.09-2a.53.53,0,0,0,0-.29c.11-.58.21-1.16.28-1.74a19.65,19.65,0,0,0,.76-2.88c0-.12,0-.22,0-.27.11-.44.24-.86.39-1.28C37,11.81,37.2,11.34,37,11.27Z" transform="translate(-8.41 -2.78)" style="fill:#595959"/><path d="M48.45,35.64c-.36-.27-.7-.38-.91-.81a0,0,0,0,0,0,0l-.18-.32a.61.61,0,0,0,0-.14l-.57-1.28a.22.22,0,0,0,0-.12c-.16-.29-.29-.6-.44-.9l-.06-.14h0c-.12-.24-.24-.47-.35-.72,0,0-.07,0-.12.08-.06-.18-.11-.37-.17-.55s-.07-.06-.12,0a4,4,0,0,0-.78-.63,3.42,3.42,0,0,0-.91-.47v0A4.54,4.54,0,0,0,41.38,29a26.73,26.73,0,0,1-3.1-.52c-.21-.05-.43.66-.26.7a23.05,23.05,0,0,0,3.1.52l.85.09a0,0,0,0,0,0,0l1.33.43,0,0c.32.22.64.43,1,.63,0,.08,0,.15.05.18a2.43,2.43,0,0,1,.25.2.24.24,0,0,0,0,.09l.66.77,0,.1a.52.52,0,0,0,0,.25,8.15,8.15,0,0,0,1.3,2.45s0,0,.06,0c0,.15.08.3.13.44s.1.07.16,0,.06.15.1.22.08,0,.14-.08c0,.09.09.19.15.28s0,0,.06,0a5.42,5.42,0,0,0,.78.57C48.3,36.43,48.63,35.78,48.45,35.64Z" transform="translate(-8.41 -2.78)" style="fill:#595959"/><path d="M69.19,49.19a4.63,4.63,0,0,1-.39-.73s0,0-.07,0a.41.41,0,0,0,0-.12,11.79,11.79,0,0,0-3.5-3.84A32.17,32.17,0,0,0,60,40.94h0a.13.13,0,0,0-.06-.1c-3.2-1.45-6.95-2-9.87-4.06-.11-.08-.44.57-.25.7,2.91,2,6.67,2.62,9.87,4.06h0a.16.16,0,0,0,.05.11,28.53,28.53,0,0,1,4.78,3.21c1.52,1.26,3,2.35,3.88,4.16,0,0,0,0,.08,0a.31.31,0,0,0,0,.1,5.17,5.17,0,0,0,.38.74C69,50,69.31,49.38,69.19,49.19Z" transform="translate(-8.41 -2.78)" style="fill:#595959"/><path d="M33.07,38.22A6.29,6.29,0,0,0,34,35.07a8.18,8.18,0,0,0-.57-2.68c-.3-.7-.85-1.25-1.15-1.94a.43.43,0,0,0-.12-.17,4.08,4.08,0,0,0,.37-1.41c0-3.17.4-6.34.33-9.5,0-.28,0-.56-.05-.83.65-5.3,1-10.85-.59-10.9a.7.7,0,0,0-.14,0,2.45,2.45,0,0,0-1.85-1.26.81.81,0,0,0-.64.15c-.14-.3-.41-.43-.89-.11l-.1.07-.34.13a2.84,2.84,0,0,1-.71.11h.13c-1.08,0-1.73,1.59-2,2.45h0a6.29,6.29,0,0,0-.4.68,12.89,12.89,0,0,0-1,1.69c-.62,1.15-1.28,2.26-2,3.36a6,6,0,0,0-1,1.49,11.88,11.88,0,0,0-.73,1.67c-.07.1-.17.22-.29.37a10.33,10.33,0,0,0-.74,1A22,22,0,0,0,18,21.86c-.07.13-.15.3-.23.49a5.76,5.76,0,0,0-1.16,2.3c-.16.21-.3.41-.36.51a8,8,0,0,0-.68,1.49,2.8,2.8,0,0,0-1.44.32,3.4,3.4,0,0,0-1,1h-.21c-.41.05-.91.81-1.08,1.08a7.24,7.24,0,0,0-.89,2.13,6.82,6.82,0,0,0-.14.71,1.68,1.68,0,0,0-.5.56,2.14,2.14,0,0,0-.39,1.5c.15.44.51.06.66-.19-.07.11,0,.14.1.09s.27-.15.4-.34a.56.56,0,0,0,.4.1l.58,0a6.45,6.45,0,0,1,.76,0,1.21,1.21,0,0,0,1-.46l2.14.15h0a3,3,0,0,0,1.45.17,16.78,16.78,0,0,1,3.91.68,39.76,39.76,0,0,1,7.41,3.34.91.91,0,0,0,.17.17l.87.63a.39.39,0,0,0,.42,0,4.21,4.21,0,0,0,1.34,1.41.4.4,0,0,0,.34,0,1.78,1.78,0,0,1,.18.72c0,.42.26.51.54.19a2.38,2.38,0,0,0,.55-1.49,3.57,3.57,0,0,0-.1-.74Z" transform="translate(-8.41 -2.78)" style="fill:url(#radial-gradient-3)"/><path d="M32.22,40.15l-.72-.25a14,14,0,0,0-3.24-2.44.53.53,0,0,0-.12-.14,4.17,4.17,0,0,0-.83-.45l-.44-.24c-.17-.1-.39.07-.6.35a13,13,0,0,1-1.7.92l-.12.09A8.09,8.09,0,0,0,21,38l-.06,0a.49.49,0,0,0-.25-.44A12.6,12.6,0,0,0,19,36.9a3.31,3.31,0,0,1-2.4-2.62c-.18-.12-.07-.53-.32-.63-1.59-.58-4.68.26-6.24.53-.62.11-1.51,2.27-1,2.72.25.22.5.43.75.62a.91.91,0,0,0,.11.75c2.3,2.33,5.6,3.49,9,4.13a.24.24,0,0,0,.16.11,24.66,24.66,0,0,0,4.48.58s.06.11.12.14c1.59.92,5.62.74,7.11-.42l.47.16C31.9,43.24,33,40.43,32.22,40.15Z" transform="translate(-8.41 -2.78)" style="fill:url(#radial-gradient-4)"/><path d="M26,35.93a6.78,6.78,0,0,1-1.2-.11.32.32,0,0,0-.13-.28c-2.33-1.36-5.08-1.16-7.53-2-.4-.15-.71,1.11-.57,1.36a4.17,4.17,0,0,0,3,2.22h.06s0,.06,0,.08c1,1,3.86.87,5.18.7.15,0,.3-.26.4-.53l.4,0C26,37.33,26.42,35.92,26,35.93Z" transform="translate(-8.41 -2.78)" style="fill:url(#linear-gradient-2)"/></g><g id="Shadows"><path d="M34.1,35.21c0-.26.12-.81-.31-.61a2.52,2.52,0,0,0-.07-.72,6,6,0,0,1-.11-1.1.59.59,0,0,0-.51-.63c-.2-.58-.41-1.16-.6-1.74-.09-.28-.36-.28-.6-.21a5.57,5.57,0,0,0,.5-2.13,61.82,61.82,0,0,1,.53-7.8c.07-.58-.07-.93-.34-1,.09-1,.19-2.06.26-3.09a1.49,1.49,0,0,0-.11-.79c.16-1.39.34-2.79.49-4.18a1.12,1.12,0,0,0-.21-.95.13.13,0,0,0,0-.06,2.4,2.4,0,0,0,0-1.5,1,1,0,0,0-.14-.37A3.33,3.33,0,0,0,32,7.34c-1.11-.81-2.74,3-2.88,3.6-1.27,5-2.39,10.11-3.42,15.2,0,.09,0,.17-.05.25h0c-.13.68-.08,1.2.25,1.26a8,8,0,0,1,1.92.61,60.93,60.93,0,0,1-1.49,6.21c-.19.67-.28,1.81.48,1.73a.47.47,0,0,0,.25.34,6.58,6.58,0,0,0,1,.35,5.49,5.49,0,0,0,1.06.35.67.67,0,0,0,.28.48l1.1.71c0,.11,0,.22.07.33s.26.27.46.25c0,.22,0,.4.13.47a1.8,1.8,0,0,1,.91,1c.15.41.73-.36.8-.47a1.79,1.79,0,0,0,.38-1.36,2.06,2.06,0,0,0-.27-.51c.09-.14.17-.28.2-.34A11.78,11.78,0,0,0,34.1,35.21Z" transform="translate(-8.41 -2.78)" style="opacity:0.26;mix-blend-mode:multiply"/><path d="M18.94,37.14c0-.42-.18-.55-.51-.26h0a.56.56,0,0,0-.11-.51,7.13,7.13,0,0,1-1.16-1,2.27,2.27,0,0,1-.44-1.27c0-.22-.11-.26-.23-.22a.23.23,0,0,0-.18-.11,19.5,19.5,0,0,0-4.25.11s-.05,0-.08,0a7.44,7.44,0,0,0-2,.25,1.53,1.53,0,0,0-.78.87A1.44,1.44,0,0,0,9,36.18c.77,2.13,2.59,3.47,4.51,4.51,0,0,0,0,.05,0a.26.26,0,0,0,.12.15c.87.4,2.16,1.2,3,.44a4.36,4.36,0,0,0,.89-1.38l.36-.77.23-.51c.12-.25.13-.27,0-.06A2.35,2.35,0,0,0,18.94,37.14Z" transform="translate(-8.41 -2.78)" style="opacity:0.26;mix-blend-mode:multiply"/><path d="M26.31,36.23a2.15,2.15,0,0,0-1.62-.5,2.12,2.12,0,0,0-.72.5,2.89,2.89,0,0,1-1.37.61,1.41,1.41,0,0,0-.82.62c-.09.13-.29.51,0,.45l.28-.08c-.06.13-.09.26.05.27a6.31,6.31,0,0,0,2-.18,1.76,1.76,0,0,0,.49-.36,2.17,2.17,0,0,0,.8-.18C25.79,37.23,26.54,36.66,26.31,36.23Z" transform="translate(-8.41 -2.78)" style="opacity:0.26;mix-blend-mode:multiply"/></g><g id="Highlights"><path d="M23.05,34.54a20.54,20.54,0,0,0-7.3-1.86c-1.7-.09-4.93-.32-6.17,1-.18.19,1.05.94,1.37.59,1-1.08,4.33-.91,5.62-.85A17.47,17.47,0,0,1,22.84,35C23.64,35.4,23.86,34.9,23.05,34.54Z" transform="translate(-8.41 -2.78)" style="fill:#fff;opacity:0.48;mix-blend-mode:overlay"/><path d="M18.7,36a3.8,3.8,0,0,1-.49-1.74c0-.39-1.41-.84-1.39-.44a4.3,4.3,0,0,0,.58,1.91,1.48,1.48,0,0,0,.91.5C18.49,36.29,18.86,36.31,18.7,36Z" transform="translate(-8.41 -2.78)" style="fill:#fff;opacity:0.48;mix-blend-mode:overlay"/></g><g id="Lines"><path d="M53.8,118.32,67.24,52.08a9.42,9.42,0,0,1,1.83-.47,12.17,12.17,0,0,1,2.25,0l-8.4,63.84h-8.4l8.64,1.44v3.36Z" transform="translate(-8.41 -2.78)" style="fill:none;stroke:#231f20;stroke-miterlimit:10;stroke-width:0.75px;fill-rule:evenodd"/><path d="M62.92,115.44l8.88,1.44H63.16" transform="translate(-8.41 -2.78)" style="fill:none;stroke:#231f20;stroke-miterlimit:10;stroke-width:0.75px;fill-rule:evenodd"/><path d="M51.88,118.08,66,52.32l1.2-.24L32.44,28.56" transform="translate(-8.41 -2.78)" style="fill:none;stroke:#231f20;stroke-miterlimit:10;stroke-width:0.75px;fill-rule:evenodd"/><path d="M68.44,54h1.2L61,114.24H56.68Z" transform="translate(-8.41 -2.78)" style="fill:none;stroke:#231f20;stroke-miterlimit:10;stroke-width:0.75px;fill-rule:evenodd"/><path d="M68.68,54l-9.36,60,1.68.24" transform="translate(-8.41 -2.78)" style="fill:none;stroke:#231f20;stroke-miterlimit:10;stroke-width:0.75px;fill-rule:evenodd"/><path d="M59.32,114h-2.4" transform="translate(-8.41 -2.78)" style="fill:none;stroke:#231f20;stroke-miterlimit:10;stroke-width:0.75px;fill-rule:evenodd"/><path d="M63.16,120.24H71.8v-3.36" transform="translate(-8.41 -2.78)" style="fill:none;stroke:#231f20;stroke-miterlimit:10;stroke-width:0.75px;fill-rule:evenodd"/><path d="M65.8,52.08,32.44,29.76" transform="translate(-8.41 -2.78)" style="fill:none;stroke:#231f20;stroke-miterlimit:10;stroke-width:0.75px;fill-rule:evenodd"/><path d="M71.32,51.6,32.44,26.4" transform="translate(-8.41 -2.78)" style="fill:none;stroke:#231f20;stroke-miterlimit:10;stroke-width:0.75px;fill-rule:evenodd"/><path d="M9.16,34.56l3.12-5.76a4.06,4.06,0,0,1,3.12-2.4,23.56,23.56,0,0,1,8.16.48" transform="translate(-8.41 -2.78)" style="fill:none;stroke:#231f20;stroke-miterlimit:10;stroke-width:0.75px;fill-rule:evenodd"/><path d="M32.68,41l1.44-5.52a9,9,0,0,0-.24-2.64,11.3,11.3,0,0,0-3.12-4.08" transform="translate(-8.41 -2.78)" style="fill:none;stroke:#231f20;stroke-miterlimit:10;stroke-width:0.75px;fill-rule:evenodd"/><path d="M15.4,26.16,26.2,7.68s1-1.92,4.08-1.2S33.4,9.36,33.4,9.36l-1,20.88" transform="translate(-8.41 -2.78)" style="fill:none;stroke:#231f20;stroke-miterlimit:10;stroke-width:0.75px;fill-rule:evenodd"/><path d="M21.88,34.56c7.09,1.95,10.92,5.66,10.56,7s-3.57,3.44-13,1.2S8.2,36.56,8.92,35,14.8,32.61,21.88,34.56Z" transform="translate(-8.41 -2.78)" style="fill:none;stroke:#231f20;stroke-miterlimit:10;stroke-width:0.75px;fill-rule:evenodd"/><path d="M30,6.48l1.2-3.12s.2-.45.72,0c.23.15-1,3.36-1,3.36" transform="translate(-8.41 -2.78)" style="fill:none;stroke:#231f20;stroke-miterlimit:10;stroke-width:0.75px;fill-rule:evenodd"/><path d="M32,7.2S35,3.83,36.52,7s0,7-.48,9.84-2.78,11.91,4.32,12,5.75,5.35,8.16,7a29.49,29.49,0,0,0,9.12,4.08C61,40.6,67.47,46,68.2,47.28a8.15,8.15,0,0,1,1.2,3.12" transform="translate(-8.41 -2.78)" style="fill:none;stroke:#231f20;stroke-miterlimit:10;stroke-width:0.5px;fill-rule:evenodd"/><path d="M32.68,7.92s1-1.25,1.92-1,2.29,1.29.72,7.92-1.86,11,.72,13.2,5.14,1.15,7.44,2.4,1.65,3.66,4.08,5.52a29.14,29.14,0,0,0,9.6,4.56c3.72,1,9.15,5.64,10.08,6.72a5.79,5.79,0,0,1,1.2,2.4" transform="translate(-8.41 -2.78)" style="fill:none;stroke:#231f20;stroke-miterlimit:10;stroke-width:0.5px;fill-rule:evenodd"/><path d="M36.28,29l1-1.68,1,.72-1,1.44" transform="translate(-8.41 -2.78)" style="fill:none;stroke:#231f20;stroke-miterlimit:10;stroke-width:0.75px;fill-rule:evenodd"/><path d="M48.28,36.72,49,35.28,50,36l-.48,1.44" transform="translate(-8.41 -2.78)" style="fill:none;stroke:#231f20;stroke-miterlimit:10;stroke-width:0.75px;fill-rule:evenodd"/><path d="M16.56,33.6s-.51,2.68,4.08,4.08,5.76-1.2,5.76-1.2" transform="translate(-8.41 -2.78)" style="fill:none;stroke:#231f20;stroke-miterlimit:10;stroke-width:0.75px;fill-rule:evenodd"/></g></g></svg>