<svg xmlns="http://www.w3.org/2000/svg" xmlns:xlink="http://www.w3.org/1999/xlink" viewBox="0 0 34.09 19.25"><defs><radialGradient id="radial-gradient" cx="31.26" cy="14.13" r="22.5" gradientUnits="userSpaceOnUse"><stop offset="0" stop-color="#c2c2c2"/><stop offset="1" stop-color="#757575"/></radialGradient><linearGradient id="linear-gradient" x1="15.86" y1="13.31" x2="27.26" y2="13.31" gradientUnits="userSpaceOnUse"><stop offset="0" stop-color="#5e5e5e"/><stop offset="1" stop-color="#c2c2c2"/></linearGradient><linearGradient id="linear-gradient-2" x1="10.47" y1="18.33" x2="15.27" y2="18.33" gradientUnits="userSpaceOnUse"><stop offset="0" stop-color="#f15b57"/><stop offset="1" stop-color="#d32027"/></linearGradient><linearGradient id="linear-gradient-3" x1="4.46" y1="18.37" x2="10.63" y2="18.37" gradientUnits="userSpaceOnUse"><stop offset="0" stop-color="#84080a"/><stop offset="1" stop-color="#cb4c49"/></linearGradient></defs><title>Toaster</title><g style="isolation:isolate"><g id="Color"><path d="M38.35,21.27a.69.69,0,0,0-.06-.25.72.72,0,0,0-.07-.41c0-.17,0-.35,0-.52a10.68,10.68,0,0,0,.05-1.79c-.08-.92-.14-1.83-.19-2.76l0-.28c0-.37,0-.73,0-1.09a11.32,11.32,0,0,0,0-2.78L38,11c0-.22,0-.45-.07-.68a.78.78,0,0,0,0-.14,9.47,9.47,0,0,0,0-2.32,4.66,4.66,0,0,0-.45-1.68L37.44,6A1.48,1.48,0,0,0,37,5.21a1.26,1.26,0,0,0-.27-.37A2.22,2.22,0,0,0,36,4.37l-.13,0a.52.52,0,0,0-.18-.1,11.16,11.16,0,0,0-1.1-.29h-.1c-.71,0-1.42,0-2.13,0a.13.13,0,0,0-.1-.09,3.78,3.78,0,0,0-.57-.1s0,0,0,0h0a40,40,0,0,0-4.24,0h-2.8a.32.32,0,0,0-.09,0l-.05,0a10.84,10.84,0,0,0-2.72.12A6.62,6.62,0,0,0,20,4S20,4,19.94,4a4.08,4.08,0,0,0-.61,0l0,0a2.71,2.71,0,0,0-.85.2.25.25,0,0,0-.17,0L18,4.35a.17.17,0,0,0-.14,0l-.41.21-.07.05a.53.53,0,0,0-.21.09.63.63,0,0,0-.12.11.67.67,0,0,0-.16.12l0,0h0l0,0h0c-.37,0-.5.67-.57.9a4.66,4.66,0,0,0-.12.65,7.61,7.61,0,0,0-.2,1.91q0,.49.06,1c0,.35,0,.69,0,1s0,.52,0,.79,0,.28,0,.42a8.25,8.25,0,0,0,0,2.93L16,15c0,.07,0,.14,0,.21a.62.62,0,0,0,0,.13c0,.34,0,.68,0,1s0,.49,0,.73a8.13,8.13,0,0,0,.08,2.65h0A4.42,4.42,0,0,0,16,21.13c0,.1,0,.57.13.6h0a.1.1,0,0,0,.08.05c.45,0,.9.19,1.37.17l0,0a.29.29,0,0,0,.1,0H18c.21,0,.42,0,.63,0a.38.38,0,0,0,.21.07c.29,0,.59,0,.88.06a.28.28,0,0,0,.13,0H21a.31.31,0,0,0,.21.07l.33,0h0c.78.11,1.58.1,2.36.15a.52.52,0,0,0,.13.06,3.58,3.58,0,0,0,.45.09.47.47,0,0,0,.29.16c.56.05,1.11.08,1.67.11a.37.37,0,0,0,.14,0h0a11,11,0,0,1,1.28.1.24.24,0,0,0,.22-.11l0,0a9.28,9.28,0,0,0,3-.05.49.49,0,0,0,.17.06,37.45,37.45,0,0,0,5.08,0,.44.44,0,0,0,.15-.05c.32,0,.64,0,1,.08a.25.25,0,0,0,.21-.09c0,.09.07.14.11.14a1.09,1.09,0,0,0,.35-.09s0,.05.06,0C38.56,22.5,38.41,21.63,38.35,21.27Z" transform="translate(-4.44 -3.67)" style="fill-rule:evenodd"/><path d="M15.19,17.41c0-.05,0-.1,0-.15A5.68,5.68,0,0,0,15,15.43v0l0-.15a.43.43,0,0,0,0-.17c.14-.21,0-1-.12-.94l-.38.08a.24.24,0,0,0-.16-.07c-.32,0-.64.06-1,.11-1,0-1.9,0-2.86-.08a.24.24,0,0,0-.17-.07c-.63,0-1.27,0-1.91,0h0L7,14.21l-.07,0H6.12a.18.18,0,0,0-.1,0l-.51,0a.15.15,0,0,0-.07,0s0,0-.06,0a.45.45,0,0,0-.11,0s0-.08-.09-.08c-.38,0-.59-.07-.64.37a2.69,2.69,0,0,0,.08.93l0,.21c0,.11,0,.22,0,.34h0a3.9,3.9,0,0,0,0,.59c0,.34,0,.68.07,1a1.18,1.18,0,0,0-.05.29,6.35,6.35,0,0,0,0,1c0,.06,0,.13,0,.16v1.59c-.18,0-.17,1,.06,1a8.5,8.5,0,0,1,.87.07,0,0,0,0,0,0,0l.53.08.21.05H6.4s0,0,0,0l.13,0A.36.36,0,0,0,6.8,22a15.18,15.18,0,0,1,1.9.24l.05,0,.05,0,.5,0c.12.18.26.27.44.14l0-.07c.21.05.42.1.63.13a.32.32,0,0,0,.15.06H12a.29.29,0,0,0,.21.11c.62,0,1.25,0,1.88,0a.21.21,0,0,0,.14-.07.18.18,0,0,0,.12.05h.06c0,.06.06.11.1.11a1.18,1.18,0,0,0,.42,0c.09,0,.1-.18.11-.26a1.78,1.78,0,0,0,0-.4.58.58,0,0,0,.08-.33v-.18A1.76,1.76,0,0,0,15,21a8.43,8.43,0,0,0,0-.87c0-.35,0-.7.06-1A6.06,6.06,0,0,0,15.19,17.41Z" transform="translate(-4.44 -3.67)" style="fill-rule:evenodd"/><path d="M38.35,21.19s0-.11,0-.12,0-.14,0-.26,0,0,0-.07v0h0a5.71,5.71,0,0,0,0-1.37.79.79,0,0,0-.09-.23l0-.29-.05-.09a1.05,1.05,0,0,0,.05-.52c0-.19-.06-.38-.09-.56a2.19,2.19,0,0,0,0-.36q0-3.34-.07-6.68c0-.17-.07-.24-.18-.24V7.53a.61.61,0,0,0,0-.38c-.11-.22-.22-.46-.33-.7V6.37a2.28,2.28,0,0,0-.58-1,.43.43,0,0,0-.1-.24,2.68,2.68,0,0,0-.57-.49.25.25,0,0,0-.15-.19L36,4.4a.23.23,0,0,0-.08-.14.37.37,0,0,0-.34,0A5.36,5.36,0,0,0,35,4.1a.54.54,0,0,0-.22,0,.37.37,0,0,0-.11,0L34.11,4c-.07,0-.26-.09-.35,0a8,8,0,0,0-1.95,0l-.33-.07a.8.8,0,0,0-.43,0,.3.3,0,0,0-.2-.08,5.4,5.4,0,0,1-.9,0c-.06,0-.07,0-.06.09a1.42,1.42,0,0,0-.77,0L29,3.9a7.59,7.59,0,0,0-1.58,0,2.43,2.43,0,0,0-1.07,0,.27.27,0,0,0-.19,0h-.12c-.07,0-.09,0-.11,0a.05.05,0,0,0,0,0l-.19,0c-.08,0-.11,0-.12,0a1.27,1.27,0,0,0-.28,0c-.14,0-.11.09,0,.2l0,0,0,0a1.42,1.42,0,0,0,.66.49.9.9,0,0,0,.38.26l.15.3a.54.54,0,0,0,.07.13,4,4,0,0,0,.49.74,4.34,4.34,0,0,1,.11,1c0,.18,0,.33,0,.51a3,3,0,0,0,0,.42,1.5,1.5,0,0,0,0,.3c0,.19-.05.32,0,.4a1.7,1.7,0,0,0,0,.22V22.55c0,.25.16.27.37.18a.16.16,0,0,0,.12,0h7.79c.08,0,.17.09.26.05H36c.23,0,.35,0,.57,0l.24,0c.08,0,.21,0,.24,0a2.54,2.54,0,0,0,.55,0l.22,0c.49.06.59-.08.59-.45,0,0,.06,0,.06-.06A4.58,4.58,0,0,0,38.35,21.19Z" transform="translate(-4.44 -3.67)" style="fill-rule:evenodd;fill:url(#radial-gradient)"/><path d="M27.24,22.48l-.07-.17V6.44a1,1,0,0,0-.32-.64.44.44,0,0,0,0-.2,3.12,3.12,0,0,0-1.6-1.54,6.3,6.3,0,0,0-2.45-.2.56.56,0,0,0-.2.06h-.24a2.5,2.5,0,0,0-.54-.07h-.15a9.74,9.74,0,0,0-1.32.08.29.29,0,0,0-.14,0l-.37,0a1.21,1.21,0,0,0-.7,0,.84.84,0,0,0-.31.19.55.55,0,0,0-.18,0l-.4.16a1.55,1.55,0,0,0-.31,0,2.68,2.68,0,0,0-1.87,3.39s0,.17,0,.24a27.69,27.69,0,0,0-.15,4.9c-.06,0,0,.16,0,.25A26.54,26.54,0,0,0,16,16.36,1.47,1.47,0,0,0,16,17,11,11,0,0,0,16,18.83s0,.08,0,.12a9.14,9.14,0,0,1,0,2.45c-.08.43.08.53.31.48,0,0,0,0,.08,0a12.71,12.71,0,0,0,2.3.22c.68-.05,1.35.14,2,.07h0l.47,0a2.87,2.87,0,0,0,1.19.14,6.17,6.17,0,0,1,.86,0c.11,0,.16.05.23,0s.12,0,.18,0a4.1,4.1,0,0,0,.49.06,2.8,2.8,0,0,0,1.31.18c.2,0,.38.08.55,0a2.43,2.43,0,0,0,.7.11C26.89,22.79,27.37,22.81,27.24,22.48Z" transform="translate(-4.44 -3.67)" style="fill-rule:evenodd;fill:url(#linear-gradient)"/><path d="M33.19,15.78v-.69a1.84,1.84,0,0,0,0-.49V10.45a1,1,0,0,0-.07-.35,2.26,2.26,0,0,0,0-.51,1.8,1.8,0,0,0-.05-.3h0c0-.35.15-.62,0-1,0-.05,0-.13-.11-.14h-.09c-.05-.06-.1,0-.15.11a1.23,1.23,0,0,0,0,.71l0,.07v0h0a1.77,1.77,0,0,0,0,1,.49.49,0,0,0,0,.14,10.85,10.85,0,0,0-.09,1.4c0,.11,0,.57.13.61a.06.06,0,0,0,.08,0v2.36a1,1,0,0,0,0,.3h0V18c0,.1,0,.58.13.61a.11.11,0,0,0,.1-.05c.11,0,.13-.26.13-.35V16.3A1.52,1.52,0,0,0,33.19,15.78Z" transform="translate(-4.44 -3.67)" style="fill:#5b5b5b;fill-rule:evenodd"/><path d="M33.22,19.19H33c0-.12-.08.05-.1.19l0,.08c0,.08,0,.35.09.38h0c.07.14.16.22.29,0a.65.65,0,0,0,0-.29C33.33,19.4,33.3,19.2,33.22,19.19Z" transform="translate(-4.44 -3.67)" style="fill:#6d6d6d;fill-rule:evenodd"/><path d="M36,18.52H30.53c-.08,0-.08.32,0,.44s0,.23.09.23h5.32S36,19.11,36,19h0C36.09,19,36.08,18.52,36,18.52Z" transform="translate(-4.44 -3.67)" style="fill:#303030;fill-rule:evenodd"/><path d="M15.08,20.61V16.12c.41-.33.08-2-.16-1.94a1,1,0,0,1-.26.07.08.08,0,0,0-.11,0h-.13l0,0h-.44c0-.09-.11-.16-.19-.16H10.81l0,0c-.29,0-.34,1.12-.16,1.68,0,.13,0,.26,0,.33v1.58a3.5,3.5,0,0,0,0,1v2c-.25.43-.09,1.91.25,1.88H11a20.25,20.25,0,0,1,4,0c.26,0,.34-1.14.14-1.7A2.45,2.45,0,0,0,15.08,20.61Z" transform="translate(-4.44 -3.67)" style="fill-rule:evenodd;fill:url(#linear-gradient-2)"/><path d="M10.49,21l0-.35.06-.53A2.84,2.84,0,0,0,10.44,19a1.57,1.57,0,0,1,.08-.58,2.45,2.45,0,0,0,0-1.37v0a3,3,0,0,0,0-.9s0-.1-.05-.2c.26-.43,0-2-.34-1.82l-.35.16c-.05-.06-.1-.11-.16-.1l-2,.11s0,0-.07,0a7.93,7.93,0,0,0-1.38,0h0l-.72-.06h0l-.69-.06c-.07,0-.12.08-.16.19a1.62,1.62,0,0,0-.1.6V15a1.09,1.09,0,0,0,0,.18c0,1,0,2,.13,3a2,2,0,0,0-.15.69,3,3,0,0,0,.07.81l0,.06a2.65,2.65,0,0,0,0,1.37c0,.12.22.62.36.44l.79.19s.06,0,.09-.07a10.61,10.61,0,0,1,2.27.44,11.21,11.21,0,0,0,1.76.37s.07,0,.1-.09a1.13,1.13,0,0,1,.32.19c.26.22.32-.63.32-.72a3.31,3.31,0,0,0,0-.68A1.66,1.66,0,0,0,10.49,21Z" transform="translate(-4.44 -3.67)" style="fill-rule:evenodd;fill:url(#linear-gradient-3)"/></g><g id="Shadows"><path d="M20.67,14.3c-.05-.06-.1-.11-.16-.11H16c-.36,0-.34,1.68,0,2V20c-.2.46-.11,1.83.26,1.83h.14l0,0A7.25,7.25,0,0,1,18,22h0a.2.2,0,0,0,.15.09l2.3.11a.25.25,0,0,0,.12.11c.29.13.32-.58.32-.71V15.49C20.9,15.24,20.92,14.49,20.67,14.3Z" transform="translate(-4.44 -3.67)" style="fill-rule:evenodd;opacity:0.27;mix-blend-mode:multiply"/><path d="M30.35,18.41c0,.15,0,.32.09.32h5.5c0,.09,0,.17.08.17h0c0,.14,0,.33.08.33h.42v-.82Z" transform="translate(-4.44 -3.67)" style="fill-rule:evenodd;opacity:0.27;mix-blend-mode:multiply"/><path d="M15,15.36H10.64s0,0,0,0,0-.07-.06-.07h-6s-.07.11-.06.24l1.88.19,1.54.07h2.7s0,0,0,0,0,.07.07.07H15C15.09,15.86,15.08,15.36,15,15.36Z" transform="translate(-4.44 -3.67)" style="fill-rule:evenodd;opacity:0.27;mix-blend-mode:multiply"/></g><g id="Highlights"><path d="M9.93,14.82v6.55c0,.76.59,1.89.59.5V15.32C10.52,14.57,9.93,13.44,9.93,14.82Z" transform="translate(-4.44 -3.67)" style="fill:#fff;fill-rule:evenodd;opacity:0.36;mix-blend-mode:overlay"/><path d="M27.11,15.43c0-.06,0-.11,0-.17L16.79,4.93l-.43.45,0,0c0,.24-.1.48-.15.72a.32.32,0,0,1,0,.09c0,1-.06,2.1-.16,3.15L27.11,20.48Z" transform="translate(-4.44 -3.67)" style="fill:#fff;fill-rule:evenodd;opacity:0.36;mix-blend-mode:overlay"/><path d="M24.74,22.56a2.46,2.46,0,0,1,.71,0s0-.06-.06-.08L15.92,13v3l6.39,6.4a16.94,16.94,0,0,1,2.35.2Z" transform="translate(-4.44 -3.67)" style="fill:#fff;fill-rule:evenodd;opacity:0.36;mix-blend-mode:overlay"/><path d="M38.33,17.41a3.18,3.18,0,0,1-.06-.43c0-.13,0-.17,0-.15a11.2,11.2,0,0,1-.17-1.14,2.82,2.82,0,0,1,0-.42L27.58,4.71a8.13,8.13,0,0,0-1.6-.5l-.19,0a2.47,2.47,0,0,1,1,1.21,1.86,1.86,0,0,1,.2.52l-.12-.26a.43.43,0,0,1,0,.11l0,0a2.76,2.76,0,0,1,.2.47.54.54,0,0,1,.05.22c0,.11,0,.22,0,.33a2.14,2.14,0,0,1,.06.5v.8a2.21,2.21,0,0,1-.13.74L38.4,20.15V18C38.37,17.82,38.35,17.61,38.33,17.41Z" transform="translate(-4.44 -3.67)" style="fill:#fff;fill-rule:evenodd;opacity:0.36;mix-blend-mode:overlay"/></g><g id="Lines"><path d="M38.4,22.8,37.92,7.2s-.56-2.69-2.64-3.12-14.16-.24-14.16-.24-4,0-4.8,1.68-.24,16.32-.24,16.32l11.52,1H38.4" transform="translate(-4.44 -3.67)" style="fill:none;stroke:#231f20;stroke-miterlimit:10;stroke-width:0.25px;fill-rule:evenodd"/><path d="M27.12,22.56V7.68S27.54,3.9,24,3.84" transform="translate(-4.44 -3.67)" style="fill:none;stroke:#231f20;stroke-miterlimit:10;stroke-width:0.25px;fill-rule:evenodd"/><path d="M32.86,19.17c0,.47,0,.75,0,.75h.48l0-.74m0-.67c-.06-3.12-.21-10.35-.21-10.35h-.48s.15,7.24.21,10.36" transform="translate(-4.44 -3.67)" style="fill:none;stroke:#231f20;stroke-miterlimit:10;stroke-width:0.25px;fill-rule:evenodd"/><path d="M36,19.2H30.48v-.72H36Z" transform="translate(-4.44 -3.67)" style="fill:none;stroke:#231f20;stroke-miterlimit:10;stroke-width:0.25px;fill-rule:evenodd"/><path d="M4.56,21.6V14.16h6v8.4Z" transform="translate(-4.44 -3.67)" style="fill:none;stroke:#231f20;stroke-miterlimit:10;stroke-width:0.25px;fill-rule:evenodd"/><path d="M10.56,22.56h4.56v-8.4H10.56" transform="translate(-4.44 -3.67)" style="fill:none;stroke:#231f20;stroke-miterlimit:10;stroke-width:0.25px;fill-rule:evenodd"/><path d="M15.12,15.36H4.56" transform="translate(-4.44 -3.67)" style="fill:none;stroke:#231f20;stroke-miterlimit:10;stroke-width:0.25px;fill-rule:evenodd"/></g></g></svg>