<svg xmlns="http://www.w3.org/2000/svg" xmlns:xlink="http://www.w3.org/1999/xlink" viewBox="0 0 207.95 195.2"><defs><linearGradient id="linear-gradient" x1="68.04" y1="200.91" x2="46.1" y2="34.46" gradientUnits="userSpaceOnUse"><stop offset="0" stop-color="#8a3114"/><stop offset="0.99" stop-color="#490000"/></linearGradient><radialGradient id="radial-gradient" cx="181.52" cy="105.54" r="49.55" gradientUnits="userSpaceOnUse"><stop offset="0" stop-color="#be4827"/><stop offset="1" stop-color="#69120d"/></radialGradient><radialGradient id="radial-gradient-2" cx="149.92" cy="145.01" r="37.57" gradientUnits="userSpaceOnUse"><stop offset="0" stop-color="#682a11"/><stop offset="1" stop-color="#3c180a"/></radialGradient><linearGradient id="linear-gradient-2" x1="203.07" y1="157.91" x2="217.89" y2="157.91" gradientUnits="userSpaceOnUse"><stop offset="0" stop-color="#341002"/><stop offset="1" stop-color="#5a2106"/></linearGradient><linearGradient id="linear-gradient-3" x1="197.11" y1="86.83" x2="207.48" y2="86.83" xlink:href="#linear-gradient-2"/><linearGradient id="linear-gradient-4" x1="87.95" y1="149.71" x2="109.34" y2="149.71" xlink:href="#linear-gradient-2"/><radialGradient id="radial-gradient-3" cx="158.68" cy="133.52" r="37.26" gradientUnits="userSpaceOnUse"><stop offset="0" stop-color="#4a1600"/><stop offset="1" stop-color="#2e0900"/></radialGradient><linearGradient id="linear-gradient-5" x1="38.69" y1="166.38" x2="38.66" y2="166.19" gradientUnits="userSpaceOnUse"><stop offset="0" stop-color="#3d0000"/><stop offset="0.99" stop-color="#250000"/></linearGradient><linearGradient id="linear-gradient-6" x1="60.66" y1="170.92" x2="53.81" y2="118.88" xlink:href="#linear-gradient-5"/><linearGradient id="linear-gradient-7" x1="98.74" y1="142.71" x2="107.93" y2="142.71" gradientUnits="userSpaceOnUse"><stop offset="0" stop-color="#601b00"/><stop offset="0.99" stop-color="#500100"/></linearGradient><linearGradient id="linear-gradient-8" x1="60.46" y1="144.2" x2="87.97" y2="144.2" gradientUnits="userSpaceOnUse"><stop offset="0" stop-color="#712506"/><stop offset="0.99" stop-color="#5a0802"/></linearGradient><linearGradient id="linear-gradient-9" x1="57.1" y1="148.39" x2="74.62" y2="148.39" gradientUnits="userSpaceOnUse"><stop offset="0" stop-color="#4e0f00"/><stop offset="0.99" stop-color="#2b0000"/></linearGradient><linearGradient id="linear-gradient-10" x1="24.6" y1="107.92" x2="47.92" y2="107.92" xlink:href="#linear-gradient-9"/><linearGradient id="linear-gradient-11" x1="16.58" y1="54.54" x2="26.29" y2="54.54" xlink:href="#linear-gradient-9"/><radialGradient id="radial-gradient-4" cx="95.61" cy="91.45" r="45.33" gradientUnits="userSpaceOnUse"><stop offset="0" stop-color="#551400"/><stop offset="0.99" stop-color="#2b0000"/></radialGradient><radialGradient id="radial-gradient-5" cx="207.19" cy="88.64" r="27.62" xlink:href="#radial-gradient-4"/><linearGradient id="linear-gradient-12" x1="14.16" y1="76.67" x2="99.89" y2="76.67" gradientUnits="userSpaceOnUse"><stop offset="0" stop-color="#b04222"/><stop offset="0.99" stop-color="#a22b29"/></linearGradient><linearGradient id="linear-gradient-13" x1="131" y1="63.89" x2="211.58" y2="63.89" xlink:href="#linear-gradient-12"/><linearGradient id="linear-gradient-14" x1="103.42" y1="147.35" x2="100.84" y2="100.52" gradientUnits="userSpaceOnUse"><stop offset="0" stop-color="#bdb4aa"/><stop offset="0.99" stop-color="#d6a09c"/></linearGradient><linearGradient id="linear-gradient-15" x1="75.46" y1="142.28" x2="74.18" y2="119.04" gradientUnits="userSpaceOnUse"><stop offset="0" stop-color="#d6bbaa"/><stop offset="0.99" stop-color="#bf9a9b"/></linearGradient><linearGradient id="linear-gradient-16" x1="55.3" y1="136.75" x2="54.36" y2="119.57" gradientUnits="userSpaceOnUse"><stop offset="0" stop-color="#cab8aa"/><stop offset="0.99" stop-color="#b7988f"/></linearGradient><linearGradient id="linear-gradient-17" x1="40.93" y1="137.85" x2="37.52" y2="75.98" gradientUnits="userSpaceOnUse"><stop offset="0" stop-color="#c4b6aa"/><stop offset="0.99" stop-color="#b99898"/></linearGradient><linearGradient id="linear-gradient-18" x1="27.48" y1="71.3" x2="24.97" y2="25.74" gradientUnits="userSpaceOnUse"><stop offset="0" stop-color="#cdb9aa"/><stop offset="0.99" stop-color="#be9aa5"/></linearGradient><linearGradient id="linear-gradient-19" x1="86.87" y1="110.09" x2="81.77" y2="17.45" gradientUnits="userSpaceOnUse"><stop offset="0" stop-color="#fcdad4"/><stop offset="0.99" stop-color="#f3edf0"/></linearGradient><linearGradient id="linear-gradient-20" x1="65.16" y1="122.47" x2="62.64" y2="76.84" gradientUnits="userSpaceOnUse"><stop offset="0" stop-color="#f9d9d3"/><stop offset="1" stop-color="#f8ddd9"/></linearGradient><linearGradient id="linear-gradient-21" x1="141.69" y1="56.93" x2="152.27" y2="117.84" gradientUnits="userSpaceOnUse"><stop offset="0.79" stop-color="#f9d9d3"/><stop offset="0.82" stop-color="#ebcec9"/><stop offset="0.87" stop-color="#c8b0ad"/><stop offset="0.91" stop-color="#a69493"/><stop offset="1" stop-color="#746869"/></linearGradient><linearGradient id="linear-gradient-22" x1="60.89" y1="119.46" x2="60.63" y2="114.69" xlink:href="#linear-gradient-20"/></defs><title>LoungeCHair</title><g style="isolation:isolate"><g id="Color"><path d="M218.76,185.19c-4.35-13.47-6.69-28-9.49-41.84a6.39,6.39,0,0,0-.22-.8c-.13-1.58-.24-3.17-.34-4.76a8.33,8.33,0,0,0-1.25-3.66c0-.27-.07-.54-.12-.8a3.68,3.68,0,0,0,0-1.33c-.12-1-.25-2.07-.37-3.1,0-.11,0-.21-.05-.32a5.55,5.55,0,0,0-.18-2.06c0-.3-.11-.6-.17-.9a2.47,2.47,0,0,0,.54-.05,4.74,4.74,0,0,0,1.1-.38c.11,0,.23,0,.35.06.84-.11,1-.68,1-1.49a6.13,6.13,0,0,0-.6-2.33h0a1.65,1.65,0,0,0,.26-.14,3.47,3.47,0,0,0,1.22.38,1.19,1.19,0,0,0,1.05-1.48,28.42,28.42,0,0,0-.85-3.87,13.38,13.38,0,0,0-.6-1.55c1.07-5.07.12-10.14-4.42-13.87a14.56,14.56,0,0,0-5.45-2.75c.07-.66.13-1.32.15-2v-1a4.85,4.85,0,0,0-.54-3.26,4.49,4.49,0,0,0-.64-2.05c0-.21-.1-.41-.15-.61.19-.51.39-1,.58-1.52s.5-.89.76-1.33a79.28,79.28,0,0,1,8-9.56c.3-.3.16-.89-.17-1.49a.67.67,0,0,0,.31,0q2.47-.51,5-1.07c.24-.06.33-.26.32-.53l.63,0c1,0-.78-3.41-1.92-3.37h-.06a2.48,2.48,0,0,0-1.4-1l-8.69-1.54c-.27,0-.35.12-.34.37-1.56-.22-3.11-.38-4.68-.48a1.31,1.31,0,0,0-.6-.32c-1.95-.29-3.89-.52-5.83-.71a33,33,0,0,0-11-1.9,1.5,1.5,0,0,0-.71-.41c-3.55-.49-7.11-.9-10.68-1.25-.93-.23-1.87-.41-2.81-.56a1.27,1.27,0,0,0-.63-.34q-4.84-.59-9.64-1.45a132.39,132.39,0,0,0-13.29-2.34.16.16,0,0,0-.14,0,96.5,96.5,0,0,0-10-2.33c-1.27-2.87-2.7-5.68-4.14-8.5a11.49,11.49,0,0,0-.51-3.52c-1.67-5.2-3.79-10.46-4.91-15.81a2.91,2.91,0,0,0-.27-.77c-.25-1.63-.52-3.26-.8-4.88a2.65,2.65,0,0,0-1.69-2.13c-.47-3.08-2.11-5.15-6.05-3.69a4.21,4.21,0,0,0-2.33-.45c-.53,0-1.06.11-1.59.19a4.67,4.67,0,0,0-2.27-.54,49.44,49.44,0,0,0-6.77.43,8,8,0,0,0-1.29.27l-2.75.59a4.38,4.38,0,0,0-1.39-.1c-1.31.1-2.62.24-3.92.41l-4.65.5a3.62,3.62,0,0,0-2.46-.54,108.9,108.9,0,0,0-11.62,1.73c-.24.05-.47.12-.71.18h-.25l-.28,0a4.11,4.11,0,0,0-1.85-.24,49.78,49.78,0,0,0-5.86.83A5.1,5.1,0,0,0,61,19.64q-15.44,1.78-30.62,5l-4.44.41a2.56,2.56,0,0,0-.77.21,2.15,2.15,0,0,0-1.67.91l-.58.13c-1.33-.56-2.42-.57-3.05.21-3.26,4-2.25,9.87-1.07,15.17-1-.62-1.66-.57-1.32,1a209,209,0,0,0,5.36,20.34c.32,1.7.63,3.4.95,5.09-.68-.07-1.36-.16-2-.22a.74.74,0,0,0-.41.06h0a.88.88,0,0,0-1,.1c-.59-.37-1.17-.54-1.43-.07l-3.62,1c-.12,0-.16.16-.15.3-.73-.06-1.69-.33-2.33.1-.26.17-.05.58.23,1a1,1,0,0,0-.17,1.22l0,.06h0c-.47,0,.38,1.68,1,1.68h1.45c1.1.22,2.23.36,3.35.51a7,7,0,0,0,.47.85A15.67,15.67,0,0,0,19.93,76c0,.09,0,.18.05.27a19.53,19.53,0,0,0,.72,2.16l0,.06a16.08,16.08,0,0,0,1.06,3.11l.48,1c.68,3.16,1.51,6.28,2.45,9.41.16.52.34,1,.53,1.55q1.53,6.3,3,12.61c-.26.23-.34.7-.17,1.41q1.68,6.89,3.34,13.76a8.21,8.21,0,0,0,1.41,2.82,2.3,2.3,0,0,0,.07.87c.08.31.16.63.23.94a14.21,14.21,0,0,0,1.44,5.77l.14.39c.18.6.37,1.2.57,1.79.34,1.24.58,2.51.81,3.78a6.17,6.17,0,0,0,.9,2.13,17.5,17.5,0,0,0-.54,7.54,5.78,5.78,0,0,0,.18.65c0,.1,0,.2,0,.31a3.87,3.87,0,0,0,.43,1.76,22,22,0,0,0-.52,2.38,3.18,3.18,0,0,0-1.25.51c-.66.51-.41,1.72-.25,2.35,0,.16.11.32.16.49l-.28.26a15.17,15.17,0,0,0-2.63,2.62,3.08,3.08,0,0,0-.13,2.73l0,0a1.46,1.46,0,0,0-1.39,0l-.39.53-.17.07A16.29,16.29,0,0,0,28,164.9a2.16,2.16,0,0,0-.08.71,1.66,1.66,0,0,0-.35.13l-1.39,1.62A2.45,2.45,0,0,0,26,169.7c0,.09.07.19.09.29l-.12,0a3.54,3.54,0,0,0-1,1,2,2,0,0,0-.19.35,1.71,1.71,0,0,0-.87-.28c-.75,0-.66,1.06-.14,2.33.5,2,2.66,5.28,4.27,5.28.38,0,.54-.28.54-.71a.67.67,0,0,0,.19-.44c.33.15.68.22.85,0l.08-.09h.76c.48,0,.64-.37.68-.76l.74.41a1.46,1.46,0,0,0,1.39,0l1.39-1.62a1.76,1.76,0,0,0,.42-1.21.89.89,0,0,0,.71-.66c.15-.26.31-.5.46-.75s.47-.61.72-.91l.18-.07.58-.77a1,1,0,0,0,.39-.92,2.57,2.57,0,0,0-.14-1.42c0-.13-.08-.26-.12-.39.65.34,1.17.39,1.43,0a17.5,17.5,0,0,1,2.91-2.86c.26-.23.49-.48.73-.73a.79.79,0,0,0,.71-.19,20.52,20.52,0,0,0,3-3.91,1.82,1.82,0,0,0,.07-1.16,38,38,0,0,0,8.31-8.29l.51-.06,9.7-2a14,14,0,0,0,1.94-.58c5.58-.89,11-2.54,16.59-3.6.83.66,2.21.69,3.23.87A4.36,4.36,0,0,0,89,145.6a38.44,38.44,0,0,1,1.91,8.79,4.22,4.22,0,0,0,.76,2.36,17.29,17.29,0,0,0,.58,3.78l0,1a3.9,3.9,0,0,0,.48,2.39c.42,2.46,1.17,4.76,1.77,7.18a48.91,48.91,0,0,1,1.08,8.26,9.1,9.1,0,0,0,1.52,4.11l.12,1.12a9.56,9.56,0,0,0,1,3.17c.3,4.5,1.82,8.78,1.85,13.38a6,6,0,0,0,.47,2.16c-.26.46.21,1.63.36,2a9.25,9.25,0,0,0,1.67,2.6,5.1,5.1,0,0,0,1.94,1.55l.52.12a.6.6,0,0,0,.56-.28c1.1.59,2.28.78,2.32-.89.93.33,1.76.22,1.65-1.27a35.56,35.56,0,0,0-1.35-7.51,14.46,14.46,0,0,0-.75-1.93Q106.39,189.26,105,181a11.84,11.84,0,0,0-1.28-3.57c-.11-1.49-.21-3-.3-4.46a8.32,8.32,0,0,0-1.15-3.48l0-3.4a7.11,7.11,0,0,0-1-3.17c5.18-1,10.36-2,15.54-3a9.19,9.19,0,0,0,.47,1.14l-1.7.69c-.77.31,1.19,3.71,2.33,3.25l1.92-.78a2.17,2.17,0,0,0,1.35.61,2.14,2.14,0,0,0,1.25-.53c.82.69,1.58,1,2,.6,2.43-2.49,4.75-5.09,7-7.77l8.7-1.67a9.52,9.52,0,0,0,2.7-1c4.64-.83,9.25-2,13.85-3.06a.78.78,0,0,0,.6-.66c7.4-1.28,14.81-2.53,22.25-3.6a3.58,3.58,0,0,0,2.57.58l9.16-2.46c2.89-.78,5.76-1.83,8.77-1.63.09.25.18.51.28.76a12.54,12.54,0,0,0,2.39,3.94q1.32,9.78,3.39,19.45a7.25,7.25,0,0,0,.37,1.18.82.82,0,0,0,0,.22q.78,5,1.57,10.08a12.52,12.52,0,0,0,4.12,7.14c.6.54,2.53,1.74,3.37,1.28a3.24,3.24,0,0,0,1.22.39l1.06-.2a.69.69,0,0,0,.78-.43.81.81,0,0,0,.17-.24C219,186.86,219.1,186.23,218.76,185.19ZM191,81.19a.62.62,0,0,0-.11.17c-.5-.49-1-.77-1.16-.53a47.1,47.1,0,0,1-4.28,5A10.35,10.35,0,0,0,182.59,90a1.36,1.36,0,0,0,.14.87c-.28.27-.59.51-.86.79l-.1.11L180.65,93c-.19-.09-.35-.09-.43,0a15.79,15.79,0,0,1-3.79,3.64s0,0-.05.07a.38.38,0,0,0-.27.19,1.13,1.13,0,0,0,0,1.07,106.18,106.18,0,0,0-12.58,1,8.31,8.31,0,0,0-2.74.93c-5.44-.09-10.87,0-16.29.29a103.21,103.21,0,0,0-3.7-10.79c0-.29-.09-.58-.14-.87a1.54,1.54,0,0,0-.11-.3,28.37,28.37,0,0,0-3.18-10.09,3.26,3.26,0,0,0-.46-.65c-.13-.6-.27-1.2-.38-1.81-.07-.37-.13-.72-.2-1a37.43,37.43,0,0,0-1.5-10.72q10.37,1,20.62,2.91a.93.93,0,0,0,.41.11c.7,0,1.4,0,2.1,0a1.49,1.49,0,0,0,.7.43c3.41.64,6.84,1.13,10.28,1.57a1.43,1.43,0,0,0,.74.44q13.88,1.89,27.62,4.46a1.67,1.67,0,0,0,.5.28Z" transform="translate(-11.8 -15.06)" style="fill-rule:evenodd"/><path d="M105,202.94a7.88,7.88,0,0,0-.91-2.08l-1-3.76c0-.08,0-.19-.09-.32-.12-.63-.23-1.25-.35-1.88a12,12,0,0,0-.45-1.82c-.47-4.47-.73-9.14-2.13-13.39a11.52,11.52,0,0,0-.66-1.67s0-.07,0-.11a14,14,0,0,0-.61-3.22,24.06,24.06,0,0,0-.66-4.29c0-.2-.11-.39-.16-.58a.83.83,0,0,0,.11-.15c1-1.43,0-4.76-.54-6.16-1.86-4.47-2.34-9.39-3.45-14.13-.36-2.36-.8-4.7-1.34-7a10.59,10.59,0,0,0-.44-4.68c-1.71-5-1-10.59-2.6-15.72a11.13,11.13,0,0,0-.61-1.59,10.83,10.83,0,0,0-.9-3.92c0-.07,0-.13,0-.22,0-.61-.14-1.24-.22-1.85-.15-1.36-.31-2.71-.47-4.07a14.46,14.46,0,0,0-.82-3.74,39.35,39.35,0,0,0,.68-4.48,4.71,4.71,0,0,0,.81-2.21l0-.18c.55-1,1.07-2,1.57-3a13.12,13.12,0,0,0,2.65-2.43,8.73,8.73,0,0,0,1.66-2.76c.12-.36.43-1.44-.07-1.76L94,89.66a.45.45,0,0,0-.34-.12,1.26,1.26,0,0,0-.27,0,1.81,1.81,0,0,0-1.27.22h-.27a.93.93,0,0,0-.23,0,1.75,1.75,0,0,0-1,0l-.46-.24a.64.64,0,0,0-.53-.26h-.06a2,2,0,0,0-1.5.33,8.82,8.82,0,0,0-2.41,2.14A8.66,8.66,0,0,0,84,94.5l0,.09c-.12.25-.23.51-.34.78l0,.11,0,.1c-.06.08-.11.16-.16.24a14,14,0,0,0-1.29,1.34c-1.48,1.8-3,3.61-4.38,5.45-.18.22-.35.45-.52.68l-.25.13a5,5,0,0,0-2.3,3s0,.09,0,.14-.22.21-.33.32c-1.42.49-3,2.63-3.58,3.44a34.18,34.18,0,0,0-3.34,5.81l-3.48,3.48A12.53,12.53,0,0,0,61.34,123c-1.07,1.36-2.12,2.73-3.14,4.13l-1.1,1.44c-.18.24-.52.67-.86,1.17a31.91,31.91,0,0,0-5.12,5.46c-1.16,1.46-2.24,3-3.26,4.53A5.92,5.92,0,0,0,45.31,141l-.14.12-.09-.13a3.76,3.76,0,0,0-1.77-1.46l-.62-.19a1.74,1.74,0,0,0-.78-.39.81.81,0,0,0-.35,0l-.21-.08a8.09,8.09,0,0,0-1.47-2.07l-.23-.21c0-.16-.09-.32-.13-.48-.5-2.35-1.1-4.68-1.78-7a13.34,13.34,0,0,0-1.11-2.52,42.76,42.76,0,0,0-1.51-5.89l-.69-4.08a8.06,8.06,0,0,0-.57-1.79c-.26-1.86-.55-3.71-.93-5.55a12.21,12.21,0,0,0-.68-2.17c-.3-1.27-.63-2.53-1-3.78a13,13,0,0,0-.92-2.18c-.15-.86-.31-1.72-.47-2.58a10.41,10.41,0,0,0-1-2.87l-.27-1.87A11.69,11.69,0,0,0,27,89.45c-.21-1.24-.43-2.49-.7-3.72a12.07,12.07,0,0,0-.93-2.68,3.19,3.19,0,0,0,.14-1.28,6.28,6.28,0,0,0-.25-1.38,10.75,10.75,0,0,0-.79-3.31L24,76.23a2.56,2.56,0,0,0-.93-1,1.38,1.38,0,0,0-1.19.1l-.09,0-.19-.16a1.88,1.88,0,0,0-.74-.32c-.74-.07-1.13.38-1.21,1.1a6.88,6.88,0,0,0,.43,2.77l.13.34c.06.24.14.47.21.71s0,.31,0,.42l.15,1.93a10.7,10.7,0,0,0,.8,3.38,4.24,4.24,0,0,0,1.2,1.77A11,11,0,0,0,24,90.86l.38,2.61a12.15,12.15,0,0,0,1.23,3.89l.6,3.24a10.27,10.27,0,0,0,1.58,3.83,25.53,25.53,0,0,1,.53,3.11,10.54,10.54,0,0,0,.8,3c0,.25.07.5.1.75a11.19,11.19,0,0,0,.75,2.83c.12.73.25,1.46.37,2.2a7.87,7.87,0,0,0,.46,2.49l0,.07a9,9,0,0,0,.38,1.06,18.33,18.33,0,0,1,.89,3.61,13.44,13.44,0,0,0,.5,2.11,13.22,13.22,0,0,0,.93,2.92A36.78,36.78,0,0,1,35,133c.14.67.27,1.35.4,2a8.19,8.19,0,0,0,.29,1.13c.06.31.13.63.18.94a10.92,10.92,0,0,0,1.25,3.35l.26,6.29a6.75,6.75,0,0,0,.17,1.22,11.93,11.93,0,0,0-.6,3.29,12.61,12.61,0,0,0-1.81,3.87c-.1.37-.18.73-.27,1.1a27.18,27.18,0,0,0-4.84,8c-.52.76-1,1.55-1.46,2.35-.19.24-.36.48-.51.68-.44.6-.84,1.22-1.22,1.86a12.15,12.15,0,0,0-2.95,4.32c-.19.47-.5,2,.5,1.93l1.21-.09a.77.77,0,0,0,.22.35,3.09,3.09,0,0,0,3,.49c1.06.27,2.79-1.45,3.52-2.27.48-.46.93-1,1.35-1.44a9.36,9.36,0,0,0,1.23-1.8,11.27,11.27,0,0,0,3-3.14c1-1.61,2-3.24,3-4.88a35.51,35.51,0,0,0,5.1-5.44,11.4,11.4,0,0,0,3.18-3.83c2-3.65,5.58-6.29,7.73-9.88a12,12,0,0,0,1-1.9c1.87-2.3,4-4.52,5.49-7.09a40.21,40.21,0,0,0,3.95-5.29c.32-.49.67-1,1-1.49a21.51,21.51,0,0,0,4.66-5.76l.08-.16a19.16,19.16,0,0,0,2.07-2.93A19.45,19.45,0,0,0,78.19,115a.61.61,0,0,0,.57.35,2.09,2.09,0,0,0,1.07-.3,1.3,1.3,0,0,0,.1.15l.09,0a1.85,1.85,0,0,0,1.6-.12,7.49,7.49,0,0,0,.47,1.08,41.33,41.33,0,0,0,2.35,5.32,13,13,0,0,0,.92,3.83c1.28,3.12,1.11,6.9,1.66,10.2a11.38,11.38,0,0,0,.9,2.89c0,.38,0,.72,0,.93A121.3,121.3,0,0,0,90.17,155c.17.81.72,3.42,1.82,4a6.05,6.05,0,0,0,.59,1.28q.63,2.92,1.23,5.85a21.23,21.23,0,0,0,.83,4.36l0,.13c0,.09,0,.17,0,.25a14.64,14.64,0,0,0,.47,1.85c0,.4.12.91.13,1.07a12.28,12.28,0,0,0,.63,3.29q.38,4.78,1.2,9.52a9.88,9.88,0,0,0,1.09,3.23c.19,1.29.39,2.58.58,3.86a11.32,11.32,0,0,0,.79,2.68c.31,1.69.62,3.37.92,5.06a14,14,0,0,0,.46,1.8,13.13,13.13,0,0,0,.76,2.73,5,5,0,0,0,2.07,2.71,1.19,1.19,0,0,0,1.09-.11,3.55,3.55,0,0,0,.59-2.21A10.79,10.79,0,0,0,105,202.94Z" transform="translate(-11.8 -15.06)" style="fill-rule:evenodd;fill:url(#linear-gradient)"/><path d="M204.25,75.08c-.32,0-.63,0-.95.08a.71.71,0,0,0-.41-.18,31.88,31.88,0,0,1-4.57-.8c-.79-.19-1.67.57-2.4,1.6a10.3,10.3,0,0,0-1.44,1.36A10.13,10.13,0,0,0,193,79.3c-.09.19-.19.43-.28.67l-.26.14A10.57,10.57,0,0,0,188.8,84c-.06.12-.16.3-.27.49l0,0a5,5,0,0,0-1.78,1.69,4.94,4.94,0,0,0-.57.49.47.47,0,0,1-.1.1l-.37.3,0,0h0l-.59.31a5,5,0,0,0-1.54,1.43,9.06,9.06,0,0,0-.89,1.45,4.15,4.15,0,0,0-.8.64l-.84.87a4.69,4.69,0,0,1-.53,0c-1.84-.06-4.61,5.85-2.81,5.91a12.91,12.91,0,0,0,4.57-.8.64.64,0,0,0,.28,0c.37-.08.74-.13,1.12-.19a.73.73,0,0,0,.31.13,37.4,37.4,0,0,0,7.84.34,1.71,1.71,0,0,0,1-.48,1.07,1.07,0,0,0,.4,0l.07,0,.18.15c.41.29,1,.78,1.58.68a4.08,4.08,0,0,0,2.46-1.08,3,3,0,0,0-.13-3.53,10.28,10.28,0,0,0-.74-1.08c.06-.49,0-.92-.34-1,.13-.68.25-1.36.34-2,.3-1.13.61-2.27,1-3.39a6.59,6.59,0,0,0,.77-.87,12.4,12.4,0,0,0,.68-1l.21-.16a11.6,11.6,0,0,0,2-2.4l.26,0c1.32-.16,2.41-2,2.9-3.09C204.54,77.45,205.53,74.92,204.25,75.08Z" transform="translate(-11.8 -15.06)" style="fill-rule:evenodd;fill:url(#radial-gradient)"/><path d="M214.5,186.31a23.19,23.19,0,0,0-.67-2.44,9.92,9.92,0,0,0-.47-1.2,2.57,2.57,0,0,0-.35-.87,5.15,5.15,0,0,1-.35-1.2,2,2,0,0,0-.13-.46c-.18-.71-.37-1.42-.55-2.13,0-.18-.07-.37-.11-.55.22,0,.36-.16.27-.55l-1.93-8.55c.34.08.62,0,.51-.53q-1.25-6.11-2.47-12.2a4,4,0,0,0-.76-1.52c-.39-1.89-.25-4.05-.7-5.84a20.17,20.17,0,0,0-.84-2.56c-.23-1-.46-2-.7-3a3.51,3.51,0,0,0-.24-.66,50.13,50.13,0,0,0-2-10.42,4.32,4.32,0,0,0-.25-.55,7.79,7.79,0,0,1,.48-.65c.84-1-2.28-4.19-3-3.39-.15.18-.29.36-.43.55a1,1,0,0,0-1.06-.16.69.69,0,0,0-.29.39l-.13-.06c-.7-.27-1.27-.12-.88.78l1,2.33a7.37,7.37,0,0,0-.13,1.14,2.94,2.94,0,0,0,.79,1.86c.09.53.17,1.06.26,1.59-.43-.15-.67,0-.41.74.35,1,.67,2,1,3,.52,3.36,1,6.71,1.48,10.07a5.28,5.28,0,0,0,1.9,2.31c.18.81.38,1.62.55,2.44a2.23,2.23,0,0,0,.51.88c0,.17,0,.33.07.49-.34-.06-.6,0-.5.55.65,3.12,1.43,6.2,2.31,9.26.76,3.49,1.61,7,2.51,10.41.16.74.3,1.49.44,2.24-.5-.09-.68.24-.49.91.55,1.91,1,3.86,1.65,5.75.36,1.16,1.71,3.6,3.24,3.34.29,0,.35-.32.24-.7a.39.39,0,0,0,.34-.28v0C214.43,186.85,214.56,186.7,214.5,186.31Z" transform="translate(-11.8 -15.06)" style="fill:#69120d;fill-rule:evenodd"/><path d="M128.76,157.31a15.73,15.73,0,0,0-1.81.54,1.3,1.3,0,0,0-1.25-.32,18.21,18.21,0,0,0-2.75,1.65c-1.23.07-2.45.18-3.67.36a1.69,1.69,0,0,0-1,.58H118a1.86,1.86,0,0,0-1,.63,5.36,5.36,0,0,0-1,1.44c-.14.33-.79,2,.07,1.88a6.81,6.81,0,0,1,1,0,3.28,3.28,0,0,0,1.42.28l.14,0,.7.05s0,0,.08.06a4.55,4.55,0,0,0,2,.22,1.46,1.46,0,0,0,.7-.33,2.94,2.94,0,0,0,.65.31l.09,0c.41.11.56-.05.59-.29.21-.1.51-.19.7-.3a7.14,7.14,0,0,0,.82-.63,4.06,4.06,0,0,1,1.73-1.11c.24,0,.32-.25.29-.53.52-.31,1.05-.61,1.6-.87.26-.13.16-.6-.13-1.17a4.5,4.5,0,0,0,.3-.57C129,158.94,129.6,157.11,128.76,157.31Z" transform="translate(-11.8 -15.06)" style="fill:#69120d;fill-rule:evenodd"/><path d="M200.15,140.52a9.73,9.73,0,0,0-.29-1.86,6.23,6.23,0,0,0-.43-1.13c0-.11,0-.22.08-.33a3.61,3.61,0,0,0-.68-2.2,11,11,0,0,0-.66-1,4,4,0,0,0-.2-1.29.67.67,0,0,0-.1-.19,8.69,8.69,0,0,0-.32-1.66c.06-.89.06-2.05-.7-2.55a1.14,1.14,0,0,0-1.12.15,2.11,2.11,0,0,0-.66.1,4,4,0,0,0-1.19.66l-1.11.2a2.78,2.78,0,0,0-1,.47,8.61,8.61,0,0,0-2.92,0,73.15,73.15,0,0,0-8.81,1.67,3.09,3.09,0,0,0-.66.25c-1.59.19-3.18.42-4.76.74a3.29,3.29,0,0,0-1.44.73,15.14,15.14,0,0,0-4.48.66,2.31,2.31,0,0,0-.69.45,46.62,46.62,0,0,0-10.83,2.27,33.57,33.57,0,0,0-3.91.92,12.37,12.37,0,0,0-5.31.18,55.4,55.4,0,0,0-9.72,2.63,36.59,36.59,0,0,0-6.43,1.14,59.2,59.2,0,0,0-15.71,2.74,9.43,9.43,0,0,0-2.35.6c-.83.26-1.64.57-2.44.89a.69.69,0,0,0-.29-.36,1.1,1.1,0,0,0-1,.08,12.44,12.44,0,0,0-2.23-.48c-.44-.05-1.07.45-1.51.86a.76.76,0,0,0-.16,0h-.34a2.49,2.49,0,0,0-.6.2,3.43,3.43,0,0,0-2.17.06,1.87,1.87,0,0,0-1.15-.28c-.69-.35-1.49-.56-2,0s0,2.07.24,2.78.39,1.25.61,1.87a11,11,0,0,0,.21,2,3.53,3.53,0,0,0,.24.76,4.36,4.36,0,0,0,.25,1.44,1.6,1.6,0,0,0,.18.67,5.72,5.72,0,0,0-.1,3.18c.24.89.78,1.65,1,2.54a.58.58,0,0,0,.26.34.67.67,0,0,0,.28.19.88.88,0,0,0,1.11,0,8,8,0,0,0,.66-.48,5,5,0,0,0,2-.61,1,1,0,0,0,.59.28,15.06,15.06,0,0,0,6.91-.86,2.57,2.57,0,0,0,.67-.41,5.68,5.68,0,0,0,3.87-.92,5.55,5.55,0,0,0,.77-.53c1.45-.26,2.91-.52,4.36-.8a.71.71,0,0,0,.09.07c2.36.87,4.5-.08,6.46-1.33l1.89-.4A80,80,0,0,0,147.13,153a3,3,0,0,0,.62-.26l.43-.07a10.35,10.35,0,0,0,2.9-.61c3.75.2,7.29-1,10.82-2.17a2.64,2.64,0,0,0,.29-.15c.81-.11,1.61-.21,2.41-.29.14.41.48.58,1.11.35s1.09-.37,1.64-.56l.58,0a2.21,2.21,0,0,0,1.22-.58l.78-.24a34.08,34.08,0,0,0,7.14-1.16c3,.74,6.57-.39,9.39-1.71a10.92,10.92,0,0,0,3.61-.66,5.5,5.5,0,0,0,.94-.47.63.63,0,0,0,.78.43,3.74,3.74,0,0,0,1-.35h.11a18.63,18.63,0,0,0,3.78-.76l.4,0c.57.2,1.07.21,1.24-.25a3.88,3.88,0,0,0,1.33-.67.58.58,0,0,0,.4-.47l.06-.08A2.07,2.07,0,0,0,200.15,140.52Z" transform="translate(-11.8 -15.06)" style="fill-rule:evenodd;fill:url(#radial-gradient-2)"/><path d="M217.34,183.09q-.76-4.17-1.51-8.34a6.89,6.89,0,0,0-.66-1.91v-.15a5.17,5.17,0,0,0-.59-2.18,4.32,4.32,0,0,0-.18-2l-.09-.38c.53-.23.38-1.27.28-1.75a73.73,73.73,0,0,0-2-7.73,6.61,6.61,0,0,1,.23-1.57,4.35,4.35,0,0,0-.59-3,2.24,2.24,0,0,0-.78-.81c-.65-4.28-1.62-8.48-2.57-12.72a.72.72,0,0,0,0-.31,15.1,15.1,0,0,1-.58-5.63,2.65,2.65,0,0,0-.89-1.87,5.7,5.7,0,0,1-.07-.92.45.45,0,0,0,.17-.24l.06-.2a1.57,1.57,0,0,0-.29-1,4.45,4.45,0,0,0-.22-1.58,4.51,4.51,0,0,0-.69-1.45c-.17-.23-.43-.53-.75-.47l-2.12.41c-.3.06-.36.61-.38.8a4.56,4.56,0,0,0,.22,1.6,4.51,4.51,0,0,0,.69,1.45,1.81,1.81,0,0,0,.33.35.06.06,0,0,1,0,0,4.2,4.2,0,0,0,.22.55.3.3,0,0,0-.35.3,9.54,9.54,0,0,0,.35,3.79,4.48,4.48,0,0,0,1,1.66c0,.05,0,.1,0,.14a3.38,3.38,0,0,0,.3.74,4,4,0,0,0,.16,1.36c1.54,5.67,2,11.47,3,17.25a150.18,150.18,0,0,0,3.77,15.32c0,.15.09.28.13.41a18.91,18.91,0,0,0,.58,3.51c0,.28.05.56.08.83a8.15,8.15,0,0,0,.39,1.73l0,.23,1.19,7.35c.26,1.57,1.78,3.14,1.94,1.74a.3.3,0,0,0,.31-.18C218.36,186.69,217.64,184.74,217.34,183.09Z" transform="translate(-11.8 -15.06)" style="fill-rule:evenodd;fill:url(#linear-gradient-2)"/><path d="M207,75.67a.88.88,0,0,0-.75.29c-.07-.07-.15-.09-.2,0l-.13.22,0,0-.24.41a3.15,3.15,0,0,0-.42.65.07.07,0,0,0,0,0l-.81,1.32a.4.4,0,0,0-.07.24c-.55.71-1.08,1.43-1.56,2.19-.12-.19-.25-.31-.32-.2-.51.75-1,1.53-1.47,2.31-.07-.06-.14-.07-.19,0a12.4,12.4,0,0,0-1.36,2c-.17.22-.33.44-.48.67a7.44,7.44,0,0,0-.44.78,3.81,3.81,0,0,1-.29.62.11.11,0,0,0-.12,0l-.13.14c-.15.16-.06.75.14,1.11a.13.13,0,0,0,0,.06,1,1,0,0,0-.3,0c-.15,0-.17.22-.14.44-.4.12-.47.74-.49,1.06a30.57,30.57,0,0,0-.06,3.83,5.68,5.68,0,0,0,1.56,3.82c1,.84,1.17-.81,1.14-1.47,0,0,0-.34,0-.44s0-.43,0-.65c0-.49,0-1,.08-1.47a6.26,6.26,0,0,0-.85-3.54c.13,0,.17-.17.17-.33a1.57,1.57,0,0,0,0-.3.61.61,0,0,0,.07-.39,1.25,1.25,0,0,0,0-.19c.48-1.07,1-2.11,1.55-3.13.11-.14.24-.27.36-.4.09.12.18.18.23.1A65.42,65.42,0,0,1,205.9,79a.38.38,0,0,0,.06-.17l.84-.92a.06.06,0,0,0,0,0c.14-.15.27-.31.42-.46a.39.39,0,0,0,.06-.29.57.57,0,0,0,.11-.11C207.61,76.77,207.36,75.76,207,75.67Z" transform="translate(-11.8 -15.06)" style="fill-rule:evenodd;fill:url(#linear-gradient-3)"/><path d="M108.84,205.13a1.36,1.36,0,0,0,.22-1.12c-.26-1.92-.57-3.81-1-5.7a8.13,8.13,0,0,0-.58-1.78q-.93-5.07-1.72-10.15a14.45,14.45,0,0,0-.15-1.65,20.69,20.69,0,0,0-.94-3.76c0-.24-.06-.48-.1-.7a3.91,3.91,0,0,0-.33-1.77c-.07-.14-.11-.28-.17-.41-.54-2.87-.65-5.8-1.54-8.62,0-.07,0-.16-.09-.26-.08-.46-.18-.9-.3-1.34a26.93,26.93,0,0,0-.71-3.71l-.06-.18c-.27-2-.59-4-1-5.95V158c.38-.6-.16-2.25-.35-2.67-.72-1.67-.64-3.58-1-5.36a23.06,23.06,0,0,0-1.16-4.13A34.14,34.14,0,0,0,97.4,142a4.16,4.16,0,0,0-.1-.94c-.82-3.85-.89-7.76-2.27-11.49a4.39,4.39,0,0,0-.24-.51l-.07-.27a6.27,6.27,0,0,0-.32-.87c-.11-.75-.16-1.53-.27-2.25L93.55,122a7.08,7.08,0,0,0-.33-1.21c0-.11,0-.21,0-.32a2.15,2.15,0,0,0,.1-1,3,3,0,0,0,0-.72l0-.27a6.05,6.05,0,0,0-.46-1.89c-.26-1.13-.47-2.26-.79-3.37a4.51,4.51,0,0,0-.06-1.23c-.08-.6-.17-1.21-.26-1.82v-.32a5.49,5.49,0,0,0-.29-1.88c0-.45,0-.9,0-1.36a5,5,0,0,0-.47-2.31.84.84,0,0,1,.05-.17c.16-.75.28-1.5.38-2.26a.48.48,0,0,0,0-.12c.13-.36.27-.71.41-1.06a.37.37,0,0,0,.39-.14l1.45-1.74a1,1,0,0,0,.16-.46.62.62,0,0,0,.09-.12,11,11,0,0,1,2.59-3.45c.24-.19.2-.92.18-1.14s0-.19,0-.29.08.07.11.11.27.09.48,0c.76,0,2.22-1.94,1.66-2.37a.94.94,0,0,0-.18-.12.67.67,0,0,0,0-.2c.08-.28.08-.52-.19-.49a2.89,2.89,0,0,0-.72.16,5.52,5.52,0,0,1-.53-.18c-.29-.11-.66.09-1,.41a2.82,2.82,0,0,0-.56.31c-.24-.3-.55-.47-.87-.22a10.88,10.88,0,0,0-2.59,3.46,1.89,1.89,0,0,0-.18.52l-.08.06-.35.42c-.28-.32-.57-.51-.76-.16a23.66,23.66,0,0,0-2.29,6.69,4.57,4.57,0,0,0,0,1c0,.17-.07.33-.09.5a2.17,2.17,0,0,0,0,.44.91.91,0,0,0-.22.62c0,.13,0,.25,0,.37-.56,1-.11,3.82-.07,4.32.13,1.39.2,3.43,1,4.76a7,7,0,0,0,.23.87,18.54,18.54,0,0,0,.27,2.45c.09,1,.2,2,.33,3a5.59,5.59,0,0,0,.8,2.53c0,.16.07.32.12.48a30.48,30.48,0,0,0,1,4.92,4.29,4.29,0,0,0,.09.89c.63,3.26.65,6.54,1.1,9.81a9.57,9.57,0,0,0,1.28,4.31c0,.52.08,1,.15,1.57a20.57,20.57,0,0,0,.7,2.89c.11.64.24,1.28.38,1.92l-.06.07a3.22,3.22,0,0,0,.1,2.12s.15.69.07.25c0,0,0,.27.07.37v.06c0,.12,0,.24,0,.35s0,.48,0,.36a5.13,5.13,0,0,0,.78,2.85,2,2,0,0,0,.28.33c0,.16,0,.32.06.51q.87,5.63,2.12,11.16a3.78,3.78,0,0,0,.06,1.19,83.3,83.3,0,0,0,1.93,10.15,3.32,3.32,0,0,0,.06.41q.69,3.64,1.3,7.31c-.38.75.21,2.2.56,2.92,0,.1,0,.19.07.25a57,57,0,0,1,1.6,7.53,1.39,1.39,0,0,0,0,.3,25.78,25.78,0,0,0,.89,7,2.3,2.3,0,0,0,0,.79c-.23,1.33.93,4,1.69,3.66.46-.22,1.12-.55,1-1.07.31.36.64.46.87-.13A4.1,4.1,0,0,0,108.84,205.13Z" transform="translate(-11.8 -15.06)" style="fill-rule:evenodd;fill:url(#linear-gradient-4)"/><path d="M210.05,124c-.08-.15-.18-.29-.27-.43a.3.3,0,0,0-.11-.22l0,0a4,4,0,0,0-.72-.76c0-.2,0-.34-.23-.31l-.17,0a3.25,3.25,0,0,0-.61-.33c-.29-.13-.67.09-1,.43l-.13,0a.45.45,0,0,0-.29,0l-2.52.64-.13,0c.05-.27,0-.45-.34-.39s-.84.18-1.26.29h0l-5,1.13a10.19,10.19,0,0,0-3.49.49l-6.56,1.6a1.11,1.11,0,0,0-.47.3l-.85.1a1.47,1.47,0,0,0-.8.55h-.55c-.64,0-1.29,0-1.93.07,0-.08-.12-.13-.29-.09q-4.92,1.27-9.9,2.32a.52.52,0,0,0-.16.06c-2.65.23-5.41,1-7.78,1.39a.94.94,0,0,0-.38.2c-1.32.12-2.63.23-4,.31a1.38,1.38,0,0,0-.77.48c-.52,0-1,.09-1.55.18-.35,0-2.49.47-4.11.94a.28.28,0,0,0-.25,0l-1.35.39a10.41,10.41,0,0,0-1.36.12,35.92,35.92,0,0,0-4.25.4,2.46,2.46,0,0,0-1.47,1.18l0,.07a28.06,28.06,0,0,0-6.72.39,2.41,2.41,0,0,0-1,1c-1,.17-1.92.32-2.88.51-1.27-.85-3.67,0-5.07.26a14.19,14.19,0,0,0-5.33,1.59,3.22,3.22,0,0,0-.57.59l-.3.1-1.87.13c-.46-.3-1.42,0-1.85.07a15.77,15.77,0,0,0-3.16.88l-.12.07c0-.26-.26-.34-.64-.13a6.17,6.17,0,0,1-.87.4c-.49.07-1,.15-1.47.2,0-.26-.25-.33-.62-.16a2.38,2.38,0,0,1-1.85-.07c-.23-.11-.52,0-.81.23a6.58,6.58,0,0,1-.38-.54c-.27-.49-.94.13-1.19.37s-1.13,1.22-.87,1.67a5.26,5.26,0,0,0,2.79,2.46c.45.17,1.07-.39,1.5-1a24.33,24.33,0,0,0,4.34-.4,7.14,7.14,0,0,0,3.26-.87l.17-.12c1.19-.16,2.39-.47,3.47-.66a.84.84,0,0,0,.35-.18l.17,0c0,.09.16.12.35,0l.27-.1.21,0a.61.61,0,0,0,.28-.09,2.3,2.3,0,0,0,1.27.05c1.75-.31,3.49-.91,5.21-1.37a1.4,1.4,0,0,0,.47-.24c0,.16.11.25.35.2l1.95-.43a.42.42,0,0,0,.19,0c1.91-.39,3.8-.8,5.7-1.23a.38.38,0,0,0,.18,0l1.56-.39,1.61-.37a.6.6,0,0,0,.16-.08l1-.26c.48,0,1,0,1.45,0a.84.84,0,0,0,.45-.18c-.11.35-.06.59.31.53,3.48-.57,7.21-.86,10.49-2.22a2.6,2.6,0,0,0,.56-.35c1.62-.23,3.26-.38,4.91-.45.37,0,.82-.45,1.17-.94,2.19-.29,4.38-.6,6.57-1h0c.45,0,.9,0,1.35,0s.71-.33,1.05-.74l.21,0a.69.69,0,0,0,.22-.1l.89-.07a7.6,7.6,0,0,1,.83.16,1,1,0,0,0,.75-.32,77.32,77.32,0,0,0,9.14-1.59,1.39,1.39,0,0,0,.58-.42,19.65,19.65,0,0,0,2.74-.39c1,0,2,0,3,0a1.55,1.55,0,0,0,.95-.62c1,0,2.07,0,3.12.05.4,0,.92-.5,1.31-1.07,0,.22.08.35.36.3l.44-.08a.68.68,0,0,0,.52-.09q3-.54,6.07-1a.89.89,0,0,0,.26-.09,19.34,19.34,0,0,0,2.45-.58,2,2,0,0,0,.65-.41l.05,0c.13.21.4.13.65,0a2.7,2.7,0,0,1,.25.34c.27.5,1-.13,1.19-.37a3.46,3.46,0,0,0,.69-.93C210,124.55,210.15,124.18,210.05,124Z" transform="translate(-11.8 -15.06)" style="fill-rule:evenodd;fill:url(#radial-gradient-3)"/><path d="M38.76,166.18c-.31.37-.13.17,0,0Z" transform="translate(-11.8 -15.06)" style="fill-rule:evenodd;fill:url(#linear-gradient-5)"/><path d="M81,115.73c0-.43-.59-.39-.85-.31a4,4,0,0,0-1.53,1.06A6.13,6.13,0,0,0,77,119a17.57,17.57,0,0,0-4,5.37,4,4,0,0,0-.86.53,7.22,7.22,0,0,0-1.55,1.71,3.81,3.81,0,0,0-.75,1.71c0,.07,0,.14,0,.21-.79,1-1.52,2-2.21,3.07-.18.18-.31.34-.39.42-.86,1-1.69,2-2.49,3A9,9,0,0,0,63,137l-.63.89-.19.26-.14.19c-.45.58-.9,1.15-1.36,1.71a9.26,9.26,0,0,0-.86,1.27,5.84,5.84,0,0,0-.54.46c-1.22,1.29-2.41,2.61-3.54,4a10,10,0,0,0-.64.88l-.23.34-1.86,3a7.67,7.67,0,0,0-.74.61,27.51,27.51,0,0,0-3.19,3.55,8.08,8.08,0,0,0-1,1.5l-.13.13-1.64,1.85a6.2,6.2,0,0,0-.94,1.46,6.26,6.26,0,0,0-1.06.83l-2,2.06A7.83,7.83,0,0,0,41,163.73l-.15.32a3.4,3.4,0,0,0-.46.33,7.87,7.87,0,0,0-1.55,1.71l-.07.09.14-.17-.31.39c-.1.09-.2.21-.29.3a7.37,7.37,0,0,0-1.37,1.82c0,.06-.09.11-.12.15l-2.15,2.59a6.06,6.06,0,0,0-1.09,1.85c-.1.29-.27.91,0,1.17.79.66,2.4-1.18,2.76-1.61l2.15-2.59a7.33,7.33,0,0,0,.83-1.25,19.73,19.73,0,0,0,2.13-2.61,6.18,6.18,0,0,0,.53-1,5.71,5.71,0,0,0,1-.79l2-2.06a7.61,7.61,0,0,0,1.39-1.85l.08-.18h0a7,7,0,0,0,1.6-1.43c.54-.62,1.09-1.23,1.64-1.85a6,6,0,0,0,.94-1.46l.13-.17c.36-.48.84-.92,1.17-1.42l.2-.22.75-.73.18-.18a6.72,6.72,0,0,0,2.13-2.17l2.32-3.68.08-.14.75-.86c.07.28.3.44.79.3,1.26-.37,2.33-1.83,2.92-2.92.35-.64.68-1.24,1.08-1.86s.95-1.41,1.17-1.71a6.13,6.13,0,0,0,1.26-2.23c.39-.54.76-1.07,1.17-1.59a6.62,6.62,0,0,0,2.55-2.78,24,24,0,0,1,1.3-2.1,3.85,3.85,0,0,0,.76-.49,6.66,6.66,0,0,0,2.16-3c.33.19.85-.06,1.1-.2a6.62,6.62,0,0,0,2.69-3.28c.14-.37.26-.74.39-1.11a7.59,7.59,0,0,0,2.18-2.56A7.88,7.88,0,0,0,81,115.73Z" transform="translate(-11.8 -15.06)" style="fill-rule:evenodd;fill:url(#linear-gradient-6)"/><path d="M107.91,143.43c-.19-.68-.39-1.35-.59-2-.12-.4-.73-.5-1-.54a5.47,5.47,0,0,0-1.5.08l-.22-.47a1.22,1.22,0,0,0-1-.54,5.66,5.66,0,0,0-2.13.23,5.59,5.59,0,0,0-2,.85c-.31.23-.73.54-.66,1,.14.82.27,1.64.41,2.47.06.39.78.5,1,.53a5.47,5.47,0,0,0,1.88-.16l0,.12c.12.39.73.49,1,.53a5.89,5.89,0,0,0,2.13-.22,5.78,5.78,0,0,0,2-.85C107.54,144.2,108,143.84,107.91,143.43Z" transform="translate(-11.8 -15.06)" style="fill-rule:evenodd;fill:url(#linear-gradient-7)"/><path d="M87.7,142.85c0-.26-.35-.4-.64-.47-.08-.2-.35-.35-.92-.39a91.6,91.6,0,0,0-20.06.88,5,5,0,0,0-1.81,0,6.8,6.8,0,0,0-2.2.69c-.4.21-1,.52-1.17,1l-.11.37a1.14,1.14,0,0,0-.09.26l-.06.07c-.62,1.08.53,1.18,1.43,1.2,3.68.07,7.35.05,11-.06h.16a3.85,3.85,0,0,0,2.12.16,43.17,43.17,0,0,1,6.43-.46l.49,0a1.9,1.9,0,0,0,.91.31,5.91,5.91,0,0,0,2.13-.22,5.61,5.61,0,0,0,2-.86c.3-.23.73-.54.65-1Z" transform="translate(-11.8 -15.06)" style="fill-rule:evenodd;fill:url(#linear-gradient-8)"/><path d="M73,146.35c-3,.29-6.73.08-9.52,1.33.82-1.53-4.49-.84-5.37.37a13.43,13.43,0,0,0-1,1.51c-.32.59.68.83,1,.85a18.21,18.21,0,0,0,6.93-.89l5.47-.55c1.09-.11,3.25-.35,3.87-1.42S74,146.26,73,146.35Z" transform="translate(-11.8 -15.06)" style="fill-rule:evenodd;fill:url(#linear-gradient-9)"/><path d="M46.42,137.78a4.31,4.31,0,0,0-1.35.3,12.43,12.43,0,0,1-1.21-2.52.47.47,0,0,0-.41-.29c-.67-1.51-.79-3.22-1.44-4.76a.45.45,0,0,0-.22-.21,11.32,11.32,0,0,1-.6-1.69,10,10,0,0,0-.85-2.68s0-.05-.06-.07a23.22,23.22,0,0,0-1.09-5,.44.44,0,0,0-.25-.23c-.21-.83-.38-1.67-.52-2.52.18-.15.28-.31.24-.48a32.91,32.91,0,0,0-.89-3.34c-.2-.61-.46-1.22-.65-1.84a25.14,25.14,0,0,0-1.1-5.15.37.37,0,0,0-.26-.24c-.21-.7-.42-1.41-.61-2.11-.11-.42-.21-.83-.33-1.24s-.23-.87-.34-1.3a.31.31,0,0,0-.11-.16c-.37-1.12-.8-2.22-1.27-3.3.19-.15.3-.32.24-.48-.31-.88-.42-1.83-.64-2.73.37-.19.63-.44.57-.69A40.63,40.63,0,0,0,31.8,90a.38.38,0,0,0-.09-.13c-.22-.85-.45-1.7-.66-2.56,0-.15-.18-.24-.39-.28-.1-.39-.22-.77-.35-1.15.16-.14.24-.29.19-.43-.22-.67-.41-1.36-.58-2a.28.28,0,0,0,0-.09,31.12,31.12,0,0,0-1.13-4.47.36.36,0,0,0-.13-.17,24.46,24.46,0,0,0-.6-2.53c-.05-.19-.26-.28-.54-.31a.64.64,0,0,1,0-.07c-.14-.73-3.06-.06-2.9.76a21.79,21.79,0,0,0,.57,2.25c.06.17.25.26.51.3.07.31.13.62.19.93,0,.1.09.17.21.22.2.69.39,1.38.56,2.07,0,0,0,0,0,0a26,26,0,0,0,.71,3c-.19.15-.29.31-.23.46a23.53,23.53,0,0,1,1.31,5.11c0,.17.23.27.53.29.25,1,.49,2,.76,2.93,0,0,0,0,0,0-.43.21-.73.46-.62.64.79,1.25.82,2.74,1.24,4.13-.23.16-.35.33-.28.48a39.29,39.29,0,0,1,1.86,5.09c.14.56.28,1.13.44,1.69,0,.11.06.21.08.32s0,0,0,.08c.25.86.5,1.72.78,2.58a.37.37,0,0,0,.23.23,23.49,23.49,0,0,1,.54,2.49.5.5,0,0,0-.06.24,5.7,5.7,0,0,0,.24,1.07c0,.27.06.53.08.8s.12.2.28.25c.1.26.2.53.29.8.2.62.38,1.26.54,1.89a.5.5,0,0,0-.13.35,32.6,32.6,0,0,0,.85,4.51c0,.14.15.22.32.27a41.76,41.76,0,0,1,1.06,5.23.39.39,0,0,0,.3.26c.2.59.32,1.2.48,1.81a12,12,0,0,0,1,2.54.41.41,0,0,0,.12.14c.51,1.63.65,3.38,1.61,4.84a.5.5,0,0,0,.28.21,12.12,12.12,0,0,0,1.15,2.2.5.5,0,0,0,.24.19c-.43.5-.24.92,1.3.92C45.73,140.4,50.26,137.78,46.42,137.78Z" transform="translate(-11.8 -15.06)" style="fill-rule:evenodd;fill:url(#linear-gradient-10)"/><path d="M26.27,67.3a.33.33,0,0,0,0-.14c-.07-.31-.16-.61-.24-.92l-.36-1.65a.34.34,0,0,0-.13-.18c-.2-.66-.41-1.31-.65-1.95a.42.42,0,0,0-.09-.14.41.41,0,0,0,.09-.31,24.66,24.66,0,0,0-.81-3.37.38.38,0,0,0-.21-.22c-.13-.72-.27-1.44-.41-2.17,0-.11-.12-.18-.25-.24-.12-.64-.23-1.28-.35-1.92a.39.39,0,0,0,0-.21,10.6,10.6,0,0,0-.54-2.17.28.28,0,0,0,0-.09,11.81,11.81,0,0,0-.63-2.33.47.47,0,0,0-.06-.09c-.12-.7-.25-1.4-.37-2.1a.31.31,0,0,0-.18-.22,7,7,0,0,0-.45-1.34.41.41,0,0,0-.12-.14,8.67,8.67,0,0,1-.15-1.14c0-.12-.12-.2-.3-.25-.11-.55-.21-1.1-.32-1.65,0,0,0,0,0,0A5.89,5.89,0,0,0,19.5,41c-.27-.78-3.15.06-2.9.76q.11.31.18.63a.29.29,0,0,0,0,.16l.6,3.1a.33.33,0,0,0,.23.23c0,.22.08.45.13.67a.35.35,0,0,0,.21.22,7.72,7.72,0,0,1,.46,1.71.28.28,0,0,0,.14.2c.1.51.19,1,.28,1.55a.28.28,0,0,0,.12.17c.11.33.22.66.31,1a.3.3,0,0,0-.08.3A10.57,10.57,0,0,1,19.86,54a.39.39,0,0,0,0,.21l.66,3.56a.34.34,0,0,0,.25.24l.4,2.08c0,.12.13.2.29.25.22.81.42,1.63.56,2.46a.23.23,0,0,0,.08.14.31.31,0,0,0-.08.31A38.23,38.23,0,0,1,23.13,67c.08.37.17.74.25,1.11.17.75,3.08,0,2.9-.76Z" transform="translate(-11.8 -15.06)" style="fill-rule:evenodd;fill:url(#linear-gradient-11)"/><path d="M102.33,85c-.31-.43-.94-.37-1.41-.34-1.77.12-3.54.38-5.31.57-.42,0-1.73.37-1.7,1,0,.8-.3,2.8.51,3.22,1,.52,3,0,3.94-.21a3.68,3.68,0,0,0,1.6-.7c.66.3,2.8-.23,2.71-1S102.69,85.47,102.33,85Z" transform="translate(-11.8 -15.06)" style="fill-rule:evenodd;fill:url(#radial-gradient-4)"/><path d="M214.44,73.08a17.22,17.22,0,0,0-.69-2.25c-.53-1.15-2.6-.61-3.59-.49a6.61,6.61,0,0,0-2.48.86c-.3.17-1.14.67-.93,1.14a5.3,5.3,0,0,1,.49,2.11c0,.39.84.51,1,.54a5.08,5.08,0,0,0,.78,0,2.29,2.29,0,0,0,.61.14,7.07,7.07,0,0,0,4.11-1.07C214.06,73.85,214.56,73.49,214.44,73.08Z" transform="translate(-11.8 -15.06)" style="fill-rule:evenodd;fill:url(#radial-gradient-5)"/><path d="M94.46,88.82a.88.88,0,0,0-.38-.47.84.84,0,0,0-.06-.14.2.2,0,0,0,0-.11,4,4,0,0,1,.11-1s0-.08,0-.12a.4.4,0,0,0,.11-.27l0-.19c.1-.4-.43-.79-.68-1a7.11,7.11,0,0,0-4.13-1l-.17,0a8.3,8.3,0,0,0-1.71-.38c-.11,0-.47-.08-.79-.1a8.85,8.85,0,0,0-1.38-.32c-.25,0-.55,0-.84-.06a23.85,23.85,0,0,0-3.61-1,6.55,6.55,0,0,0-.94-.17,17.69,17.69,0,0,0-1.87-.48,24,24,0,0,0-3.77-.39,6.51,6.51,0,0,0-1.27-.42,7,7,0,0,0-1.66-.2c-.53-.14-1-.22-1.28-.27l-3.11-.55-3.78-1.11A8.42,8.42,0,0,0,61,78.82a4.69,4.69,0,0,0-.92.08c-1-.27-2.07-.51-3.12-.71l-.78-.13-.07,0a23.48,23.48,0,0,0-6.48-1.26,13.13,13.13,0,0,0-3.65-.5l-3.87-.8c-.18,0-.47-.1-.79-.15s-.56-.09-.84-.14a7.55,7.55,0,0,0-.9-.37,11.83,11.83,0,0,0-4.34-.69l-.21,0a8.48,8.48,0,0,0-2.6-.76l-4.87-.71-.41-.16a24.69,24.69,0,0,0-4.65-.92,2.05,2.05,0,0,0-.31-.07l-3.11-.57-.42-.08-.8-.23-1.68-.38-.19,0-.11,0a7.29,7.29,0,0,0-2.27-.42c-.68,0-2,.21-1.53,1,0,0,0,0,0,.06a1.19,1.19,0,0,0,0,.5.52.52,0,0,0,.09.44c0,.37.43.74.67.89a6.52,6.52,0,0,0,3.07,1,5.74,5.74,0,0,0,1.24.07,7.74,7.74,0,0,0,1.25.27l2,.23a5.88,5.88,0,0,0,.74.26,7.38,7.38,0,0,0,2.09.67l.11,0c.52.14,1.05.27,1.58.39a6.82,6.82,0,0,0,1.64.2,7.22,7.22,0,0,0,3.93.62,1.67,1.67,0,0,0,.26-.06c.4.08.79.18,1.17.27l0,.07c.83,1,2.71,1.26,3.9,1.32a13.23,13.23,0,0,1,3,.5,8.35,8.35,0,0,0,2.28.42h.36a7,7,0,0,0,2.75.58l.6.14,1.4.32,2.79.63a6.32,6.32,0,0,0,2.49.16l.63.18a29.13,29.13,0,0,0,3.68.71,6.33,6.33,0,0,0,1.17.54,15.92,15.92,0,0,0,2,.6c.19,0,.54.11.93.16a81.1,81.1,0,0,0,8.78,1.58c.89.26,1.78.49,2.68.7a8.54,8.54,0,0,0,.93.17,5.91,5.91,0,0,0,1.78.16,7.49,7.49,0,0,0,2.15.58c.43.16.83.26,1,.31a33.09,33.09,0,0,0,6.09.93c1.37.44,2.76.85,4.17,1.2a11,11,0,0,0,1.14.2,3.4,3.4,0,0,0,1.07.73,7.31,7.31,0,0,0,1.83.56c.84.16,2.25.39,2.78-.46A1,1,0,0,0,94.46,88.82Z" transform="translate(-11.8 -15.06)" style="fill:#551400;fill-rule:evenodd"/><path d="M207.07,74.29a.65.65,0,0,0-.1-.15c0-.36-.09-.73-.14-1.1h0v-.65c0-1.08-1.84-1.59-2.66-1.77a6,6,0,0,0-2.14-.16l-.17,0a14.17,14.17,0,0,0-4.24-.66l-.5,0a25.92,25.92,0,0,0-8.63-1.48,14.29,14.29,0,0,0-2.82-.67,5.05,5.05,0,0,0-1.28-.12c-.14,0-.29,0-.43,0a22.15,22.15,0,0,0-3.48-.8c-1-.21-2-.44-3-.58A9.48,9.48,0,0,0,176,66.1a23.41,23.41,0,0,0-6.21-.94,6.63,6.63,0,0,0-.67-.27,39.08,39.08,0,0,0-7.57-1.6,5.59,5.59,0,0,0-1.49,0,34.91,34.91,0,0,0-5.69-.88h0q-3-.59-6.12-.92h0a16.8,16.8,0,0,0-5.46-1l-.33,0a23.91,23.91,0,0,0-4.38-.77c-.18,0-.52,0-.88,0h0l-.11-.08a6,6,0,0,0-2-.8,5.74,5.74,0,0,0-2.14-.16c-.35.06-.94.14-1,.56s.31.69.58.9a.65.65,0,0,0,.14.47.36.36,0,0,0-.06.48,2.52,2.52,0,0,0,.21.25l.08.1h0a.63.63,0,0,0,.11.48,4.59,4.59,0,0,0,3,1.39c.15,0,.29.07.44.09h0l.46.15a12,12,0,0,0,3.41.6h.25c.57.18,1.15.32,1.74.46,1.55.37,3.13.66,4.71.89a5.94,5.94,0,0,0,1.25,0,39.66,39.66,0,0,0,6,.77c.73.15,1.45.29,2.18.41l.34.09c1.95.55,4,.55,6,1a7.45,7.45,0,0,0,1.6.44,9.74,9.74,0,0,0,1.79.29,23.08,23.08,0,0,0,3.11.74l4.86.94a6.08,6.08,0,0,0,2.69.1,11.29,11.29,0,0,0,1.76.42,5.12,5.12,0,0,0,1.4,0l.23,0a16.9,16.9,0,0,0,2.53.5,6.87,6.87,0,0,0,.78.19,8.24,8.24,0,0,0,2.62.52h.18a3.53,3.53,0,0,0,.63,0,13.74,13.74,0,0,0,3.12.72l4.85.78a5.16,5.16,0,0,0,1.45,0l.48.15a10.43,10.43,0,0,0,3.74.83h.14l.63.11a5.91,5.91,0,0,0,.63.05,7.25,7.25,0,0,0,1.68.57,8.26,8.26,0,0,0,1.41.2,2.85,2.85,0,0,0,1.52-.13l.19-.09C206.91,74.89,207.22,74.72,207.07,74.29Z" transform="translate(-11.8 -15.06)" style="fill:#551400;fill-rule:evenodd"/><path d="M97.22,82.82a5.72,5.72,0,0,0-2.1-.17A6.84,6.84,0,0,0,93,82.47h-.08l-.22,0-.18,0a3.56,3.56,0,0,1-.47-.1l0,0c-.13,0-.78-.3-.18-.06A6.54,6.54,0,0,0,88,81.62l-.67-.24A6.71,6.71,0,0,0,84.18,81a9.56,9.56,0,0,0-1.1-.21,19.82,19.82,0,0,1-4.22-1.08h0l-.66-.32a7.22,7.22,0,0,0-2.23-.64,4.65,4.65,0,0,0-1.66,0,20.1,20.1,0,0,1-2.71-.87c-.77-.3-2.52-.75-3.44-.29H68A7.69,7.69,0,0,0,66.35,77c-2.06-.42-4.13-.78-6.21-1.06a6.47,6.47,0,0,0-1.1-.06l-.25,0c.44.07-.51-.11-.49-.11l-.58-.15c-.13,0-.53-.18-.53-.17a3.24,3.24,0,0,1-.53-.21c-1.18-.5-2.83-1-4.09-.55l-.08,0L52,74.57q-.39-.12-.78-.27h0l-.36-.16c-.29-.14-.59-.29-.88-.45a5.82,5.82,0,0,0-3.91-.59,12.35,12.35,0,0,1-3.67-.74,7.65,7.65,0,0,0-2.74-.48,6.9,6.9,0,0,0-3-.68H35.59l-.39-.06c-.25-.06-.55-.14-.11,0a8.59,8.59,0,0,0-2.25-.41c-.2-.08-.44-.17,0,0h0a7.72,7.72,0,0,0-3-.73A7.41,7.41,0,0,0,27,69.46,9.4,9.4,0,0,0,25.21,69l-1.37-.17c-1.37-.71-3.69-1-4.5-.55l-.62,0a5,5,0,0,0-1.8,0,6.41,6.41,0,0,0-.85-.06,3.15,3.15,0,0,0-1.4.21c-.88.46-.5,1,.17,1.39a23.07,23.07,0,0,1,4.21.73l.84.35a5.51,5.51,0,0,0,.71-.09l1.8.22.47,0a11,11,0,0,0,4.95.84c.44.14.89.25,1.32.37.81.2,1.62.39,2.44.56a10.54,10.54,0,0,0,1.29.19c.63.15,1.27.29,1.92.39l.4,0a8.47,8.47,0,0,0,1.52.52,48.35,48.35,0,0,0,6.21,1l.57,0a26.29,26.29,0,0,0,3.86.61,6.36,6.36,0,0,0,2.17.86c.88.21,1.73.47,2.64.78a16.85,16.85,0,0,1,4.16.94,1.45,1.45,0,0,0,.91-.38l.06-.08c.84.22,1.69.41,2.56.56.13,0,.36,0,.61,0a10.66,10.66,0,0,0,4.84,1.41c.86.09,1.72.17,2.58.23a21.7,21.7,0,0,0,2.2.6,41.93,41.93,0,0,0,4.28.82,5.13,5.13,0,0,0,1.74,0l.58,0a7.17,7.17,0,0,0,1.5.44c.68.22,1.36.41,2,.58a12.57,12.57,0,0,0,3.16,1.2c.42.07.85.14,1.28.24a16.39,16.39,0,0,1,4.68.91c.36,0,.73.07,1.09.12h0a14.3,14.3,0,0,1,1.61.31,22.68,22.68,0,0,1,5.49-.68l2.29.31a.3.3,0,0,0,0-.16v-.1C99.89,83.51,98,83,97.22,82.82Z" transform="translate(-11.8 -15.06)" style="fill-rule:evenodd;fill:url(#linear-gradient-12)"/><path d="M208.57,69l-.35,0-.26,0a4.33,4.33,0,0,0-1.15,0,7.46,7.46,0,0,0-2-.29h-.13a5.11,5.11,0,0,0-1,.09l-.36-.09L200.1,68a8.26,8.26,0,0,0-1.23-.17l-.2,0c-1.51-.18-3-.36-4.5-.59a5.49,5.49,0,0,0-.86-.26l-1.41-.29a6.9,6.9,0,0,0-1.21-.15c-.3-.07-.61-.13-.91-.21a5.71,5.71,0,0,0-1.06-.16,6.54,6.54,0,0,0-1-.34,32.91,32.91,0,0,0-5.49-1,3.24,3.24,0,0,0-1.52.12c-6.5-.7-12.87-2.52-19.4-3.19a6.13,6.13,0,0,0-1.33-.3c-2.74-.22-5.35-1.09-8.11-1.25h-.24a8.66,8.66,0,0,0-1.2-.26,78.19,78.19,0,0,1-7.86-1.47,4.53,4.53,0,0,0-2-.09,21.27,21.27,0,0,0-3.77-1,8.66,8.66,0,0,0-1.52-.37l-2.51-.44c-.38-.06-2.06-.16-1.77.64s1.88,1.08,2.57,1.2l1.68.29a7,7,0,0,0,1.6.4l.66.1.46.1.45.12c.21.06.42.14.63.21a4.32,4.32,0,0,0,2.51.26,5.65,5.65,0,0,0,.58.16,89.35,89.35,0,0,0,9,1.69,6,6,0,0,0,.7,0,7.85,7.85,0,0,0,1.83.3c2.17.13,4.27.84,6.43,1.1a3.63,3.63,0,0,0,1.09.27c7.89.69,15.5,3,23.4,3.57a2.47,2.47,0,0,0,.83,0c.61.12,1.22.25,1.83.41a5.71,5.71,0,0,0,1.06.16,6.54,6.54,0,0,0,1,.34,71.58,71.58,0,0,0,10.07,1.72l.54,0,3,.59a8.54,8.54,0,0,0,1.05.16,6.86,6.86,0,0,0,3.16.78h.13a2.46,2.46,0,0,0,1.5-.33.3.3,0,0,0,0-.08l.25,0a4.13,4.13,0,0,0,1,0l.3,0C213.35,70.89,209.88,69,208.57,69Z" transform="translate(-11.8 -15.06)" style="fill-rule:evenodd;fill:url(#linear-gradient-13)"/><path d="M110.53,138.92c-.57-1.16-1.11-2.32-1.62-3.49a.37.37,0,0,0,.2-.45l-.12-.41a.42.42,0,0,0,.1-.35c-.77-5.21-1.62-10.35-3.94-15.13a1.26,1.26,0,0,0-.54-.5,4.78,4.78,0,0,0-3.61-1,4.91,4.91,0,0,0-1.59-.62c-.41-.09-2.15-.44-2.35.25-1.29-.4-2.92-.39-2.89.16a117.32,117.32,0,0,0,1.54,13.48c.05.29.37.55.81.76.39,2.62.81,5.24,1.29,7.86a.72.72,0,0,0,.12.25,2.31,2.31,0,0,0,.86.75,4.49,4.49,0,0,0,3.07.41,22.7,22.7,0,0,1,6.4-.85c.56,0,1.23-.1,1.17-.58C110.17,139.43,110.7,139.26,110.53,138.92Z" transform="translate(-11.8 -15.06)" style="fill-rule:evenodd;fill:url(#linear-gradient-14)"/><path d="M84.6,126a1.8,1.8,0,0,0-1-.9c.07-.17.12-.34.19-.5s-.08-.57-.43-.85a22.67,22.67,0,0,1-.25-4,.32.32,0,0,0-.14-.22c0-.16,0-.33.07-.49.08-.41-1.39-.72-1.46-.34h0s0,0,0,.06a5.52,5.52,0,0,1-1,2.31c-.22.33-.82,1-.85,1.43-.84,0-1.53.16-1.73.67-.35.93-.69,1.87-1,2.81a1.83,1.83,0,0,0-1.37.39c-3,3.24-6.33,6.33-7.82,10.61v0a4.29,4.29,0,0,0-.26.58,4.08,4.08,0,0,1-.33.25c-1.16.83-2.62,1.36-3.55,2.47s4.3,3.09,5.45,1.93c4.24-.64,8.51-1.71,12.8-1a3.15,3.15,0,0,0,2.09-.22c1.6.38,3.39.31,3.35-.35A59,59,0,0,0,84.6,126Z" transform="translate(-11.8 -15.06)" style="fill-rule:evenodd;fill:url(#linear-gradient-15)"/><path d="M62.1,120a5.09,5.09,0,0,0-3.1-.73,12.65,12.65,0,0,0-5.09,1.53.33.33,0,0,0-.15.13,1.14,1.14,0,0,0-1,.45c-.55.92-1.18,1.84-1.75,2.8-.29.21-.59.41-.87.63s-.1.37.17.6a11.47,11.47,0,0,0-1,2.48c-.07.26.12.52.45.75-.4.45-.82.9-1.22,1.36a.36.36,0,0,0-.07.38,7.35,7.35,0,0,0-.72,1.28.66.66,0,0,0-.17.23l-.49,1.23c-.11.28.36.63.51.73a3.29,3.29,0,0,0,.59.31c0,.14-.07.29-.1.43a9.77,9.77,0,0,0-1,2c-.12.36,1.22.66,1.42.41l0,0c.28,0,.52,0,.56-.16s.1-.49.16-.73l.7-.86c.12-.14.37-.38.57-.62.42,0,.78-.14.91-.47L52,133a.75.75,0,0,0,.15-.2,5,5,0,0,1,.51-1,.49.49,0,0,0,.08-.38c.77-.88,1.56-1.74,2.34-2.61.71.08,1.35,0,1.61-.42a18.36,18.36,0,0,0,1.42-2.84c.46-.49.92-1,1.4-1.48.25-.27,0-.6-.46-.9l0-.06A32,32,0,0,1,62,121.68c.39-.17.43-.39.31-.6C62.69,120.86,62.62,120.39,62.1,120Z" transform="translate(-11.8 -15.06)" style="fill-rule:evenodd;fill:url(#linear-gradient-16)"/><path d="M48,118.86c0-.33,0-.65,0-1a6.09,6.09,0,0,0-.65-2.43c-.08-1.37-.2-2.74-.4-4.12a1.18,1.18,0,0,0-.58-.72c0-.18,0-.36-.07-.54l.21-.76a.69.69,0,0,0-.21-.66,4.25,4.25,0,0,0-.4-2.88,3.56,3.56,0,0,0-.25-1.81c-1.8-5.6-3.43-11.25-4.85-17A12.79,12.79,0,0,0,40,84.77c0-.49,0-1,0-1.46a6.26,6.26,0,0,0-1.26-3.93,4.4,4.4,0,0,0-.65-.63,1.7,1.7,0,0,0-.94-.63c-1.44-.27-2.88-.47-4.34-.6l-1.06-.35a.42.42,0,0,0-.4,0,1.75,1.75,0,0,0-.67-.53,1.21,1.21,0,0,0-.29-.07h0c-1.09-.75-1.1,1-1,1.59a8,8,0,0,0,.72,2l1.79,8.51A8.29,8.29,0,0,0,33,91.48c.21,1.87.47,3.72.78,5.57a6.6,6.6,0,0,0,1.48,3.23c.34,1.77.67,3.53,1,5.3a4.79,4.79,0,0,0,.62,1.43,42.56,42.56,0,0,0,1.61,8,36.28,36.28,0,0,0,1.68,6,1.65,1.65,0,0,0,0,.38,50.89,50.89,0,0,0,1.7,8.82c.22.76.93,2.57,1.86,3,.13.45.24.9.36,1.35.2.7,1.18,3.19,2.18,3.08.76-.09.77-.88.64-1.59a1,1,0,0,0,.14-.47c.07-.91.16-1.82.27-2.72a.9.9,0,0,0,.19-.5,35.21,35.21,0,0,0,.21-3.55,1.94,1.94,0,0,0,0-.24c.1-1,.17-2,.22-3a1.82,1.82,0,0,0,.18-.8l.11-4.39A4.17,4.17,0,0,0,48,118.86Z" transform="translate(-11.8 -15.06)" style="fill-rule:evenodd;fill:url(#linear-gradient-17)"/><path d="M35.3,69.38a4.1,4.1,0,0,0-.06-.74,8.44,8.44,0,0,0-.57-1.78Q32.47,58,30,49.26a161.4,161.4,0,0,0-4.66-17,13.35,13.35,0,0,0-.57-1.41c.37-1.79-2-5.53-2.71-4.87-.24.21-.45.42-.66.63a.79.79,0,0,0-.4-.13,2,2,0,0,0-1.74,1.06.66.66,0,0,0-.59.21c-1.27,1.31-1.43,3.66-1.16,5.53a.58.58,0,0,0,0,.18,8,8,0,0,0,.17,2.3c0,.25,0,.49.06.74A7.24,7.24,0,0,0,19,39.89a68.4,68.4,0,0,0,3,9.26c.57,4.29,1.28,8.56,2.18,12.8a2,2,0,0,0,.09.3,6.51,6.51,0,0,0,.26,1.11A7.46,7.46,0,0,0,25,64.45c-.09,1.49,1.11,4.55,2.35,4.72l3.72.49c.53.07,1.17.09,1.79.17l.61.26a1.72,1.72,0,0,0,.89.76C35.35,71.11,35.52,70.36,35.3,69.38Z" transform="translate(-11.8 -15.06)" style="fill-rule:evenodd;fill:url(#linear-gradient-18)"/><path d="M144,96.83a23.28,23.28,0,0,0-2.45-6.49c-.18-.33-.35-.68-.53-1-.06-.13-.12-.25-.17-.38s-.2-.5-.32-.79l-.24-.67c0-.13-.09-.26-.14-.39.92-2.36-1.06-7.16-1.55-8.46-2.6-6.9-5.39-13.77-7.76-20.75a34.35,34.35,0,0,0-2.08-5,21.34,21.34,0,0,0-2.8-9.28,17.79,17.79,0,0,0-.44-1.78,5.53,5.53,0,0,0,.24-2.3,17.22,17.22,0,0,0-1.13-5,16.47,16.47,0,0,0-.78-2.47,17.31,17.31,0,0,0-.69-1.73c.6-4.61-4.21-15.72-8.4-14.61-1.45.38-2.91.72-4.37,1.08a2.59,2.59,0,0,0-1.08-.3,139.42,139.42,0,0,0-24.67,1.33,1,1,0,0,0-.5.22q-3.6.45-7.17,1a3.15,3.15,0,0,0-1.5-.27A203.25,203.25,0,0,0,53.23,22,80.56,80.56,0,0,0,44.89,23a2.09,2.09,0,0,0-1.37-.58,48.69,48.69,0,0,0-9.46,1.42,1,1,0,0,0-.52.38l-.18.05a.85.85,0,0,0-.61-.19c-1.37.18-2.73.4-4.09.64a.6.6,0,0,0-.32-.14l-2.58.16a.52.52,0,0,0-.51.48c-.33-.31-.63-.43-.8-.16-.76,1.21.37,3,.93,4.11l1.4,2.71,0,1.84a4.63,4.63,0,0,0,1.27,2.92,1.58,1.58,0,0,0,.15.12l.06.36v1.44a11.63,11.63,0,0,0,.52,2.93,16.47,16.47,0,0,0,.63,2.07c0,.21.06.41.11.62a21.89,21.89,0,0,0,2.25,6.59c.05.29.1.58.16.86-.33,2.59,1,7,2.95,10.31a3.43,3.43,0,0,0,.18,1.42,32.92,32.92,0,0,1,1.44,5.54,4.09,4.09,0,0,0,1.5,2.7c.48.25.68,0,.74-.33a1,1,0,0,0,.44.23l11.55,2.22a1.39,1.39,0,0,0,.83.64,57,57,0,0,1,10.81,2.31c.29.09.39-.26.35-.79a1.28,1.28,0,0,0,.49.35c5,1.64,10.16,3.11,15.43,3.11a1.49,1.49,0,0,0,.91.76l7.26.9a.55.55,0,0,0,.23.09L93,82.39a1.12,1.12,0,0,0,.43.25q4.39,1,8.75,2.15c.24.07.36-.13.38-.47a17.41,17.41,0,0,0,1.27,5.17l-2.94.32a.26.26,0,0,0-.17.12.47.47,0,0,0-.49-.05,6.66,6.66,0,0,0-2.39,3.39.33.33,0,0,0-.45.1c-.95,1.41-2.14,3-3.11,4.76a4.24,4.24,0,0,0-1.37,1.71,6.59,6.59,0,0,0-.39,2.7,7.47,7.47,0,0,0-.15,1.55,7.38,7.38,0,0,0-.44,1.92,4.45,4.45,0,0,0,1,2.94c.26.36,1.26,1.32,1.36.29,0-.15,0-.28.07-.42a1.16,1.16,0,0,0,.12-.42q6.19-.59,12.39-1.35c.24,0,.31-.36.27-.82,2.28-.13,4.56-.23,6.84-.28.37,0,.51-.37.5-.86a35.26,35.26,0,0,0,7.32-.62.82.82,0,0,0,.35-.17,40.51,40.51,0,0,0,9.21-1.55q5.32-.28,10.67-.29a1.89,1.89,0,0,0,1.47-.59,1.34,1.34,0,0,0,.39-.45C144.56,100.1,144.3,98.2,144,96.83Z" transform="translate(-11.8 -15.06)" style="fill-rule:evenodd;fill:url(#linear-gradient-19)"/><path d="M86.88,88.47a.81.81,0,0,0-.82-.13c-.16-.28-.55-.36-1.13-.11a1.35,1.35,0,0,1-.5.09l-.2,0-.4,0c-.39-.1-.77-.25-1.1-.34a6.4,6.4,0,0,0-2.12-.3,6.61,6.61,0,0,0-1.31-.26,4.87,4.87,0,0,0-2.53-1,.53.53,0,0,0-.58.3l-2.56-.36-.12,0-.85-.2a1.38,1.38,0,0,0-.79-.48,67.59,67.59,0,0,1-9-1.8.62.62,0,0,0-.3,0c-1.11-.26-2.22-.53-3.34-.76a.35.35,0,0,0-.38.13c-1.54-.47-3.08-.94-4.62-1.43a.4.4,0,0,0-.5.12c-.78-.21-1.57-.4-2.37-.55A16.45,16.45,0,0,0,48,80.66a12.3,12.3,0,0,0-5.53-1.31c-.25-.19-.5-.39-.76-.57-.45-.29-.71-.18-.86.09-.39-.52-.86-.9-1.32-.72-1,.36,0,2.71.17,3.19a7.88,7.88,0,0,0,1.23,2.08c0,.16,0,.32,0,.46s.06.27.1.42c-.94.1,0,3,.11,3.23l.26.52a10.45,10.45,0,0,0,.89,1.59A23.63,23.63,0,0,1,43,92a32.46,32.46,0,0,0,2.52,8.58,6.83,6.83,0,0,0,.5,1c.27,1.36.59,2.72,1,4.06a2.17,2.17,0,0,0,.07.24q.28.93.63,1.86A10.83,10.83,0,0,0,48,110l.17,1.15a3,3,0,0,0,0,1l.22.85c.11.41.24.87.41,1.33,0,.11.07.21.11.32s-.07,0-.1,0c-.31.13-.37.54-.37.87-.07.08-.13.2-.2.28l.12-.11a2,2,0,0,0-.25,2h0c-1.39.47.79,6,2.39,5.5a3.41,3.41,0,0,0,1.78-2l1.32-2.83A5.18,5.18,0,0,0,56.62,117h.16a6.51,6.51,0,0,0,1.59-.66,2.25,2.25,0,0,0,1.26-.35.86.86,0,0,0,.35-.66l3.55-1.2a16.88,16.88,0,0,0,2-.69.55.55,0,0,0,.31.09H66l.1,0a2.77,2.77,0,0,0,2.49-.59,1.43,1.43,0,0,0,.4-1.12,3.76,3.76,0,0,0,1-1.23h0a2,2,0,0,0,.49-.4.42.42,0,0,0,.32-.28,21.87,21.87,0,0,1,4-5.08,8.33,8.33,0,0,0,2.09-3.14c.27-.22.52-.45.76-.68a9,9,0,0,0,2.59-3,6.75,6.75,0,0,0,.62-1.71,4.47,4.47,0,0,0,.44-.43,7.12,7.12,0,0,0,2-1.86l1.84-2.51a6,6,0,0,0,1.57-1.81C86.89,89.32,87.16,88.79,86.88,88.47Z" transform="translate(-11.8 -15.06)" style="fill-rule:evenodd;fill:url(#linear-gradient-20)"/><path d="M210.94,117.68q-.25-3.32-.5-6.63a3,3,0,0,0-1.18-1.87c0-.11,0-.22,0-.34,0-1.17.05-2.6-.81-3.5a1,1,0,0,0-.61-.31v0a3.63,3.63,0,0,0,.16-.93,6.84,6.84,0,0,0-2.75-3.71,4.44,4.44,0,0,0-2.1-.78c-.68-.35-1.38-.67-2-1a1.42,1.42,0,0,0-.86,0,6.36,6.36,0,0,0-2.77-.36,7.53,7.53,0,0,0-2.16-.2,3.52,3.52,0,0,0-.62.11c-4-1.93-10-.72-14-.6a4,4,0,0,0-1.16.22c-4.23-.94-9.37,0-13,1.31-.26.1-.52.21-.77.33l-4.42.15a5.28,5.28,0,0,0-2.2.65,47.16,47.16,0,0,0-11.17,1l-.61.16c-1,.08-2,.31-2.79.43-1.72.27-3.5.45-5.22.82a26.51,26.51,0,0,0-10.72,1.35,25.86,25.86,0,0,0-4.35.2,15.94,15.94,0,0,0-7.08,2.08,6.75,6.75,0,0,0-1.89-.16,20.06,20.06,0,0,0-10.48,2.15,1.33,1.33,0,0,0-.44.33,4.76,4.76,0,0,0-2.51.2,4.3,4.3,0,0,0-.48.24,4.59,4.59,0,0,0-2.29.18l-.14,0-.57-.09a3.35,3.35,0,0,0-1,0,2.68,2.68,0,0,0-1.37.28.94.94,0,0,0-.23.16,5.7,5.7,0,0,0-.55-.16c-.24-.06-.91-.18-1.15,0a3.67,3.67,0,0,1-.71.44.8.8,0,0,0-.32.09,2.79,2.79,0,0,0-.4-.07c-.23,0-.71,0-.84.26s.18.75.61,1.07c-.06.1,0,.23.09.39a4.17,4.17,0,0,0,.3,1.31l0,0c-.16.49-.33,1-.5,1.45-.26.74,1.19,1.48,1.69,1.7a6.26,6.26,0,0,0,.82.31,8.22,8.22,0,0,0,.88.36c.29.1,2.07.56,1.85-.27,0-.08,0-.16,0-.24h.1a4.79,4.79,0,0,0,1.55.42,2.48,2.48,0,0,0,1.68-.5,13.22,13.22,0,0,0,1.59.59,6.91,6.91,0,0,0,.57.51c.1.1.21.2.31.31s.11.12.16.17a5.2,5.2,0,0,0,1.56,1.87,1.72,1.72,0,0,0,.2,1.31,17.78,17.78,0,0,1,1.91,4.29c.57,2.41,1.15,4.83,1.72,7.24a1,1,0,0,0,.57.7c.31,1,.61,1.93.92,2.89a3.31,3.31,0,0,0-.25,1.17l.33,1.72a1.1,1.1,0,0,0,.23.89,1.65,1.65,0,0,0,1.68.26.9.9,0,0,0,.57.19c2.29.09,4.27-.8,6.38-1.61l.65-.25c1.69.91,4.28-.28,5.87-1l.29-.14a.72.72,0,0,0,.72.37,16.33,16.33,0,0,0,7.13-1.54l1.51-.69a15.59,15.59,0,0,0,7.31-1.76,6.52,6.52,0,0,0,3.16-.53c.12.46.54.76,1.46.71a11.88,11.88,0,0,0,4.22-1.21,16.47,16.47,0,0,0,2.34-.85c2.45.66,5.41-.7,7.79-1.86a12.89,12.89,0,0,0,2.87-.45h.37c3.15,0,6-1.16,9-2.12.15.82,1,1.14,2.45.65,2.78-.93,5.59-1.81,8.42-2.59a43.25,43.25,0,0,0,7.13-1.63c4-.53,8-1.4,12-2.2,1-.2,3.1-.32,4.77-.78,1.22.16,2.11,0,2.2-.73l.1-.75A1.89,1.89,0,0,0,210.94,117.68Z" transform="translate(-11.8 -15.06)" style="fill-rule:evenodd;fill:url(#linear-gradient-21)"/><path d="M65.62,115.42a4.18,4.18,0,0,0-.69-.47c-.39-.2-1.21-.6-1.66-.33l-.34.21a.24.24,0,0,0-.12.31c-.28.37-.58.72-.88,1.06l0,0a1.29,1.29,0,0,0-.34,0,6.06,6.06,0,0,0-.61.16,1,1,0,0,0-.47,0,36.81,36.81,0,0,0-3.72,1.23h-.14a1.9,1.9,0,0,0-1.24.54c-.69.68,1.89,1.74,2.5,1.48l.29-.11h.21c.44-.06.88-.14,1.31-.24.44.16.87.22,1.07,0a7,7,0,0,1,.7-.52,3.36,3.36,0,0,0,1.24.41h.06a.59.59,0,0,0,.56-.17l0-.06a.23.23,0,0,0,0-.24c.14-.13.37-.32.5-.42a.73.73,0,0,0,.48-.08,6.65,6.65,0,0,0,1.89-1.92C66.38,116.07,66.08,115.72,65.62,115.42Z" transform="translate(-11.8 -15.06)" style="fill-rule:evenodd;fill:url(#linear-gradient-22)"/></g><g id="Shadows"><path d="M99.92,203.53C99,198.7,98,193.88,97.16,189c-.58-3-1-6-1.53-9.08a3.64,3.64,0,0,1,0-1.4c-1.41-4.1-1.75-8.39-2.92-12.57a507.06,507.06,0,0,0-51.22,7.56l-.29-.18-.54.07c-.72.08-1.44.13-2.17.17a1.83,1.83,0,0,1-.4,0l-3.26.57a10.91,10.91,0,0,1-2.69,2.51c3.84,1.54,7.74,2.92,11.57,4.49,8.58,3.51,17.17,6.95,25.27,11.48s15.63,9,24.23,12.17c2.45.91,4.92,1.8,7.36,2.74A25.73,25.73,0,0,1,99.92,203.53Z" transform="translate(-11.8 -15.06)" style="fill-rule:evenodd;opacity:0.41000000000000003;mix-blend-mode:multiply"/><path d="M213.8,187.51a3.32,3.32,0,0,1-2.31-1,3.81,3.81,0,0,1-1-1.72v-.07a3.39,3.39,0,0,1-.57-1.85c0-.14,0-.27,0-.4l-.73-1.72a2.09,2.09,0,0,0-.08-.23c0-.07,0-.18-.06-.27a26.91,26.91,0,0,1-6.95-2.66c-.31-.17-.66,0-1,.32a283.22,283.22,0,0,0-38.59-7.55c-11.89-1.46-23.85-2.49-35.13-6.71l-.19,0-.18.13a6.41,6.41,0,0,1-2.89,1.52,6.33,6.33,0,0,1-2.31.29l0,.06a6.15,6.15,0,0,0-1.68.15,1.8,1.8,0,0,0-.27-.47,6.18,6.18,0,0,1-1.33-.4,8.26,8.26,0,0,1-2.09-.87l-1.2-.93a5.79,5.79,0,0,0-1.34.89q-5.37.44-10.72.92a15.93,15.93,0,0,1,.31,2.59,54.36,54.36,0,0,1,1.35,9.9c.36,1.55.64,3.12.87,4.71a3.32,3.32,0,0,1,.78,1.52c1.81,7.72,2.23,15.67,3.87,23.42a2.2,2.2,0,0,1,0,.36,204,204,0,0,1,24.36-5.32l38.4-6.6c12.95-2.21,25.84-4.71,38.72-7.28.78-.16,1.57-.33,2.38-.52l-.24-.13Z" transform="translate(-11.8 -15.06)" style="fill-rule:evenodd;opacity:0.41000000000000003;mix-blend-mode:multiply"/></g><g id="Highlights"><path d="M198.11,74.41c-.82-1-2.12.5-2.68,1.14-4.1,4.59-8,9.59-12.57,13.72-.91.83-2.56,2.88-2.29,4.23s1.38.66,2.17,0c5-4.51,9.25-10,13.72-15C197,77.85,198.85,75.32,198.11,74.41Z" transform="translate(-11.8 -15.06)" style="fill:#fff;fill-rule:evenodd;opacity:0.5;mix-blend-mode:overlay"/><path d="M84.87,91.13c-7.79,10.51-15.52,21.47-24.45,31-.78.83-2.72,2.93-2.3,4.23s1.31.87,2.17-.05C70.06,115.89,78.51,104.06,87,92.58,89.47,89.27,87.32,87.83,84.87,91.13Z" transform="translate(-11.8 -15.06)" style="fill:#fff;fill-rule:evenodd;opacity:0.5;mix-blend-mode:overlay"/><path d="M37.59,141c-.51-.83-2.66,1.8-2.17,2.6,4.06,6.71-2.85,16.4-6.74,21.59-.85,1.14-.92,3.39.52,1.47,2.76-3.69,5-6.73,6.9-11.11S40.23,145.36,37.59,141Z" transform="translate(-11.8 -15.06)" style="fill:#fff;fill-rule:evenodd;opacity:0.5;mix-blend-mode:overlay"/><path d="M118.73,159.6a7.41,7.41,0,0,0-2.59,3.77c-.15.48,1.48,1.1,1.6.7a7.18,7.18,0,0,1,2.47-3.64C120.57,160.14,119.11,159.3,118.73,159.6Z" transform="translate(-11.8 -15.06)" style="fill:#fff;fill-rule:evenodd;opacity:0.5;mix-blend-mode:overlay"/><path d="M211.08,145.26c-.06-.48-1.68-1-1.62-.52a388,388,0,0,0,7.74,41.71c.12.49,1.72.91,1.62.52A388.42,388.42,0,0,1,211.08,145.26Z" transform="translate(-11.8 -15.06)" style="fill:#fff;fill-rule:evenodd;opacity:0.5;mix-blend-mode:overlay"/><path d="M103.46,170.59c-.07-.48-1.68-1-1.62-.51,1.9,12.93,4.27,25.77,7.25,38.5.12.49,1.71.92,1.62.52C107.73,196.36,105.35,183.53,103.46,170.59Z" transform="translate(-11.8 -15.06)" style="fill:#fff;fill-rule:evenodd;opacity:0.5;mix-blend-mode:overlay"/><path d="M209.12,125.06h0a6.57,6.57,0,0,1,.13-1.35,15.49,15.49,0,0,1,.28-1.68c.11-.51-1.52-1.08-1.6-.7-.12.56-.22,1.12-.29,1.68a7.25,7.25,0,0,0-.1,1.54c.12.75,1,1.09,1.7,1C209.64,125.57,209.25,125.15,209.12,125.06Z" transform="translate(-11.8 -15.06)" style="fill:#fff;fill-rule:evenodd;opacity:0.5;mix-blend-mode:overlay"/></g><g id="Lines"><path d="M12.59,69.19,94,85.25l.43,4.86L12.86,72.86l-.5-3.67,8.27-1.35,81.91,16.51-8.55.9" transform="translate(-11.8 -15.06)" style="fill:none;stroke:#171615;stroke-miterlimit:10;fill-rule:evenodd"/><path d="M102.54,84.35l.4,4.39-8.52,1.37" transform="translate(-11.8 -15.06)" style="fill:none;stroke:#171615;stroke-miterlimit:10;stroke-width:2px;fill-rule:evenodd"/><path d="M19.25,74.33,36.7,141.47a34.56,34.56,0,0,1,.2,5.69,26.28,26.28,0,0,1-4.53,12C28.77,164.68,22.15,175,22.15,175l5.17,2.52s3.6,1.13,4.75-.12,32.16-36.83,32.16-36.83l16-20s1.63-4,2-3.58,1.46,3.8,2,6.77c.42,2.38,17.29,84.09,17.29,84.09l4.18,1.36,4.71-.84L95,125.88l-2.85-16.37s-1.42-7.6.5-10.29S100,89.28,100,89.28" transform="translate(-11.8 -15.06)" style="fill:none;stroke:#171615;stroke-miterlimit:10;stroke-width:2px;fill-rule:evenodd"/><path d="M88.22,88.63,47,139.8s-3.54,2.26-5.54-1.53S37.15,125.72,36.78,124,24.45,75.35,24.45,75.35" transform="translate(-11.8 -15.06)" style="fill:none;stroke:#171615;stroke-miterlimit:10;stroke-width:2px;fill-rule:evenodd"/><path d="M28.46,76.18l12.65,52.18s2,7.68,6.06,11.19" transform="translate(-11.8 -15.06)" style="fill:none;stroke:#171615;stroke-miterlimit:10;stroke-width:2px;fill-rule:evenodd"/><path d="M88.73,145.66l-34,5.82" transform="translate(-11.8 -15.06)" style="fill:none;stroke:#171615;stroke-miterlimit:10;stroke-width:2px;fill-rule:evenodd"/><path d="M102,162.49l98.83-19.32" transform="translate(-11.8 -15.06)" style="fill:none;stroke:#171615;stroke-miterlimit:10;stroke-width:2px;fill-rule:evenodd"/><path d="M105.94,209,92.2,134l-3.94-20.85s-2.74-8,1.09-14.29a54,54,0,0,1,6.24-8.75" transform="translate(-11.8 -15.06)" style="fill:none;stroke:#171615;stroke-miterlimit:10;stroke-width:2px;fill-rule:evenodd"/><path d="M98,140.69l11-.5s.23,1,.79.92a11,11,0,0,0,1.39-.27L210.89,121a5,5,0,0,0,1-1.9c0-.72-2.93-13.53-2.93-13.53s-1-6.25-8.79-7.49-25.28-.22-27.13,0-28,3.23-28,3.23l-52.88,8" transform="translate(-11.8 -15.06)" style="fill:none;stroke:#171615;stroke-miterlimit:10;stroke-width:2px;fill-rule:evenodd"/><path d="M109.79,140.88a3,3,0,0,0,.51-2.15c-.23-1.17-4.47-18.06-4.47-18.06s-1.17-3.33-4.34-3.89a44.14,44.14,0,0,0-8-.27" transform="translate(-11.8 -15.06)" style="fill:none;stroke:#171615;stroke-miterlimit:10;stroke-width:2px;fill-rule:evenodd"/><path d="M68.36,113.6l-10.29,3.29s-5.26,2.16-6.71,4.16-4.7,18-4.7,18" transform="translate(-11.8 -15.06)" style="fill:none;stroke:#171615;stroke-miterlimit:10;stroke-width:2px;fill-rule:evenodd"/><path d="M64.08,118.63l-7,.87S53,119.18,50,124.61" transform="translate(-11.8 -15.06)" style="fill:none;stroke:#171615;stroke-miterlimit:10;stroke-width:2px;fill-rule:evenodd"/><path d="M82.28,117.25s-1-2.4-2.1-2.53-4.49,4.55-5.57,6.24S57,144.06,57,144.06L32.09,174.51s-.29,2-3.45,1.52a40.33,40.33,0,0,1-6.29-1.53" transform="translate(-11.8 -15.06)" style="fill:none;stroke:#171615;stroke-miterlimit:10;stroke-width:2px;fill-rule:evenodd"/><path d="M87.66,141.42,62.5,142.5" transform="translate(-11.8 -15.06)" style="fill:none;stroke:#171615;stroke-miterlimit:10;stroke-width:2px;fill-rule:evenodd"/><path d="M88.48,145.43l-30.09,1.68" transform="translate(-11.8 -15.06)" style="fill:none;stroke:#171615;stroke-miterlimit:10;stroke-width:2px;fill-rule:evenodd"/><path d="M98.87,145.41l9.18-.22-.92-5" transform="translate(-11.8 -15.06)" style="fill:none;stroke:#171615;stroke-miterlimit:10;stroke-width:2px;fill-rule:evenodd"/><path d="M108.08,145.43,210.42,125.2l-.91-4" transform="translate(-11.8 -15.06)" style="fill:none;stroke:#171615;stroke-miterlimit:10;stroke-width:2px;fill-rule:evenodd"/><path d="M197.52,127.64l12.77,58.16,4.81,2.54-12.52-61.77" transform="translate(-11.8 -15.06)" style="fill:none;stroke:#171615;stroke-miterlimit:10;stroke-width:2px;fill-rule:evenodd"/><path d="M206.75,126l12,60.56s-.5,1.21-1.26,1.48a10.32,10.32,0,0,1-2.35.3" transform="translate(-11.8 -15.06)" style="fill:none;stroke:#171615;stroke-miterlimit:10;stroke-width:2px;fill-rule:evenodd"/><path d="M145.26,101.22,136,71.53l-8.85-26.61s-3.29-13.22-3.72-14.68-2.26-12.85-6.62-13.85S92.53,17,92.53,17s-17.22,1.64-24.87,2.39-42.9,5.25-43.78,5.33S17,26.19,17,31.41s3.51,16,3.78,16.73,5.28,21,5.28,21" transform="translate(-11.8 -15.06)" style="fill:none;stroke:#171615;stroke-miterlimit:10;stroke-width:2px;fill-rule:evenodd"/><path d="M23.71,68.69,16.82,41.4l1.8-.72" transform="translate(-11.8 -15.06)" style="fill:none;stroke:#171615;stroke-miterlimit:10;fill-rule:evenodd"/><path d="M131.5,58.31,206.69,71l.51,4.6L133.35,63.08" transform="translate(-11.8 -15.06)" style="fill:none;stroke:#171615;stroke-miterlimit:10;fill-rule:evenodd"/><path d="M197.27,74.21l-22.4,23.73" transform="translate(-11.8 -15.06)" style="fill:none;stroke:#171615;stroke-miterlimit:10;stroke-width:2px;fill-rule:evenodd"/><path d="M131.09,56.48l83.17,13.64-7.55,1.1" transform="translate(-11.8 -15.06)" style="fill:none;stroke:#171615;stroke-miterlimit:10;fill-rule:evenodd"/><path d="M214.26,70.12l.27,4.37-7.33,1.1" transform="translate(-11.8 -15.06)" style="fill:none;stroke:#171615;stroke-miterlimit:10;stroke-width:2px;fill-rule:evenodd"/><path d="M205.78,75.39l-7.05,9.89a10.53,10.53,0,0,0-1.95,5.62,56.82,56.82,0,0,0,.5,6.73" transform="translate(-11.8 -15.06)" style="fill:none;stroke:#171615;stroke-miterlimit:10;stroke-width:2px;fill-rule:evenodd"/><path d="M209,75.32l-7.69,10.36s-1.83,3-1.51,5.38,1,7.19,1,7.19" transform="translate(-11.8 -15.06)" style="fill:none;stroke:#171615;stroke-miterlimit:10;stroke-width:2px;fill-rule:evenodd"/><path d="M47.64,133.63a44.45,44.45,0,0,0,.84-16.27c-1.18-9.19-5.49-23.6-6.65-28.08s-3.18-10.8-3.18-10.8" transform="translate(-11.8 -15.06)" style="fill:none;stroke:#171615;stroke-miterlimit:10;stroke-width:2px;fill-rule:evenodd"/><path d="M19,26.84s3.35-1.46,4.3-1,2.67,5.65,5.36,16,7.82,29.35,7.82,29.35" transform="translate(-11.8 -15.06)" style="fill:none;stroke:#171615;stroke-miterlimit:10;stroke-width:2px;fill-rule:evenodd"/><path d="M131.52,156.72l-7.09,7.92a17.21,17.21,0,0,1-9.6-1c.44-1.06,3.73-4.32,3.73-4.32" transform="translate(-11.8 -15.06)" style="fill:none;stroke:#171615;stroke-miterlimit:10;stroke-width:2px;fill-rule:evenodd"/></g></g></svg>