<svg xmlns="http://www.w3.org/2000/svg" xmlns:xlink="http://www.w3.org/1999/xlink" viewBox="0 0 223.16 33.92"><defs><radialGradient id="radial-gradient" cx="72.52" cy="33.79" r="49.78" gradientUnits="userSpaceOnUse"><stop offset="0" stop-color="#fff"/><stop offset="1" stop-color="#b3b3b3"/></radialGradient><radialGradient id="radial-gradient-2" cx="149.4" cy="34.48" r="31.05" gradientUnits="userSpaceOnUse"><stop offset="0" stop-color="#fff"/><stop offset="1" stop-color="#e0e0e0"/></radialGradient><radialGradient id="radial-gradient-3" cx="179.83" cy="26.93" r="1.93" xlink:href="#radial-gradient"/><linearGradient id="linear-gradient" x1="162.96" y1="27.19" x2="179.09" y2="27.19" gradientUnits="userSpaceOnUse"><stop offset="0" stop-color="#757575"/><stop offset="1" stop-color="#2b2b2b"/></linearGradient><linearGradient id="linear-gradient-2" x1="176.03" y1="26.87" x2="183.22" y2="26.87" gradientUnits="userSpaceOnUse"><stop offset="0" stop-color="#424242"/><stop offset="0.99" stop-color="#474747"/></linearGradient><linearGradient id="linear-gradient-3" x1="163.04" y1="17.79" x2="178.93" y2="17.79" gradientUnits="userSpaceOnUse"><stop offset="0.18" stop-color="#2e2e2e"/><stop offset="1" stop-color="#5e5e5e"/></linearGradient></defs><title>TableStuff</title><g style="isolation:isolate"><g id="Color"><path d="M190.7,45.44a.72.72,0,0,0,0-.36l-.21-.65a42.66,42.66,0,0,0,0-4.38c0-.69,0-1.37,0-2.06a7.45,7.45,0,0,0-.41-3.12l0,0c0-1.34.06-2.68,0-4a8.19,8.19,0,0,0-.09-2,11.74,11.74,0,0,0-.14-1.56l.19-1.85c0-.41-.1-.56-.32-.6a.19.19,0,0,1,0-.07c.1-.49-.15-.62-.48-.59a.32.32,0,0,0-.36-.32c-.89,0-1.86.13-2.77.07h0l-.15,0a3.42,3.42,0,0,1-.45,0h0c-.39,0-.77-.09-1.16-.11a1.61,1.61,0,0,0-.9.26l-.07,0a2.22,2.22,0,0,0-.23-.43c-.44-.7-1.5-1.87-2.43-1.9-.54,0-1.07,0-1.61,0V20.53a1.26,1.26,0,0,0-.22-.65l0-.15v-.05c.42-.32-.45-1.63-.6-1.82a3.51,3.51,0,0,0-2.43-1.47l-1.33,0c-.1,0-.2-.09-.3-.12-1.28-.31-3.25-.91-4.57-.4a20.41,20.41,0,0,0-3.91,0,.63.63,0,0,0-.67.44,5.82,5.82,0,0,0-1.6.64.62.62,0,0,0-.24.6.59.59,0,0,0-.15.41v.79a4,4,0,0,0,0,1.7c0,.2,0,.41.07.62a.63.63,0,0,0-.33.63V22.9a2.64,2.64,0,0,0-.55-.15,8.75,8.75,0,0,0-2.75-.08.47.47,0,0,0-.29.15c-.75,0-1.51,0-2.23-.07h0a1.72,1.72,0,0,0-.76-.23l-.74,0a.27.27,0,0,0-.22.09h0l-.12,0a1.07,1.07,0,0,0-.18,0l-1.84-.2a4.07,4.07,0,0,0-1.35-.09,27.5,27.5,0,0,0-3-.21.37.37,0,0,0-.3.12l-.62-.06a.35.35,0,0,0-.21,0,2.15,2.15,0,0,0-1.13-.48,29.68,29.68,0,0,0-6.39.21.45.45,0,0,0-.22.1l-.4,0c-.37,0-.79,0-1.19,0a1,1,0,0,0-1.05-.14l-.06,0s0,0,0,0a12.08,12.08,0,0,0-4.09-.3c-1.42-.16-2.84-.28-4.19-.47-.29,0-.46,0-.54.19l-1,0a9.61,9.61,0,0,0-1-.15c-.51-.06-1-.1-1.54-.13-.27,0-.62,0-1,0a3.44,3.44,0,0,0-1-.34c-.23,0-.65-.08-.85.14a.39.39,0,0,0-.3.12h0a.29.29,0,0,0-.23.09,6.29,6.29,0,0,0-.41.64.56.56,0,0,0-.42.3,3,3,0,0,0-.41,1.57A5.27,5.27,0,0,0,118.86,25a11.49,11.49,0,0,0-1.27,2.4.57.57,0,0,0-.13-.14l-.35-.2c0-.32,0-.57-.2-.67l-3-1.5a29.83,29.83,0,0,0-2.81-2.58c-.24-.19-.58-.12-.94.09a12.69,12.69,0,0,0-1.13-.79,8,8,0,0,0-2.1-1.38.8.8,0,0,0-.21,0c-.84-.71-1.69-1.41-2.58-2.07A.5.5,0,0,0,104,18a19.45,19.45,0,0,0-1.74-1.23.7.7,0,0,0-.65,0,2.18,2.18,0,0,0-.27-.11.83.83,0,0,0-.58.16A40.09,40.09,0,0,0,95,16.56a3.86,3.86,0,0,0-2.12.7,12,12,0,0,0-5,.51,44.23,44.23,0,0,0-5.4,0,.38.38,0,0,0-.27-.05,50.66,50.66,0,0,1-11.74.13,1.37,1.37,0,0,0-1,.4c-1.1,0-2.2,0-3.31.08a1.68,1.68,0,0,0-.76.26,19.93,19.93,0,0,0-2.44.06,2,2,0,0,0-.9.36,5.17,5.17,0,0,0-1.12-.3,3.25,3.25,0,0,0-2.45.45l-1.13.16a9.21,9.21,0,0,0-1.09-.16,7.06,7.06,0,0,0-4.23.45l-2,.07c-.65-.11-1.3-.21-2-.28-1.1-.1-2.4-.24-3,.6a7.48,7.48,0,0,0-.82,0,3.73,3.73,0,0,0-.44-.08,19.65,19.65,0,0,0-4.06.34,5.4,5.4,0,0,0-2.65,0,.24.24,0,0,0-.18.14l-.18.13h-.31c-2.13-.1-3.89-1-5.9.13,0,0,0,0,0,0-1.06,0-2.13-.07-3.2-.08a1.47,1.47,0,0,0-.86.38L24.34,21c-.58-.08-1.16-.15-1.74-.26a1.2,1.2,0,0,0-.82.28h-.14a.87.87,0,0,0-.31.05,1.77,1.77,0,0,0-1,0l-.46.16a2.24,2.24,0,0,0-1.2-.1.9.9,0,0,0-.23.08c-.15-.06-.3-.12-.44-.16-.53-.16-1.71-.33-1.34.6a2.55,2.55,0,0,0,.84,1.05l.18.18a3.08,3.08,0,0,0,.47.65,4.45,4.45,0,0,0,1,.81c0,.25,0,.44.2.51.46.2.93.37,1.4.56a.78.78,0,0,0,.17.52A23.17,23.17,0,0,0,24,28.79c.52.44,1.05.88,1.53,1.36.27.26.48.55.74.77a1.57,1.57,0,0,0,.48,1.58,31.88,31.88,0,0,0,5.1,4.18.6.6,0,0,0,.46.08,7.08,7.08,0,0,0,2.22,2.1l.84.56c.38.34.77.67,1.16,1a.74.74,0,0,0,.19.53,6,6,0,0,0,.82.71.38.38,0,0,0,.14.21l.92.65a.77.77,0,0,0,.78-.06.32.32,0,0,0,.36.2A58.33,58.33,0,0,0,46.06,42,15.51,15.51,0,0,0,51,42a1.42,1.42,0,0,0,.42-.15q6.75-.27,13.5-.73a.35.35,0,0,0,.35.37,28.67,28.67,0,0,0,7-.27c1.84,0,3.67-.12,5.5-.27s3.53-.57,5.3-.64a12.7,12.7,0,0,0,1.94.11,6.29,6.29,0,0,1,.95.24A1.23,1.23,0,0,0,87,40.24c.78-.1,1.56-.23,2.33-.37q5.43.09,10.86-.27a46.55,46.55,0,0,0,10.63-.11h0a12.54,12.54,0,0,0-.76,1.14c-.1.16-.19.32-.28.49a5.56,5.56,0,0,0-1,1.51,9.66,9.66,0,0,0-.7,1.62c-.08.28-.16.74.11,1a1.5,1.5,0,0,0,.69.17c.5.07,1,.18,1.53.2a1.94,1.94,0,0,0,1.24-.4,1.9,1.9,0,0,0,.53.15c.07,0,.13.11.2.15a1.53,1.53,0,0,0,1.81,0,5.07,5.07,0,0,0,1.35,0h0a4.6,4.6,0,0,0,2.6,0,9.36,9.36,0,0,0,2,0l.17,0a5.21,5.21,0,0,0,1.06.38,13.59,13.59,0,0,0,2.62.31,17.84,17.84,0,0,1,3,0c.38.08.56-.05.64-.25h0a13.18,13.18,0,0,0,2.74-.1c1.8.16,3.63.2,5.34.35a.3.3,0,0,0,.35-.18,17.63,17.63,0,0,0,2.3.29,7.53,7.53,0,0,0,2.84-.09c3.46,1.2,7.49.86,11.34.47a26,26,0,0,0,3.39.67c.41.05.59-.1.65-.33q4.14.28,8.31.33a.28.28,0,0,0,.29-.28c.54.05,1.09.1,1.62.11a.42.42,0,0,0,.38.26,18.13,18.13,0,0,0,4.88,0,6,6,0,0,0,1.75.18,8,8,0,0,0,1.87.11c1.27.06,2.54,0,3.81,0a1.59,1.59,0,0,0,.61-.13l3.4.43a1.1,1.1,0,0,0,.61-.15c.32.05.62.11.93.19a.39.39,0,0,0,.26.11h0a3.71,3.71,0,0,1,.47.16,1.08,1.08,0,0,0,.92-.07l.4,0a1.23,1.23,0,0,0,.27,0,.7.7,0,0,0,.14.21c.22.23.69,0,.91-.05a3.48,3.48,0,0,0,.69-.44.93.93,0,0,0,.61.15,1.09,1.09,0,0,0,.38-.16.76.76,0,0,0,.52-.41c.15-.26-.12-.87-.23-1.1a3.26,3.26,0,0,0,.18-.38A1.36,1.36,0,0,0,190.7,45.44Z" transform="translate(-14.07 -15.08)" style="fill-rule:evenodd"/><path d="M229,22.2l-.1-.19a4.38,4.38,0,0,0-2.68-1.71l-.79-.07a5.61,5.61,0,0,0-1.58-.88c-.63-.21-1.27-.38-1.91-.53l-.27-.23a4.79,4.79,0,0,0-1.51-.85,2.77,2.77,0,0,0-.77-.15,4.77,4.77,0,0,0-.8-.49,2.55,2.55,0,0,0-1.6-.33,1.79,1.79,0,0,0-.46,0,1.84,1.84,0,0,0-.93.25,11.58,11.58,0,0,0-3.53-.08l-.23,0a19.14,19.14,0,0,0-3.73.52h0c-.9-.08-3.11-.47-3.94.23h-.67c-.4,0-.53.17-.53.4-.27.08-.43.27-.27.69a4.24,4.24,0,0,0,2.42,1.93l.44.18a1.77,1.77,0,0,0,.44.11,18.41,18.41,0,0,0,2.77,2,7.15,7.15,0,0,0,1,.71c.9,1.12,3.21,2.12,3.46,1.39a5.91,5.91,0,0,0,3.58-.13H217c.35,0,.7-.08,1.05-.14a4.63,4.63,0,0,0,.62-.09q.31,0,.63-.06a8.21,8.21,0,0,0,4.85-.12,9.23,9.23,0,0,0,2.28-.17,7.9,7.9,0,0,0,1.6.12c.77,0,1-.57,1.26-1.17C229.52,23,229.3,22.56,229,22.2Z" transform="translate(-14.07 -15.08)" style="fill-rule:evenodd"/><path d="M227.48,20.63c-.46,0-.92-.09-1.37-.16a.23.23,0,0,0-.17-.16c-.52-.11-1-.25-1.53-.39a.29.29,0,0,0-.16-.15l-1.06-.31a1.3,1.3,0,0,0-.6-.4l-.76-.26a1.34,1.34,0,0,0-1-.89c-2-.48-3.47-1.39-5.51-1.16-1.28.14-2.56.34-3.84.56a.21.21,0,0,0-.16-.1l-1-.09a.4.4,0,0,0-.25.06.16.16,0,0,0-.18-.11,2.66,2.66,0,0,0-.75.18,1.41,1.41,0,0,0-.32-.09,18.73,18.73,0,0,0-3.59,0c-.25,0-.29.15-.22.34l-.5,0c-.51-.05-.23.53-.08.74a2.16,2.16,0,0,0,1.3.84l.62.05c0,.19.06.35.3.29,0,.09,0,.16.1.19.46.17.93.33,1.39.48a1.73,1.73,0,0,0,.92.8l2.25.84a1.38,1.38,0,0,0,1.55.57h0a1.59,1.59,0,0,0,.4.07,81.67,81.67,0,0,0,8.71-.28,1.61,1.61,0,0,0,.33-.06,1,1,0,0,0,.25-.06c1.25.15,2.48.47,3.75.54C227,22.54,228.09,20.67,227.48,20.63Z" transform="translate(-14.07 -15.08)" style="fill:#f1d31e;fill-rule:evenodd"/><path d="M227.7,21.83c-.11.13-.23.25-.34.37h-4.71c-.22,0-.27.11-.23.28-1.53.11-3.07.26-4.6.41a1,1,0,0,0-.51-.1c-.89.09-1.78.21-2.66.35a1,1,0,0,0-.52-.17l-.24,0a.7.7,0,0,0-.14,0,3.12,3.12,0,0,0-1.42.18c-.16.07-.16.23-.07.43a.75.75,0,0,0,.21.51.91.91,0,0,0-.17.78.5.5,0,0,0,.49.25h0c.14.26.48.13.81-.13l.1,0c1.54,0,3.08-.23,4.62-.18a.27.27,0,0,0,.24-.08c1.17-.11,2.34-.09,3.5-.19h.05c2.12-.13,4.35-.31,6.45-.64a.47.47,0,0,0,.24,0h0s0,0,0,0h0l0-.05a0,0,0,0,0,0,0v0h0c.22,0,.27-.11.24-.26s.16-.17.23-.26C229.84,22.73,228.08,21.33,227.7,21.83Z" transform="translate(-14.07 -15.08)" style="fill:#928030;fill-rule:evenodd"/><path d="M212.47,23.17A69.49,69.49,0,0,0,204,17.92c-.64-.33-1.93,1.47-1.46,1.71A70.74,70.74,0,0,1,211,24.88C211.56,25.27,213,23.52,212.47,23.17Z" transform="translate(-14.07 -15.08)" style="fill:#dfc864;fill-rule:evenodd"/><path d="M130.32,35.52a8.08,8.08,0,0,0-1.94-.88,5.44,5.44,0,0,0-1.27-1l-3.6-2c-.31-.17-.63-.33-1-.48a32.28,32.28,0,0,0-2.81-2.29,10.2,10.2,0,0,0-2.62-1.41,14.39,14.39,0,0,0-5.89-4.14,1.4,1.4,0,0,0-.34-.08A45.91,45.91,0,0,0,107,20.35a1.13,1.13,0,0,0-.39-.17c-.49-.47-1-.93-1.52-1.38a1.09,1.09,0,0,0-.94-.23c-.46-.64-.91-1.3-1.31-2-.67-1.14-2-.46-2.94.28l-18.5,1a1.15,1.15,0,0,0-.87-.13c-2.7.4-5.4.14-8.09.6-3-1.08-6.88-.33-9.91.14a2.68,2.68,0,0,0-.27.07,1.23,1.23,0,0,0-1.28.1,46.12,46.12,0,0,0-5.07.46l-13.5.78a3.27,3.27,0,0,0-.76.13c-.31,0-.63,0-.91.05a8.41,8.41,0,0,1-2.82-.36,2.31,2.31,0,0,0-1.55.47,15.29,15.29,0,0,0-5.19.1,4.62,4.62,0,0,0-1,.31c-3.47-.8-7-.17-10.66.75-.9-.24-2.43-.48-2.36.62s1.89,2.07,3,2.5l.54.49c-.41,1.08,1.81,2.25,2.46,2.59l.37.22.14.09c.39.45.79.9,1.22,1.32a5,5,0,0,0,.65.57,12.17,12.17,0,0,0,1.41,1.9c.64.86,1.3,1.7,2,2.51a18.43,18.43,0,0,0,4.86,4,1.44,1.44,0,0,0,.54.14c.49.44,1,.89,1.42,1.37a.53.53,0,0,0,.26.15c.57.61,1.14,1.22,1.69,1.85a.31.31,0,0,0,0,.08.79.79,0,0,0,.72.62c2.56.56,5.77-.08,8.39-.16l10.63-.35c5.44-.18,11.51.33,17-.65,2.27.79,5.46-.14,8.28-.94,4.73.21,9.22.62,14,.17,4.63-.44,9.29-.76,13.86-1.59a9.9,9.9,0,0,0,1.46.46c3.22.64,6.51.18,9.77.32a19.12,19.12,0,0,0,2.4-.08c.43,0,.85,0,1.27,0a9,9,0,0,0,2.46-.45c.25,0,.51,0,.77-.06a8.62,8.62,0,0,0,1.83,0l0,0c.8-.07.93-.42.67-.88a3.94,3.94,0,0,0,.49-.14C133,37.5,130.71,35.78,130.32,35.52Z" transform="translate(-14.07 -15.08)" style="fill-rule:evenodd;fill:url(#radial-gradient)"/><path d="M190.92,46.07l-.39-1.46a3.62,3.62,0,0,0-.13-.35.78.78,0,0,0,.26-.82l-.23-1.26c0-.66,0-1.31-.08-2v-1.7a1.48,1.48,0,0,0-.33-.78h0a.78.78,0,0,0,.41-.86,6.46,6.46,0,0,0,0-1.32c0-.65-.07-1.33-.1-1.94-.05-1-.13-2-.21-3a.49.49,0,0,0-.2-.34c.11-1.46.2-2.93.24-4.4a.88.88,0,0,0,0-.16,2.06,2.06,0,0,0,0-.55V25c0-.34-.44-.53-1-.58a3.13,3.13,0,0,0-.44,0c-.37-.45-.83-.83-1.33-.68a2.31,2.31,0,0,0-.51.22,2.36,2.36,0,0,0-.53,0,.77.77,0,0,0-.45-.17,4.63,4.63,0,0,0-.84.17.82.82,0,0,0-.51-.2,1,1,0,0,0-.33.08c-.53-.1-.6.49-.53,1a1.77,1.77,0,0,0,0,.46c0,.12.05.24.08.36a.64.64,0,0,0-.27.45.91.91,0,0,0-.21.48,15.4,15.4,0,0,0,0,2.15l0,.38a.54.54,0,0,0-.07.13,13,13,0,0,1-.69,2,.57.57,0,0,0-.39.42l0,.24c-1.47-.4-2.76-.36-3.07.46a19.64,19.64,0,0,1-.89,2,2,2,0,0,0-1.09.27,17.41,17.41,0,0,1-1.88,1c-1.17.16-2.34.33-3.5.38a3.14,3.14,0,0,0-1.3,0,9.31,9.31,0,0,1-2.31-.39,18,18,0,0,0-4-.93c-.07-.13-.14-.26-.22-.39s-.12-.42-.17-.63a40.4,40.4,0,0,0-.63-4.64A.94.94,0,0,0,163,29v0h0c0-.62.06-1.23.06-1.85a12.48,12.48,0,0,0,.15-2.59.44.44,0,0,0-.21-.3,1.37,1.37,0,0,0-.05-.4.32.32,0,0,0,0-.17l0-.11a.45.45,0,0,0-.17-.33,1,1,0,0,0-.15-.14l0-.05a1.27,1.27,0,0,0-.78-.32h0l-.29,0h0a4.4,4.4,0,0,0-1.4.11,13,13,0,0,0-1.49-.27,7.69,7.69,0,0,0-1.86.06,28.86,28.86,0,0,0-3.36-.16h-.19c-1-.06-2.05,0-3.07,0l-1,.05a25,25,0,0,0-4.42-.21c-.18,0-.37,0-.56,0h-.43a12.88,12.88,0,0,0-2.66-.32,2.62,2.62,0,0,0-.57.07l-.93-.16a4.34,4.34,0,0,0-2.15.08c-1.09-.1-2.18-.15-3.28-.15a7.79,7.79,0,0,0-1.95-.32,4.4,4.4,0,0,0-1.07.1,12.76,12.76,0,0,0-6.12-.64c-.26.05-.6.1-.93.19a6.57,6.57,0,0,0-2.11-.19,1.5,1.5,0,0,0-1.4,1.24.69.69,0,0,0-.31.36,8.8,8.8,0,0,0-.26,1,3,3,0,0,0-1.6,2,.81.81,0,0,0-.58.91,4,4,0,0,0,1.07,2.08,9.83,9.83,0,0,0,3.3,2.32l1,.38a14.63,14.63,0,0,0,2.39,1.7l.19.12a9.26,9.26,0,0,0,1.62,1l.77.47a9,9,0,0,0,1.19.64,32.05,32.05,0,0,0,3,2.06l.52.58a.93.93,0,0,0-.69.38,1.08,1.08,0,0,0-.81.54,1.39,1.39,0,0,0-.15.73.74.74,0,0,0,0,.21,2.43,2.43,0,0,0-1,.13,32,32,0,0,0-4.59.15l-.17,0a9.49,9.49,0,0,0-2.06.09,2.79,2.79,0,0,0-1,.15,3.58,3.58,0,0,0-.85,0c-1.77.2-3.54.34-5.32.42l-.47.05-1.23,0a3.35,3.35,0,0,0-.55,0,2.46,2.46,0,0,0-.38-.14c-.68-.59-2-.37-2.82-.13-.27.09-1.41.53-1.48,1-.29.28-.42.62.09.85l0,.06a3.14,3.14,0,0,0-.63.42,4.25,4.25,0,0,0-.92,1.71c-.32.83,1.31.86,1.74.82a5,5,0,0,0,.54-.07,2.75,2.75,0,0,0,.78.18,21.55,21.55,0,0,0,3.68,0,.79.79,0,0,0,.28.16,8.48,8.48,0,0,0,4.32.36l.15,0,4,.21h.32a10.51,10.51,0,0,0,2.91-.1,9.52,9.52,0,0,0,1.28.22c.41,0,.81.07,1.22.08l.69,0h0l.09,0a4.45,4.45,0,0,0,1.89,0h0a63.74,63.74,0,0,1,8.63.2,1.71,1.71,0,0,0,1.3-.27,15.8,15.8,0,0,0,6,.24,1.1,1.1,0,0,0,.26-.06,22.57,22.57,0,0,0,2.6,0h.13a7.52,7.52,0,0,0,1.93.39c1.86.1,3.71.08,5.56,0a19.94,19.94,0,0,0,4.62.38c.61,0,1.35-.21,2.05-.32a23.25,23.25,0,0,0,9.24.64,6.1,6.1,0,0,0,1.37.19h4.14a4.58,4.58,0,0,0,2.69.06h0l.59-.14h0a11,11,0,0,0,1.49.31,6.35,6.35,0,0,0,2.13-.07l1.15.15a6.77,6.77,0,0,0,1.31.22c.71,0,1.71,0,2.08-.75A2,2,0,0,0,190.92,46.07Z" transform="translate(-14.07 -15.08)" style="fill-rule:evenodd;fill:url(#radial-gradient-2)"/><path d="M179.56,24.53c-.63.92-.11,2.14-.74,3-.36.52.88,2.33,1.28,1.77.64-.91.12-2.13.73-3C181.19,25.78,179.94,24,179.56,24.53Z" transform="translate(-14.07 -15.08)" style="fill-rule:evenodd;fill:url(#radial-gradient-3)"/><path d="M179,19.54a1.94,1.94,0,0,1,0-.24c0-.48-.48-.28-.73-.1a3.41,3.41,0,0,0-.41.38l-.65.15-.16.08c-.16-.06-.42.07-.59.18l-.08.05c0-.13,0-.23-.19-.21a28.36,28.36,0,0,0-2.91.44.15.15,0,0,1-.07,0l-.19,0a1.9,1.9,0,0,0-1.46-.05,5,5,0,0,0-1.93-.05h0a11.79,11.79,0,0,0-1.74-.39.35.35,0,0,0-.34.11l-.13-.05a17.22,17.22,0,0,0-2.4-.44l-.07,0c-.35-.52-.79-1-1.27-1-.88,0-.39,1.5-.21,1.91l0,.07a1.62,1.62,0,0,0,0,.75,22.72,22.72,0,0,0,0,3.78,11.49,11.49,0,0,0,.13,4.23.36.36,0,0,0-.2.24,3.8,3.8,0,0,0-.16,1.52v0c-.29.24-.24.95-.13,1.31a4.21,4.21,0,0,0,1.77,2.54,2.48,2.48,0,0,0,1.44.27l.16,0a10.3,10.3,0,0,0,1.24,0,1.1,1.1,0,0,0,.7.34H169c.76.14,1.55.22,2.23.34a.49.49,0,0,0,.28,0,4.15,4.15,0,0,0,1.93-.36l.21,0a3.3,3.3,0,0,0,1.58.23.77.77,0,0,0,.65-.57,2.79,2.79,0,0,0,.77-.39.39.39,0,0,0,.1-.08,2.4,2.4,0,0,0,.26-.18.35.35,0,0,0,.18,0c.66.18,1.79-1.19,1.53-1.75-.06-.14-.19-.15-.34-.12a.22.22,0,0,0-.14,0l-.09-.06a.17.17,0,0,0-.17-.1h-.39a2.7,2.7,0,0,1-.57-.08.51.51,0,0,0-.24,0l-.12-.07a3.77,3.77,0,0,0-.38-1h0l.45-1a1.84,1.84,0,0,0,.07-.47,3,3,0,0,0,.07-.32c.34.23.67.32.8-.05a.37.37,0,0,0,.21,0,.47.47,0,0,0,.33-.05,1.27,1.27,0,0,0,.26-.26l.11,0a.59.59,0,0,0,.24-.49,2.7,2.7,0,0,0-.26-1.5V26l.15-1c0-.21,0-.28-.18-.29a.22.22,0,0,0-.23-.18s0,0-.06,0c-.45,0-1,0-1.43,0a2.55,2.55,0,0,0-.64-.53,4.23,4.23,0,0,0-.36-.78l-.1-.16a1.42,1.42,0,0,0-.15-.22.65.65,0,0,0,.06-.23c0-.19,0-.39,0-.58l0-.11a2.56,2.56,0,0,0,.2-.26,1.5,1.5,0,0,0,.25-.19h.08l.84-.21a1.45,1.45,0,0,0,.36,0,2,2,0,0,0,.06.26c.19.57,1.62-.71,1.59-1.38a.29.29,0,0,0,0-.09v-.26C179.09,19.65,179,19.57,179,19.54Z" transform="translate(-14.07 -15.08)" style="fill-rule:evenodd;fill:url(#linear-gradient)"/><path d="M183.15,26a.79.79,0,0,0,.06-.38l-.07-1.07c0-.16-.06-.22-.15-.24a3.23,3.23,0,0,0-1-2.37c-.12-.13-.28-.11-.45,0a1.24,1.24,0,0,0-.57-.22,6.05,6.05,0,0,1-1.4-.25s0,0-.05,0a5.09,5.09,0,0,0-.68-.12.91.91,0,0,0-.64.28v0c-.09-.2-.28-.18-.47-.08l-.12-.12c-.53-.48-1.45,1.11-1.52,1.46a1.32,1.32,0,0,0,.32,1.27.23.23,0,0,0,.14.08c.11.12.25.1.41,0a1.9,1.9,0,0,0,1.25,0,1.46,1.46,0,0,0,.51.07,2.88,2.88,0,0,0,.59,0c.28.11.55.22.84.31.09.15.18.3.28.44a.19.19,0,0,0,.19.07A7.55,7.55,0,0,1,181,27.3c0,.38,0,.76,0,1.14l-.1.11a1.53,1.53,0,0,1-.72.41,1.77,1.77,0,0,0-.72.51,2.13,2.13,0,0,0-.42.23l-.14,0a1.22,1.22,0,0,0-.81.23,3.65,3.65,0,0,0-.31-.24c-.49-.4-1.87,1.23-1.44,1.72.2.23.4.47.61.7a.25.25,0,0,0,.19.07.21.21,0,0,0,.19.06.94.94,0,0,0,.06.15c.14.21.4.07.67-.19l.07,0a.8.8,0,0,0,.18-.12.32.32,0,0,1,0,.09c.16.32.53.12.87-.21h0s0,.06.06.08a1.44,1.44,0,0,0,1.49-.21,2.06,2.06,0,0,0,.72-.68,1,1,0,0,0,.64-.29,2.17,2.17,0,0,0,.93-1.55c0-.1,0-.18,0-.24a.88.88,0,0,0,.16-.39Z" transform="translate(-14.07 -15.08)" style="fill-rule:evenodd;fill:url(#linear-gradient-2)"/><path d="M178.84,17.89a1.06,1.06,0,0,0-.6-.31c0-.18,0-.34-.07-.42-1.24-.86-3.12-.91-4.57-1.19l-.14,0c-.21,0-.42-.07-.64-.08a2.89,2.89,0,0,0-3.23.14l0,0a16.52,16.52,0,0,0-5.29.38c-.45.11-1.69,1.81-1.06,1.8l1.19.07c0,.66.47.81,1,.69a1.71,1.71,0,0,0,1.86.44.75.75,0,0,0,.12-.07l1.21.24a15.27,15.27,0,0,0,1.94.48.73.73,0,0,0,.49-.16l.61,0a4.7,4.7,0,0,0,2,.08,4.09,4.09,0,0,0,2.45-.57l.11-.05a.31.31,0,0,0,.17,0,1.09,1.09,0,0,1,1.05.22C177.79,20,179.31,18.39,178.84,17.89Z" transform="translate(-14.07 -15.08)" style="fill-rule:evenodd;fill:url(#linear-gradient-3)"/></g><g id="Shadows" style="opacity:0.41000000000000003;mix-blend-mode:multiply"><path d="M182.4,22.43a3.79,3.79,0,0,1,.86,1.24c-.1-.47-.21-.94-.36-1.41-.06-.18-.35-.18-.69-.09a2.63,2.63,0,0,0-1.84-.92,3,3,0,0,0-.89.09A5,5,0,0,1,182.4,22.43Z" transform="translate(-14.07 -15.08)" style="fill-rule:evenodd"/><path d="M178.55,29.49l.8-.5V25h.08a2.87,2.87,0,0,0,.69-.16s0,0,0,0a1.23,1.23,0,0,1,.63.9,1.92,1.92,0,0,0-.88-1.35,3.22,3.22,0,0,0-1.22-.27A31.8,31.8,0,0,1,178.55,29.49Z" transform="translate(-14.07 -15.08)" style="fill-rule:evenodd"/><path d="M196,31.08c-.08-.44-1.11-.4-1.33-.38a4,4,0,0,0-.66.12h-12.1a13.59,13.59,0,0,0-2.22,1.55,1.57,1.57,0,0,1-.33.26,1.63,1.63,0,0,1-.14,1.11c-1,2-3.64,2.11-5.56,1.72a1.53,1.53,0,0,1-.81.19c0,.34.14.6.76.6h17a6.42,6.42,0,0,0,4.3-1.75,3.55,3.55,0,0,0,1-1.58c0-.06.06-.12.08-.19A3.41,3.41,0,0,0,196,31.08Z" transform="translate(-14.07 -15.08)" style="fill-rule:evenodd"/><path d="M235.69,24a1.37,1.37,0,0,0-.42-.25l-4-1.69a4.21,4.21,0,0,0-3,.14,4.38,4.38,0,0,0-1.13-.07,4.75,4.75,0,0,0-1.35.26l-1.86,0a5.61,5.61,0,0,0-1.73.19l-.18.06-1.45-.11a5,5,0,0,0-1.72.19l-.12,0a.58.58,0,0,0-.43-.16c-.94-.05-1.89-.13-2.83-.24a3.42,3.42,0,0,0-2,.52c-.58.13-1.31.4-1.2,1-.35.44-.62,1,.16,1.13l.74.06c-.5.47-.37,1,1.25,1h19.48a3.47,3.47,0,0,0,.78-.1,4.62,4.62,0,0,0,.63-.11c.76,0,1.65-.2,1.9-.77C237.5,24.24,236.26,24,235.69,24Z" transform="translate(-14.07 -15.08)" style="fill-rule:evenodd"/></g><g id="Highlights"><path d="M165.09,32.37V18.83c0-.61-2.25-.55-2.25.12V33.08c0,.25.41.38.87.41a3.92,3.92,0,0,0,.37.34c.11.08.95.59.95.14v-.86a.32.32,0,0,0,.06-.15v-.24A.42.42,0,0,0,165.09,32.37Z" transform="translate(-14.07 -15.08)" style="fill:#fff;fill-rule:evenodd;mix-blend-mode:overlay"/></g><g id="Lines"><path d="M133.23,38.06,38.4,42.72,16.08,21.12l86.16-4.56Z" transform="translate(-14.07 -15.08)" style="fill:none;stroke:#211d20;stroke-miterlimit:10;fill-rule:evenodd"/><path d="M61.44,18.72a104.42,104.42,0,0,1,10.32,8.4c5.4,5,14.37,13.6,14.37,13.6" transform="translate(-14.07 -15.08)" style="fill:none;stroke:#211d20;stroke-miterlimit:10;fill-rule:evenodd"/><path d="M17.28,22.32l-1.68-.24L38.4,43l93.6-3.6-1.44-1" transform="translate(-14.07 -15.08)" style="fill:none;stroke:#211d20;stroke-miterlimit:10;fill-rule:evenodd"/><path d="M110.24,40.12l-3,5.24,83.52,3.12L190.08,24l-7.1-.32m-19.9-1-41.64-2-3.75,6.6" transform="translate(-14.07 -15.08)" style="fill:none;stroke:#211d20;stroke-miterlimit:10;fill-rule:evenodd"/><path d="M202.8,17.28l15.12-.72,11.28,5.28-17,1Z" transform="translate(-14.07 -15.08)" style="fill:none;stroke:#211d20;stroke-miterlimit:10;fill-rule:evenodd"/><path d="M202.8,17v2.4l9.36,6V22.8" transform="translate(-14.07 -15.08)" style="fill:none;stroke:#211d20;stroke-miterlimit:10;fill-rule:evenodd"/><path d="M229.2,21.84v2.4l-17,1.2" transform="translate(-14.07 -15.08)" style="fill:none;stroke:#211d20;stroke-miterlimit:10;fill-rule:evenodd"/><path d="M179,21.35l0-2.87s-1.16,1.67-8.4,1.44-7.68-2.4-7.68-2.4.24,14.83.24,15.36,1.09,3,7.2,3.12,8.32-2,8.4-2.64c0-.09,0-1.21,0-1.21m0-2.47.08-5.53" transform="translate(-14.07 -15.08)" style="fill:none;stroke:#211d20;stroke-miterlimit:10;fill-rule:evenodd"/><path d="M163,17.52c0-.61,1.89-2.14,7.92-1.92S179,17.18,179,18.48" transform="translate(-14.07 -15.08)" style="fill:none;stroke:#211d20;stroke-miterlimit:10;fill-rule:evenodd"/><path d="M177.6,29.76c-.5,0-1.19.28-1,1.44a1.36,1.36,0,0,0,1.2,1.2s4.59-.18,5.28-2.64.36-6.48-1-7.68-5.28-.72-5.28-.72a1.34,1.34,0,0,0-1,1.44c0,1.24.76,1.38,1.2,1.44,2.9-.06,3.92.11,3.84,2.4S180.24,29.63,177.6,29.76Z" transform="translate(-14.07 -15.08)" style="fill:none;stroke:#211d20;stroke-miterlimit:10;fill-rule:evenodd"/></g></g></svg>