<svg xmlns="http://www.w3.org/2000/svg" xmlns:xlink="http://www.w3.org/1999/xlink" viewBox="0 0 353.6 155.84"><defs><linearGradient id="linear-gradient" x1="5.71" y1="35.16" x2="351.22" y2="35.16" gradientUnits="userSpaceOnUse"><stop offset="0" stop-color="#943d3c"/><stop offset="0.99" stop-color="#6a2727"/></linearGradient><linearGradient id="linear-gradient-2" x1="8.25" y1="61.83" x2="355.2" y2="61.83" gradientUnits="userSpaceOnUse"><stop offset="0" stop-color="#5a1e1d"/><stop offset="0.99" stop-color="#381113"/></linearGradient><linearGradient id="linear-gradient-3" x1="179.11" y1="166.36" x2="179.11" y2="65.91" gradientUnits="userSpaceOnUse"><stop offset="0" stop-color="#6b2827"/><stop offset="0.75" stop-color="#521918"/><stop offset="0.98" stop-color="#31161a"/></linearGradient><linearGradient id="linear-gradient-4" x1="26.86" y1="93.91" x2="26.86" y2="68.42" xlink:href="#linear-gradient-3"/><linearGradient id="linear-gradient-5" x1="256.91" y1="92.25" x2="256.91" y2="79.1" xlink:href="#linear-gradient-3"/><linearGradient id="linear-gradient-6" x1="251.08" y1="90.45" x2="251.08" y2="78.46" gradientUnits="userSpaceOnUse"><stop offset="0" stop-color="#963e3e"/><stop offset="0.98" stop-color="#5d393e"/></linearGradient><linearGradient id="linear-gradient-7" x1="316.16" y1="151.91" x2="316.16" y2="79.38" xlink:href="#linear-gradient-6"/><radialGradient id="radial-gradient" cx="277" cy="116.2" r="84.98" gradientUnits="userSpaceOnUse"><stop offset="0" stop-color="#7b3030"/><stop offset="0.98" stop-color="#4e2e32"/></radialGradient><radialGradient id="radial-gradient-2" cx="28.98" cy="148.71" r="2.1" xlink:href="#radial-gradient"/><radialGradient id="radial-gradient-3" cx="26.81" cy="109.62" r="11.78" gradientUnits="userSpaceOnUse"><stop offset="0" stop-color="#9f4242"/><stop offset="0.98" stop-color="#694146"/></radialGradient><radialGradient id="radial-gradient-4" cx="146.05" cy="96" r="75.63" xlink:href="#radial-gradient"/><radialGradient id="radial-gradient-5" cx="284.16" cy="118.19" r="28.27" gradientUnits="userSpaceOnUse"><stop offset="0" stop-color="#7b3434"/><stop offset="0.26" stop-color="#733"/><stop offset="0.5" stop-color="#6c3031"/><stop offset="0.73" stop-color="#5a2b2d"/><stop offset="0.97" stop-color="#58353a"/></radialGradient><radialGradient id="radial-gradient-6" cx="177.99" cy="152.28" r="98.74" xlink:href="#radial-gradient-5"/><radialGradient id="radial-gradient-7" cx="144.76" cy="91.57" r="75.28" xlink:href="#radial-gradient-5"/></defs><title>Table</title><g style="isolation:isolate"><g id="Color"><path d="M354.78,62.29c0-1.32,0-2.65,0-4,0-.07,0-.14,0-.21l.1-.29c.14-.41.48-1.33,0-1.73a.88.88,0,0,0-.7-.13,1.67,1.67,0,0,0,.11-1c-.24-.66-.8-.65-1.41-.39-.18-.2-.36-.38-.55-.56a.37.37,0,0,0-.39-.36l-.12-.11-.15-.12a.65.65,0,0,0-.49-.44l-.22-.06c-1-.63-2.39-1.38-2.65-.64l-.57-.14c.21-.78.12-1.37-.47-1.55L341,48.69c.2-.74.12-1.28-.43-1.39l-2-.41a.66.66,0,0,0-.28-.51,112.84,112.84,0,0,0-12.1-6.05.51.51,0,0,0-.26-.48c-11.38-5.08-21.74-12-32.42-18.31-3.81-2.27-8.91-6.33-13.46-7.17-.43-.39-.87-.77-1.28-1.19s-1-.24-1.81.21c0,0-.07,0-.12,0H138.43a3.74,3.74,0,0,0-2.21,1.2H19.85c-.51,0-.33.75.22,1.75H9c-.87-.45-1.56-.58-1.75-.19a2.58,2.58,0,0,0,0,2.14h0V41.09a3.86,3.86,0,0,0,1.12,2.23c-.15,1.29-.32,2.54-.54,3.69-.13.26-.26.52-.38.78a3.48,3.48,0,0,0-.25,1.83A5.79,5.79,0,0,0,8.6,53.53a.62.62,0,0,0-.27.52,37.36,37.36,0,0,0-.07,4.85,3.82,3.82,0,0,0,.43,1.52,4.25,4.25,0,0,0-.06.71,18.52,18.52,0,0,0,.83,6.07c.72,1.88,2.5,1.39,4.1,1.68A2.83,2.83,0,0,0,15.69,68h6a6.46,6.46,0,0,0,1.57.22h.3V89.91a2.14,2.14,0,0,0,0,1v.65a8.13,8.13,0,0,0,1.74,4.59V106.5c0,.12,0,.23,0,.35a1.17,1.17,0,0,0-.41,1V118.5a5.9,5.9,0,0,0,.25,1.65l-.05.29a3.7,3.7,0,0,0,.27,1.55,2.06,2.06,0,0,0,0,1.56c.06.52.13,1,.2,1.55,0,0,0,0,0,0a1.33,1.33,0,0,0-.11.52v.58c0,.14,0,.27,0,.41s0,.11,0,.17V128a4.81,4.81,0,0,0,.19,1.3v.63a7.94,7.94,0,0,0,1.66,4.23,17.89,17.89,0,0,0,1.37,1.75,139.21,139.21,0,0,0-.91,16.48c0,.92.88,2.09,2,3.13v.36a3.44,3.44,0,0,0,.09.56.76.76,0,0,0-.47.58,8.19,8.19,0,0,0-.07,2.92,4.64,4.64,0,0,0,1,1.88,3.28,3.28,0,0,0-.51,1.91,2.88,2.88,0,0,0,3.87,2.15.37.37,0,0,0,.3.13h91a4,4,0,0,0,2.41-1.39h91c.24,0,.31-.17.29-.43a.87.87,0,0,0,.8-.19.84.84,0,0,0,.17-.7h88.15l.23.24c.4.39,1.28,0,1.65-.24h5a2.53,2.53,0,0,0,1.33-.5.79.79,0,0,0,.89.26.84.84,0,0,0,.29,0h4.2a2.57,2.57,0,0,0,.4.08c1.53.14,4.07.31,5.4-.65,1.07-.76.71-2.82.52-4.23a4.51,4.51,0,0,0,.4-1.75V64.78h16.33a3.61,3.61,0,0,0,2.12.8c1.31,0,2.63-.11,3.94-.2a9,9,0,0,0,3.14-.4,2.32,2.32,0,0,0,1.05.29c.54,0,.44-.74,0-1.74A7.31,7.31,0,0,0,354.78,62.29ZM39,80a6.49,6.49,0,0,0,.77,0h209.7v8.06q-1.32.14-2.64.24a4.81,4.81,0,0,0-2.74,1.44h-174a2.36,2.36,0,0,0-1.16.38H39Zm173.2,68.64a3.94,3.94,0,0,0-2.41,1.39H38.86V142a1.13,1.13,0,0,0,0-.18,1,1,0,0,0,.54-1v-1.16a4.76,4.76,0,0,0-.2-1.3v-.63c0-.14,0-.27,0-.41s0-.11,0-.18v-.58a5.07,5.07,0,0,0-.18-1.28,2,2,0,0,0,0-1.63c-.06-.51-.13-1-.2-1.54a3.82,3.82,0,0,0-.13-.36,2,2,0,0,0,.12-.41c.07-.45.14-.9.22-1.35a3.64,3.64,0,0,0-.42-1.89s0,0,0,0v-9.31c0-.12,0-.24,0-.35a1.2,1.2,0,0,0,.41-1V99.81H173.63A4,4,0,0,0,176,98.46h75.05a4,4,0,0,0,2.42-1.4l.06.08,5,4.86a.62.62,0,0,0,.4.16l20.11,20.11c-.32.8-.35,1.45.07,1.72,2.68,1.77,4.28,4.47,6.55,6.67,2.69,2.6,5.79,4.71,8.44,7.39.28.29.75.27,1.31,0q2.1,2.5,4.3,4.94a20.87,20.87,0,0,0,2,2.5c.35.38,1.17,0,1.57-.19.83,1.1,1.66,2.19,2.47,3.31Zm101.34-12.1a62.2,62.2,0,0,0-5.46-5.55c-2.53-2.08-5.27-3.94-8-5.82a66.81,66.81,0,0,0-14-11.08c-.93-1.23-1.87-2.45-2.85-3.64-.24-.3-.7-.26-1.26,0A104.35,104.35,0,0,0,269,98.2a1.35,1.35,0,0,0-1.38,0l-3-3a.75.75,0,0,0-.43-.2l-3.42-3.32a4.42,4.42,0,0,0,.38-1.7v-9.9h51.36V94c0,.61.42.67,1,.49Z" transform="translate(-5.47 -11.48)" style="fill-rule:evenodd"/><path d="M350.7,53.7A13.24,13.24,0,0,0,346,49.91a11.1,11.1,0,0,0-1.94-.77,6.85,6.85,0,0,0-2.89-1.75l-3-.75a45.68,45.68,0,0,0-6.22-3.3,2.66,2.66,0,0,0-1.38-.3c-.07,0-.13-.1-.21-.14a36,36,0,0,0-7.54-4.8,1,1,0,0,0-.94.08q-4-2.77-8.24-5.21a1.4,1.4,0,0,0-.55-1.24l-13.47-8.18c-.57-.34-1.39.24-2.18,1.23-1.12-.7-2.26-1.37-3.41-2L292.76,22a1.42,1.42,0,0,0-.48-.91c-3.74-3-8.59-4.41-11.95-8-.22-.23-.63,0-1.11.37A4.1,4.1,0,0,0,277,12.24a12.13,12.13,0,0,0-6,.28c-.7.22-1.39.52-2.1.71l-.14,0-.48.06-.11,0-.28,0a5.24,5.24,0,0,0-4.48.29,17.85,17.85,0,0,1-1.93-.24,6.16,6.16,0,0,0-2.49-.59.78.78,0,0,0-.57-.2H208.09c-.71,0-1.48.76-2.15,1.81H128.86a1.23,1.23,0,0,0-.64.2H62.1c-.45,0-.39.56,0,1.35H15.31a1.33,1.33,0,0,0-.6.18,7.48,7.48,0,0,0-2.26-.09c-1.2-1-2.5-1.69-3.39-1.21s-1.84.24-2.61.72S5.71,17,5.71,17.82a13.24,13.24,0,0,0,1.34,5.77c0,.17-.1.33-.14.5a3.35,3.35,0,0,0-.07,2.27l.77,1.29a.78.78,0,0,0,.45.37q.18,2.7.45,5.4V56.75c0,.84.35,1,.8.87.07.48.27.76.67.69L12.19,58H230c.75,0,1.57-.85,2.27-2h56.17a5.71,5.71,0,0,0,1.68.26,6,6,0,0,0,1.69-.26h9.92a6.14,6.14,0,0,0,2.31-.43c6.86,1,14.05.23,20.9,0a2.16,2.16,0,0,0,1.34-.78c1.12.31,2.25.59,3.41.8a1.58,1.58,0,0,0,1.16-.32,15.42,15.42,0,0,0,2.45,0,17.52,17.52,0,0,0,7-.17l.15,0a1.2,1.2,0,0,0,.74-.15c1.22.07,2.44.1,3.66.08a1.07,1.07,0,0,0,.84-.28,23.32,23.32,0,0,0,4.56.91C351.69,55.83,351.25,54.41,350.7,53.7Z" transform="translate(-5.47 -11.48)" style="fill-rule:evenodd;fill:url(#linear-gradient)"/><path d="M354.6,63.09l-.11-.12a2.11,2.11,0,0,0,.28-1,27.86,27.86,0,0,0-.39-3.66c.5-.81.74-1.58.29-1.62-.26,0-.5-.06-.74-.09a.4.4,0,0,0-.27-.05,14.28,14.28,0,0,0-3.5-.4c-1.19.08-2.38.18-3.56.29a11,11,0,0,0-2.9-.54c-.09-.28-.43-.32-.91-.08l-.51.25a2.61,2.61,0,0,0-.3.2H240c-.95,0-.91.61-.34,1.42H136.73a2,2,0,0,0-1.16.65H75.43a1.51,1.51,0,0,0-.85.38H31.69c-.49,0-1.1.53-1.63,1.17H12.65c0-.53-.7-.19-1.21.15l-.08,0-.24-.06c-.73-.48-1.79-.92-2.13.16a2.44,2.44,0,0,0-.07.46.91.91,0,0,0-.23.15c-.28.31-.15.76,0,1.11a7.68,7.68,0,0,0,.57,1.36c-.77,1-1.28,2.18-.77,2.18h1V66.8c-.31.61-.41,1.1-.08,1.1h.12c.09.2.37.15.68,0H105a1.49,1.49,0,0,0,.86-.39h53.85a2.1,2.1,0,0,0,1.28-.77h50.07l.11,0,.07.07c.2.21.68,0,.85-.13a4.48,4.48,0,0,0,1-.82h31.1a1.05,1.05,0,0,0,.34-.08,6.71,6.71,0,0,0,2,.69,76.28,76.28,0,0,0,8-.43c.25,0,.5-.06.75-.09a4,4,0,0,0,1.92.41,33.38,33.38,0,0,1,6.85.1c.82.1,1-.24,1-.71a4.31,4.31,0,0,0,1.34.24h14.2c.72,0,1-.27,1-.65h64.31a6.8,6.8,0,0,0,1.55.54c.5.1,1.36.32,1.71-.21a.74.74,0,0,0,.1-.47,4.93,4.93,0,0,0,1.17.41c.58.12,1.24.27,1.71-.2l.05,0a2.3,2.3,0,0,0,1.91-.2,1.26,1.26,0,0,0,1-.4C355.47,64.33,354.78,63.34,354.6,63.09Z" transform="translate(-5.47 -11.48)" style="fill-rule:evenodd;fill:url(#linear-gradient-2)"/><path d="M327.45,155.18l-.13-.19.15-3.62a6.7,6.7,0,0,0,0-.9c.38,0,.62-.31.52-1.06-.25-1.79-.47-3.58-.7-5.37a87.46,87.46,0,0,0,.09-11q.08-3.34.21-6.67a4.48,4.48,0,0,0-.5-2.13,33.11,33.11,0,0,1-.35-3.58c.4.07.83,0,.94-.48a3.65,3.65,0,0,0-.58-2.2c0-.08-.09-.16-.14-.24a6.32,6.32,0,0,0,.08-1V73.44c0-1.14-.66-1-1.33-.62,0-.31,0-.62,0-.93a9.74,9.74,0,0,0,1-2.56,3.44,3.44,0,0,0,.07-2.28,1.85,1.85,0,0,0-2-.92,2.72,2.72,0,0,0-.49.13,2.76,2.76,0,0,0-2-.06l-.54.16a1.33,1.33,0,0,0-.19-.14l-.5-.25a.94.94,0,0,0-.9.17l-.28,0H305c-.59,0-.75.39-.69.91H140.65c-.37,0-.48.3-.43.77H44.14c-.37,0-.5.3-.44.77H35.1a.6.6,0,0,0-.68.53,1,1,0,0,0-.35,0H34a1.82,1.82,0,0,0-1.21-.32c-.72-.42-1.44-.58-1.77.18a8.11,8.11,0,0,0-.56,4.16A16.81,16.81,0,0,0,30.83,76v3.9c-.22.71-.47,1.42-.76,2.12a2.87,2.87,0,0,0,.52,2.28q-.14,5.22.12,10.44a3.71,3.71,0,0,0,.12.73V158a.8.8,0,0,0-.12.31,2,2,0,0,0-.1,1.09,4,4,0,0,0-.25,1.62c0,.41.09.81.16,1.21a12.85,12.85,0,0,1-.05,2.77c0,.34.06,1.24.68,1.1a2.87,2.87,0,0,1,1.42.16,3.41,3.41,0,0,0,.65.14h.25l.33-.06c.48.17,1.18-.23,1.51-.44a2.4,2.4,0,0,0,.26-.18c.72.34,1.26.3,1.37-.4a2.54,2.54,0,0,0,1.23.4H87.58a.28.28,0,0,0,.26-.13h59.23c.45,0,.42-.53.11-1.29H218c.36,0,.4-.35.25-.88h99.24a1.07,1.07,0,0,0,.29-.06.56.56,0,0,0,.23.06,1.52,1.52,0,0,0,.9-.36,5,5,0,0,0,.91.13c.33,0,.78-.36,1.15-.74l.32.08a.79.79,0,0,0,.35.46.84.84,0,0,0,.69-.05,2.12,2.12,0,0,0,.57.07h.77l.13,0a2.17,2.17,0,0,0,2.1-.3h0a2.25,2.25,0,0,0,.58.07l1,0a.63.63,0,0,0,.6-.58c0-.26,0-.51,0-.76a3.63,3.63,0,0,0-.54-1.77c.19-.75.37-1.5.56-2.26S327.74,155.64,327.45,155.18Zm-8.1-45.08c-.49-.17-.84-.09-.93.36a1.45,1.45,0,0,0-.1.77,3.29,3.29,0,0,0,.15.66c.25,3.62.55,7.24.88,10.85v8.86a83.76,83.76,0,0,0-.42,12.27,3.09,3.09,0,0,0,.42,1.17v8.88H258.53a2.66,2.66,0,0,0-1.79,1.29H218.83a2.53,2.53,0,0,0-.67-.1H218l-.13,0-.13,0H109.51c-.41,0-.42.46-.17,1.13q-18.12.22-36.25.33a2.1,2.1,0,0,0-1.6-.34,16.16,16.16,0,0,1-2.23.56c-1.81-.86-4.16-.16-6,.08a3.15,3.15,0,0,0-.89.27c-3-.12-6-.45-8.75-.53-4.16-.12-8.31-.31-12.44,0a2.7,2.7,0,0,0-1-.38c-.71-.11-1.43-.19-2.16-.25V80.76c0-.18,0-.37.06-.56a1.82,1.82,0,0,0,0-.33c8.11,2.16,18.16.36,26.4-.15l2-.14c9,.63,18.13.69,27.23.64s18.3-.09,27.44-.4c4.59-.16,9.18-.38,13.75-.71.92-.07,2.54,0,4.26,0A3.08,3.08,0,0,0,141,80H243c.54,0,.55-.64.24-1.54h73.21a7.93,7.93,0,0,0,.83.25,6.84,6.84,0,0,0,.93,1.85c-.23.09-.37.32-.36.79.13,3.74.14,7.47-.05,11.21-.12,2.51-.76,5.16.08,7.57a9.82,9.82,0,0,0,1.18,2.26,18.85,18.85,0,0,0,.26,4Z" transform="translate(-5.47 -11.48)" style="fill-rule:evenodd;fill:url(#linear-gradient-3)"/><path d="M29,69.54c.15-.44.18-.86-.25-.86h-.91a1.54,1.54,0,0,0-.84.39c.1-.38.07-.65-.19-.65-1.26,0-3.29,3.68-2.33,3.68h.05v11c-.74,1.48-1,2.76-.19,2.76l.19,0V92.1a2.92,2.92,0,0,0-.17.36c-.09.27-.19.64,0,.87l.39.38a.32.32,0,0,0,.32.05.3.3,0,0,0,.28.15h.52a1.77,1.77,0,0,0,1-.51c.27,1,3-1.68,3-2.75V69.74C29.86,69.21,29.49,69.24,29,69.54Z" transform="translate(-5.47 -11.48)" style="fill-rule:evenodd;fill:url(#linear-gradient-4)"/><path d="M260.41,79.47c0-.22-.08-.38-.34-.37-1.55.06-3.1.1-4.65.1-.87,0-1.72,1.2-2.13,1.85-.14.23-.83,1.47-.43,1.77,0,0,0,.08,0,.12v8.42c0,.76.59.53,1.05.23a.38.38,0,0,0,.35.45,15.06,15.06,0,0,0,2.33.21,1.87,1.87,0,0,0,1-.52,4.64,4.64,0,0,0,.49-.5v0c0,1.51,3-1.46,3-2.58v-8.9C261.09,79.31,260.8,79.27,260.41,79.47Z" transform="translate(-5.47 -11.48)" style="fill-rule:evenodd;fill:url(#linear-gradient-5)"/><path d="M252.43,81.39a4.61,4.61,0,0,0-1.6-2.41c-.43-.36-1.35-1-1.35,0V87.3a4.32,4.32,0,0,0,1.63,2.63c.42.36,1.35,1,1.35,0v-7.2l.06-.06C252.81,82.38,252.67,81.87,252.43,81.39Z" transform="translate(-5.47 -11.48)" style="fill-rule:evenodd;fill:url(#linear-gradient-6)"/><path d="M318.75,149.08V134.8a2.78,2.78,0,0,0-.65-1.34V115.83a2.84,2.84,0,0,0-.64-1.34V82.41a1.49,1.49,0,0,0-.18-.59,4.21,4.21,0,0,0,.12-.51,1.82,1.82,0,0,0-.07-1.13,1.43,1.43,0,0,0-1.88-.49c-.51-.37-.93-.46-1,0-.42-.25-.88-.37-.91.27-.38-.19-.65-.15-.65.3V94.63a3.16,3.16,0,0,0,.78,1.5v33.72a3,3,0,0,0,.77,1.5V144.5l-.15,0c-1.9,0,2,7.43,4.56,7.43C319.69,151.91,319.46,150.6,318.75,149.08Z" transform="translate(-5.47 -11.48)" style="fill-rule:evenodd;fill:url(#linear-gradient-7)"/><path d="M311.93,146.31a7.4,7.4,0,0,0-.85-1L300,134.24c-.28-.29-1.31-1.23-1.92-1.13l-3.89-3.9c-.29-.29-1.35-1.26-2-1.12l-8.3-8.3c-.25-.24-.58-.08-.91.28l-12-12c-.21-.2-.48-.12-.75.13L254.61,92.57c-.84-.84-2.75,3.08-1.93,3.9L271.9,115.7c.21.2.48.12.75-.13l9.24,9.24a1.65,1.65,0,0,0,.08,1.47l22.32,22.32c.3.3.75,0,1.16-.6a2,2,0,0,0,1.47.65,23.79,23.79,0,0,1,2.87-.55,14.6,14.6,0,0,0,2.56,0C313.16,148,312.17,146.61,311.93,146.31Z" transform="translate(-5.47 -11.48)" style="fill-rule:evenodd;fill:url(#radial-gradient)"/><path d="M30.08,147.44c.21-.52-1.48-1.93-1.7-1.35a7.75,7.75,0,0,0-.44,4c.06.46.63.94,1,1.17s.73.37.66-.11A7.44,7.44,0,0,1,30.08,147.44Z" transform="translate(-5.47 -11.48)" style="fill-rule:evenodd;fill:url(#radial-gradient-2)"/><path d="M29.19,97.78c.12-.69.25-1.38.37-2.07.08-.43-.77-1.19-1.3-1.41-.49-.46-1.12-.82-1.15-.51a1.4,1.4,0,0,1-.06.41.22.22,0,0,0-.18,0,.89.89,0,0,0-.65.08A4,4,0,0,0,24,93.26c-.71,0-.11,1.42,1,2.95,0,0,0,.05,0,.1l0,.18c-.36-.23-.66-.34-.65-.19q.48,4.85,1.15,9.68a1.18,1.18,0,0,0,.33.53v.24c-.17-.07-.31-.06-.35.11a3.7,3.7,0,0,0,0,1.72,5.54,5.54,0,0,0,.31.88q.45,5.91.91,11.82a.55.55,0,0,0,.12.29,8.65,8.65,0,0,0,.14,3c.06.29,1.34,1.81,1.64,1.32l.08-.13c.09-.15,0-.37-.13-.6-.36-2.18.38-4.33.4-6.52a16.68,16.68,0,0,0-.31-3.4l.09-2.81c.07,0,.13,0,.12-.06,0-.41-.05-.82-.08-1.23l.15-4.58a.89.89,0,0,0-.22-.48l.06-1.17c.25,0,.47-.07.61-.43a6.86,6.86,0,0,0-.1-2.51c-.08-.75-.22-1.48-.37-2.22a2.16,2.16,0,0,0,.76.16C30.21,99.9,29.91,99,29.19,97.78Z" transform="translate(-5.47 -11.48)" style="fill-rule:evenodd;fill:url(#radial-gradient-3)"/><path d="M252.67,95.58l.12-1.84.09-.21c.28-.63-1.46-1.91-1.62-1.56l0,.12L251,92c-.34-.08-.31.19-.21.42l-.95-.12-.15,0h-.16l-.59,0h-.85a2.93,2.93,0,0,0-1.65-.79H206c-.29,0-.29.31-.1.77h-7.26c-.32,0-.27.4,0,1H159.23a1,1,0,0,0-.7,0H114.24a.2.2,0,0,0-.21.19H39.53c-.35,0-.26.48.07,1.13l0,.24c-.09,0-.15,0-.14.15a4,4,0,0,0,.07.59c0,.35-.07.7-.1,1.06a.72.72,0,0,0,.12.43,5.94,5.94,0,0,1-.31,2.08c-.21.52,1.47,1.93,1.7,1.36a4.74,4.74,0,0,0,.15-.5.69.69,0,0,0,.31.06c.16,0,.32,0,.47,0a1.92,1.92,0,0,0,.75.07,2.64,2.64,0,0,0,.55-.06,2.17,2.17,0,0,0,1,.34H147.7c.19,0,.25-.15.21-.39h10.44c.74,0,.46-.81.06-1.55h1.48a3.43,3.43,0,0,0,1.3.56,19.72,19.72,0,0,0,4.27.15c.2,0,.39.07.6.09,1.61.17,3.33.1,4.83.78,1.12.5,1.6,0,1.22-1.06a3,3,0,0,0,1.72.84c.39,0,.25-.59-.19-1.36H176a.2.2,0,0,0,.22-.19h75.07c.17,0,.23-.12.22-.31h1.27c.14,0,.07-.22-.09-.49V97.2a.37.37,0,0,0,0-.31.71.71,0,0,0-.08-.18l0-1A.13.13,0,0,0,252.67,95.58Z" transform="translate(-5.47 -11.48)" style="fill-rule:evenodd;fill:url(#radial-gradient-4)"/><path d="M313.54,144.08c-.75-2.28-.24-4.75-.84-7.07-.49-1.92-2.41-3.68-4-4.69a5.57,5.57,0,0,0-1.4-.62l-12-12c-.66-.65-3.29-3.06-4.33-2,0,0,0,0,0,0l-5.16-5.16c-.47-.48-2.37-2.2-3.58-2.28q-7.32-7.32-14.62-14.65c-.56-.56-3.13-2.88-4.18-2.13a8.7,8.7,0,0,0-1.16-.86,4.2,4.2,0,0,0-2.15-.76h-1.25a.5.5,0,0,0-.43.21l-.09.09a.47.47,0,0,0-.06.09,9.94,9.94,0,0,0-2.42-1c-1.92-.5-.84,2-.34,2.67a10.44,10.44,0,0,0,4.12,3.64l.06.07c.75.83,1.5,1.67,2.24,2.51a12.42,12.42,0,0,0,2.61,2.3,5.9,5.9,0,0,0,1.55.74l.3.3a10.09,10.09,0,0,0,2.61,1.88,4.78,4.78,0,0,0,.6.23l23,23c.56.55,3.08,2.84,4.15,2.16a37.33,37.33,0,0,0,7.1,6.18L307,140.1a9.78,9.78,0,0,0,3.92,4.4C311.59,145,314.17,146,313.54,144.08Z" transform="translate(-5.47 -11.48)" style="fill-rule:evenodd;fill:url(#radial-gradient-5)"/><path d="M311.59,147.59c-.4,0-.37.46-.07,1.14H217c-.19,0-.18.21-.06.52H120.49c-.32,0-.1.6.37,1.29H39.46c-.24,0-.18.33.06.78a.39.39,0,0,0-.33.3L38.44,154c-.09.29.29.86.42,1.06a5.69,5.69,0,0,0,1.19,1.26c.35.27,1.55,1.18,1.8.4l.22-.67a1.79,1.79,0,0,0,1,.44h86.19c.19,0,.19-.21.06-.52H178c.36,0,0-.76-.56-1.55H226.8c.19,0,.19-.21.07-.52h88.7c.11,0,.15-.06.15-.17a3.08,3.08,0,0,0,1.53.54C318.77,154.22,314.24,147.59,311.59,147.59Z" transform="translate(-5.47 -11.48)" style="fill-rule:evenodd;fill:url(#radial-gradient-6)"/><path d="M248.2,88.6H178c-.18,0-.19.19-.08.48H109.91c-.24,0-.18.33,0,.78H38.49c-.34,0-.09.64.41,1.36h0c-.77,0,1.5,3.32,2.82,3.32.34,0,.09-.64-.41-1.36h74.16c.23,0,.18-.33-.06-.78h66.35c.18,0,.18-.19.07-.48H251C251.79,91.92,249.52,88.6,248.2,88.6Z" transform="translate(-5.47 -11.48)" style="fill-rule:evenodd;fill:url(#radial-gradient-7)"/></g><g id="Shadows"><path d="M330.26,139a12.72,12.72,0,0,1-2.25-3,3.53,3.53,0,0,0-.49,1.49v2c-.07.14-.16.28-.22.42v-5.57A11.25,11.25,0,0,1,329,124.26a11.07,11.07,0,0,1-.06-1.15l-.91-.91a.71.71,0,0,0-.69-.14V93.25a3.62,3.62,0,0,0-1.23-2.2V78.67h0c1,0,.55-1,0-2V74.93a3.09,3.09,0,0,0-.85-1.78,1,1,0,0,0,0-.1h.85c.59,0,.67-.38.5-.9-.12-1.39-.29-3.47-.41-4.85.15-.82,0-1.31-.68-1.42a34.26,34.26,0,0,0-10.16-.15,3.85,3.85,0,0,0-2,1.09H210.28c-.46,0-.6.24-.57.58H99.57c-.76,0-.67.63-.32,1.36H88.15a.56.56,0,0,0-.49.19H32c-.38,0-.54.16-.57.42a.39.39,0,0,0-.36.41V96h0c-.8.3-.59,1.09-.15,1.86-1,.91.59,2.67,1.3,3.39l7,7v5.38a10,10,0,0,0,.27,2.23,3,3,0,0,0-.3,1.11v24c-.3,2.53-.61,5.05-.9,7.58-.1,1,.37,1.1,1,.92a.45.45,0,0,0,.46.36.51.51,0,0,0,.5.3H62.59a70.1,70.1,0,0,0,9.83.25.65.65,0,0,0,.52-.25h31.88a4.19,4.19,0,0,1,1.28-.27,3.36,3.36,0,0,1,1.51.27h1.78a.77.77,0,0,0-.11.41v1a5.4,5.4,0,0,1,.82,2.28c-.09-.77.13.55.17.71.08.33.18.66.28,1l1.82,1.83c3.81,2.26,7.26,5.07,11.06,7.34a3.18,3.18,0,0,0,.62.06h96.26c.68,0,.67-.52.39-1.16h68.64c.59,0,.66-.39.49-.9H327c.41,0,.57-.2.57-.5a.47.47,0,0,0,.51.35c-.08.65.06,1.07.54,1.07l30.42.09Zm-291-39.24v4l-1-1a.33.33,0,0,0,0-.14v-7A5.19,5.19,0,0,0,39,96.81l.19.23a9.58,9.58,0,0,0,.4,1.42A1.89,1.89,0,0,0,39.23,99.76Zm72.92,50.48a.53.53,0,0,0-.5.21l-.57-.24H153.7c1.1,0,1.67-.45,1.88-1.16h15.85a10.13,10.13,0,0,0,.77,1.19Zm208,1.66c-.55.11-1.11.22-1.67.31a12.06,12.06,0,0,0-1.36-2,8.53,8.53,0,0,0-4.15-2.64,1.29,1.29,0,0,0,0-.38V137.06c0-1.78-2.21-3.51-3.52-4.41-.14-.09-.5-.31-.94-.54a38.63,38.63,0,0,0-5.2-4.47l-14.63-11.5a10.66,10.66,0,0,0-1.41-1.93,10,10,0,0,0-3.83-2.63l-7.56-7.6c-.67-.66-2.82-2.71-4.25-2.85a11.42,11.42,0,0,0-2-1.65h0a11.26,11.26,0,0,0-2.17-1.91l-1.19-.79a2.45,2.45,0,0,0-.07-.37,6.48,6.48,0,0,0-1.59-2.28c-1.3-1.3-3-2.72-4.94-2.73a7.75,7.75,0,0,0-2.45.38,2.23,2.23,0,0,0-1.47-.31c-.81.18-1.11.57-1.06,1.06a8.48,8.48,0,0,0-4.14-2.59,5.64,5.64,0,0,0-2.29-1,5.93,5.93,0,0,0-3.89.77.36.36,0,0,0-.14.18H103.46a3.79,3.79,0,0,0-1.56-.57c-.47,0-1.13,0-1.13.63v0a1.16,1.16,0,0,0-.65.6,2.43,2.43,0,0,0,0,1.72H69.33a1.71,1.71,0,0,0-2,1.93H41.07a2.44,2.44,0,0,0-1,.21,2.94,2.94,0,0,0-.88-.26,1.27,1.27,0,0,0-.92.17V80.94l.06,0a1.77,1.77,0,0,0,1.73,0,2.94,2.94,0,0,0,.87-1.21,3.94,3.94,0,0,0,.68.08h162c.61,0,.66-.42.47-1h79.65a.56.56,0,0,0,.49-.19H318.9V92.8c-.51-.09-.84,0-.84.4v23a3.51,3.51,0,0,1,.23,3.08,3.64,3.64,0,0,1-.23,2.68v24c0,.9.9,2,2.06,3Zm7.18,9.48V142.86l.22.26v18.75c0,.06,0,.09,0,.13A3.26,3.26,0,0,0,327.3,161.38Z" transform="translate(-5.47 -11.48)" style="fill-rule:evenodd;opacity:0.31;mix-blend-mode:multiply"/><path d="M311.62,123.28,304,115.63q-3.69-2.64-7.13-5.6c-2.34-2-4.84-3.82-7-6a30.18,30.18,0,0,1-4.64-3.76,4,4,0,0,1-.82-1.19q-2-1.34-3.84-2.74H268.81A3.62,3.62,0,0,1,265.26,94a1.86,1.86,0,0,0,.23,1.06v0s.05.11.08.15a4.51,4.51,0,0,0,.29.53A5.42,5.42,0,0,0,267,97.06c.24.2.66.6,1,.54a4.55,4.55,0,0,1,1-.07c.33,1.09,1.56,2.91,2.45,2.91h1.74a6.2,6.2,0,0,0,1.33,1.85,2.92,2.92,0,0,0,1.38,1.19,4.89,4.89,0,0,0,2,2.2l.2.1a.29.29,0,0,0,.1,0,2,2,0,0,0,1.24.82h.27a5.06,5.06,0,0,0,1.83,2.24,28,28,0,0,1,6.24,4.73c.28.32,1.19,1.22,1.63.76l6.51,6.51c-.08.62.06,1,.53,1h.7a3.49,3.49,0,0,0,2,1.72,1.29,1.29,0,0,1,.28.08h0c.25.25.9.94,1.37.9a12.57,12.57,0,0,0,1.92,1.5,6.61,6.61,0,0,0,3,2.41s.07,0,.1,0a6.23,6.23,0,0,0,1.31,1.55c.33.28.95.69,1.22.42a5.87,5.87,0,0,0,1.72,1.63c.32,1.22,3,3.82,3,2.39V124.25A4,4,0,0,1,311.62,123.28Z" transform="translate(-5.47 -11.48)" style="fill-rule:evenodd;opacity:0.31;mix-blend-mode:multiply"/></g><g id="Highlights"><path d="M10.62,58.77a4.8,4.8,0,0,0-1.18,3v7c0,.86.46,1,1,.42a4.87,4.87,0,0,0,1.17-3v-7C11.65,58.33,11.2,58.18,10.62,58.77Z" transform="translate(-5.47 -11.48)" style="fill:#fff;fill-rule:evenodd;opacity:0.66;mix-blend-mode:overlay"/><path d="M31.32,102.79v-.64c0-2.24-2.22,1.5-2.21,2.55q.15,19.23-.38,38.45c0,1.3.72.55,1.36-.5V165.6c0,2.23,2.21-1.5,2.21-2.55V102.92C32.3,101.89,31.83,102.14,31.32,102.79Z" transform="translate(-5.47 -11.48)" style="fill:#fff;fill-rule:evenodd;mix-blend-mode:overlay"/><path d="M11.27,51.05,8.17,20.1C8,18.76,5.88,22.29,6,23.41Q7.43,37.72,8.87,52a3.19,3.19,0,0,0,0,.42c0,1.11.05,2.22.07,3.34-.43,1.11-.56,2.38.05,2.49v.49c0,.83.45,1,1,.41a4.82,4.82,0,0,0,1.18-3L11.09,52A2.28,2.28,0,0,0,11.27,51.05Z" transform="translate(-5.47 -11.48)" style="fill:#fff;fill-rule:evenodd;mix-blend-mode:overlay"/></g><g id="Lines"><path d="M355,55.68,8.8,59,6.71,15.6l270.85-3.12Z" transform="translate(-5.47 -11.48)" style="fill:none;stroke:#231f20;stroke-miterlimit:10;stroke-width:2px;fill-rule:evenodd"/><path d="M355,55.68l.24,9.84L8.76,68.73l-.2-9.89" transform="translate(-5.47 -11.48)" style="fill:none;stroke:#231f20;stroke-miterlimit:10;stroke-width:2px;fill-rule:evenodd"/><path d="M6.47,15.6l.24,7.2L8.56,68.64" transform="translate(-5.47 -11.48)" style="fill:none;stroke:#231f20;stroke-miterlimit:10;stroke-width:2px;fill-rule:evenodd"/><path d="M326.16,66l2.14,81-.22,16.19L30,166.31l.24-19.42.58-78.06" transform="translate(-5.47 -11.48)" style="fill:none;stroke:#231f20;stroke-miterlimit:10;stroke-width:2px;fill-rule:evenodd"/><path d="M260.64,79l.48,12.48,52.32,44.64m-275,20.34.24-76L317.9,79l1.3,74.56Z" transform="translate(-5.47 -11.48)" style="fill:none;stroke:#231f20;stroke-miterlimit:10;stroke-width:2px;fill-rule:evenodd"/><path d="M252.72,79.2,253,91.68,38.64,93.36" transform="translate(-5.47 -11.48)" style="fill:none;stroke:#231f20;stroke-miterlimit:10;stroke-width:2px;fill-rule:evenodd"/><path d="M24.72,68.64l-.48,25.2L29,147.13l.48-78.73" transform="translate(-5.47 -11.48)" style="fill:none;stroke:#231f20;stroke-miterlimit:10;stroke-width:2px;fill-rule:evenodd"/><path d="M24,93.6h5.28" transform="translate(-5.47 -11.48)" style="fill:none;stroke:#231f20;stroke-miterlimit:10;stroke-width:2px;fill-rule:evenodd"/><path d="M23.28,68.64,23,96l6.48,69.83" transform="translate(-5.47 -11.48)" style="fill:none;stroke:#231f20;stroke-miterlimit:10;stroke-width:2px;fill-rule:evenodd"/><path d="M253,91.68l-3.16-2.92L38.64,90.24" transform="translate(-5.47 -11.48)" style="fill:none;stroke:#231f20;stroke-miterlimit:10;stroke-width:2px;fill-rule:evenodd"/><path d="M249.6,88.8l-.24-9.36" transform="translate(-5.47 -11.48)" style="fill:none;stroke:#231f20;stroke-miterlimit:10;stroke-width:2px;fill-rule:evenodd"/><path d="M253,91.68l8.16-.24" transform="translate(-5.47 -11.48)" style="fill:none;stroke:#231f20;stroke-miterlimit:10;stroke-width:2px;fill-rule:evenodd"/><path d="M313.68,147.12,253,91.44l.24,7L38.4,100.56" transform="translate(-5.47 -11.48)" style="fill:none;stroke:#231f20;stroke-miterlimit:10;stroke-width:2px;fill-rule:evenodd"/><path d="M305.76,148.8,253.2,98.16" transform="translate(-5.47 -11.48)" style="fill:none;stroke:#231f20;stroke-miterlimit:10;stroke-width:2px;fill-rule:evenodd"/><path d="M38.84,150.64l275.08-2.56L312.24,79.2" transform="translate(-5.47 -11.48)" style="fill:none;stroke:#231f20;stroke-miterlimit:10;stroke-width:2px;fill-rule:evenodd"/><path d="M313.44,147.6l5.52,6" transform="translate(-5.47 -11.48)" style="fill:none;stroke:#231f20;stroke-miterlimit:10;stroke-width:2px;fill-rule:evenodd"/></g></g></svg>