<svg version="1.1" xmlns="http://www.w3.org/2000/svg" xmlns:xlink="http://www.w3.org/1999/xlink" x="0px" y="0px" viewBox="0 0 313 555" style="enable-background:new 0 0 313.9 555.6;" xml:space="preserve" id="el_5Ur78u_O4">

<style>@-webkit-keyframes kf_el_IBm02aOw72r_an_gQlwtU84S{
    60%{
        opacity: 0;
    }
    66.67%{
        opacity: 1;
    }
    0%{
        opacity: 0;
    }
    100%{
        opacity: 1;
    }
}
@keyframes kf_el_IBm02aOw72r_an_gQlwtU84S{
    60%{
        opacity: 0;
    }
    66.67%{
        opacity: 1;
    }
    0%{
        opacity: 0;
    }
    100%{
        opacity: 1;
    }
}
@-webkit-keyframes kf_el_kcEusT2MbU6_an_EsJoc0TEZ{
    60%{
        opacity: 0;
    }
    66.67%{
        opacity: 1;
    }
    0%{
        opacity: 0;
    }
    100%{
        opacity: 1;
    }
}
@keyframes kf_el_kcEusT2MbU6_an_EsJoc0TEZ{
    60%{
        opacity: 0;
    }
    66.67%{
        opacity: 1;
    }
    0%{
        opacity: 0;
    }
    100%{
        opacity: 1;
    }
}
@-webkit-keyframes kf_el_6onkRbpylWr_an_2zmfAhVvf{
    60%{
        opacity: 0;
    }
    66.67%{
        opacity: 1;
    }
    0%{
        opacity: 0;
    }
    100%{
        opacity: 1;
    }
}
@keyframes kf_el_6onkRbpylWr_an_2zmfAhVvf{
    60%{
        opacity: 0;
    }
    66.67%{
        opacity: 1;
    }
    0%{
        opacity: 0;
    }
    100%{
        opacity: 1;
    }
}
@-webkit-keyframes kf_el_f2ah2gZ4g8Q_an_u22znztPi{
    60%{
        opacity: 0;
    }
    66.67%{
        opacity: 1;
    }
    0%{
        opacity: 0;
    }
    100%{
        opacity: 1;
    }
}
@keyframes kf_el_f2ah2gZ4g8Q_an_u22znztPi{
    60%{
        opacity: 0;
    }
    66.67%{
        opacity: 1;
    }
    0%{
        opacity: 0;
    }
    100%{
        opacity: 1;
    }
}
@-webkit-keyframes kf_el_lpUIGwIAR_n_an_GcYmVsILj{
    46.67%{
        opacity: 0;
    }
    53.33%{
        opacity: 1;
    }
    60%{
        opacity: 1;
    }
    66.67%{
        opacity: 0;
    }
    0%{
        opacity: 0;
    }
    100%{
        opacity: 0;
    }
}
@keyframes kf_el_lpUIGwIAR_n_an_GcYmVsILj{
    46.67%{
        opacity: 0;
    }
    53.33%{
        opacity: 1;
    }
    60%{
        opacity: 1;
    }
    66.67%{
        opacity: 0;
    }
    0%{
        opacity: 0;
    }
    100%{
        opacity: 0;
    }
}
@-webkit-keyframes kf_el_yVTvAD8v_uS_an_r9s0CpVCO{
    46.67%{
        opacity: 0;
    }
    53.33%{
        opacity: 1;
    }
    60%{
        opacity: 1;
    }
    66.67%{
        opacity: 0;
    }
    0%{
        opacity: 0;
    }
    100%{
        opacity: 0;
    }
}
@keyframes kf_el_yVTvAD8v_uS_an_r9s0CpVCO{
    46.67%{
        opacity: 0;
    }
    53.33%{
        opacity: 1;
    }
    60%{
        opacity: 1;
    }
    66.67%{
        opacity: 0;
    }
    0%{
        opacity: 0;
    }
    100%{
        opacity: 0;
    }
}
@-webkit-keyframes kf_el_TP-wnYVTAPg_an_Zb2pB5dx_{
    46.67%{
        opacity: 0;
    }
    53.33%{
        opacity: 1;
    }
    60%{
        opacity: 1;
    }
    66.67%{
        opacity: 0;
    }
    0%{
        opacity: 0;
    }
    100%{
        opacity: 0;
    }
}
@keyframes kf_el_TP-wnYVTAPg_an_Zb2pB5dx_{
    46.67%{
        opacity: 0;
    }
    53.33%{
        opacity: 1;
    }
    60%{
        opacity: 1;
    }
    66.67%{
        opacity: 0;
    }
    0%{
        opacity: 0;
    }
    100%{
        opacity: 0;
    }
}
@-webkit-keyframes kf_el_NlGdAPb40TS_an_lipsPtXmk{
    46.67%{
        opacity: 0;
    }
    53.33%{
        opacity: 1;
    }
    60%{
        opacity: 1;
    }
    66.67%{
        opacity: 0;
    }
    0%{
        opacity: 0;
    }
    100%{
        opacity: 0;
    }
}
@keyframes kf_el_NlGdAPb40TS_an_lipsPtXmk{
    46.67%{
        opacity: 0;
    }
    53.33%{
        opacity: 1;
    }
    60%{
        opacity: 1;
    }
    66.67%{
        opacity: 0;
    }
    0%{
        opacity: 0;
    }
    100%{
        opacity: 0;
    }
}
@-webkit-keyframes kf_el_50DWUzah0ap_an_5TfYZjeWf{
    26.67%{
        opacity: 0;
    }
    33.33%{
        opacity: 1;
    }
    46.67%{
        opacity: 1;
    }
    53.33%{
        opacity: 0;
    }
    0%{
        opacity: 0;
    }
    100%{
        opacity: 0;
    }
}
@keyframes kf_el_50DWUzah0ap_an_5TfYZjeWf{
    26.67%{
        opacity: 0;
    }
    33.33%{
        opacity: 1;
    }
    46.67%{
        opacity: 1;
    }
    53.33%{
        opacity: 0;
    }
    0%{
        opacity: 0;
    }
    100%{
        opacity: 0;
    }
}
@-webkit-keyframes kf_el_ecUKFsbTt3r_an_lhjo93P2Y{
    26.67%{
        opacity: 0;
    }
    33.33%{
        opacity: 1;
    }
    46.67%{
        opacity: 1;
    }
    53.33%{
        opacity: 0;
    }
    0%{
        opacity: 0;
    }
    100%{
        opacity: 0;
    }
}
@keyframes kf_el_ecUKFsbTt3r_an_lhjo93P2Y{
    26.67%{
        opacity: 0;
    }
    33.33%{
        opacity: 1;
    }
    46.67%{
        opacity: 1;
    }
    53.33%{
        opacity: 0;
    }
    0%{
        opacity: 0;
    }
    100%{
        opacity: 0;
    }
}
@-webkit-keyframes kf_el_P0WSN_6_HXj_an_OejP5xmKu{
    26.67%{
        opacity: 0;
    }
    33.33%{
        opacity: 1;
    }
    46.67%{
        opacity: 1;
    }
    53.33%{
        opacity: 0;
    }
    0%{
        opacity: 0;
    }
    100%{
        opacity: 0;
    }
}
@keyframes kf_el_P0WSN_6_HXj_an_OejP5xmKu{
    26.67%{
        opacity: 0;
    }
    33.33%{
        opacity: 1;
    }
    46.67%{
        opacity: 1;
    }
    53.33%{
        opacity: 0;
    }
    0%{
        opacity: 0;
    }
    100%{
        opacity: 0;
    }
}
@-webkit-keyframes kf_el_M9zG_SiO2x2_an_rf17T8fgs{
    26.67%{
        opacity: 0;
    }
    33.33%{
        opacity: 1;
    }
    46.67%{
        opacity: 1;
    }
    53.33%{
        opacity: 0;
    }
    0%{
        opacity: 0;
    }
    100%{
        opacity: 0;
    }
}
@keyframes kf_el_M9zG_SiO2x2_an_rf17T8fgs{
    26.67%{
        opacity: 0;
    }
    33.33%{
        opacity: 1;
    }
    46.67%{
        opacity: 1;
    }
    53.33%{
        opacity: 0;
    }
    0%{
        opacity: 0;
    }
    100%{
        opacity: 0;
    }
}
@-webkit-keyframes kf_el_TG3OMZA_naI_an_Y9DFTcBUS{
    26.67%{
        opacity: 1;
    }
    33.33%{
        opacity: 0;
    }
    0%{
        opacity: 1;
    }
    100%{
        opacity: 0;
    }
}
@keyframes kf_el_TG3OMZA_naI_an_Y9DFTcBUS{
    26.67%{
        opacity: 1;
    }
    33.33%{
        opacity: 0;
    }
    0%{
        opacity: 1;
    }
    100%{
        opacity: 0;
    }
}
@-webkit-keyframes kf_el_7L3HyoW3JOK_an_OFUyCw0VT{
    26.67%{
        opacity: 1;
    }
    33.33%{
        opacity: 0;
    }
    0%{
        opacity: 1;
    }
    100%{
        opacity: 0;
    }
}
@keyframes kf_el_7L3HyoW3JOK_an_OFUyCw0VT{
    26.67%{
        opacity: 1;
    }
    33.33%{
        opacity: 0;
    }
    0%{
        opacity: 1;
    }
    100%{
        opacity: 0;
    }
}
@-webkit-keyframes kf_el_pqdrDWwXKQ7_an_bZLT_LYHy{
    26.67%{
        opacity: 1;
    }
    33.33%{
        opacity: 0;
    }
    0%{
        opacity: 1;
    }
    100%{
        opacity: 0;
    }
}
@keyframes kf_el_pqdrDWwXKQ7_an_bZLT_LYHy{
    26.67%{
        opacity: 1;
    }
    33.33%{
        opacity: 0;
    }
    0%{
        opacity: 1;
    }
    100%{
        opacity: 0;
    }
}
@-webkit-keyframes kf_el_ckJe2q_YcL_an_wKNpUgYmg{
    26.67%{
        opacity: 1;
    }
    33.33%{
        opacity: 0;
    }
    0%{
        opacity: 1;
    }
    100%{
        opacity: 0;
    }
}
@keyframes kf_el_ckJe2q_YcL_an_wKNpUgYmg{
    26.67%{
        opacity: 1;
    }
    33.33%{
        opacity: 0;
    }
    0%{
        opacity: 1;
    }
    100%{
        opacity: 0;
    }
}
#el_5Ur78u_O4 *{
    -webkit-animation-duration: 0.5s;
    animation-duration: 0.5s;
    -webkit-animation-iteration-count: infinite;
    animation-iteration-count: infinite;
    -webkit-animation-play-state: running;
    animation-play-state: running;
    -webkit-animation-timing-function: cubic-bezier(1, 0, 1, 0);
    animation-timing-function: cubic-bezier(1, 0, 1, 0);
}
#el_SbXukp-5ze{
    fill: url(#SVGID_1_);
}
#el_gFYuYD4aMO{
    fill: url(#SVGID_2_);
}
#el_ResTQaoS1o{
    fill: url(#SVGID_3_);
}
#el_cO7zsefByR{
    fill: url(#SVGID_4_);
}
#el_kSwkBXHVte{
    fill: url(#SVGID_5_);
}
#el_X06J3_9dHA{
    fill: url(#SVGID_6_);
}
#el_urW6I2t0s0{
    fill: url(#SVGID_7_);
}
#el_2mXtgymtF6{
    fill: url(#SVGID_8_);
}
#el_FeFHqa38wS{
    fill: #EA6BA8;
}
#el_PS2yCKuwvq{
    fill: #EA6BA8;
}
#el_TXgCOSJnKI{
    fill: url(#SVGID_9_);
}
#el_aauzDtHj6b{
    fill: #FAFAFA;
}
#el_vgXSkPDdnr{
    fill: #FAFAFA;
}
#el_vk9fm8mHWx{
    fill: #FAFAFA;
}
#el_jkfKF8h9jv-{
    opacity: 0.35;
}
#el_uqHvaa3j1MO{
    opacity: 0.35;
}
#el_4uoEOXIX7_U{
    opacity: 0.35;
}
#el_aVISTcH9_NA{
    opacity: 0.35;
}
#el_UdQgLdF5hak{
    opacity: 0.35;
}
#el_Z4qYFvi288W{
    opacity: 0.53;
    fill: #FFFFFF;
}
#el_SSB00oLkgPT{
    opacity: 0.53;
    fill: #FFFFFF;
}
#el_liZPO9ZoLEN{
    opacity: 0.53;
    fill: #FFFFFF;
}
#el_Ft8k46gdTiU{
    opacity: 0.53;
    fill: #FFFFFF;
}
#el_4k7OQnIH21e{
    opacity: 0.53;
    fill: #FFFFFF;
}
#el_QL7EkB6bNu6{
    fill-rule: evenodd;
    clip-rule: evenodd;
    fill: none;
    stroke: #3E1B14;
    stroke-width: 3;
    stroke-miterlimit: 10;
}
#el_i840yPUQbxM{
    fill-rule: evenodd;
    clip-rule: evenodd;
    fill: none;
    stroke: #3E1B14;
    stroke-miterlimit: 10;
}
#el_665A5CTb3Sz{
    fill-rule: evenodd;
    clip-rule: evenodd;
    fill: none;
    stroke: #3E1B14;
    stroke-miterlimit: 10;
}
#el_TxD5yB7ddka{
    fill-rule: evenodd;
    clip-rule: evenodd;
    fill: none;
    stroke: #3E1B14;
    stroke-miterlimit: 10;
}
#el_1-chAjB21Nl{
    fill-rule: evenodd;
    clip-rule: evenodd;
    fill: none;
    stroke: #3E1B14;
    stroke-miterlimit: 10;
}
#el_xpPT14Y9SnV{
    fill-rule: evenodd;
    clip-rule: evenodd;
    fill: none;
    stroke: #3E1B14;
    stroke-miterlimit: 10;
}
#el_9iNEqF5Z_AM{
    fill-rule: evenodd;
    clip-rule: evenodd;
    fill: none;
    stroke: #3E1B14;
    stroke-miterlimit: 10;
}
#el_dbVXGNDuB5E{
    fill-rule: evenodd;
    clip-rule: evenodd;
    fill: none;
    stroke: #3E1B14;
    stroke-miterlimit: 10;
}
#el_QCN0zINOK1f{
    fill-rule: evenodd;
    clip-rule: evenodd;
    fill: none;
    stroke: #3E1B14;
    stroke-miterlimit: 10;
}
#el_sANs3CA8LOM{
    fill: url(#SVGID_10_);
}
#el_0K2hqZPQ21F{
    fill: url(#SVGID_11_);
}
#el_yPqg7gVK70_{
    fill: url(#SVGID_12_);
}
#el__7XzLB7Pkuo{
    fill: url(#SVGID_13_);
}
#el_IJI9IGaQcuD{
    fill: url(#SVGID_14_);
}
#el__sDd40qGnhI{
    fill: url(#SVGID_15_);
}
#el_u6K4S3Xm3Tq{
    fill: url(#SVGID_16_);
}
#el_mWEfRJ3eqzc{
    fill: #FAFAFA;
}
#el_YlhiZpQuxfL{
    fill: #FAFAFA;
}
#el_tnAvTGcx2Iu{
    fill: #FAFAFA;
}
#el_k3u1l_oEYFn{
    opacity: 0.35;
}
#el_YFpoDRtTJwG{
    opacity: 0.35;
}
#el_TrclqJr_2Av{
    opacity: 0.35;
}
#el_eHEjtlZvT_p{
    opacity: 0.35;
}
#el_PhSN4ua2xLx{
    opacity: 0.35;
}
#el_U31ZUmASGFM{
    opacity: 0.53;
    fill: #FFFFFF;
}
#el_nYGp9IC4NJT{
    opacity: 0.53;
    fill: #FFFFFF;
}
#el_39gAVQ2dZzt{
    opacity: 0.53;
    fill: #FFFFFF;
}
#el_cCEHAUDhemK{
    opacity: 0.53;
    fill: #FFFFFF;
}
#el_CyyapyyQG6z{
    opacity: 0.53;
    fill: #FFFFFF;
}
#el_5wx2TGW_W4e{
    fill-rule: evenodd;
    clip-rule: evenodd;
    fill: none;
    stroke: #3E1B14;
    stroke-width: 3;
    stroke-miterlimit: 10;
}
#el_Jc-emPRhksf{
    fill-rule: evenodd;
    clip-rule: evenodd;
    fill: none;
    stroke: #3E1B14;
    stroke-miterlimit: 10;
}
#el_VQvH9ooFHtB{
    fill-rule: evenodd;
    clip-rule: evenodd;
    fill: none;
    stroke: #3E1B14;
    stroke-width: 3;
    stroke-miterlimit: 10;
}
#el_hIfPCOP_HGy{
    fill-rule: evenodd;
    clip-rule: evenodd;
    fill: none;
    stroke: #3E1B14;
    stroke-miterlimit: 10;
}
#el_4wFD_f2Hevt{
    fill-rule: evenodd;
    clip-rule: evenodd;
    fill: none;
    stroke: #3E1B14;
    stroke-miterlimit: 10;
}
#el_dTLNZn63NTS{
    fill-rule: evenodd;
    clip-rule: evenodd;
    fill: none;
    stroke: #3E1B14;
    stroke-miterlimit: 10;
}
#el_G03Ut0Ubi5B{
    fill: url(#SVGID_17_);
}
#el_BzvD5oYVOLK{
    fill: url(#SVGID_18_);
}
#el_fNio_iFSB5D{
    fill: url(#SVGID_19_);
}
#el_ti4qdnKy4fm{
    fill: url(#SVGID_20_);
}
#el_JiOWpDNTPkt{
    fill: url(#SVGID_21_);
}
#el_a8qIDZQ4b1q{
    fill: url(#SVGID_22_);
}
#el_rG2cYWvywC6{
    opacity: 0.53;
    fill: #FFFFFF;
}
#el_notAbMoVyU3{
    opacity: 0.53;
    fill: #FFFFFF;
}
#el_T0WG99jOIn7{
    opacity: 0.53;
    fill: #FFFFFF;
}
#el_V-YplAd1JLD{
    opacity: 0.53;
    fill: #FFFFFF;
}
#el_VT6mu4Ol2hA{
    opacity: 0.35;
}
#el_MMR7dfXNDNs{
    opacity: 0.35;
}
#el_0p4CMHiF5le{
    opacity: 0.35;
}
#el_mVN_-kOkbPA{
    opacity: 0.35;
}
#el_0PCdO5UEekx{
    opacity: 0.35;
}
#el_jvM4m56UwYH{
    opacity: 0.53;
    fill: #FFFFFF;
}
#el_XZQlps6Lduy{
    opacity: 0.53;
    fill: #FFFFFF;
}
#el_Nm8i8LwJU2j{
    opacity: 0.53;
    fill: #FFFFFF;
}
#el_oh15MZKq3GQ{
    opacity: 0.53;
    fill: #FFFFFF;
}
#el_EvnPBVIvciW{
    opacity: 0.53;
    fill: #FFFFFF;
}
#el_w8hU0cGoqe1{
    fill-rule: evenodd;
    clip-rule: evenodd;
    fill: none;
    stroke: #3E1B14;
    stroke-width: 3;
    stroke-miterlimit: 10;
}
#el_tLD1c5Fn3fW{
    fill-rule: evenodd;
    clip-rule: evenodd;
    fill: none;
    stroke: #3E1B14;
    stroke-width: 3;
    stroke-miterlimit: 10;
}
#el_rmBps0m0W4x{
    fill-rule: evenodd;
    clip-rule: evenodd;
    fill: none;
    stroke: #3E1B14;
    stroke-miterlimit: 10;
}
#el_-Pu1YZjl2n6{
    fill-rule: evenodd;
    clip-rule: evenodd;
    fill: none;
    stroke: #3E1B14;
    stroke-miterlimit: 10;
}
#el_XeygmhPkOoj{
    fill-rule: evenodd;
    clip-rule: evenodd;
    fill: none;
    stroke: #3E1B14;
    stroke-miterlimit: 10;
}
#el_xo4x1jW5jVO{
    fill-rule: evenodd;
    clip-rule: evenodd;
    fill: none;
    stroke: #3E1B14;
    stroke-miterlimit: 10;
}
#el_A60taY12qok{
    fill: url(#SVGID_23_);
}
#el_GCWTV_5x8Gm{
    fill: url(#SVGID_24_);
}
#el_7RSGSNsEhJl{
    fill: url(#SVGID_25_);
}
#el_7l90i9ELaEZ{
    fill: url(#SVGID_26_);
}
#el_2MErS8Pe6UU{
    fill: url(#SVGID_27_);
}
#el_Qow--ZGOo6f{
    fill: url(#SVGID_28_);
}
#el_v716qLXwjLU{
    opacity: 0.35;
}
#el_pha4RYCsFKF{
    opacity: 0.35;
}
#el_m-PtLmEq5jG{
    opacity: 0.35;
}
#el_x_4dR8a_lP9{
    opacity: 0.35;
}
#el_CgK0Df_5aB5{
    opacity: 0.35;
}
#el_t9LQz04mLKT{
    opacity: 0.53;
    fill: #FFFFFF;
}
#el_mZrOF8pCgc_{
    opacity: 0.53;
    fill: #FFFFFF;
}
#el_L7R_lIe7fHN{
    opacity: 0.53;
    fill: #FFFFFF;
}
#el_OtEqQScK-I7{
    opacity: 0.53;
    fill: #FFFFFF;
}
#el_QU5SfEZAyT_{
    opacity: 0.53;
    fill: #FFFFFF;
}
#el_cEoWd0kQY5-{
    fill-rule: evenodd;
    clip-rule: evenodd;
    fill: none;
    stroke: #3E1B14;
    stroke-width: 3;
    stroke-miterlimit: 10;
}
#el_d-WEPUDKnhl{
    fill-rule: evenodd;
    clip-rule: evenodd;
    fill: none;
    stroke: #3E1B14;
    stroke-width: 3;
    stroke-miterlimit: 10;
}
#el_ckJe2q_YcL{
    -webkit-animation-fill-mode: backwards;
    animation-fill-mode: backwards;
    opacity: 1;
    -webkit-animation-timing-function: cubic-bezier(1, 0, 1, 0);
    animation-timing-function: cubic-bezier(1, 0, 1, 0);
}
#el_5Ur78u_O4:hover #el_ckJe2q_YcL{
    -webkit-animation-name: kf_el_ckJe2q_YcL_an_wKNpUgYmg;
    animation-name: kf_el_ckJe2q_YcL_an_wKNpUgYmg;
}
#el_pqdrDWwXKQ7{
    -webkit-animation-fill-mode: backwards;
    animation-fill-mode: backwards;
    opacity: 1;
    -webkit-animation-timing-function: cubic-bezier(1, 0, 1, 0);
    animation-timing-function: cubic-bezier(1, 0, 1, 0);
}
#el_5Ur78u_O4:hover #el_pqdrDWwXKQ7{
    -webkit-animation-name: kf_el_pqdrDWwXKQ7_an_bZLT_LYHy;
    animation-name: kf_el_pqdrDWwXKQ7_an_bZLT_LYHy;
}
#el_7L3HyoW3JOK{
    -webkit-animation-fill-mode: backwards;
    animation-fill-mode: backwards;
    opacity: 1;
    -webkit-animation-timing-function: cubic-bezier(1, 0, 1, 0);
    animation-timing-function: cubic-bezier(1, 0, 1, 0);
}
#el_5Ur78u_O4:hover #el_7L3HyoW3JOK{
    -webkit-animation-name: kf_el_7L3HyoW3JOK_an_OFUyCw0VT;
    animation-name: kf_el_7L3HyoW3JOK_an_OFUyCw0VT;
}
#el_TG3OMZA_naI{
    -webkit-animation-fill-mode: backwards;
    animation-fill-mode: backwards;
    opacity: 1;
    -webkit-animation-timing-function: cubic-bezier(1, 0, 1, 0);
    animation-timing-function: cubic-bezier(1, 0, 1, 0);
}
#el_5Ur78u_O4:hover #el_TG3OMZA_naI{
    -webkit-animation-name: kf_el_TG3OMZA_naI_an_Y9DFTcBUS;
    animation-name: kf_el_TG3OMZA_naI_an_Y9DFTcBUS;
}
#el_M9zG_SiO2x2{
    -webkit-animation-fill-mode: backwards;
    animation-fill-mode: backwards;
    opacity: 0;
    -webkit-animation-timing-function: cubic-bezier(1, 0, 1, 0);
    animation-timing-function: cubic-bezier(1, 0, 1, 0);
}
#el_5Ur78u_O4:hover #el_M9zG_SiO2x2{
    -webkit-animation-name: kf_el_M9zG_SiO2x2_an_rf17T8fgs;
    animation-name: kf_el_M9zG_SiO2x2_an_rf17T8fgs;
}
#el_P0WSN_6_HXj{
    -webkit-animation-fill-mode: backwards;
    animation-fill-mode: backwards;
    opacity: 0;
    -webkit-animation-timing-function: cubic-bezier(1, 0, 1, 0);
    animation-timing-function: cubic-bezier(1, 0, 1, 0);
}
#el_5Ur78u_O4:hover #el_P0WSN_6_HXj{
    -webkit-animation-name: kf_el_P0WSN_6_HXj_an_OejP5xmKu;
    animation-name: kf_el_P0WSN_6_HXj_an_OejP5xmKu;
}
#el_ecUKFsbTt3r{
    -webkit-animation-fill-mode: backwards;
    animation-fill-mode: backwards;
    opacity: 0;
    -webkit-animation-timing-function: cubic-bezier(1, 0, 1, 0);
    animation-timing-function: cubic-bezier(1, 0, 1, 0);
}
#el_5Ur78u_O4:hover #el_ecUKFsbTt3r{
    -webkit-animation-name: kf_el_ecUKFsbTt3r_an_lhjo93P2Y;
    animation-name: kf_el_ecUKFsbTt3r_an_lhjo93P2Y;
}
#el_50DWUzah0ap{
    -webkit-animation-fill-mode: backwards;
    animation-fill-mode: backwards;
    opacity: 0;
    -webkit-animation-timing-function: cubic-bezier(1, 0, 1, 0);
    animation-timing-function: cubic-bezier(1, 0, 1, 0);
}
#el_5Ur78u_O4:hover #el_50DWUzah0ap{
    -webkit-animation-name: kf_el_50DWUzah0ap_an_5TfYZjeWf;
    animation-name: kf_el_50DWUzah0ap_an_5TfYZjeWf;
}
#el_NlGdAPb40TS{
    -webkit-animation-fill-mode: backwards;
    animation-fill-mode: backwards;
    opacity: 0;
    -webkit-animation-timing-function: cubic-bezier(1, 0, 1, 0);
    animation-timing-function: cubic-bezier(1, 0, 1, 0);
}
#el_5Ur78u_O4:hover #el_NlGdAPb40TS{
    -webkit-animation-name: kf_el_NlGdAPb40TS_an_lipsPtXmk;
    animation-name: kf_el_NlGdAPb40TS_an_lipsPtXmk;
}
#el_TP-wnYVTAPg{
    -webkit-animation-fill-mode: backwards;
    animation-fill-mode: backwards;
    opacity: 0;
    -webkit-animation-timing-function: cubic-bezier(1, 0, 1, 0);
    animation-timing-function: cubic-bezier(1, 0, 1, 0);
}
#el_5Ur78u_O4:hover #el_TP-wnYVTAPg{
    -webkit-animation-name: kf_el_TP-wnYVTAPg_an_Zb2pB5dx_;
    animation-name: kf_el_TP-wnYVTAPg_an_Zb2pB5dx_;
}
#el_yVTvAD8v_uS{
    -webkit-animation-fill-mode: backwards;
    animation-fill-mode: backwards;
    opacity: 0;
    -webkit-animation-timing-function: cubic-bezier(1, 0, 1, 0);
    animation-timing-function: cubic-bezier(1, 0, 1, 0);
}
#el_5Ur78u_O4:hover #el_yVTvAD8v_uS{
    -webkit-animation-name: kf_el_yVTvAD8v_uS_an_r9s0CpVCO;
    animation-name: kf_el_yVTvAD8v_uS_an_r9s0CpVCO;
}
#el_lpUIGwIAR_n{
    -webkit-animation-fill-mode: backwards;
    animation-fill-mode: backwards;
    opacity: 0;
    -webkit-animation-timing-function: cubic-bezier(1, 0, 1, 0);
    animation-timing-function: cubic-bezier(1, 0, 1, 0);
}
#el_5Ur78u_O4:hover #el_lpUIGwIAR_n{
    -webkit-animation-name: kf_el_lpUIGwIAR_n_an_GcYmVsILj;
    animation-name: kf_el_lpUIGwIAR_n_an_GcYmVsILj;
}
#el_f2ah2gZ4g8Q{
    -webkit-animation-fill-mode: backwards;
    animation-fill-mode: backwards;
    opacity: 0;
    -webkit-animation-timing-function: cubic-bezier(1, 0, 1, 0);
    animation-timing-function: cubic-bezier(1, 0, 1, 0);
}
#el_5Ur78u_O4:hover #el_f2ah2gZ4g8Q{
    -webkit-animation-name: kf_el_f2ah2gZ4g8Q_an_u22znztPi;
    animation-name: kf_el_f2ah2gZ4g8Q_an_u22znztPi;
}
#el_6onkRbpylWr{
    -webkit-animation-fill-mode: backwards;
    animation-fill-mode: backwards;
    opacity: 0;
    -webkit-animation-timing-function: cubic-bezier(1, 0, 1, 0);
    animation-timing-function: cubic-bezier(1, 0, 1, 0);
}
#el_5Ur78u_O4:hover #el_6onkRbpylWr{
    -webkit-animation-name: kf_el_6onkRbpylWr_an_2zmfAhVvf;
    animation-name: kf_el_6onkRbpylWr_an_2zmfAhVvf;
}
#el_kcEusT2MbU6{
    -webkit-animation-fill-mode: backwards;
    animation-fill-mode: backwards;
    opacity: 0;
    -webkit-animation-timing-function: cubic-bezier(1, 0, 1, 0);
    animation-timing-function: cubic-bezier(1, 0, 1, 0);
}
#el_5Ur78u_O4:hover #el_kcEusT2MbU6{
    -webkit-animation-name: kf_el_kcEusT2MbU6_an_EsJoc0TEZ;
    animation-name: kf_el_kcEusT2MbU6_an_EsJoc0TEZ;
}
#el_IBm02aOw72r{
    -webkit-animation-fill-mode: backwards;
    animation-fill-mode: backwards;
    opacity: 0;
    -webkit-animation-timing-function: cubic-bezier(1, 0, 1, 0);
    animation-timing-function: cubic-bezier(1, 0, 1, 0);
}
#el_5Ur78u_O4:hover #el_IBm02aOw72r{
    -webkit-animation-name: kf_el_IBm02aOw72r_an_gQlwtU84S;
    animation-name: kf_el_IBm02aOw72r_an_gQlwtU84S;
}
</style>

<g id="el_ckJe2q_YcL">
	<linearGradient id="SVGID_1_" gradientUnits="userSpaceOnUse" x1="159.5843" y1="72.579" x2="164.8199" y2="522.3173">
		<stop offset="0" style="stop-color:#F8B999"/>
		<stop offset="1" style="stop-color:#F79A5B"/>
	</linearGradient>
	<path d="M256,102.8c-0.1-1.9-0.4-3.7-1.1-5.4c-0.6-2.2-1.6-4.4-3.3-5c-0.9-1.9-2.4-3.5-4.5-4c-0.9-0.5-1.9-1-2.9-1.5&#10;&#9;&#9;c-0.2-0.3-0.4-0.6-0.6-1c-1.2-0.9-2.5-1.2-4-1c-1.1-0.4-2.2-0.7-3.4-0.9c-2.5-0.4-5.2-0.4-7.4,0.4c-0.4-0.1-0.9,0.1-1.4,0.4&#10;&#9;&#9;c-0.1,0-0.1,0-0.2,0c-3.5,0.5-7.4,3.5-9.9,5.7c-0.1,0.1-0.2,0.2-0.4,0.3c-2.3,1.3-4.3,3-5.7,5c-0.1,0-0.2,0.1-0.2,0.1&#10;&#9;&#9;c-1.1,0.6-2.3,1.1-3.3,1.8c0.5-2.4,1-4.8,1.6-7.2c1.7-7.1,4.5-14.7,3.1-22.1c-0.2-1.1-0.6-1.5-1-1.5c-0.1-0.1-0.2-0.3-0.3-0.4&#10;&#9;&#9;c0.3-1.9,0.1-4-1.4-5c0,0-0.1,0-0.1-0.1c-3.1-6.8-10.6-12.1-17.7-15.2c-0.1-0.1-0.2-0.1-0.3-0.2c-2.1-2.1-5-3.3-8-4.3&#10;&#9;&#9;c-0.4-0.1-0.7-0.1-1.1,0.1c-1-0.4-2.1-0.6-3.2-0.7c-0.9-0.1-1.8,0.1-2.7,0.4c0,0-0.1,0-0.1,0c-1-0.1-2.1,0.2-3.1,0.6&#10;&#9;&#9;c-0.9,0-1.8,0.3-2.6,0.7c-1.7,0.8-3.2,2.1-4.5,3.4c-1.5,1.5-2.7,3.1-3.6,5c-0.5,1-1,2.3-1.1,3.5c0,0.4,0,0.9,0.1,1.3&#10;&#9;&#9;c0,0.1-0.1,0.2-0.1,0.3c-0.4,1.3-0.5,2.5-0.5,3.7c-0.6,2.7-1,5.4-1.3,8.1c-0.2,0.9-0.4,1.9-0.6,2.8c-0.2,0.6-0.4,1.2-0.5,1.9&#10;&#9;&#9;c-0.4,1-0.7,2-1,3.1c-0.3-0.4-0.7-0.7-1-1.1c-0.2-0.2-0.4-0.4-0.7-0.6c-0.1-0.2-0.1-0.4-0.1-0.5c-0.5-1.6-0.9-3.2-1.6-4.7&#10;&#9;&#9;c-0.6-3.5-1.5-7-2.9-10.3c-0.3-0.9-0.5-1.7-0.8-2.6c-0.6-1.8-1.2-3.9-2.7-5.1c-0.4-0.6-0.8-1.2-1.3-1.7c-0.3-0.4-0.6-0.7-0.9-0.9&#10;&#9;&#9;c-0.6-0.8-1.3-1.5-2-2.2c-1.8-1.8-4.2-3.1-6.7-3.5c-2.2-0.8-5-0.8-7.1-0.3c-0.1,0-0.3,0.1-0.4,0.1c-0.2,0-0.3,0-0.5,0&#10;&#9;&#9;c-0.6,0.1-1.4,0.3-2.1,0.7c-3.1,0.4-5.6,2.2-7.9,4.3c0,0,0,0,0,0c-0.4,0.2-0.8,0.3-1.2,0.5c-3.2,1.5-6.1,4.1-8.2,7.1&#10;&#9;&#9;c-0.3,0.3-0.7,0.7-0.9,1.1c-0.2,0.3-0.3,0.6-0.5,0.9c-0.1,0.2-0.2,0.3-0.3,0.5c-0.9,0.4-1.6,1.8-1.9,2.5c-0.5,1.4-1,2.9-1.5,4.4&#10;&#9;&#9;c-0.2,0.7-0.4,1.4-0.6,2.2c-1.1,4.5-1.6,9.3-0.3,13.4c0.3,2.3,1.1,4.6,2.2,6.7c0,0.1,0.1,0.3,0.1,0.4c0,0.6,0,1.1,0.1,1.5&#10;&#9;&#9;c0.8,4.3,1.9,8.4,3.4,12.5c-1.2-0.8-2.4-1.4-3.8-1.8c-0.4-0.3-0.7-0.6-1.1-0.9c-0.1-0.1-0.1-0.2-0.2-0.3c-1.9-2.2-4.1-3.8-6.6-5.1&#10;&#9;&#9;c-0.4-0.3-0.9-0.5-1.3-0.7c-0.3-0.3-0.6-0.5-1-0.8c-0.6-0.7-1.2-1.3-2-1.9c-0.9-0.6-2-1.1-3-1.5c-0.5-0.2-1-0.3-1.5-0.3&#10;&#9;&#9;c-0.7-1.9-3.3-1.3-4.7-0.7c-0.4,0.2-0.8,0.4-1.2,0.6c-1,0.3-2,0.9-2.8,1.4c-0.9,0.6-1.8,1.4-2.5,2.2c-0.4,0-0.8,0.1-1.2,0.3&#10;&#9;&#9;c-1.9,2.5-3.9,4.9-5.8,7.3c-0.9,1.3-1.8,2.6-2.7,3.9c-0.3,0.5-0.6,1-0.9,1.5c0,0.2,0.1,0.3,0.2,0.5c-1.2,1.7-2,3.7-2.4,5.9&#10;&#9;&#9;c-0.5,1.7-0.9,3.4-1,5.1c0,0.2,0,0.5-0.1,0.7c-0.1,1.3-0.1,2.5,0.1,3.7c-0.1,1.1,0.1,2.2,0.5,3.3c0.4,1.1,0.9,2.1,1.4,3.1&#10;&#9;&#9;c0,1.4,0.3,2.8,0.9,4.1c0.6,1.2,1.3,2.3,1.9,3.5c0,0.3,0.1,0.7,0.2,1c0.1,0.3,0.3,0.6,0.4,0.9c0,0.1,0,0.1,0,0.2&#10;&#9;&#9;c0.1,0.3,0.2,0.6,0.4,0.8c1,2.1,1.9,4.1,2.9,6.2c0.2,0.5,0.6,0.9,0.9,1.1c0.2,0.3,0.4,0.6,0.5,1c0.5,1.7,1.4,3.3,2.4,4.8&#10;&#9;&#9;c0,2.3,0.8,4.3,2,6.7c1.4,2.6,3,5,5,7.2c0.2,0.3,0.6,0.4,0.9,0.5c0.4,0.7,0.7,1.4,1.1,2.1c0.1,0.2,0.2,0.4,0.3,0.6&#10;&#9;&#9;c2.9,5.2,6.5,10.1,10.3,14.8c1,3.2,2.8,6.1,5.8,8.1c0.4,0.2,0.7,0.4,1.1,0.5c0.3,0.3,0.5,0.7,0.8,1c0,0.4,0,0.7,0.1,1.1&#10;&#9;&#9;c0.2,1.4,0.8,2.4,2,3.1c0.3,0.8,0.7,1.5,1.3,2.1c0,0,0,0,0,0c-0.3,1.4-0.6,2.8-0.7,4.2c0.6,1.9,0.6,4.5,0.8,5.8&#10;&#9;&#9;c0.3,2.4,0.7,4.8,1,7.2c0.3,0.2,0.7,0.3,1.1,0.4c0,0.7,0.1,1.5,0.1,2.2c-0.2,1-0.3,1.9-0.2,2.9c1.5,25.5,2,51,2.1,76.4&#10;&#9;&#9;c-0.3,1.6-0.4,3.2-0.4,4.8c0,1.5,0.1,3,0.2,4.5c-0.5,1.3-0.8,2.8-0.8,3.7c0.1,6.3-0.1,12.5-0.7,18.8c-0.2,2.3,0.3,3.2,1,3.3&#10;&#9;&#9;c-0.3,3.1-0.7,6-1.6,9c-0.3,1.1-0.6,3,0.4,3.9c0,0,0.1,0,0.1,0.1c-0.2,2.7-0.5,5.5-0.7,8.2c0,0.5,0,0.9,0.1,1.3&#10;&#9;&#9;c-0.1,0.8-0.1,1.6-0.2,2.4c-0.3,5.1-0.6,10.3-0.5,15.4c-0.5,2.9-0.9,5.8-1.1,8.7c-0.5,1.1-0.9,2.3-1,3.5c-0.3,3.6-0.4,7.2-0.5,10.8&#10;&#9;&#9;c-0.4,1.9-0.7,3.8-1,5.8c-0.7,3.9-1.3,7.9-1.2,11.6c0,0.3,0,0.6,0,1c-0.2,1-0.4,1.9-0.6,2.9c-0.4,1.9-0.8,3.8-0.7,5.8&#10;&#9;&#9;c-0.9,3.7-1.4,7.4-1.6,11.1c-0.1,1-0.3,2-0.4,2.9L100,437c-0.1,0.3-0.1,0.6-0.1,0.8c0,0.1,0,0.2,0,0.3c-0.3,2.3-0.7,4.6-1,6.9&#10;&#9;&#9;c-0.3,1-0.5,2-0.7,3.1c-0.1,0.7-0.2,1.5-0.3,2.3c-0.2,0.6-0.3,1.2-0.4,1.5c-1,5.5-2.2,11.1-2.9,16.7c-0.3,0.6-0.6,1.2-0.7,1.9&#10;&#9;&#9;c-0.8,2.9-1.6,6.6-1.3,9.9c-0.7,1.1-1.2,2.2-1.4,3.3c-0.7,3-2,6.6-1.8,9.8c-1.1,1.4-1.6,3.1-1.8,5c-0.8,2.2-1.2,4.6-1,6.4&#10;&#9;&#9;c0.4,1,0.9,1.9,1.3,2.8c0.7,1,1.5,1.9,2.3,2.8c2.5,1.9,5.5,2.7,9,3.5c6.4,1.3,12.9,2.6,19.4,3.7c3.4,0.6,6.8,1.2,10.3,1.7&#10;&#9;&#9;c0.4,0,0.8,0.1,1.2,0.2c3.5,0.5,7.1,1,10.6,1.4c5.9,0.1,11.9,0.1,17.8,0c11.9-0.2,23.8-0.6,35.7-0.9c13.6-1.9,27.1-5,40.2-9.3&#10;&#9;&#9;c0,0,0,0,0,0c1.1-0.6,2.2-1.2,3.3-1.8c0.2-0.2,0.5-0.4,0.7-0.6c0.4-0.4,0.8-0.7,1.2-1.1c2.6-4.3,3.6-12.1,1.6-14.1&#10;&#9;&#9;c-0.3-3.4-1.1-6.9-1.8-10.2c-0.1-0.8-0.2-1.6-0.3-2.4c-0.7-3.7-1.7-7.4-2.9-11c0.1-0.7,0.1-1.4,0-2.1c-0.2-1.3-0.4-2.7-0.7-4&#10;&#9;&#9;c0.2-0.9,0.3-1.8,0.1-2.7c-0.9-6.4-2.2-12.6-3.8-18.9c-0.1-0.3-0.2-0.6-0.4-0.8c-0.8-7-2-13.9-3.7-20.8c-0.4-3.9-1-7.8-2.2-11.6&#10;&#9;&#9;c-0.4-3.7-0.8-7.4-1.6-11.1c0-0.1,0-0.3-0.1-0.4c0.1-4.5-0.1-9-1.2-13.4c-0.2-0.7-0.5-1.1-1-1.3c-1.6-19.6-3.5-39.1-5.9-58.6&#10;&#9;&#9;c0.6-2.2,0.7-4.2,0-5.8c-0.3-0.8-0.6-1.5-0.9-2.3c0.2-0.6,0.3-1.1,0.4-1.5c1.3-7.1-1.1-13.5-2.2-20.5c0.2-3.9,0.5-7.9,0.4-11.8&#10;&#9;&#9;c-0.1-5-0.8-10-1.5-15c0-3.9-0.1-7.9-0.3-11.8c0-0.3,0-0.5,0.1-0.7c0.1-2.6,0.2-5.2,0.2-7.8c0-1.3,0.1-2.5,0.1-3.8&#10;&#9;&#9;c0-1.9,0-3.8-0.1-5.8c1.1-12.7,1.3-25.5,0.7-38.2c0.2-1,0.4-1.9,0.6-2.9c0.2-0.2,0.5-0.3,0.7-0.5c2-1.7,3.2-3.9,4-6.3&#10;&#9;&#9;c0.1-0.4,0.3-1,0.3-1.6c2.8-2.8,5.1-6.1,6.8-9.7c0.2-0.3,0.3-0.5,0.5-0.8c0.1-0.1,0.1-0.1,0.2-0.2c0.4-0.5,0.9-0.9,1.3-1.4&#10;&#9;&#9;c6.3-6.6,11.3-14.1,14.3-22.7c1.2-2,2.1-4,2.8-6c0.2-0.7,0.5-1.4,0.7-2.2c0,0,0-0.1,0-0.1c0.1-0.2,0.2-0.5,0.3-0.8&#10;&#9;&#9;c0,0,0-0.1,0.1-0.1c2.8-5.1,6.2-10.1,6.8-15.9c0.9-2.4,1.5-4.9,2-7.5c0-0.1,0-0.2,0-0.3c0.8-2.7,1.4-5.5,1.8-8.3&#10;&#9;&#9;c0-0.3,0.1-0.8,0.1-1.3C256.2,107.6,256.3,105.2,256,102.8z" id="el_SbXukp-5ze"/>
	<linearGradient id="SVGID_2_" gradientUnits="userSpaceOnUse" x1="69.7102" y1="239.0175" x2="238.0153" y2="239.0175">
		<stop offset="0" style="stop-color:#DC8039"/>
		<stop offset="1" style="stop-color:#B75127"/>
	</linearGradient>
	<path d="M212.7,219.9c-33.6,9.6-67.8,16.7-102.5,21.4c0.4,2.9,0.2,6,0,8.9c0.2,2.6,0.2,5.3,0.2,7.9&#10;&#9;&#9;c34.5-4.8,68.7-12,102.2-21.7c-0.2-3.3-0.2-6.7,0.1-10.1C212.6,224.2,212.6,222,212.7,219.9z" id="el_gFYuYD4aMO"/>
	<linearGradient id="SVGID_3_" gradientUnits="userSpaceOnUse" x1="82.6132" y1="281.3281" x2="232.6478" y2="281.3281">
		<stop offset="0" style="stop-color:#DC8039"/>
		<stop offset="1" style="stop-color:#B75127"/>
	</linearGradient>
	<path d="M213.4,281.7c-1-3.1-1.5-6.7-1.2-10.1c-33.8-0.5-67.6-2.7-101.2-6.7c0.7,5.7,0.2,11.5,0.5,17.3&#10;&#9;&#9;c0.2,3.1,0.5,6.3,0.2,9.5c34.1,3.7,68.3,5.7,102.5,5.9C213.5,292.4,213.4,287,213.4,281.7z" id="el_ResTQaoS1o"/>
	<linearGradient id="SVGID_4_" gradientUnits="userSpaceOnUse" x1="94.3066" y1="322.464" x2="237.7337" y2="322.464">
		<stop offset="0" style="stop-color:#DC8039"/>
		<stop offset="1" style="stop-color:#B75127"/>
	</linearGradient>
	<path d="M110.3,322.4c0.7,6,0.5,12.2-0.4,18.2c36-1.7,71.8-5.5,107.3-11.2c-1.8-8.2-2.1-16.6-2-25&#10;&#9;&#9;c-34.7,5.4-69.7,8.9-104.8,10.5C110.6,317.3,110.5,319.8,110.3,322.4z" id="el_cO7zsefByR"/>
	<linearGradient id="SVGID_5_" gradientUnits="userSpaceOnUse" x1="84.377" y1="376.5894" x2="290.7318" y2="376.5894">
		<stop offset="0" style="stop-color:#DC8039"/>
		<stop offset="1" style="stop-color:#B75127"/>
	</linearGradient>
	<path d="M224.9,395.7c-0.2-0.8-0.3-1.6-0.4-2.5c-1.9-7.9-2.8-16-3.2-24.1c-0.1-0.7-0.3-1.4-0.4-2.1&#10;&#9;&#9;c-9.7-0.8-19.3-1.6-29-2.6c-27.7-2.9-55-8.2-82.3-14c0.2,9.7-1.8,19.3-3.3,28.9c0.1,1.7,0,3.4-0.1,5.1c0.1,0.6,0.1,1.3,0.1,2&#10;&#9;&#9;c25,5.2,50.2,9.9,75.7,12.6c14.5,1.5,29.1,2.6,43.6,3.9C225.2,400.4,225,398.1,224.9,395.7z" id="el_kSwkBXHVte"/>
	<linearGradient id="SVGID_6_" gradientUnits="userSpaceOnUse" x1="72.539" y1="432.154" x2="269.6968" y2="432.154">
		<stop offset="0" style="stop-color:#DC8039"/>
		<stop offset="1" style="stop-color:#B75127"/>
	</linearGradient>
	<path d="M232.7,443.5c-2.2-6.3-3.2-13-3.7-19.6c-0.7-3.4-1.3-6.8-1.8-10.2c-41.4,0.1-82.8-2.1-123.9-6.5&#10;&#9;&#9;c0.3,5.1-0.8,10.5-1.6,15.1c-0.4,2.5-0.9,4.9-1.4,7.4c0.1,1.9-0.3,3.9-0.6,5.6c-0.3,1.6-0.7,3.3-1.1,4.9c-0.3,2.9-0.6,5.9-1.2,8.8&#10;&#9;&#9;c-0.1,0.4-0.2,0.9-0.4,1.3c0,0.3-0.1,0.5-0.1,0.8c46,4.6,92.2,6.5,138.5,5.7C234.1,452.5,233.3,448,232.7,443.5z" id="el_X06J3_9dHA"/>
	<linearGradient id="SVGID_7_" gradientUnits="userSpaceOnUse" x1="238.88" y1="84.867" x2="251.7266" y2="84.867">
		<stop offset="0" style="stop-color:#F286B6"/>
		<stop offset="1" style="stop-color:#EA6BA8"/>
	</linearGradient>
	<path d="M244.1,85.1c0.7,0.3,1.3,0.7,1.9,1.1c1.5,0.8,3,1.5,4.2,2.7c0.1,0.2,0.2,0.3,0.3,0.2c0.1,0.2,0.2,0.4,0.3,0.6&#10;&#9;&#9;c0.1,0.1,0.3,0.1,0.4,0.2c0.2-0.2,0.4-0.5,0.5-0.6c0-0.5,0-1,0-1.5c-0.1-0.2-0.2-0.4-0.3-0.5c0.1-0.5,0.2-1.1,0.2-1.6&#10;&#9;&#9;c0.1-0.4,0-0.8-0.2-0.9c-0.2-0.1-0.4-0.2-0.6-0.3c0,0,0-0.1-0.1-0.1c-0.3-0.3-0.7-0.6-1.1-0.9c-1.4-0.9-2.8-1.7-3.6-3&#10;&#9;&#9;c-0.3-0.2-0.7-0.4-1.1-0.5c-0.2,0-0.4,0-0.6,0c-0.1,0-0.1,0-0.2,0.1c0,0-0.1,0.1-0.1,0.1c-0.1,0-0.2,0-0.4,0&#10;&#9;&#9;c-0.1,0-0.1,0.1-0.2,0.1c-0.1,0.1-0.3,0.1-0.4,0.2c-0.2,0.1-0.5,0.2-0.8,0.3c-0.3,0.2-0.6,0.3-1,0.3c0,0.1-0.1,0.1-0.1,0.2&#10;&#9;&#9;c-0.1,0-0.3,0-0.4,0.1c-0.3,0.3-0.6,0.5-0.9,0.7c-0.3,0.2-0.6,0.4-0.9,0.6c-0.1,0.2-0.1,0.3-0.1,0.4c0,0,0,0,0,0c0,0,0,0.1,0,0.2&#10;&#9;&#9;C240.7,83.7,242.4,84.3,244.1,85.1z" id="el_urW6I2t0s0"/>
	<linearGradient id="SVGID_8_" gradientUnits="userSpaceOnUse" x1="187.3746" y1="43.4558" x2="197.6922" y2="43.4558">
		<stop offset="0" style="stop-color:#F286B6"/>
		<stop offset="1" style="stop-color:#EA6BA8"/>
	</linearGradient>
	<path d="M195.7,46.6c0.1,0,0.2-0.1,0.3-0.1c0.2,0.2,0.4,0.4,0.7,0.6c0.7,0.5,1.4-1.6,0.9-2c-0.1-0.1-0.2-0.2-0.3-0.3&#10;&#9;&#9;c0-0.1-0.1-0.1-0.1-0.1c-0.7-0.5-1.2-1.1-1.8-1.7c-0.6-0.8-1.3-1.5-2.1-2.1c-0.7-0.5-1.7-1.1-2.6-1.1c-0.4,0-0.9,0.1-1.1,0.3&#10;&#9;&#9;c-0.1,0-0.2,0-0.4,0c-0.1,0-0.3,0.1-0.4,0.3c-0.4,0.2-0.8,0.5-1.2,0.8c-0.2,0.1-0.1,0.4,0.1,0.7C190.5,42.7,193.2,44.7,195.7,46.6z&#10;&#9;&#9;" id="el_2mXtgymtF6"/>
	<path d="M122.8,41.6c-0.3-0.2-0.5-0.3-0.8-0.3c-0.3-0.3-0.6-0.5-0.9-0.6c-0.4-0.1-1.2-0.4-1.4,0.1c0,0,0,0,0,0.1&#10;&#9;&#9;c-0.1,0-0.1,0.1-0.1,0.1c-0.3,0.1-0.5,0.3-0.7,0.4c-0.3,0.2-0.5,0.4-0.7,0.6c-0.3,0.2-0.6,0.4-0.9,0.6c-0.3,0.2-0.5,0.4-0.8,0.6&#10;&#9;&#9;c-0.2,0.2-0.4,0.3-0.6,0.5c-0.3,0.3-0.6,0.6-0.9,0.9c-0.2,0.1-0.4,0.2-0.5,0.3c-0.1,0-0.2,0-0.3,0.1c0,0-0.1,0.1-0.1,0.1&#10;&#9;&#9;c-0.1,0-0.2,0-0.2,0.1c-0.2,0.4-0.3,0.7-0.2,1.2c0,0.1,0.1,0.2,0.1,0.3c0,0,0,0,0,0c-0.1,0.5-0.1,1.1,0.1,1.6&#10;&#9;&#9;c0.2,0.4,0.6,0.1,0.9-0.2c0.1-0.1,0.3-0.2,0.4-0.3c0,0,0.1-0.1,0.1-0.1c0.1,0,0.1,0,0.2,0c0.2-0.1,0.2-0.2,0.2-0.4c0,0,0,0,0,0&#10;&#9;&#9;c0,0,0.1-0.1,0.1-0.1c0.2,0.1,0.4,0.1,0.5,0.1c0.2,0.1,0.3,0.1,0.4,0c0.4-0.2,0.7-0.5,1-0.8c0.1,0,0.2,0,0.2-0.1&#10;&#9;&#9;c0.2-0.2,0.5-0.4,0.8-0.7c0,0,0.1,0,0.1,0c0.6-0.1,1-0.5,1.4-0.9c0.2-0.1,0.3-0.3,0.5-0.4c0.1,0,0.1,0,0.2-0.1&#10;&#9;&#9;c0.2-0.1,0.4-0.3,0.6-0.5c0.3-0.2,0.5-0.3,0.8-0.4c0.1,0,0.1-0.1,0.2-0.2c0.2-0.1,0.5-0.2,0.7-0.2c0.2,0.1,0.5,0.1,0.5-0.2&#10;&#9;&#9;C123.7,42.3,123,41.7,122.8,41.6z" id="el_FeFHqa38wS"/>
	<path d="M77.6,88.5c-0.8-0.5-1.7-1.1-2.7-1.2c-0.5,0-0.9,0.1-1.3,0.3c-0.3,0.1-0.6,0.2-0.9,0.4c-0.6,0.3-1,1-1.4,1.6&#10;&#9;&#9;c-0.1,0.1-0.2,0.3-0.3,0.4c-0.2,0.1-0.3,0.3-0.3,0.4c0,0,0,0,0,0c-0.2,0.2-0.3,0.4-0.4,0.7c-0.2,0.2-0.3,0.5-0.5,0.7&#10;&#9;&#9;c-0.2,0.2-0.3,0.3-0.4,0.4c-0.3,0.4-0.5,0.8-0.8,1.3c0,0,0,0,0,0c-0.2,0.2-0.4,0.5-0.6,0.8c-0.1,0.1-0.2,0.3-0.2,0.3&#10;&#9;&#9;c-0.2,0.4-0.6,1.2-0.4,1.6c0,0,0.1,0.1,0.1,0.1c0,0.2,0,0.4,0.1,0.5c-0.1,0.2-0.1,0.6,0.1,0.7c0,0.2,0,0.4,0,0.5c0,0.1,0,0.1,0,0.2&#10;&#9;&#9;c0,0,0,0,0,0c0,0.2,0,0.3,0,0.4c0,0.1,0,0.3,0,0.4c0,0.5,0.6,0.3,0.8,0.1c0.3-0.3,0.6-0.7,0.7-1.2c0.2-0.2,0.3-0.4,0.4-0.6&#10;&#9;&#9;c0,0,0,0,0,0c0.2-0.2,0.3-0.4,0.4-0.6c0.2-0.1,0.3-0.2,0.4-0.3c0.3-0.3,0.5-0.6,0.7-1c0.1,0,0.1,0,0.2,0c0.5-0.1,0.9-0.8,1-1.2&#10;&#9;&#9;c0.1-0.2,0.2-0.5,0.3-0.7c0.9-0.9,1.8-1.7,2.6-2.7c0,0,0-0.1,0.1-0.1c0.2,0,0.4-0.1,0.5-0.2c0.1-0.1,0.2-0.2,0.3-0.4&#10;&#9;&#9;C77.1,90.6,78.2,88.8,77.6,88.5z" id="el_PS2yCKuwvq"/>
	<linearGradient id="SVGID_9_" gradientUnits="userSpaceOnUse" x1="246.065" y1="66.078" x2="252.9643" y2="66.078">
		<stop offset="0" style="stop-color:#FAFAFA"/>
		<stop offset="0.995" style="stop-color:#DEDEDE"/>
	</linearGradient>
	<path d="M253,62.6c0-0.7,0-1.5-0.1-2.2c0-0.2,0-0.3,0-0.4c0-1.6,0.2-3.6-0.4-5.2c0,0,0,0,0-0.1&#10;&#9;&#9;c-0.1-1.2-0.3-2.3-0.6-3.4c0-0.1-0.1-0.2-0.1-0.3c0,0,0,0,0,0c0-0.2-0.1-0.6-0.3-0.7c-0.1-0.5-0.1-1-0.2-1.6c0-0.2,0-0.3-0.1-0.5&#10;&#9;&#9;c0,0,0,0,0,0c-0.2-0.8-0.8,0-0.9,0.4c-0.1,0.3-0.1,0.5-0.1,0.8c0,0.1,0,0.3,0,0.4c0.1,0.7,0.2,1.4,0.2,2.1c0,0.2,0,0.7,0.2,0.8&#10;&#9;&#9;c0,0.1,0,0.1,0,0.2c0,0.8,0,1.5,0,2.3c0,0.1,0,0.3,0,0.5c-0.1,0.5-0.1,1-0.1,1.5c-0.1,1-0.1,2-0.1,3c0,0.3,0,0.5,0,0.8&#10;&#9;&#9;c0,0.2,0,0.4-0.1,0.6c0,0.2,0,0.5,0,0.7c0,0.1,0,0.2,0,0.4c-0.2,1.4-0.4,2.8-0.6,4.2c0,0.1,0,0.1,0,0.2c-0.2,0.6-0.3,1.2-0.4,1.8&#10;&#9;&#9;c-0.2,1.1-0.4,2.2-0.5,3.3c-0.1,0.4-0.3,0.8-0.4,1.3c-0.3,1-0.5,1.9-0.7,2.9c-0.1,0.2-0.2,0.4-0.3,0.7c-0.3,0.5-0.5,1-0.6,1.6&#10;&#9;&#9;c-0.1,0.1-0.1,0.1-0.2,0.2c-0.2,0.2-0.8,1-0.5,1.3c0.3,0.4,0.6,0.8,1,1.1c0.3,0.3,0.8,0.5,1.2,0.8c0,0.1,0,0.1,0.1,0.2&#10;&#9;&#9;c0.5,0.5,1,1,1.5,1.6c0.1,0.1,0.3,0.1,0.5-0.1c0,0,0.1,0,0.1,0.1c0,0,0,0,0,0.1c0,0.2,0.1,0.4,0.3,0.4c0.1,0,0.1,0,0.2-0.1&#10;&#9;&#9;c0.3-0.1,0.6-1,0.5-1.6c0.1-1.1,0.3-2.2,0.5-3.3c0-0.2,0.1-0.7-0.1-1c0.1-0.8,0.3-1.6,0.4-2.5c0-0.2,0-0.6-0.1-0.9&#10;&#9;&#9;c0.2-2,0.4-4.1,0.5-6.1c0.1-0.9,0.1-1.7,0-2.6C253,65,252.9,63.8,253,62.6z" id="el_TXgCOSJnKI"/>
	<path d="M191.4,10.4c0,0,0,0.1,0.1,0.1c0,0,0,0.1,0,0.1c0.4,2,0.7,4.1,0.8,6.2c0,0,0,0,0,0c0.2,1.5,0.3,3,0.6,4.4&#10;&#9;&#9;c0,0.1,0,0.3,0.1,0.4c-0.1,0.4-0.1,0.9-0.1,1.2c0.1,0.4,0.1,0.9,0.2,1.3c-0.1,0.6-0.2,1.1-0.1,1.7c0,0.7,0.1,1.4,0.3,2.1&#10;&#9;&#9;c-0.1,1.2-0.1,2.3-0.1,3.5c-0.1,0.4-0.2,0.9-0.2,1.2c-0.1,0.5-0.1,1-0.1,1.4c0,0,0,0.1,0,0.1c0,0.2,0,0.4,0,0.5c0,0.2,0,0.3,0,0.5&#10;&#9;&#9;c0,0.2-0.1,0.3-0.1,0.5c-0.4,0.9-0.5,1.9-0.7,2.8c0,0.1,0,0.3,0,0.5c0,0.3,0,0.5,0.1,0.8c0,0.2,0.2,0.5,0.4,0.5&#10;&#9;&#9;c0.2,0.2,0.5,0.3,0.7,0.5c0,0.1,0.1,0.2,0.1,0.2l0,0c0.1,0,0.2,0.1,0.3,0.2c1,0.7,1.9,1.5,2.9,2.3c0.3-0.3,0.5-1.3,0.5-1.5&#10;&#9;&#9;c0-0.2-0.1-0.4-0.1-0.6c0.2-0.4,0.3-0.8,0.4-1.2c0-1.1,0-2.1,0.1-3.2c-0.1-0.7-0.2-1.4-0.2-2.1c-0.1-0.1-0.1-0.2-0.2-0.3&#10;&#9;&#9;c0-0.2-0.1-0.4-0.1-0.6c0-0.9-0.1-1.9-0.1-2.8c0-0.2-0.1-0.4-0.2-0.5c0-0.1,0-0.3,0-0.4c0-0.4-0.1-0.9-0.1-1.3&#10;&#9;&#9;c0.2-0.4,0.1-0.9,0.1-1.3c0-0.1-0.1-0.3-0.1-0.4c0,0,0,0,0,0c-0.1-2-0.3-4-0.6-6c0-0.2-0.1-0.4-0.2-0.5c0-0.3-0.1-0.6-0.2-0.9&#10;&#9;&#9;c0-0.2-0.1-0.4-0.2-0.7c-0.1-0.6-0.1-1.2-0.2-1.8c-0.3-1.3-0.7-2.5-1.2-3.7c0,0,0,0,0-0.1c-0.1-0.2-0.1-0.3-0.2-0.5&#10;&#9;&#9;c-0.1-0.1-0.1-0.3-0.1-0.4c0,0,0,0,0-0.1c0-0.1,0-0.2,0-0.2c-0.1-0.8-0.4-1.6-0.8-2.4c-0.1-0.7-0.4-1.3-0.8-1.9&#10;&#9;&#9;c-0.1-0.2-0.3-0.2-0.5-0.1c0.1,0.4,0.1,0.9,0,1.3C191.5,9.7,191.5,10,191.4,10.4z" id="el_aauzDtHj6b"/>
	<path d="M118.3,39c0-0.1-0.1-0.2-0.1-0.3c-0.1-0.1-0.2-0.2-0.4-0.4c0.1-0.3,0.1-0.7,0-0.8c-0.2-0.5-0.5-1-0.7-1.5&#10;&#9;&#9;c-0.1-0.4-0.1-0.8-0.2-1.2c0-0.1,0-0.2-0.1-0.3c0-0.9-0.1-1.9-0.5-2.7c0,0,0,0,0-0.1c-0.1-0.9-0.2-1.8-0.2-2.8&#10;&#9;&#9;c-0.2-0.7-0.3-1.5-0.3-2.3c0-0.2,0-0.5-0.1-0.7c-0.1,0-0.1,0-0.2,0c0-0.1-0.1-0.1-0.1-0.2c0-0.3,0-0.5-0.1-0.8&#10;&#9;&#9;c-0.1-2.1-0.2-4.3-0.2-6.4c0.1-1.3,0.2-2.6,0.3-3.8c0-0.1,0-0.1,0-0.2c0.1-0.7,0.2-1.3,0.3-2c-0.2-0.7-0.3-1.4-0.4-2.1&#10;&#9;&#9;c-0.2,0.1-0.4,0.4-0.5,0.9c0,0.1,0,0.1,0,0.2c-0.2,0.2-0.4,0.8-0.4,1c0,0.2-0.1,0.4-0.1,0.7c0,0.1-0.1,0.2-0.1,0.3&#10;&#9;&#9;c-0.5,1.7-0.8,3.4-0.9,5.1c-0.2,1-0.3,2.1-0.4,3.1c-0.1,0.1-0.1,0.3-0.1,0.4c-0.2,1.8-0.3,3.5-0.2,5.3c0,0,0,0,0,0&#10;&#9;&#9;c0,0.1,0,0.1,0,0.2c0,0,0,0,0,0.1c0,0,0,0,0,0c0,0,0,0,0,0c0,0.2,0,0.5,0,0.7c0,0.9-0.1,1.7,0,2.6c0,1.1,0.1,2.2,0.2,3.4&#10;&#9;&#9;c0,0.2,0,0.3-0.1,0.5c0.1,1.1,0.1,2.1,0.2,3.2c0.1,1,0.3,2,0.3,3c0,0.1,0,0.1,0,0.2c0,0.2,0.1,0.4,0.2,0.6c0.1,0.3,0.2,0.7,0.4,1&#10;&#9;&#9;c0,0.3,0.1,0.6,0.1,1c0,0.3,0.3,0.9,0.6,0.5c0.1-0.1,0.3-0.3,0.4-0.4c0,0,0.1,0,0.2-0.1c1-0.9,2.2-1.7,3.3-2.4&#10;&#9;&#9;c0.3-0.2,0.5-0.6,0.6-1.1c-0.1-0.2-0.3-0.3-0.4-0.6L118.3,39z" id="el_vgXSkPDdnr"/>
	<path d="M71.7,85.7c0-0.2,0-0.3,0-0.5c-0.1-0.1-0.2-0.2-0.2-0.4c-0.2-0.6-0.5-1.1-0.7-1.7c-0.3-0.6-0.6-1.1-0.8-1.7&#10;&#9;&#9;c-0.3-0.9-0.4-1.6-0.4-2.4c-0.3-0.9-0.6-1.7-0.7-2.6c-0.2-0.5-0.2-1.1-0.3-1.6c0-0.2-0.1-0.5-0.1-0.8c0,0,0,0,0,0&#10;&#9;&#9;c-0.4-1.4-0.7-2.8-0.7-4.2c0-0.1,0-0.1,0-0.2c-0.1-1.8-0.3-3.7-0.4-5.5c0-0.8,0-1.5,0-2.3c-0.1-0.1-0.1-0.2-0.2-0.2&#10;&#9;&#9;c0.2-0.4,0.3-1.1,0.1-1.5c0,0,0,0,0-0.1c0.1-0.6,0.1-1.1,0.1-1.7c0-0.2,0-0.6-0.2-0.8c-0.1-0.2-0.2-0.3-0.4-0.3&#10;&#9;&#9;c-0.4,0.1-0.5,0.9-0.5,1.3c-0.1,0.4-0.2,0.8-0.2,1c-0.1,0.2-0.1,0.4-0.1,0.7c0,0.2,0,0.4,0,0.6c0,0.1,0,0.2,0,0.3&#10;&#9;&#9;c0,0.1,0,0.2,0,0.3c-0.1,0.2-0.2,0.4-0.2,0.6c0,0.1-0.1,0.1-0.1,0.2c-0.1,1-0.3,1.9-0.4,2.9c-0.2,1.2-0.3,2.5-0.4,3.7&#10;&#9;&#9;c0.1,1,0.1,2,0.1,3.1c0,2.2,0.2,4.4,0.6,6.6c0.1,0.5,0,1-0.2,1.5c0,0,0,0,0,0c0.1,0.4,0.1,0.8,0.1,1.1c0.7,3.1,1.2,6.2,1.8,9.4&#10;&#9;&#9;c0.1,0.7,0.3,1.3,0.5,1.6c0,0.1,0,0.2,0,0.2c0,0.1,0,0.2,0.1,0.3c0.1,0.7,0.6,1.3,0.9,0.2c0.1,0,0.2,0,0.3-0.3&#10;&#9;&#9;c0.7-0.5,1.3-1.6,1.8-2.9c0.4-0.4,0.7-0.7,1.2-1.1c0.5-0.4,0.6-1.6,0.2-2.1C71.9,86.2,71.8,85.9,71.7,85.7z" id="el_vk9fm8mHWx"/>
</g>
<g id="el_pqdrDWwXKQ7">
	<path d="M250,90c-0.4-0.7-0.9-1.2-1.6-1.6c-0.1-0.1-0.3-0.3-0.4-0.4c-0.2-0.2-0.5-0.4-0.7-0.5&#10;&#9;&#9;c-0.2,0.4-0.5,0.7-0.7,0.9c-0.4,0.5-0.9,1.1-1.3,1.6c2.5,13.6,2.3,27.2-1.9,40.5c-4.1,13.2-12.5,23.9-22.3,33.4&#10;&#9;&#9;c-6.6,6.4-13.7,12.2-21.6,16.9c-3.3,5.2-5.6,11-7.2,17.1c-0.4,6.7-0.2,13.6,0.1,20.3c-3.3,37.2-3.4,74.7-0.1,111.9&#10;&#9;&#9;c0.2,27.4,2,54.7,5.7,81.9c0,0.2,0.1,0.5,0.1,0.7c2.6,33.1,5.2,66.3,7.8,99.4c0.1,1,0.6,3.7,1.6,5.5c0.8-0.2,1.6-0.3,2.5-0.5&#10;&#9;&#9;c3.8-0.9,7.6-1.9,11.3-2.9c4-1.1,7.8-2.4,11.7-3.3c2.2-1,4.3-2.2,6.4-3.7c0.3-0.4,0.6-0.8,0.8-1.3c1.6-3.1,2.2-6.9,2.7-10.4&#10;&#9;&#9;c-0.6-3.1-1.4-6-1.6-9.1c-0.4-0.5-0.9-0.9-1.5-1.1c-5.6-24.8-10.2-49.9-13.9-75c0.7-3.2,0.8-6.6,0.3-9c-1.4-7.1-4.8-14.8-4.4-22&#10;&#9;&#9;c0.1-2.2-0.2-6.2-1.8-8.6c-1.6-22.5-3.7-44.9-6.4-67.3c0.7-2.9,1-5.8,0.9-7.5c-0.5-13.7-1.3-27.5-2.4-41.2&#10;&#9;&#9;c-0.1-0.8-0.2-1.7-0.5-2.6c1.5-19.9,2.2-39.8,1.9-59.7c4-4.5,7.9-9.2,11.6-14c0.6-0.8,1.1-1.6,1.5-2.5c0.7-1,1.3-2.1,1.8-3.2&#10;&#9;&#9;c0,0,0,0,0,0c6.4-7.9,11.3-16.6,15.6-25.8c4.1-8.8,7.9-18,10.7-27.2C258.2,108.8,257.5,98.2,250,90z" id="el_jkfKF8h9jv-"/>
	<path d="M205.3,66.6c1.4,6.9,1.3,14,0.8,20.9c-0.6,8-2,15.9-3.5,23.8c0.8-0.9,1.5-1.8,2.3-2.7&#10;&#9;&#9;c3.4-4.2,6.9-8.4,11-11.8c4.1-4.4,8.5-8.5,13.2-12.4c-0.5-0.3-1.2-0.3-2.2,0.1c-4.9,1.9-9.3,4.8-13.1,8.5c-1.2,1.2-2.4,2.5-3.4,3.9&#10;&#9;&#9;c2.2-7.9,3.6-16,2.2-24.1c-1.3-7.7-5.1-13.7-10.2-18.9c0.9,2.1,1.5,4.3,2,6.3C204.9,62.4,205.2,64.5,205.3,66.6z" id="el_uqHvaa3j1MO"/>
	<path d="M158,86.4c1-5.9,2.4-11.8,3.4-17.8c0.7-4.1,1.4-8.2,2.5-12.2c0-2.3,0-4.5,0-6.8c-2.1,2.5-3.8,6-3.9,8.8&#10;&#9;&#9;c-0.2,4.4-0.7,8.7-1.6,13c-2.9-7.7-6.2-15.6-11.1-21.8c-2.5-3.2-5.5-5.9-9.5-7c-2.9-0.8-5.8-0.6-8.7-0.2c-0.3-0.1-0.5-0.3-0.8-0.4&#10;&#9;&#9;c-1.4-0.7-3.1,0-4.7,1.3c-0.3,0-0.5,0.1-0.8,0.1c-0.6,0.4-1.1,0.9-1.7,1.3c0.6,0.1,1.3,0.1,1.9,0.2c10.5,1.5,17.9,7.2,23.7,16&#10;&#9;&#9;c5.5,8.4,8.6,17.7,11,27.3C157.8,87.6,157.9,87,158,86.4z" id="el_4uoEOXIX7_U"/>
	<path d="M86.2,87.3c5,2.9,9.6,6.5,14,10.2c2.8,2.4,5.3,4.9,7.8,7.5c3.2,2.9,6.1,6,8.9,9.2c-0.9-3.1-1.6-6.1-2.5-9.2&#10;&#9;&#9;c-1-3.7-2.1-7.5-3-11.2c-2.6-6.2-5.1-12.4-7.6-18.7c-0.2,1-0.2,1.9-0.1,2.8c0.9,7.4,2.5,14.6,4.6,21.7c-2.8-2.1-5.6-4.1-8.4-6.2&#10;&#9;&#9;C95.5,90.1,91.3,87.5,86.2,87.3z" id="el_aVISTcH9_NA"/>
	<path d="M92.4,173.1c-7.4-11.9-13.2-24.7-18.5-37.6c-3.8-9.4-6.7-18.7-8.2-28.5c-1.8,2.6-3,5.8-2.8,8.8&#10;&#9;&#9;c0.6,9,5.2,18,8.4,26.3c0.7,1.8,1.4,3.6,2.1,5.4c1.1,1.8,2.1,3.6,3.2,5.5c6.3,10.6,12.9,20.7,20.5,30.4c5.4,6.9,10.6,14,17.8,19&#10;&#9;&#9;C106.1,193.6,98.7,183.1,92.4,173.1z" id="el_UdQgLdF5hak"/>
</g>
<g id="el_7L3HyoW3JOK">
	<path d="M119,244.1c-0.3-2.3-0.6-4.6-0.9-6.8c-0.2-0.1-0.3-0.3-0.5-0.3c-0.2-2.8-0.3-5.7-0.6-8.6&#10;&#9;&#9;c-0.5-1.6-1-3.1-1.5-4.7c-1.9-5.7-4.2-11.2-6.6-16.7c-0.3,0.2-0.5,0.5-0.8,0.9c-0.6,1.1-0.6,2.6-0.4,3.9c-0.4,0.9-0.5,2-0.5,2.8&#10;&#9;&#9;c3.8,5.4,2.3,13.5,1.8,20c2.6,6,0.7,12.8,0.9,19.1c0,0.2,0,0.3,0,0.5c0,0,0,0,0,0c0,1.2,0,2.5-0.1,3.7c1.9,9.5,0.3,19.1,1.1,28.8&#10;&#9;&#9;c0.1,1-0.1,2-0.4,3c0.2,1,0.5,2,0.9,3c-0.2,3.1-0.5,6.1-0.1,9.2c0,0.2,0,0.4,0,0.6c-0.3,4.1-0.8,8.3-1.2,12.4&#10;&#9;&#9;c-0.7,7.7-1.2,15.4-0.6,23.1c0,0.4,0.1,0.9,0.2,1.6c-1.1,8.7-1.7,17.5-1.4,26.3c0,0,0,0,0,0c-1.6,8.4-2.4,16.9-2.3,25.4&#10;&#9;&#9;c-1.5,7.6-2.9,15.3-3.9,23c-0.1,0.9-0.2,1.9-0.3,2.8c-0.2,0.5-0.4,1.1-0.5,1.9c-1.1,8.8-2,17.7-2.6,26.6&#10;&#9;&#9;c-2.3,7.1-4.1,14.3-4.3,21.8c-0.2,0.4-0.3,0.8-0.4,1.1c-0.4,1.6-0.5,3.3-0.5,5c-0.1,0.5-0.1,1.2-0.2,1.9c-1.6,5.9-3,11.9-3.6,18&#10;&#9;&#9;c-1.7,0.1-2,2.8-2.2,5.1c-0.1,0-0.2,0.1-0.3,0.1c-0.1,0.6-0.1,1.2-0.2,1.8c-0.2,1.2-0.6,2.3-1.2,3.4c0.1,0.8,0.3,1.7,0.7,2.4&#10;&#9;&#9;c0,0.1,0.1,0.2,0.2,0.3c0.2,0.9,0.7,1.7,1.4,2c0,0,0,0,0.1,0c0.9,1.1,1.8,2,3.1,2.7c0.2,0.4,0.5,0.7,0.8,1c0.4,0.6,0.8,0.9,1.4,1&#10;&#9;&#9;c0.1,0,0.2,0,0.3,0c0.4-0.1,0.8-0.3,1-0.7c1.2-1.6,1.7-4,2-6.3c0-0.1,0.1-0.2,0.1-0.4c0.5-0.4,0.9-1.2,1.1-2.8&#10;&#9;&#9;c0.2-1.4,0.4-2.7,0.6-4.1c0.2-0.7,0.4-1.4,0.6-2.1c0.3-0.2,0.5-0.5,0.7-1.1c2.4-8.1,4.3-16.3,5.9-24.6c0.2-0.3,0.5-0.8,0.7-1.6&#10;&#9;&#9;c3.4-11.7,4.6-24.2,6.2-36.3c0.1-0.5,0.2-0.9,0.3-1.4c0.1-0.5,0.1-1.1,0.1-1.7c0-0.3,0.1-0.6,0.1-0.8c1.2-8.6,2.5-17.1,3.7-25.7&#10;&#9;&#9;c1.3-6.4,2.5-12.8,3.7-19.3c0.1-0.8,0.3-2,0.2-3.3c0.2-3.3,0.4-6.7,0.5-10c0.2-0.3,0.3-0.8,0.4-1.2c0.3-23.7,0.5-47.4,0.3-71&#10;&#9;&#9;C122.2,280.8,121.3,262.3,119,244.1z" id="el_Z4qYFvi288W"/>
	<path d="M84.9,86.6c-8,2.1-14.3,11.2-17.8,18.1c-0.9,1.7,0.7,7.9,2.4,4.7c1.7-3.4,3.8-6.5,6.4-9.2&#10;&#9;&#9;c2.4-2.6,5.8-5.9,9.3-6.8C87.4,92.7,86.7,86.1,84.9,86.6z" id="el_SSB00oLkgPT"/>
	<path d="M115,47.7c-6.5,6.8-10.6,15.2-12.1,24.5c-0.2,1.2-0.4,3.8,0.8,4.6c1.1,0.8,1.8,0,2-1.3&#10;&#9;&#9;c1.4-8.5,5.2-15.8,11.1-22C118.2,52.1,117.1,45.6,115,47.7z" id="el_liZPO9ZoLEN"/>
	<path d="M179.8,40.8c-6.2,0.7-12.9,1.8-16.3,7.7c-0.8,1.3-0.8,3.2-0.3,4.6c0.3,0.8,1.3,2.5,2.1,1.1&#10;&#9;&#9;c3.1-5.3,9.3-6.1,14.9-6.7C182.3,47.3,181.9,40.6,179.8,40.8z" id="el_Ft8k46gdTiU"/>
	<path d="M242.4,84.7c-4.5-1.6-9.1-2-13.8-1.3c-2.2,0.4-1.6,7.1,0.3,6.7c4.4-0.7,8.8-0.4,13,1.1&#10;&#9;&#9;C244.2,92,244.4,85.4,242.4,84.7z" id="el_4k7OQnIH21e"/>
</g>
<g id="el_TG3OMZA_naI">
	<path d="M86.6,503.3c0,0,21.5-90.9,23.7-181.8c2.2-90.9-4.5-127.1-4.5-127.1c0.7,2.6-29.3-30.1-41.5-72&#10;&#9;&#9;c-4.1-14,12.6-37.1,23-36c5.5,0.6,21,14.1,22.6,15.1C105.3,88.9,93,60.5,118.6,47c13.9-10.2,26.2-2.3,29.5,2.4&#10;&#9;&#9;c3.3,4.7,9,26.1,9.1,26.6c0.6-0.8,5-23.7,6.2-26.9c1.2-3.2,11-12.9,26.2-5.3c7.4,4,25.8,16.2,23.5,31c-2.2,14.8-5.9,22.7-6,24.1&#10;&#9;&#9;c0.9-0.7,17.8-13.8,18.7-14.2c10.7-5,33.5,4.3,31,23.8c-7.2,41.5-29.5,66.6-43.4,86.2c0.1,20.6-3.9,57.3,3.2,136.4&#10;&#9;&#9;c7.1,79.1,26.2,167.7,26.2,167.7" id="el_QL7EkB6bNu6"/>
	<path d="M68.2,101.5l-0.9-6c0,0,3.3-5.7,5.5-7.7c2.2-1.9,5.5,1.4,5.5,1.4" id="el_i840yPUQbxM"/>
	<path d="M67.9,94.5c0,0-6.9-25.3-0.5-40.1c-1.3,22.5,5.3,33.6,5.3,33.6" id="el_665A5CTb3Sz"/>
	<path d="M251.8,90.6l0-5.6c0,0-3.9-2.9-6.1-4.8s-7.7,3-7.7,3" id="el_TxD5yB7ddka"/>
	<path d="M251.3,84.3c0,0,5.2-24.2-1.3-39c1.5,25.1-4.3,34.9-4.3,34.9" id="el_1-chAjB21Nl"/>
	<path d="M113.4,49.2c0,0-0.2-3.2,0-3.9c0.2-0.7,3.5-2.7,5.7-4.6c2.3-1.9,4.6,2.1,4.6,2.1" id="el_xpPT14Y9SnV"/>
	<path d="M113.9,44.8c0,0-4.8-22,2.1-36.6c-2.8,21.9,3.1,32.8,3.1,32.8" id="el_9iNEqF5Z_AM"/>
	<path d="M197.5,48c0,0,0.2-2.5-0.2-3.2c-0.4-0.8-3.6-3.3-6-4.9c-1.7-1.2-4.1,1.9-4.1,1.9" id="el_dbVXGNDuB5E"/>
	<path d="M196.8,43.9c0,0,2.4-24.5-6.1-38.2c4.6,23.5,0.8,34.4,0.8,34.4" id="el_QCN0zINOK1f"/>
</g>
<g id="el_M9zG_SiO2x2">
	<linearGradient id="SVGID_10_" gradientUnits="userSpaceOnUse" x1="157.2672" y1="72.606" x2="162.5028" y2="522.3442">
		<stop offset="0" style="stop-color:#F8B999"/>
		<stop offset="1" style="stop-color:#F79A5B"/>
	</linearGradient>
	<path d="M239.3,482.6c-0.1-0.8-0.2-1.6-0.3-2.4c-0.7-3.7-1.7-7.4-2.9-11c0.1-0.7,0.1-1.4,0-2.1&#10;&#9;&#9;c-0.2-1.3-0.4-2.7-0.7-4c0.2-0.9,0.3-1.8,0.1-2.7c-0.9-6.4-2.2-12.6-3.8-18.9c-0.1-0.3-0.2-0.6-0.4-0.8c-0.8-7-2-13.9-3.7-20.8&#10;&#9;&#9;c-0.4-3.9-1-7.8-2.2-11.6c-0.4-3.7-0.8-7.4-1.6-11.1c0-0.1,0-0.3-0.1-0.4c0.1-4.5-0.1-9-1.2-13.4c-0.2-0.7-0.5-1.1-1-1.3&#10;&#9;&#9;c-1.6-19.6-3.5-39.1-5.9-58.6c0.6-2.2,0.7-4.2,0-5.8c-0.3-0.8-0.6-1.5-0.9-2.3c0.2-0.6,0.3-1.1,0.4-1.5c1.3-7.1-1.1-13.5-2.2-20.5&#10;&#9;&#9;c0.2-3.9,0.5-7.9,0.4-11.8c-0.1-5-0.8-10-1.5-15c0-3.9-0.1-7.9-0.3-11.8c0-0.3,0-0.5,0.1-0.7c0.1-2.6,0.2-5.2,0.2-7.8&#10;&#9;&#9;c0-1.3,0.1-2.5,0.1-3.8c0-1.9,0-3.8-0.1-5.8c1.1-12.7,2.4-25.3,1.8-38.1c0.2-1,0-1.7,0.2-2.7c0.2-0.2-0.2-0.6,0-0.8&#10;&#9;&#9;c2-1.7,3.2-3.9,4-6.3c0.1-0.4,0.3-1,0.3-1.6c2.8-2.8,5.1-6.1,6.8-9.7c0.2-0.3,0.3-0.5,0.5-0.8c0.1-0.1,0.1-0.1,0.2-0.2&#10;&#9;&#9;c0.4-0.5,0.9-0.9,1.3-1.4c0.9-0.9,1.7-1.9,2.6-2.8c0.9-2,1.8-4,2.7-6c2.9-6.2,6.5-12.3,7-19.3c0.1-1.3,0.9-2.8,2-4.2&#10;&#9;&#9;c0.6-3.4,1.2-6.9,2.1-10.3c0.3-1.3,0.8-2.6,1.5-3.8c0-0.2,0-0.3,0-0.5c0-5.3,0.2-10,2.5-14.5c-1.1-3.5-2.6-6.8-3.9-10.6&#10;&#9;&#9;c-0.2-0.6-0.3-1.3-0.2-2.1c-1.9-2.1-3.7-4.1-5.2-6.5c-2.9-0.9-5.8-1.7-8.1-3.9c-0.2-0.2-0.4-0.4-0.5-0.6c-0.4-0.4-0.8-0.7-1.2-1.1&#10;&#9;&#9;c-2.4-0.2-4.9-0.3-7.5-0.2c-0.4,0-0.7,0-0.9-0.1c-0.8,0.6-1.4-0.1-2,0.5c-0.1,0.1-1.6,0.5-1.7,0.6c-2.3,1.3-3.2,2.8-4.5,4.8&#10;&#9;&#9;c-0.1,0-1.2,0.9-1.2,1c-1.1,0.6-1.3,1.5-2.4,2.2c0.5-2.4,1-4.8,1.6-7.2c0.6-2.5,1.3-5.1,1.9-7.7c-0.1-1.1-0.3-2.2-0.4-3.2&#10;&#9;&#9;c-1.3-3.2-2.4-6.5-3.5-9.8c-0.1-0.1-0.2-0.3-0.3-0.4c-3.8-7.5-12.9-14-20.8-16.5c-2-0.7-4-1.1-5.9-1.3c-0.7,0.4-1.5,0.8-2.2,0.9&#10;&#9;&#9;c-2.1,0.2-4.1,0.6-6.2,1c0,0-0.1,0-0.1,0c-1.2,0.4-2.3,0.7-3.5,1.1c-0.4,0.3-0.9,0.6-1.3,1c-0.2,0.2-0.4,0.3-0.7,0.5&#10;&#9;&#9;c-0.4,0.4-0.9,0.8-1.3,1.2c-0.1,0.1-0.1,0.3-0.2,0.4c0,0.1-0.1,0.2-0.1,0.2c-0.7,1.6-1.4,3.3-1.8,5c-0.5,1.6-1.6,3.5-3.1,4.9&#10;&#9;&#9;c0,0.1,0,0.2,0,0.3c-0.2,0.9-0.4,1.9-0.6,2.8c-0.2,0.6-0.4,1.2-0.5,1.9c-0.4,1-0.7,2-1,3.1c-0.3-0.4-0.7-0.7-1-1.1&#10;&#9;&#9;c-0.2-0.2-0.4-0.4-0.7-0.6c-0.1-0.2-0.1-0.4-0.1-0.5c-0.3-1.1-0.6-2.3-1-3.3c-2.2-0.1-2.4-2.5-2.1-4.6c-0.4-0.2-0.7-0.5-0.9-1&#10;&#9;&#9;c-2.3-4-5.3-6.8-8.8-8.9c-4.6-2-7.7-2-12.5-2c-0.3,0.2-2.3,0.3-2.6,0.5c-0.9,0.3-1.8,1-2.9,1.3c-1.3,1-2.9,1.2-4.3,2.2&#10;&#9;&#9;c0,0-0.1,0.1-0.1,0.1c-0.7,0.8-1.4,1.7-2.2,2.5c-1.4,1.5-3,3-4.7,4.1c0,0,0,0,0,0.1c-2.1,3.7-3.7,7.6-5.4,11.5&#10;&#9;&#9;c-0.4,0.8,0.1,2-0.5,2.9c0.1,1.7-0.8,3.2-0.8,5c0,1.5,0.4,2.8-0.2,4.2c0,0.2,0.4,0.9,0.4,1.1c0.8,4.3,0.7,8,2.2,12.1&#10;&#9;&#9;c-1.2-0.8-1.4-2.6-2.8-3c-0.4-0.3-1.3-0.8-1.7-1.1c-0.1-0.1-1.6-1.2-1.6-1.3c-1.5-1.7-2.1-0.8-3.9-1.9c-1.2,0.2-2.3,0.2-2.9-0.6&#10;&#9;&#9;c-0.4,0.1-0.8,0.1-1.1,0.1c-1.3,0-2.6,0-3.9-0.1c-1,0.8-2.1,1.4-3.4,1.8c-6.3,1.9-10.3,5.4-13.6,11c-0.5,0.9-1.4,2.2-2.5,3.3&#10;&#9;&#9;c-0.4,1-1,2-1.5,3c0,0.2,0,0.4,0,0.6c0,5.6-1.1,11-2.1,16.5c0,0.2,0.1,0.4,0.1,0.6c0.2,0.9,1,1.4,0.6,2.5c0.2,0.4,0.1,1,0.2,1.4&#10;&#9;&#9;c0,0.3,0,0.8,0.1,1.1c0.1,0.3-0.1,0.4,0,0.7c0.4-0.4,0.4,0.3,0.4,0.4c0.1,0.3-0.3,0.7-0.1,0.9c1,2.1,1.9,4.1,2.9,6.2&#10;&#9;&#9;c0.2,0.5,0.6,0.9,0.9,1.1c0.2,0.3,0.4,0.6,0.5,1c0.5,1.7,1.4,3.3,2.4,4.8c0,2.3,0.8,4.3,2,6.7c1.4,2.6,3,5,5,7.2&#10;&#9;&#9;c0.2,0.3-0.3,0.8,0,0.9c0.4,0.7,0.2,1.1,0.6,1.8c0.1,0.2,0.8,1,0.9,1.2c2.9,5.2,5.5,9.6,9.2,14.4c1,3.2,3.9,5.8,7,7.8&#10;&#9;&#9;c0.4,0.2,0.4,0.9,0.8,1.1c0.3,0.3,0.5,0.9,0.8,1.2c0,0.4,1-0.1,1,0.3c0.2,1.4,0.8,2.4,2,3.1c0.3,0.8,0.7,1.5,1.3,2.1c0,0,0,0,0,0&#10;&#9;&#9;c-0.3,1.4-0.6,2.8-0.7,4.2c0.6,1.9,0.6,4.5,0.8,5.8c0.3,2.4,0.7,4.8,1,7.2c0.3,0.2,0.7,0.3,1.1,0.4c0,0.7,0.1,1.5,0.1,2.2&#10;&#9;&#9;c-0.2,1-0.3,1.9-0.2,2.9c1.5,25.5,2,51,2.1,76.4c-0.3,1.6-0.4,3.2-0.4,4.8c0,1.5,0.1,3,0.2,4.5c-0.5,1.3-0.8,2.8-0.8,3.7&#10;&#9;&#9;c0.1,6.3-0.1,12.5-0.7,18.8c-0.2,2.3,0.3,3.2,1,3.3c-0.3,3.1-0.7,6-1.6,9c-0.3,1.1-0.6,3,0.4,3.9c0,0,0.1,0,0.1,0.1&#10;&#9;&#9;c-0.2,2.7-0.5,5.5-0.7,8.2c0,0.5,0,0.9,0.1,1.3c-0.1,0.8-0.1,1.6-0.2,2.4c-0.3,5.1-0.6,10.3-0.5,15.4c-0.5,2.9-0.9,5.8-1.1,8.7&#10;&#9;&#9;c-0.5,1.1-0.9,2.3-1,3.5c-0.3,3.6-0.4,7.2-0.5,10.8c-0.4,1.9-0.7,3.8-1,5.8c-0.7,3.9-1.3,7.9-1.2,11.6c0,0.3,0,0.6,0,1&#10;&#9;&#9;c-0.2,1-0.4,1.9-0.6,2.9c-0.4,1.9-0.8,3.8-0.7,5.8c-0.9,3.7-1.4,7.4-1.6,11.1c-0.1,1-0.3,2-0.4,2.9L100,437&#10;&#9;&#9;c-0.1,0.3-0.1,0.6-0.1,0.8c0,0.1,0,0.2,0,0.3c-0.3,2.3-0.7,4.6-1,6.9c-0.3,1-0.5,2-0.7,3.1c-0.1,0.7-0.2,1.5-0.3,2.3&#10;&#9;&#9;c-0.2,0.6-0.3,1.2-0.4,1.5c-1,5.5-2.2,11.1-2.9,16.7c-0.3,0.6-0.6,1.2-0.7,1.9c-0.8,2.9-1.6,6.6-1.3,9.9c-0.7,1.1-1.2,2.2-1.4,3.3&#10;&#9;&#9;c-0.7,3-2,6.6-1.8,9.8c-1.1,1.4-1.6,3.1-1.8,5c-0.8,2.2-1.2,4.6-1,6.4c0.4,1,0.9,1.9,1.3,2.8c0.7,1,1.5,1.9,2.3,2.8&#10;&#9;&#9;c2.5,1.9,5.5,2.7,9,3.5c6.4,1.3,12.9,2.6,19.4,3.7c3.4,0.6,6.8,1.2,10.3,1.7c0.4,0,0.8,0.1,1.2,0.2c3.5,0.5,7.1,1,10.6,1.4&#10;&#9;&#9;c5.9,0.1,11.9,0.1,17.8,0c11.9-0.2,23.8-0.6,35.7-0.9c13.6-1.9,27.1-5,40.2-9.3c0,0,0,0,0,0c1.1-0.6,2.2-1.2,3.3-1.8&#10;&#9;&#9;c0.2-0.2,0.5-0.4,0.7-0.6c0.4-0.4,0.8-0.7,1.2-1.1c2.6-4.3,3.6-12.1,1.6-14.1C240.8,489.4,240.1,485.9,239.3,482.6z" id="el_sANs3CA8LOM"/>
	<linearGradient id="SVGID_11_" gradientUnits="userSpaceOnUse" x1="69.7102" y1="239.0175" x2="238.0153" y2="239.0175">
		<stop offset="0" style="stop-color:#DC8039"/>
		<stop offset="1" style="stop-color:#B75127"/>
	</linearGradient>
	<path d="M212.7,219.9c-33.6,9.6-67.8,16.7-102.5,21.4c0.4,2.9,0.2,6,0,8.9c0.2,2.6,0.2,5.3,0.2,7.9&#10;&#9;&#9;c34.5-4.8,68.7-12,102.2-21.7c-0.2-3.3-0.2-6.7,0.1-10.1C212.6,224.2,212.6,222,212.7,219.9z" id="el_0K2hqZPQ21F"/>
	<linearGradient id="SVGID_12_" gradientUnits="userSpaceOnUse" x1="82.6132" y1="281.3281" x2="232.6478" y2="281.3281">
		<stop offset="0" style="stop-color:#DC8039"/>
		<stop offset="1" style="stop-color:#B75127"/>
	</linearGradient>
	<path d="M213.4,281.7c-1-3.1-1.5-6.7-1.2-10.1c-33.8-0.5-67.6-2.7-101.2-6.7c0.7,5.7,0.2,11.5,0.5,17.3&#10;&#9;&#9;c0.2,3.1,0.5,6.3,0.2,9.5c34.1,3.7,68.3,5.7,102.5,5.9C213.5,292.4,213.4,287,213.4,281.7z" id="el_yPqg7gVK70_"/>
	<linearGradient id="SVGID_13_" gradientUnits="userSpaceOnUse" x1="94.3066" y1="322.464" x2="237.7337" y2="322.464">
		<stop offset="0" style="stop-color:#DC8039"/>
		<stop offset="1" style="stop-color:#B75127"/>
	</linearGradient>
	<path d="M110.3,322.4c0.7,6,0.5,12.2-0.4,18.2c36-1.7,71.8-5.5,107.3-11.2c-1.8-8.2-2.1-16.6-2-25&#10;&#9;&#9;c-34.7,5.4-69.7,8.9-104.8,10.5C110.6,317.3,110.5,319.8,110.3,322.4z" id="el__7XzLB7Pkuo"/>
	<linearGradient id="SVGID_14_" gradientUnits="userSpaceOnUse" x1="84.377" y1="376.5894" x2="290.7318" y2="376.5894">
		<stop offset="0" style="stop-color:#DC8039"/>
		<stop offset="1" style="stop-color:#B75127"/>
	</linearGradient>
	<path d="M224.9,395.7c-0.2-0.8-0.3-1.6-0.4-2.5c-1.9-7.9-2.8-16-3.2-24.1c-0.1-0.7-0.3-1.4-0.4-2.1&#10;&#9;&#9;c-9.7-0.8-19.3-1.6-29-2.6c-27.7-2.9-55-8.2-82.3-14c0.2,9.7-1.8,19.3-3.3,28.9c0.1,1.7,0,3.4-0.1,5.1c0.1,0.6,0.1,1.3,0.1,2&#10;&#9;&#9;c25,5.2,50.2,9.9,75.7,12.6c14.5,1.5,29.1,2.6,43.6,3.9C225.2,400.4,225,398.1,224.9,395.7z" id="el_IJI9IGaQcuD"/>
	<linearGradient id="SVGID_15_" gradientUnits="userSpaceOnUse" x1="72.539" y1="432.154" x2="269.6968" y2="432.154">
		<stop offset="0" style="stop-color:#DC8039"/>
		<stop offset="1" style="stop-color:#B75127"/>
	</linearGradient>
	<path d="M232.7,443.5c-2.2-6.3-3.2-13-3.7-19.6c-0.7-3.4-1.3-6.8-1.8-10.2c-41.4,0.1-82.8-2.1-123.9-6.5&#10;&#9;&#9;c0.3,5.1-0.8,10.5-1.6,15.1c-0.4,2.5-0.9,4.9-1.4,7.4c0.1,1.9-0.3,3.9-0.6,5.6c-0.3,1.6-0.7,3.3-1.1,4.9c-0.3,2.9-0.6,5.9-1.2,8.8&#10;&#9;&#9;c-0.1,0.4-0.2,0.9-0.4,1.3c0,0.3-0.1,0.5-0.1,0.8c46,4.6,92.2,6.5,138.5,5.7C234.1,452.5,233.3,448,232.7,443.5z" id="el__sDd40qGnhI"/>
	<linearGradient id="SVGID_16_" gradientUnits="userSpaceOnUse" x1="228.9843" y1="82.2849" x2="233.7104" y2="82.2849">
		<stop offset="0" style="stop-color:#FAFAFA"/>
		<stop offset="1" style="stop-color:#E0E0E0"/>
	</linearGradient>
	<path d="M233.6,89.6c0,0,0-0.1,0-0.1c0-0.1,0-0.3,0-0.4c0.1-0.4,0-0.9,0-1.3c-0.1-0.4-0.2-0.9-0.3-1.3&#10;&#9;&#9;c0-0.2,0-0.4,0-0.6c-0.2-1.1-0.3-2.2-0.6-3.2c0-0.2-0.1-0.4-0.2-0.7c-0.2-1.3-0.5-2.5-1-3.7c0-0.1-0.1-0.1-0.1-0.1&#10;&#9;&#9;c0-0.2-0.1-0.4-0.2-0.6c0-0.1-0.1-0.2-0.1-0.4c0,0,0,0,0,0c0-0.1-0.1-0.2-0.1-0.4c-0.2-0.7-0.6-1.5-0.7-2.2c0-0.2-0.1-0.5-0.3-0.7&#10;&#9;&#9;c-0.1-0.3-0.2-0.6-0.4-0.6c-0.4-0.2-0.6,0.5-0.6,0.8c-0.1,1.5,0.6,2.7,0.6,4.1c0,0.2,0.1,0.7,0.3,0.9c0.1,0.9,0.1,1.8,0.1,2.7&#10;&#9;&#9;c0,0.4,0,0.8,0,1.3c0,0.2,0,1.1,0.1,1c0,0.3,0,0.6,0.1,0.9c0,0.1,0,0.1,0,0.2c-0.2,0.7-0.3,1.5-0.4,2.3c-0.3,0.4-0.3,1.6,0.1,2&#10;&#9;&#9;c0.1,0.2,0.2,0.3,0.4,0.3c0.1,0,0.2,0,0.3,0.1c0.3,0.1,0.5,0.3,0.8,0.4c0.2,0.2,0.5,0.2,0.7,0.4c0.4,0.2,0.7,0.5,1.1,0.7&#10;&#9;&#9;c0.4,0.2,0.5-0.4,0.6-0.7C233.7,90.2,233.7,89.9,233.6,89.6z" id="el_u6K4S3Xm3Tq"/>
	<path d="M189.9,49.1c0.1-0.4,0-1,0-1.3c-0.4-1.1-0.3-2.2-0.6-3.4c-0.2-0.8-0.4-2-1-2.7c0,0,0,0,0,0c0-0.1,0-0.1,0-0.2&#10;&#9;&#9;c-0.1-0.4-0.2-0.7-0.3-1.1c0,0,0,0,0,0c-0.1-0.2-0.1-0.4-0.2-0.6c0-0.1-0.1-0.1-0.1-0.1c-0.1-0.3-0.2-0.6-0.4-0.9&#10;&#9;&#9;c-0.2-0.7-0.4-1.4-0.8-2.1c-0.2-0.4-0.6-0.4-0.7,0c-0.2,0.5-0.2,1.1,0.1,1.6c0,0.2,0.1,0.4,0.2,0.5c0,0.1,0.1,0.2,0.1,0.3&#10;&#9;&#9;c0,0.2,0.1,0.3,0.1,0.4c0,0.7,0.1,1.5,0.1,2.2c0,0.6,0,1.1,0.1,1.7c0,0.3,0.1,0.5,0.1,0.8c0,0.2,0,0.7,0,0.5c0,0.3,0,0.9,0.2,1.2&#10;&#9;&#9;c0,0.1,0,0.3,0,0.5c-0.1,0.8-0.3,1.7-0.3,2.5c0,0.3-0.1,0.6-0.1,0.9c-0.6,0.1-0.4,1.9,0,2.2c0,0,0.1,0,0.1,0&#10;&#9;&#9;c0.1,0.2,0.2,0.4,0.4,0.5c0.1,0,0.2,0,0.3,0c0.3,0,0.7,0.1,1,0.2c0.1,0,0.2,0,0.2,0l0.1,0c0.2,0.6,0.6,0.7,0.8,0.4&#10;&#9;&#9;c0.1,0.1,0.1,0.2,0.2,0.3c0.5,0.6,0.7-0.7,0.7-1C190.2,51.4,190.1,50.2,189.9,49.1z" id="el_mWEfRJ3eqzc"/>
	<path d="M122.8,53.9c-0.1,0-0.2,0-0.3,0c0,0,0-0.1,0-0.1c0-0.1,0-0.3-0.1-0.4c-0.4-0.8-0.5-1.6-0.9-2.4&#10;&#9;&#9;c-0.1-0.1-0.1-0.2-0.1-0.3c0,0-0.1-0.2-0.1-0.2c-0.1-0.2-0.1-0.3-0.2-0.5c-0.2-0.6-0.6-1.3-0.7-1.9c-0.1-0.4-0.2-0.8-0.3-1.2&#10;&#9;&#9;c-0.2-0.9-0.1-1.7-0.4-2.5c0-1.5-0.6-2.9-0.6-4.4c0-0.2,0-0.6-0.1-0.9c0-0.1,0-0.3,0-0.4c0.1-0.4,0.1-1.3-0.3-1.5&#10;&#9;&#9;c-0.1-0.1-0.3-0.1-0.4-0.1c-0.2-0.3-0.4-0.3-0.5,0.4c0,0.3-0.1,0.6-0.1,0.9c0,0.1-0.1,0.2-0.1,0.3c-0.2,1.5-0.4,3-0.5,4.5&#10;&#9;&#9;c-0.2,0.7-0.1,1.8-0.1,2.3c0,0.2,0,0.3,0,0.5c0,0.1,0,0.2,0,0.4c-0.1,1.3-0.2,2.6-0.1,3.9c0.2,1.5,0.4,3,0.6,4.4&#10;&#9;&#9;c0,0.2,0,0.3,0.1,0.4c0,1,0.1,2.1,0.6,2.7c0,0.7,0.3,1.4,0.7,1.2c0.5-0.4,1-0.8,1.5-1.3c0.1,0.3,0.3,0.3,0.5,0.1&#10;&#9;&#9;c0.2-0.3,0.5-0.6,0.7-0.8c0.1-0.1,0.1-0.2,0.2-0.3c0,0,0.1-0.1,0.1-0.1c0.3-0.1,0.6-0.2,0.9-0.3C123.6,56.1,123.5,53.9,122.8,53.9z&#10;&#9;&#9;" id="el_YlhiZpQuxfL"/>
	<path d="M79.3,96.9c-0.3-0.1-0.5-0.3-0.7-0.6c0-0.1,0-0.1-0.1-0.2c-0.2-0.5-0.4-0.9-0.6-1.4c-0.3-0.5-0.4-1-0.7-1.5&#10;&#9;&#9;c-0.2-0.4-0.2-0.7-0.4-1.1c-0.1-0.2-0.2-0.4-0.3-0.6c0-0.2-0.1-0.4-0.2-0.6c0,0-0.1-0.6-0.1-0.3c-0.1-0.3,0-0.3-0.1-0.5&#10;&#9;&#9;c0,0,0-0.7-0.1-0.4c0-0.2-0.1-0.2-0.1-0.5c-0.1-0.4-0.2-0.5-0.2-0.9c-0.1-0.9-0.4-1.7-0.6-2.6c0,0,0,0,0-0.1&#10;&#9;&#9;c-0.1-0.4-0.2-0.9-0.2-1.3c0,0,0,0,0,0c0-0.4,0-0.9,0.1-1.3c0.1-0.5,0.1-1.2-0.3-1.5c-0.3-0.3-0.6,0.1-0.7,0.4&#10;&#9;&#9;c0,0.3-0.1,0.6-0.1,0.9c0,0.1-0.1,0.3-0.1,0.4c-0.2,0.3-0.3,0.7-0.4,1.2c-0.1,0.1-0.2,0.3-0.3,0.7c-0.1,0.9-0.1,1.7-0.1,2.6&#10;&#9;&#9;c-0.2,1.3-0.3,2.6,0,3.8c0,0.4,0,0.8,0,1.1c0,0.3,0.1,0.7,0.1,1.2c0,0.7,0,1.3,0.1,2c0.1,0.3,0,0.6,0.1,1c-0.2-0.1,0,0.3,0,0.3&#10;&#9;&#9;c0,0.7,0.3,1.2,0.3,1.7c0.1,0.6,0.1,1.2,0.3,1.8c0.1,0.9,0.2,1.7,0.5,2.5c0.1,0.4,0.6,0.8,0.8,0.2c0,0,0-0.1,0.1-0.1&#10;&#9;&#9;c0.4,0.2,0.8-0.3,0.9-0.8c0-0.2,0-0.4,0-0.6c0.5-0.6,1.2-1.1,1.7-1.7c0.2,0.2,0.4,0.3,0.5,0c0.2-0.4,0.4-0.7,0.7-1&#10;&#9;&#9;c0.3-0.3,0.3-0.7,0.3-1.1C79.7,97.7,79.6,97,79.3,96.9z" id="el_tnAvTGcx2Iu"/>
</g>
<g id="el_P0WSN_6_HXj">
	<path d="M241.8,487.3c-0.6-0.8-1.2-1.5-2-1.8c-5.6-24.8-10.2-49.9-13.9-75c0.7-3.2,0.8-6.6,0.3-9&#10;&#9;&#9;c-1.4-7.1-4.8-14.8-4.4-22c0.1-2.2-0.2-6.2-1.8-8.6c-1.6-22.5-3.7-44.9-6.4-67.3c0.7-2.9,1-5.8,0.9-7.5&#10;&#9;&#9;c-0.5-13.7-1.3-27.5-2.4-41.2c-0.1-0.8-0.2-1.7-0.5-2.6c1.5-19.9,2.2-39.8,1.9-59.7c4-4.5,7.9-9.2,11.6-14c0.6-0.8,1.1-1.6,1.5-2.5&#10;&#9;&#9;c0.7-1,1.3-2.1,1.8-3.2c0,0,0,0,0,0c0.4-0.5,0.8-1.1,1.3-1.6c4.4-10.5,8.8-21,12.6-31.7c-0.5-8.5,3.2-17.2,4.1-25.6&#10;&#9;&#9;c0.5-4.7-0.7-8.9-3.2-12.9c-1.1-1.9-2.6-3.4-4.1-5c-0.3,1.2-0.4,2.6-0.2,4.2c2.3,12.8,1.7,22.5-2.5,35.8&#10;&#9;&#9;c-4.1,13.2-5.6,18.6-15.3,28.1c-6.6,6.4-13.7,12.2-21.6,16.9c-3.3,5.2-5.6,11-7.2,17.1c-0.4,6.7-0.2,13.6,0.1,20.3&#10;&#9;&#9;c-3.3,37.2-3.4,74.7-0.1,111.9c0.2,27.4,2,54.7,5.7,81.9c0,0.2,0.1,0.5,0.1,0.7c2.6,33.1,5.2,66.3,7.8,99.4c0.1,1,0.6,3.9,1.7,5.7&#10;&#9;&#9;c5-1.5,10.1-2.8,15.4-4c9.4-2.2,19-4.5,19.3-15.7c0-1.4,0.4-2.9,1-4.2c-0.1-0.1-0.2-0.3-0.2-0.4&#10;&#9;&#9;C242.1,491.6,241.6,489.5,241.8,487.3z" id="el_k3u1l_oEYFn"/>
	<path d="M202.3,69.5c1.4,6.9,1.3,14,0.8,20.9c-0.6,8-2,15.9-3.5,23.8c0.8-0.9,1.5-1.8,2.3-2.7&#10;&#9;&#9;c3.4-4.2,6.9-8.4,11-11.8c4.1-4.4,5.8-6.7,10.4-10.6c-0.5-0.3-4.1-0.7-5.1-0.3c-4.9,1.9-3.7,3.4-7.4,7.1c-1.2,1.2-2.4,2.5-3.4,3.9&#10;&#9;&#9;c2.2-7.9,3.6-16,2.2-24.1c-1.3-7.7-7.3-11.1-12.3-16.3c0.9,2.1,3,3.4,3.5,5.5C201.3,67.1,202.2,67.4,202.3,69.5z" id="el_YFpoDRtTJwG"/>
	<path d="M160.3,70c-0.4,0.6-1.1,1.5-1.8,2.1c-0.3,1.9-0.6,3.7-0.9,5.5c-2.5-6.5-5.2-13.2-9-18.8&#10;&#9;&#9;c-0.1-0.1-0.2-0.2-0.3-0.3c-3.5-3.7-11-4.6-16.8-4.5c5.8,2.8,10.4,7.3,14.3,13.2c5.5,8.4,8.6,17.7,11,27.3c0.1-0.6,0.2-1.3,0.3-1.9&#10;&#9;&#9;c1-5.9,2.4-11.8,3.4-17.8c0.5-2.8,0.9-5.6,1.5-8.3C161.6,67.7,161,68.9,160.3,70z" id="el_TrclqJr_2Av"/>
	<path d="M116.3,106.8c-1-3.7-2.1-7.5-3-11.2c-1.8-4.4-3.7-8.8-5.4-13.3c-0.1,0.8-0.3,1.5-0.5,2.2&#10;&#9;&#9;c-0.2,0.7-0.4,1.4-0.7,2.1c0.9,5,2.1,10,3.6,14.9c-2.8-2.1-5.6-4.1-8.4-6.2c-0.9-0.6-1.8-1.3-2.6-1.8c-0.4,0.2-0.9,0.3-1.3,0.2&#10;&#9;&#9;c-1.2-0.2-2.3-0.3-3.5-0.4c2.7,1.9,5.2,4,7.7,6.1c2.8,2.4,5.3,4.9,7.8,7.5c3.2,2.9,6.1,6,8.9,9.2&#10;&#9;&#9;C117.9,113,117.1,109.9,116.3,106.8z" id="el_eHEjtlZvT_p"/>
	<path d="M92.4,173.1c-7.4-11.9-13.2-24.7-18.5-37.6c-2.1-5-3.8-10-5.3-15.1c-0.5,4.7-1.1,9.4-0.1,14.1&#10;&#9;&#9;c0.1,0.3,0.1,0.5,0.1,0.8c0.9,2.3,1.9,4.6,2.7,6.8c0.7,1.8,1.4,3.6,2.1,5.4c1.1,1.8,2.1,3.6,3.2,5.5c6.3,10.6,12.5,21.7,20.1,31.4&#10;&#9;&#9;c5.4,6.9,11,13.1,18.2,18C106.1,193.6,98.7,183.1,92.4,173.1z" id="el_PhSN4ua2xLx"/>
</g>
<g id="el_ecUKFsbTt3r">
	<path d="M119,244.1c-0.3-2.3-0.6-4.6-0.9-6.8c-0.2-0.1-0.3-0.3-0.5-0.3c-0.2-2.8-0.3-5.7-0.6-8.6&#10;&#9;&#9;c-0.5-1.6-1-3.1-1.5-4.7c-1.9-5.7-4.2-11.2-6.6-16.7c-0.3,0.2-0.5,0.5-0.8,0.9c-0.6,1.1-0.6,2.6-0.4,3.9c-0.4,0.9-0.5,2-0.5,2.8&#10;&#9;&#9;c3.8,5.4,2.3,13.5,1.8,20c2.6,6,0.7,12.8,0.9,19.1c0,0.2,0,0.3,0,0.5c0,0,0,0,0,0c0,1.2,0,2.5-0.1,3.7c1.9,9.5,0.3,19.1,1.1,28.8&#10;&#9;&#9;c0.1,1-0.1,2-0.4,3c0.2,1,0.5,2,0.9,3c-0.2,3.1-0.5,6.1-0.1,9.2c0,0.2,0,0.4,0,0.6c-0.3,4.1-0.8,8.3-1.2,12.4&#10;&#9;&#9;c-0.7,7.7-1.2,15.4-0.6,23.1c0,0.4,0.1,0.9,0.2,1.6c-1.1,8.7-1.7,17.5-1.4,26.3c0,0,0,0,0,0c-1.6,8.4-2.4,16.9-2.3,25.4&#10;&#9;&#9;c-1.5,7.6-2.9,15.3-3.9,23c-0.1,0.9-0.2,1.9-0.3,2.8c-0.2,0.5-0.4,1.1-0.5,1.9c-1.1,8.8-2,17.7-2.6,26.6&#10;&#9;&#9;c-2.3,7.1-4.1,14.3-4.3,21.8c-0.2,0.4-0.3,0.8-0.4,1.1c-0.4,1.6-0.5,3.3-0.5,5c-0.1,0.5-0.1,1.2-0.2,1.9c-1.6,5.9-3,11.9-3.6,18&#10;&#9;&#9;c-1.7,0.1-2,2.8-2.2,5.1c-0.1,0-0.2,0.1-0.3,0.1c-0.1,0.6-0.1,1.2-0.2,1.8c-0.2,1.2-0.6,2.3-1.2,3.4c0.1,0.8,0.3,1.7,0.7,2.4&#10;&#9;&#9;c0,0.1,0.1,0.2,0.2,0.3c0.2,0.9,0.7,1.7,1.4,2c0,0,0,0,0.1,0c0.9,1.1,1.8,2,3.1,2.7c0.2,0.4,0.5,0.7,0.8,1c0.4,0.6,0.8,0.9,1.4,1&#10;&#9;&#9;c0.1,0,0.2,0,0.3,0c0.4-0.1,0.8-0.3,1-0.7c1.2-1.6,1.7-4,2-6.3c0-0.1,0.1-0.2,0.1-0.4c0.5-0.4,0.9-1.2,1.1-2.8&#10;&#9;&#9;c0.2-1.4,0.4-2.7,0.6-4.1c0.2-0.7,0.4-1.4,0.6-2.1c0.3-0.2,0.5-0.5,0.7-1.1c2.4-8.1,4.3-16.3,5.9-24.6c0.2-0.3,0.5-0.8,0.7-1.6&#10;&#9;&#9;c3.4-11.7,4.6-24.2,6.2-36.3c0.1-0.5,0.2-0.9,0.3-1.4c0.1-0.5,0.1-1.1,0.1-1.7c0-0.3,0.1-0.6,0.1-0.8c1.2-8.6,2.5-17.1,3.7-25.7&#10;&#9;&#9;c1.3-6.4,2.5-12.8,3.7-19.3c0.1-0.8,0.3-2,0.2-3.3c0.2-3.3,0.4-6.7,0.5-10c0.2-0.3,0.3-0.8,0.4-1.2c0.3-23.7,0.5-47.4,0.3-71&#10;&#9;&#9;C122.2,280.8,121.3,262.3,119,244.1z" id="el_U31ZUmASGFM"/>
	<path d="M88.7,94.1c-8,2.1-14.3,11.2-17.8,18.1c-0.9,1.7,0.7,7.9,2.4,4.7c1.7-3.4,3.8-6.5,6.4-9.2&#10;&#9;&#9;c2.4-2.6,5.8-5.9,9.3-6.8C91.3,100.3,90.6,93.7,88.7,94.1z" id="el_nYGp9IC4NJT"/>
	<path d="M116.4,69.6c1.5-2.4,3.3-4.6,5.3-6.7c0.8-0.8,0.7-3.5,0-5.1c-0.1,0.1-0.2,0.2-0.4,0.3&#10;&#9;&#9;c-1.7,1.4-3.5,2.5-5.3,3.6c-4.3,5.9-7.1,12.6-8.2,19.9c-0.1,0.7-0.2,1.8-0.1,2.8C109.9,79.1,112.7,74,116.4,69.6z" id="el_39gAVQ2dZzt"/>
	<path d="M182.5,51.9c-6.2,0.7-12.9,1.8-16.3,7.7c-0.8,1.3-0.8,3.2-0.3,4.6c0.3,0.8,1.3,2.5,2.1,1.1&#10;&#9;&#9;c3.1-5.3,9.3-6.1,14.9-6.7C185,58.4,184.6,51.7,182.5,51.9z" id="el_cCEHAUDhemK"/>
	<path d="M235.4,91.9c-4.5-1.6-9.1-2-13.8-1.3c-2.2,0.4-1.6,7.1,0.3,6.7c4.4-0.7,8.8-0.4,13,1.1&#10;&#9;&#9;C237.1,99.3,237.3,92.6,235.4,91.9z" id="el_CyyapyyQG6z"/>
</g>
<g id="el_50DWUzah0ap">
	<path d="M86.8,503.4c0,0,21.5-90.9,23.7-181.8c2.2-90.9-4.5-127.1-4.5-127.1c0.7,2.6-24.3-20.3-36.5-62.2&#10;&#9;&#9;c-4.1-14,7.9-43.1,29.6-38.6c5.5,0.6,9.5,6.9,11,7.9c-4.6-12.6-4.4-32.6,10.8-43c13.9-10.2,25.2-2.1,28.6,2.6&#10;&#9;&#9;c3.3,4.7,7.8,14.3,7.9,14.9c0.6-0.8,5.7-12.9,7-16.1c1.2-3.2,11-12.9,26.2-5.3c7.4,4,16.1,12.4,19,22.6c2.8,10.1-2.1,20.3-2.2,21.7&#10;&#9;&#9;c0.9-0.7,6.5-8.7,7.4-9.2c10.7-5,34.3,6.2,31.7,25.7c-7.2,41.5-19,59.6-32.9,79.3c0.1,20.6-3.9,57.3,3.2,136.4&#10;&#9;&#9;C223.9,410.3,243,499,243,499" id="el_5wx2TGW_W4e"/>
	<path d="M75.1,106c0,0-4.6-18.1,0-26.4c-0.7,12.6,5.5,19,5.5,19" id="el_Jc-emPRhksf"/>
	<path d="M69.5,132.4c-4.1-14,7.9-43.1,29.6-38.6" id="el_VQvH9ooFHtB"/>
	<path d="M118.8,60.9c0,0-4.4-17.3,0.2-25.7c-0.7,12.6,5.3,21.4,5.3,21.4" id="el_hIfPCOP_HGy"/>
	<path d="M190.5,55.1c-0.7-16.3-5.5-20.4-5.5-20.4s2.6,10.1,0.7,18.2" id="el_4wFD_f2Hevt"/>
	<path d="M234,92.6c-0.7-16.3-5.5-20.4-5.5-20.4s2.6,10.1,0.7,18.2" id="el_dTLNZn63NTS"/>
</g>
<g id="el_NlGdAPb40TS">
	<linearGradient id="SVGID_17_" gradientUnits="userSpaceOnUse" x1="158.5939" y1="72.5906" x2="163.8295" y2="522.3288">
		<stop offset="0" style="stop-color:#F8B999"/>
		<stop offset="1" style="stop-color:#F79A5B"/>
	</linearGradient>
	<path d="M239.3,482.6c-0.1-0.8-0.2-1.6-0.3-2.4c-0.7-3.7-1.7-7.4-2.9-11c0.1-0.7,0.1-1.4,0-2.1&#10;&#9;&#9;c-0.2-1.3-0.4-2.7-0.7-4c0.2-0.9,0.3-1.8,0.1-2.7c-0.9-6.4-2.2-12.6-3.8-18.9c-0.1-0.3-0.2-0.6-0.4-0.8c-0.8-7-2-13.9-3.7-20.8&#10;&#9;&#9;c-0.4-3.9-1-7.8-2.2-11.6c-0.4-3.7-0.8-7.4-1.6-11.1c0-0.1,0-0.3-0.1-0.4c0.1-4.5-0.1-9-1.2-13.4c-0.2-0.7-0.5-1.1-1-1.3&#10;&#9;&#9;c-1.6-19.6-3.5-39.1-5.9-58.6c0.6-2.2,0.7-4.2,0-5.8c-0.3-0.8-0.6-1.5-0.9-2.3c0.2-0.6,0.3-1.1,0.4-1.5c1.3-7.1-1.1-13.5-2.2-20.5&#10;&#9;&#9;c0.2-3.9,0.5-7.9,0.4-11.8c-0.1-5-0.8-10-1.5-15c0-3.9-0.1-7.9-0.3-11.8c0-0.3,0-0.5,0.1-0.7c0.1-2.6,0.2-5.2,0.2-7.8&#10;&#9;&#9;c0-1.3,0.1-2.5,0.1-3.8c0-1.9,0-3.8-0.1-5.8c1.1-12.3,2.3-24.6,1.8-36.9c-0.3-1.1-0.3-2.2-0.3-3.3c0.1-2.2,0.6-4.5,1.5-6.6&#10;&#9;&#9;c0.2-1,0.5-2.2,0.9-3.3c0-0.1,0-0.3,0-0.4c0.4-3,1.5-5.8,3-8.4c0.8-1.4,2.1-3.3,3.8-4.1c0.3-0.4,0.6-0.7,0.9-1.1&#10;&#9;&#9;c0.4-0.5,0.9-1,1.5-1.3c1.4-2.1,3.1-4,4.9-5.6c0,0,0.1,0,0.1-0.1c1.1-2.7,2.5-5.3,4.4-7.6c0.1-0.2,0.3-0.5,0.4-0.7&#10;&#9;&#9;c0.1-0.7,0.3-1.4,0.4-1.7c0.3-1.7,0.6-3.5,1-5.2c0.6-2.4,1.5-4.8,2.7-6.9c0.1-0.6,0.1-1.2,0.2-1.8c0.5-3.1,2.2-6,2.6-8.9&#10;&#9;&#9;c0-0.1,0-0.1,0-0.2c0.4-5.4,0.8-11,2.7-16.1c-0.1-0.3-0.1-0.7-0.2-1c-0.3-0.8-0.6-1.7-0.9-2.5c-0.5,0.1-0.9,0-1.2-0.7&#10;&#9;&#9;c-0.7-1.8-1.2-4.1-2-6.2c-1.8-3.5-4.9-6-8.6-7.6c-0.5-0.2-0.8-0.6-1-1.2c-0.6-0.3-1.3-0.6-1.9-0.9c-3.1-0.5-6.4-1.3-9-2.9&#10;&#9;&#9;c-2.4,0.5-4.9,1-7.3,0.7c-0.2,0.2-0.4,0.5-0.6,0.7c-0.8,0.9-1.6,1.3-2.1,1.2c-0.6,0.5-0.9,1.2-1.7,1.6c0.2-0.9,0.4-1.7,0.5-2.6&#10;&#9;&#9;c-0.2-0.4-0.3-1-0.4-1.7c0-0.6-0.1-1.1-0.1-1.7c-0.3-0.2-0.6-0.6-0.8-1.3c-0.3-1.4-0.7-2.7-1-4.1c-2.4-2.3-4.5-5.2-6-8.3&#10;&#9;&#9;c-0.7-0.7-1.5-1.5-2.2-2.2c-0.4,0.2-0.8,0.2-1.1,0c-2.5-2-4.3-4.8-7.2-6.2c-0.2-0.1-0.4-0.3-0.6-0.5c-1.8-0.8-3.6-1.5-5.4-2.2&#10;&#9;&#9;c-1.1-0.2-2.1-0.5-3.2-0.9c-0.7,0.1-1.5,0.2-2.2,0.3c-3,0.6-5.9,1.4-8.8,2.5c-0.1,0.1-0.3,0.1-0.4,0.1c-2,1.1-3.8,2.3-5.4,4&#10;&#9;&#9;c-0.6,1.9-1.6,3.8-2.5,5.2c-0.9,1.3-3.2,3.6-4.2,2c-0.5,0.1-0.9-0.1-1.2-0.7c-0.8-1.7-1.8-3.3-3-4.7c-1.4-1.3-2.8-2.6-4.3-3.8&#10;&#9;&#9;c-0.5,0.2-0.9,0.3-1.4,0.1c-4.5-1.4-9-2.9-13.7-3.4c-0.6,1-1.4,1.8-2.3,2.4c-4.7,2.9-9.2,6.7-14.4,8.8c-0.2,0.3-0.4,0.5-0.7,0.8&#10;&#9;&#9;c-0.3,0.3-0.7,0.7-1.2,1c-0.1,0.1-0.1,0.1-0.2,0.2c-0.8,1.3-1.7,2.5-2.7,3.7c-0.2,2.9-1.6,6.1-3.4,8.4c-0.2,0.3-0.5,0.6-0.8,0.9&#10;&#9;&#9;c0.3,2.5,0.6,4.9,1.5,7.4c-1.2-0.8-1.4-2.6-2.8-3c-0.4-0.3-1.3-0.8-1.7-1.1c0,0,0,0,0,0c-0.6,0.4-1.2,0.6-1.9,0.6&#10;&#9;&#9;c-2.6-0.3-5.2-0.4-7.7-0.4c-0.6,0.6-1.2,0.9-1.7,1c-1.3,0.1-2.6,0.5-3.9,1c-0.9,1.6-2,2.8-3.1,3c-2.3,0.4-3.9,2.4-5.4,4.1&#10;&#9;&#9;c0,0,0,0,0,0c-0.3,0.6-0.6,1.3-0.9,1.9c-1,3.9-2.3,7.7-4.5,11.1c0,1.2,0,2.4,0,3.5c-0.1,1.7-0.5,3.6-1.2,5.4c0,0.7,0,1.4,0,2.2&#10;&#9;&#9;c0,1.1-0.2,2.3-0.5,3.5c0,0,0,0,0,0c0.4,0.7,0.6,1.5,0.8,2.4c0.1,0.5,0.1,1.1,0.1,1.7c0.1,0.4,0.3,0.8,0.4,1.2&#10;&#9;&#9;c0.9-0.5,1.8-0.4,2.2,1.2c0.6,2.5,1.3,4.9,1.7,7.4c0.2,1.1,0.1,2.3-0.1,3.4c2.9,3.4,4.7,8.2,5.5,12.6c0.2,0.1,0.4,0.2,0.7,0.5&#10;&#9;&#9;c2.4,2.6,3.9,5.8,6,8.7c0.6,0.7,1.1,1.5,1.7,2.2c1.4,0.8,2.6,1.9,3.5,3.2c0.5-0.1,1,0,1.4,0.5c1.9,2.2,3.4,5.1,5,7.5&#10;&#9;&#9;c2.3,3.6,4.2,7.2,4.6,11.5c0.2,1.9-0.2,3.8-0.8,5.7c0.3,1.6,0.3,3.2,0.5,4.2c0.3,2.4,0.7,4.8,1,7.2c0.3,0.2,0.7,0.3,1.1,0.4&#10;&#9;&#9;c0,0.7,0.1,1.5,0.1,2.2c-0.2,1-0.3,1.9-0.2,2.9c1.5,25.5,2,51,2.1,76.4c-0.3,1.6-0.4,3.2-0.4,4.8c0,1.5,0.1,3,0.2,4.5&#10;&#9;&#9;c-0.5,1.3-0.8,2.8-0.8,3.7c0.1,6.3-0.1,12.5-0.7,18.8c-0.2,2.3,0.3,3.2,1,3.3c-0.3,3.1-0.7,6-1.6,9c-0.3,1.1-0.6,3,0.4,3.9&#10;&#9;&#9;c0,0,0.1,0,0.1,0.1c-0.2,2.7-0.5,5.5-0.7,8.2c0,0.5,0,0.9,0.1,1.3c-0.1,0.8-0.1,1.6-0.2,2.4c-0.3,5.1-0.6,10.3-0.5,15.4&#10;&#9;&#9;c-0.5,2.9-0.9,5.8-1.1,8.7c-0.5,1.1-0.9,2.3-1,3.5c-0.3,3.6-0.4,7.2-0.5,10.8c-0.4,1.9-0.7,3.8-1,5.8c-0.7,3.9-1.3,7.9-1.2,11.6&#10;&#9;&#9;c0,0.3,0,0.6,0,1c-0.2,1-0.4,1.9-0.6,2.9c-0.4,1.9-0.8,3.8-0.7,5.8c-0.9,3.7-1.4,7.4-1.6,11.1c-0.1,1-0.3,2-0.4,2.9L100,437&#10;&#9;&#9;c-0.1,0.3-0.1,0.6-0.1,0.8c0,0.1,0,0.2,0,0.3c-0.3,2.3-0.7,4.6-1,6.9c-0.3,1-0.5,2-0.7,3.1c-0.1,0.7-0.2,1.5-0.3,2.3&#10;&#9;&#9;c-0.2,0.6-0.3,1.2-0.4,1.5c-1,5.5-2.2,11.1-2.9,16.7c-0.3,0.6-0.6,1.2-0.7,1.9c-0.8,2.9-1.6,6.6-1.3,9.9c-0.7,1.1-1.2,2.2-1.4,3.3&#10;&#9;&#9;c-0.7,3-2,6.6-1.8,9.8c-1.1,1.4-1.6,3.1-1.8,5c-0.8,2.2-1.2,4.6-1,6.4c0.4,1,0.9,1.9,1.3,2.8c0.7,1,1.5,1.9,2.3,2.8&#10;&#9;&#9;c2.5,1.9,5.5,2.7,9,3.5c6.4,1.3,12.9,2.6,19.4,3.7c3.4,0.6,6.8,1.2,10.3,1.7c0.4,0,0.8,0.1,1.2,0.2c3.5,0.5,7.1,1,10.6,1.4&#10;&#9;&#9;c5.9,0.1,11.9,0.1,17.8,0c11.9-0.2,23.8-0.6,35.7-0.9c13.6-1.9,27.1-5,40.2-9.3c0,0,0,0,0,0c1.1-0.6,2.2-1.2,3.3-1.8&#10;&#9;&#9;c0.2-0.2,0.5-0.4,0.7-0.6c0.4-0.4,0.8-0.7,1.2-1.1c2.6-4.3,3.6-12.1,1.6-14.1C240.8,489.4,240.1,485.9,239.3,482.6z" id="el_G03Ut0Ubi5B"/>
	<linearGradient id="SVGID_18_" gradientUnits="userSpaceOnUse" x1="69.7102" y1="239.0175" x2="238.0153" y2="239.0175">
		<stop offset="0" style="stop-color:#DC8039"/>
		<stop offset="1" style="stop-color:#B75127"/>
	</linearGradient>
	<path d="M212.7,219.9c-33.6,9.6-67.8,16.7-102.5,21.4c0.4,2.9,0.2,6,0,8.9c0.2,2.6,0.2,5.3,0.2,7.9&#10;&#9;&#9;c34.5-4.8,68.7-12,102.2-21.7c-0.2-3.3-0.2-6.7,0.1-10.1C212.6,224.2,212.6,222,212.7,219.9z" id="el_BzvD5oYVOLK"/>
	<linearGradient id="SVGID_19_" gradientUnits="userSpaceOnUse" x1="82.6132" y1="281.3281" x2="232.6478" y2="281.3281">
		<stop offset="0" style="stop-color:#DC8039"/>
		<stop offset="1" style="stop-color:#B75127"/>
	</linearGradient>
	<path d="M213.4,281.7c-1-3.1-1.5-6.7-1.2-10.1c-33.8-0.5-67.6-2.7-101.2-6.7c0.7,5.7,0.2,11.5,0.5,17.3&#10;&#9;&#9;c0.2,3.1,0.5,6.3,0.2,9.5c34.1,3.7,68.3,5.7,102.5,5.9C213.5,292.4,213.4,287,213.4,281.7z" id="el_fNio_iFSB5D"/>
	<linearGradient id="SVGID_20_" gradientUnits="userSpaceOnUse" x1="94.3066" y1="322.464" x2="237.7337" y2="322.464">
		<stop offset="0" style="stop-color:#DC8039"/>
		<stop offset="1" style="stop-color:#B75127"/>
	</linearGradient>
	<path d="M110.3,322.4c0.7,6,0.5,12.2-0.4,18.2c36-1.7,71.8-5.5,107.3-11.2c-1.8-8.2-2.1-16.6-2-25&#10;&#9;&#9;c-34.7,5.4-69.7,8.9-104.8,10.5C110.6,317.3,110.5,319.8,110.3,322.4z" id="el_ti4qdnKy4fm"/>
	<linearGradient id="SVGID_21_" gradientUnits="userSpaceOnUse" x1="84.377" y1="376.5894" x2="290.7318" y2="376.5894">
		<stop offset="0" style="stop-color:#DC8039"/>
		<stop offset="1" style="stop-color:#B75127"/>
	</linearGradient>
	<path d="M224.9,395.7c-0.2-0.8-0.3-1.6-0.4-2.5c-1.9-7.9-2.8-16-3.2-24.1c-0.1-0.7-0.3-1.4-0.4-2.1&#10;&#9;&#9;c-9.7-0.8-19.3-1.6-29-2.6c-27.7-2.9-55-8.2-82.3-14c0.2,9.7-1.8,19.3-3.3,28.9c0.1,1.7,0,3.4-0.1,5.1c0.1,0.6,0.1,1.3,0.1,2&#10;&#9;&#9;c25,5.2,50.2,9.9,75.7,12.6c14.5,1.5,29.1,2.6,43.6,3.9C225.2,400.4,225,398.1,224.9,395.7z" id="el_JiOWpDNTPkt"/>
	<linearGradient id="SVGID_22_" gradientUnits="userSpaceOnUse" x1="72.539" y1="432.154" x2="269.6968" y2="432.154">
		<stop offset="0" style="stop-color:#DC8039"/>
		<stop offset="1" style="stop-color:#B75127"/>
	</linearGradient>
	<path d="M232.7,443.5c-2.2-6.3-3.2-13-3.7-19.6c-0.7-3.4-1.3-6.8-1.8-10.2c-41.4,0.1-82.8-2.1-123.9-6.5&#10;&#9;&#9;c0.3,5.1-0.8,10.5-1.6,15.1c-0.4,2.5-0.9,4.9-1.4,7.4c0.1,1.9-0.3,3.9-0.6,5.6c-0.3,1.6-0.7,3.3-1.1,4.9c-0.3,2.9-0.6,5.9-1.2,8.8&#10;&#9;&#9;c-0.1,0.4-0.2,0.9-0.4,1.3c0,0.3-0.1,0.5-0.1,0.8c46,4.6,92.2,6.5,138.5,5.7C234.1,452.5,233.3,448,232.7,443.5z" id="el_a8qIDZQ4b1q"/>
	<path d="M225.6,93.2c-0.2-0.2-0.3-0.3-0.5-0.4c-0.2-0.1-0.4-0.1-0.5-0.2c-0.4-0.3-0.6,0.6-0.6,0.8c0,0.5,0,1,0.4,1.4&#10;&#9;&#9;c0.1,0.1,0.2,0.1,0.4,0.1c0.2,0.1,0.3,0.2,0.4,0.3C225.9,95.8,226.1,93.6,225.6,93.2z" id="el_rG2cYWvywC6"/>
	<path d="M178.5,64.4c-0.3-0.1-0.5-0.3-0.7-0.5c-0.1-0.3-0.4-0.7-0.7-0.3c-0.7,1.2,0.1,2.5,1.2,2.9&#10;&#9;&#9;C179,66.8,179.1,64.6,178.5,64.4z" id="el_notAbMoVyU3"/>
	<path d="M128.5,67.2c-0.3-0.4-0.6,0.1-0.7,0.4c0-0.2,0,0-0.1,0.1c-0.1,0.1-0.1,0.1-0.2,0.2c-0.2,0.2-0.3,0.5-0.3,0.8&#10;&#9;&#9;c-0.1,0.5-0.1,1.2,0.3,1.5c0.3,0.4,0.6-0.1,0.7-0.4c0,0.2,0,0,0.1-0.1c0.1-0.1,0.1-0.1,0.2-0.2c0.2-0.2,0.3-0.5,0.3-0.8&#10;&#9;&#9;C128.8,68.2,128.8,67.5,128.5,67.2z" id="el_T0WG99jOIn7"/>
	<path d="M84.3,100.8c-0.4,0.2-0.5,0.8-0.7,1.1c-0.3,0.4-0.6,0.7-0.6,1.3c-0.1,0.5-0.1,1.2,0.3,1.5&#10;&#9;&#9;c0.3,0.4,0.6-0.1,0.7-0.4c0,0.1,0.1-0.1,0.1-0.2c0.1-0.1,0.2-0.3,0.3-0.4c0.1-0.2,0.3-0.7,0.4-0.7&#10;&#9;&#9;C85.2,102.6,84.9,100.4,84.3,100.8z" id="el_V-YplAd1JLD"/>
</g>
<g id="el_TP-wnYVTAPg">
	<path d="M241.8,487.3c-0.6-0.8-1.2-1.5-2-1.8c-5.6-24.8-10.2-49.9-13.9-75c0.7-3.2,0.8-6.6,0.3-9&#10;&#9;&#9;c-1.4-7.1-4.8-14.8-4.4-22c0.1-2.2-0.2-6.2-1.8-8.6c-1.6-22.5-3.7-44.9-6.4-67.3c0.7-2.9,1-5.8,0.9-7.5&#10;&#9;&#9;c-0.5-13.7-1.3-27.5-2.4-41.2c-0.1-0.8-0.2-1.7-0.5-2.6c1.5-19.9,2.2-39.8,1.9-59.7c0.2-0.3,0.5-0.5,0.7-0.8&#10;&#9;&#9;c-0.5-2.5,1.3-6.4,2.2-8.1c2.1-4.2,4.9-7.7,8-11c0.4-0.6,0.8-1.1,1.2-1.6c1.4-1.5,3-2.8,4.2-4.5c0.8-1.1,1.3-2.6,2.1-4.1&#10;&#9;&#9;c0.4-0.7,0.7-1.5,1.1-2.2c0-0.2,0-0.3,0.1-0.5c0.9-5.1,3.1-9.5,4.8-14.4c1.4-4,2.5-8,4.2-11.9c-0.4-5.1,0.3-10.2,1-15.3&#10;&#9;&#9;c0.2-1.7,0.4-3.4,0.5-5.1c-0.1-0.3-0.2-0.6-0.4-0.9c-0.2-0.5-0.4-0.9-0.6-1.4c-0.3-0.6-0.6-1.3-0.9-1.9c-1-1.8-2.3-3.1-3.2-4.8&#10;&#9;&#9;c-1.5-1.3-3.2-2.5-4.4-4.1c0,0,0-0.1,0-0.1c0,0,0,0,0,0c-0.3,1.2,4.1,3.9,4.3,5.5c2.3,12.8,2.2,17.1-2,30.5&#10;&#9;&#9;c-4.1,13.2-5.6,18.6-15.3,28.1c-6.6,6.4-13.7,12.2-21.6,16.9c-3.3,5.2-5.6,11-7.2,17.1c-0.4,6.7-0.2,13.6,0.1,20.3&#10;&#9;&#9;c-3.3,37.2-3.4,74.7-0.1,111.9c0.2,27.4,2,54.7,5.7,81.9c0,0.2,0.1,0.5,0.1,0.7c2.6,33.1,5.2,66.3,7.8,99.4c0.1,1,0.6,3.9,1.7,5.7&#10;&#9;&#9;c5-1.5,10.1-2.8,15.4-4c9.4-2.2,19-4.5,19.3-15.7c0-1.4,0.4-2.9,1-4.2c-0.1-0.1-0.2-0.3-0.2-0.4&#10;&#9;&#9;C242.1,491.6,241.6,489.5,241.8,487.3z" id="el_VT6mu4Ol2hA"/>
	<path d="M216.1,93.3c-1.6,0.3-3.1,0.9-4.7,1.1c-0.5,0.7-1.1,1.6-2.2,2.6c-1.2,1.2-2.4,2.5-3.4,3.9&#10;&#9;&#9;c0.9-3.2,1.7-6.5,2.2-9.8c-2-4.3-3.9-8.6-7.4-12c-0.8-0.8-1.6-1.5-2.4-2.2c0,0.1,0,0.1,0,0.2c1.4,6.9,3.9,7.3,3.4,14.3&#10;&#9;&#9;c-0.6,8-2,15.9-3.5,23.8c0.8-0.9,1.5-1.8,2.3-2.7c3.4-4.2,6.9-8.4,11-11.8c2.9-3.1,4.6-5.2,7-7.5C217.6,93.2,216.9,93.2,216.1,93.3&#10;&#9;&#9;z" id="el_MMR7dfXNDNs"/>
	<path d="M156.5,80.7c-5.9-9-14.1-13.3-25-11.9c-0.2,0-0.4,0-0.5,0c-0.2,0-0.4,0-0.6,0c7,0.4,8.4-0.5,13.2,3.5&#10;&#9;&#9;c7.7,6.4,10.8,16.3,13.2,25.9c0.1-0.6,0.2-1.3,0.3-1.9c1-5.9,2.4-11.8,3.4-17.8c0-0.1,0-0.2,0.1-0.3&#10;&#9;&#9;C159.3,80.8,157.7,82.5,156.5,80.7z" id="el_0p4CMHiF5le"/>
	<path d="M117.1,108.4c-1-3.7-2.1-7.5-3-11.2c-1.1-2.6-2.2-5.2-3.2-7.8c-0.6,1.7-1.3,3.4-2.2,4.6&#10;&#9;&#9;c0.7,3.1,1.5,6.1,2.4,9.1c-2.4-1.8-4.8-3.6-7.3-5.4c-0.2,0.1-0.4,0.2-0.5,0.2c-1.4,0-2.9-0.1-4.3-0.2c1.4,1.1,2.7,2.2,4,3.3&#10;&#9;&#9;c2.8,2.4,5.3,4.9,7.8,7.5c3.2,2.9,6.1,6,8.9,9.2C118.7,114.5,117.9,111.5,117.1,108.4z" id="el_mVN_-kOkbPA"/>
	<path d="M99.1,175.1c-9.2-11.2-14.3-23.7-19.6-36.6c-2.1-5-2.7-11-4.2-16.1c-0.5,4.7-1.1,9.4-0.1,14.1&#10;&#9;&#9;c0.1,0.3,0.1,0.5,0.1,0.8c0.9,2.3,1.9,4.6,2.7,6.8c0.7,1.8,1.4,3.6,2.1,5.4c1.1,1.8,2.3,8,3.4,9.8c6.3,10.6,12.3,17.3,19.9,27&#10;&#9;&#9;c5.4,6.9,14.6,12.2,21.8,17.1C116.4,194.8,106.7,184.2,99.1,175.1z" id="el_0PCdO5UEekx"/>
</g>
<g id="el_yVTvAD8v_uS">
	<path d="M119,244.1c-0.3-2.3-0.6-4.6-0.9-6.8c-0.2-0.1-0.3-0.3-0.5-0.3c-0.2-2.8-0.3-5.7-0.6-8.6&#10;&#9;&#9;c-0.5-1.6-1-3.1-1.5-4.7c-1.9-5.7-4.2-11.2-6.6-16.7c-0.3,0.2-0.5,0.5-0.8,0.9c-0.6,1.1-0.6,2.6-0.4,3.9c-0.4,0.9-0.5,2-0.5,2.8&#10;&#9;&#9;c3.8,5.4,2.3,13.5,1.8,20c2.6,6,0.7,12.8,0.9,19.1c0,0.2,0,0.3,0,0.5c0,0,0,0,0,0c0,1.2,0,2.5-0.1,3.7c1.9,9.5,0.3,19.1,1.1,28.8&#10;&#9;&#9;c0.1,1-0.1,2-0.4,3c0.2,1,0.5,2,0.9,3c-0.2,3.1-0.5,6.1-0.1,9.2c0,0.2,0,0.4,0,0.6c-0.3,4.1-0.8,8.3-1.2,12.4&#10;&#9;&#9;c-0.7,7.7-1.2,15.4-0.6,23.1c0,0.4,0.1,0.9,0.2,1.6c-1.1,8.7-1.7,17.5-1.4,26.3c0,0,0,0,0,0c-1.6,8.4-2.4,16.9-2.3,25.4&#10;&#9;&#9;c-1.5,7.6-2.9,15.3-3.9,23c-0.1,0.9-0.2,1.9-0.3,2.8c-0.2,0.5-0.4,1.1-0.5,1.9c-1.1,8.8-2,17.7-2.6,26.6&#10;&#9;&#9;c-2.3,7.1-4.1,14.3-4.3,21.8c-0.2,0.4-0.3,0.8-0.4,1.1c-0.4,1.6-0.5,3.3-0.5,5c-0.1,0.5-0.1,1.2-0.2,1.9c-1.6,5.9-3,11.9-3.6,18&#10;&#9;&#9;c-1.7,0.1-2,2.8-2.2,5.1c-0.1,0-0.2,0.1-0.3,0.1c-0.1,0.6-0.1,1.2-0.2,1.8c-0.2,1.2-0.6,2.3-1.2,3.4c0.1,0.8,0.3,1.7,0.7,2.4&#10;&#9;&#9;c0,0.1,0.1,0.2,0.2,0.3c0.2,0.9,0.7,1.7,1.4,2c0,0,0,0,0.1,0c0.9,1.1,1.8,2,3.1,2.7c0.2,0.4,0.5,0.7,0.8,1c0.4,0.6,0.8,0.9,1.4,1&#10;&#9;&#9;c0.1,0,0.2,0,0.3,0c0.4-0.1,0.8-0.3,1-0.7c1.2-1.6,1.7-4,2-6.3c0-0.1,0.1-0.2,0.1-0.4c0.5-0.4,0.9-1.2,1.1-2.8&#10;&#9;&#9;c0.2-1.4,0.4-2.7,0.6-4.1c0.2-0.7,0.4-1.4,0.6-2.1c0.3-0.2,0.5-0.5,0.7-1.1c2.4-8.1,4.3-16.3,5.9-24.6c0.2-0.3,0.5-0.8,0.7-1.6&#10;&#9;&#9;c3.4-11.7,4.6-24.2,6.2-36.3c0.1-0.5,0.2-0.9,0.3-1.4c0.1-0.5,0.1-1.1,0.1-1.7c0-0.3,0.1-0.6,0.1-0.8c1.2-8.6,2.5-17.1,3.7-25.7&#10;&#9;&#9;c1.3-6.4,2.5-12.8,3.7-19.3c0.1-0.8,0.3-2,0.2-3.3c0.2-3.3,0.4-6.7,0.5-10c0.2-0.3,0.3-0.8,0.4-1.2c0.3-23.7,0.5-47.4,0.3-71&#10;&#9;&#9;C122.2,280.8,121.3,262.3,119,244.1z" id="el_jvM4m56UwYH"/>
	<path d="M95.5,99.2c-0.3-0.4-0.6-0.6-1-0.5c-8,2.1-14.3,11.2-17.8,18.1c-0.2,0.4-0.3,1-0.2,1.7&#10;&#9;&#9;C82.8,112,90.8,107,95.5,99.2z" id="el_XZQlps6Lduy"/>
	<path d="M127.4,66c-0.1,0.1-0.2,0.2-0.4,0.3c-1.7,1.4-3.5,2.5-5.3,3.6c-3.3,4.4-5.6,9.4-7.1,14.7&#10;&#9;&#9;c1.4-1,2.9-1.9,4.4-2.8c0.9-1.4,2-2.8,3.1-4.1c1.5-2.4,3.3-4.6,5.3-6.7C128.2,70.2,128.1,67.5,127.4,66z" id="el_Nm8i8LwJU2j"/>
	<path d="M169.7,75.7c1.1-0.6,2.3-1.1,3.5-1.5c1.6-0.7,3.1-1.4,4.6-2c1.4-0.9,2.8-1.9,4.1-3c-0.1-1.6-0.8-3-1.7-2.9&#10;&#9;&#9;c-6.2,0.7-12.9,1.8-16.3,7.7c-0.7,1.2-0.8,2.9-0.4,4.3C165.6,77.4,167.7,76.6,169.7,75.7z" id="el_oh15MZKq3GQ"/>
	<path d="M233.8,100.6c0.4-1.8,0-4.5-1.2-4.9c-4.5-1.6-9.1-2-13.8-1.3c-0.8,0.1-1.3,1.2-1.4,2.4&#10;&#9;&#9;C222.6,99.3,228.2,100,233.8,100.6z" id="el_EvnPBVIvciW"/>
</g>
<g id="el_lpUIGwIAR_n">
	<path d="M86.6,503.3c0,0,21.5-90.9,23.7-181.8c2.2-90.9,0.5-104.4-4.5-127.1c-5-22.7-17.6-12.5-30.8-58.1&#10;&#9;&#9;c-4.1-14,7.9-43.1,29.6-38.6c3.7,0.7,4.4,3.1,5.3,3.8c-3.5-7.3-0.1-18.4,15.1-28.8c13.9-10.2,25.5-0.7,28.8,4.1s3.7,5,3.8,5.5&#10;&#9;&#9;c0.6-0.8,1.4-2.4,3.6-5.5c2.2-3.1,11.7-15.1,26.9-7.4c7.4,4,16.1,12.4,19,22.6c1.2,5.5,0.4,6.1,0,7c0.9-0.7,2.4-3.9,3.4-4.4&#10;&#9;&#9;c10.7-5,35.2,7.9,32.6,27.4c-10.9,62-25.1,40.2-29.7,72.8c-0.6,8.7-3.9,57.3,3.2,136.4c7.1,79.1,26.2,167.7,26.2,167.7" id="el_w8hU0cGoqe1"/>
	<path d="M75,136.3c-4.1-14,7.9-43.1,29.6-38.6" id="el_tLD1c5Fn3fW"/>
	<path d="M81.6,107.8c0,0,1.2-5.9,3.4-7.9c-0.1,2.9,0,4.3,0,4.3" id="el_rmBps0m0W4x"/>
	<path d="M224.2,95.3l-0.2-3.8c0,0,3.3,3.5,3.6,5" id="el_-Pu1YZjl2n6"/>
	<path d="M177.4,66.7c0,0-0.6-3.1-1-3.8s2.5,2,4.1,4.1" id="el_XeygmhPkOoj"/>
	<path d="M126.2,72.2c0,0,0.9-3.4,2.2-7c-0.1,1.8,1,5,1,5" id="el_xo4x1jW5jVO"/>
</g>
<g id="el_f2ah2gZ4g8Q">
	<linearGradient id="SVGID_23_" gradientUnits="userSpaceOnUse" x1="158.037" y1="72.5971" x2="163.2726" y2="522.3353">
		<stop offset="0" style="stop-color:#F8B999"/>
		<stop offset="1" style="stop-color:#F79A5B"/>
	</linearGradient>
	<path d="M241.1,492.8c-0.3-3.4-1.1-6.9-1.8-10.2c-0.1-0.8-0.2-1.6-0.3-2.4c-0.7-3.7-1.7-7.4-2.9-11&#10;&#9;&#9;c0.1-0.7,0.1-1.4,0-2.1c-0.2-1.3-0.4-2.7-0.7-4c0.2-0.9,0.3-1.8,0.1-2.7c-0.9-6.4-2.2-12.6-3.8-18.9c-0.1-0.3-0.2-0.6-0.4-0.8&#10;&#9;&#9;c-0.8-7-2-13.9-3.7-20.8c-0.4-3.9-1-7.8-2.2-11.6c-0.4-3.7-0.8-7.4-1.6-11.1c0-0.1,0-0.3-0.1-0.4c0.1-4.5-0.1-9-1.2-13.4&#10;&#9;&#9;c-0.2-0.7-0.5-1.1-1-1.3c-1.6-19.6-3.5-39.1-5.9-58.6c0.6-2.2,0.7-4.2,0-5.8c-0.3-0.8-0.6-1.5-0.9-2.3c0.2-0.6,0.3-1.1,0.4-1.5&#10;&#9;&#9;c1.3-7.1-1.1-13.5-2.2-20.5c0.2-3.9,0.5-7.9,0.4-11.8c-0.1-5-0.8-10-1.5-15c0-3.9-0.1-7.9-0.3-11.8c0-0.3,0-0.5,0.1-0.7&#10;&#9;&#9;c0.1-2.6,0.2-5.2,0.2-7.8c0-1.3,0.1-2.5,0.1-3.8c0-1.9,0-3.8-0.1-5.8c1.1-12.3,2.3-24.6,1.8-36.9c-0.3-1.1-0.3-2.2-0.3-3.3&#10;&#9;&#9;c0.1-2.2,0.6-4.5,1.5-6.6c0.2-1,0.5-2.2,0.9-3.3c0-0.1,0-0.3,0-0.4c0.4-3,1.5-5.8,3-8.4c0.8-1.4,2.1-3.3,3.8-4.1&#10;&#9;&#9;c0.3-0.4,0.6-0.7,0.9-1.1c0.4-0.5,0.9-1,1.5-1.3c0.9-1.2,1.8-2.4,2.8-3.5c1.6-4.5,4.2-8.5,6.1-13c2.1-4.9,3.9-9.8,5-15&#10;&#9;&#9;c1.3-5.9,1.9-11.9,3.3-17.6c-1.9-5.6-3.3-11.1-7.4-15.8c-4.4-5.1-9.9-8.9-15.3-12.8c-2.4,0.5-4.8,1-7.2,0.6&#10;&#9;&#9;c-0.2,0.2-0.4,0.5-0.6,0.7c-0.8,0.9-1.6,1.3-2.1,1.2c-0.6,0.5-0.9,1.2-1.7,1.6c0.2-0.9,0.4-1.7,0.5-2.6c-0.2-0.4-0.3-1-0.4-1.7&#10;&#9;&#9;c0-0.6-0.1-1.1-0.1-1.7c-0.3-0.2-0.6-0.6-0.8-1.3c-0.1-0.4-0.2-0.7-0.3-1.1c-0.5,0.1-0.9-0.1-1.1-0.7c-0.8-1.8-1.5-3.2-2.6-4.2&#10;&#9;&#9;c-0.5-0.3-0.9-0.7-1.4-1c-0.5-0.3-1.1-0.6-1.7-0.8c-4.2-1.5-8-3.7-12.1-5.6c-4.9-2.3-9.6-3.1-14.9-1.7c-3.5,0.9-6.9,2.2-10.3,3.2&#10;&#9;&#9;c-1.5,3-3.6,5.4-4.7,4.5c-7.7-5.6-15-6.6-24.5-5.7c-1.7,0.2-3.4,0.4-5.1,0.6c-0.9,1.4-1.9,2.4-2.9,2.6c-3.4,0.6-5.4,2.6-8,4.7&#10;&#9;&#9;c-0.5,0.4-1.1,0.8-1.7,1.2c-0.7,1.1-1.5,2-2.4,2.6c-0.8,0.5-1.6,1-2.3,1.5c-0.4,2.2-1.4,4.7-2.5,6.5c0.2,1.4,0.6,2.9,1.1,4.3&#10;&#9;&#9;c-1-0.7-1.4-2.2-2.4-2.8c-0.6,0.5-1.1,0.8-1.7,0.8c-9.6,0.1-18.6,3.3-23.5,12.1c-2.6,4.6-4.3,9.8-6.5,14.6c0,0.8-0.1,1.6-0.2,2.3&#10;&#9;&#9;c0.2,3.6,0.5,7.1,1.1,10.6c0.6,0,1,0.4,1.3,1.4c0.6,2.5,1.3,4.9,1.7,7.4c0.2,1,0.1,2-0.1,3c0.1,0.3,0.3,0.7,0.4,1&#10;&#9;&#9;c1.6,2,2.8,4.5,3.7,7c4.6,7.3,10.9,13.9,16.7,20c0.7,0.7,0.8,2.2,0.5,3.8c0.8,1.3,1.6,2.7,2.4,3.9c2.3,3.6,4.2,7.2,4.6,11.5&#10;&#9;&#9;c0.2,1.9-0.2,3.8-0.8,5.7c0.3,1.6,0.3,3.2,0.5,4.2c0.3,2.4,0.7,4.8,1,7.2c0.3,0.2,0.7,0.3,1.1,0.4c0,0.7,0.1,1.5,0.1,2.2&#10;&#9;&#9;c-0.2,1-0.3,1.9-0.2,2.9c1.5,25.5,2,51,2.1,76.4c-0.3,1.6-0.4,3.2-0.4,4.8c0,1.5,0.1,3,0.2,4.5c-0.5,1.3-0.8,2.8-0.8,3.7&#10;&#9;&#9;c0.1,6.3-0.1,12.5-0.7,18.8c-0.2,2.3,0.3,3.2,1,3.3c-0.3,3.1-0.7,6-1.6,9c-0.3,1.1-0.6,3,0.4,3.9c0,0,0.1,0,0.1,0.1&#10;&#9;&#9;c-0.2,2.7-0.5,5.5-0.7,8.2c0,0.5,0,0.9,0.1,1.3c-0.1,0.8-0.1,1.6-0.2,2.4c-0.3,5.1-0.6,10.3-0.5,15.4c-0.5,2.9-0.9,5.8-1.1,8.7&#10;&#9;&#9;c-0.5,1.1-0.9,2.3-1,3.5c-0.3,3.6-0.4,7.2-0.5,10.8c-0.4,1.9-0.7,3.8-1,5.8c-0.7,3.9-1.3,7.9-1.2,11.6c0,0.3,0,0.6,0,1&#10;&#9;&#9;c-0.2,1-0.4,1.9-0.6,2.9c-0.4,1.9-0.8,3.8-0.7,5.8c-0.9,3.7-1.4,7.4-1.6,11.1c-0.1,1-0.3,2-0.4,2.9L100,437&#10;&#9;&#9;c-0.1,0.3-0.1,0.6-0.1,0.8c0,0.1,0,0.2,0,0.3c-0.3,2.3-0.7,4.6-1,6.9c-0.3,1-0.5,2-0.7,3.1c-0.1,0.7-0.2,1.5-0.3,2.3&#10;&#9;&#9;c-0.2,0.6-0.3,1.2-0.4,1.5c-1,5.5-2.2,11.1-2.9,16.7c-0.3,0.6-0.6,1.2-0.7,1.9c-0.8,2.9-1.6,6.6-1.3,9.9c-0.7,1.1-1.2,2.2-1.4,3.3&#10;&#9;&#9;c-0.7,3-2,6.6-1.8,9.8c-1.1,1.4-1.6,3.1-1.8,5c-0.8,2.2-1.2,4.6-1,6.4c0.4,1,0.9,1.9,1.3,2.8c0.7,1,1.5,1.9,2.3,2.8&#10;&#9;&#9;c2.5,1.9,5.5,2.7,9,3.5c6.4,1.3,12.9,2.6,19.4,3.7c3.4,0.6,6.8,1.2,10.3,1.7c0.4,0,0.8,0.1,1.2,0.2c3.5,0.5,7.1,1,10.6,1.4&#10;&#9;&#9;c5.9,0.1,11.9,0.1,17.8,0c11.9-0.2,23.8-0.6,35.7-0.9c13.6-1.9,27.1-5,40.2-9.3c0,0,0,0,0,0c1.1-0.6,2.2-1.2,3.3-1.8&#10;&#9;&#9;c0.2-0.2,0.5-0.4,0.7-0.6c0.4-0.4,0.8-0.7,1.2-1.1C242.1,502.6,243.1,494.8,241.1,492.8z" id="el_A60taY12qok"/>
	<linearGradient id="SVGID_24_" gradientUnits="userSpaceOnUse" x1="69.7102" y1="239.0175" x2="238.0153" y2="239.0175">
		<stop offset="0" style="stop-color:#DC8039"/>
		<stop offset="1" style="stop-color:#B75127"/>
	</linearGradient>
	<path d="M212.7,219.9c-33.6,9.6-67.8,16.7-102.5,21.4c0.4,2.9,0.2,6,0,8.9c0.2,2.6,0.2,5.3,0.2,7.9&#10;&#9;&#9;c34.5-4.8,68.7-12,102.2-21.7c-0.2-3.3-0.2-6.7,0.1-10.1C212.6,224.2,212.6,222,212.7,219.9z" id="el_GCWTV_5x8Gm"/>
	<linearGradient id="SVGID_25_" gradientUnits="userSpaceOnUse" x1="82.6132" y1="281.3281" x2="232.6478" y2="281.3281">
		<stop offset="0" style="stop-color:#DC8039"/>
		<stop offset="1" style="stop-color:#B75127"/>
	</linearGradient>
	<path d="M213.4,281.7c-1-3.1-1.5-6.7-1.2-10.1c-33.8-0.5-67.6-2.7-101.2-6.7c0.7,5.7,0.2,11.5,0.5,17.3&#10;&#9;&#9;c0.2,3.1,0.5,6.3,0.2,9.5c34.1,3.7,68.3,5.7,102.5,5.9C213.5,292.4,213.4,287,213.4,281.7z" id="el_7RSGSNsEhJl"/>
	<linearGradient id="SVGID_26_" gradientUnits="userSpaceOnUse" x1="94.3066" y1="322.464" x2="237.7337" y2="322.464">
		<stop offset="0" style="stop-color:#DC8039"/>
		<stop offset="1" style="stop-color:#B75127"/>
	</linearGradient>
	<path d="M110.3,322.4c0.7,6,0.5,12.2-0.4,18.2c36-1.7,71.8-5.5,107.3-11.2c-1.8-8.2-2.1-16.6-2-25&#10;&#9;&#9;c-34.7,5.4-69.7,8.9-104.8,10.5C110.6,317.3,110.5,319.8,110.3,322.4z" id="el_7l90i9ELaEZ"/>
	<linearGradient id="SVGID_27_" gradientUnits="userSpaceOnUse" x1="84.377" y1="376.5894" x2="290.7318" y2="376.5894">
		<stop offset="0" style="stop-color:#DC8039"/>
		<stop offset="1" style="stop-color:#B75127"/>
	</linearGradient>
	<path d="M224.9,395.7c-0.2-0.8-0.3-1.6-0.4-2.5c-1.9-7.9-2.8-16-3.2-24.1c-0.1-0.7-0.3-1.4-0.4-2.1&#10;&#9;&#9;c-9.7-0.8-19.3-1.6-29-2.6c-27.7-2.9-55-8.2-82.3-14c0.2,9.7-1.8,19.3-3.3,28.9c0.1,1.7,0,3.4-0.1,5.1c0.1,0.6,0.1,1.3,0.1,2&#10;&#9;&#9;c25,5.2,50.2,9.9,75.7,12.6c14.5,1.5,29.1,2.6,43.6,3.9C225.2,400.4,225,398.1,224.9,395.7z" id="el_2MErS8Pe6UU"/>
	<linearGradient id="SVGID_28_" gradientUnits="userSpaceOnUse" x1="72.539" y1="432.154" x2="269.6968" y2="432.154">
		<stop offset="0" style="stop-color:#DC8039"/>
		<stop offset="1" style="stop-color:#B75127"/>
	</linearGradient>
	<path d="M232.7,443.5c-2.2-6.3-3.2-13-3.7-19.6c-0.7-3.4-1.3-6.8-1.8-10.2c-41.4,0.1-82.8-2.1-123.9-6.5&#10;&#9;&#9;c0.3,5.1-0.8,10.5-1.6,15.1c-0.4,2.5-0.9,4.9-1.4,7.4c0.1,1.9-0.3,3.9-0.6,5.6c-0.3,1.6-0.7,3.3-1.1,4.9c-0.3,2.9-0.6,5.9-1.2,8.8&#10;&#9;&#9;c-0.1,0.4-0.2,0.9-0.4,1.3c0,0.3-0.1,0.5-0.1,0.8c46,4.6,92.2,6.5,138.5,5.7C234.1,452.5,233.3,448,232.7,443.5z" id="el_Qow--ZGOo6f"/>
</g>
<g id="el_6onkRbpylWr">
	<path d="M241.8,487.3c-0.6-0.8-1.2-1.5-2-1.8c-5.6-24.8-10.2-49.9-13.9-75c0.7-3.2,0.8-6.6,0.3-9&#10;&#9;&#9;c-1.4-7.1-4.8-14.8-4.4-22c0.1-2.2-0.2-6.2-1.8-8.6c-1.6-22.5-3.7-44.9-6.4-67.3c0.7-2.9,1-5.8,0.9-7.5&#10;&#9;&#9;c-0.5-13.7-1.3-27.5-2.4-41.2c-0.1-0.8-0.2-1.7-0.5-2.6c1.5-19.9,2.2-39.8,1.9-59.7c0.2-0.3,0.5-0.5,0.7-0.8&#10;&#9;&#9;c-0.5-2.5,1.3-6.4,2.2-8.1c2.1-4.2,4.9-7.7,8-11c0.4-0.6,0.8-1.1,1.2-1.6c0,0,0.1-0.1,0.1-0.1c1.2-4,3.5-7.7,5.3-11.6&#10;&#9;&#9;c2.9-6.3,5.6-12.6,7.2-19.4c1.6-6.6,4.5-15.2,1.9-21.8c0-0.1-0.1-0.2-0.1-0.3c0.1,5.3-1,10-3.5,18c-4.1,13.2-5.6,18.6-15.3,28.1&#10;&#9;&#9;c-6.6,6.4-13.7,12.2-21.6,16.9c-3.3,5.2-5.6,11-7.2,17.1c-0.4,6.7-0.2,13.6,0.1,20.3c-3.3,37.2-3.4,74.7-0.1,111.9&#10;&#9;&#9;c0.2,27.4,2,54.7,5.7,81.9c0,0.2,0.1,0.5,0.1,0.7c2.6,33.1,5.2,66.3,7.8,99.4c0.1,1,0.6,3.9,1.7,5.7c5-1.5,10.1-2.8,15.4-4&#10;&#9;&#9;c9.4-2.2,19-4.5,19.3-15.7c0-1.4,0.4-2.9,1-4.2c-0.1-0.1-0.2-0.3-0.2-0.4C242.1,491.6,241.6,489.5,241.8,487.3z" id="el_v716qLXwjLU"/>
	<path d="M211.4,94.4c-0.5,0.7-1.1,1.6-2.2,2.6c-1.2,1.2-2.4,2.5-3.4,3.9c0.9-3.2,1.7-6.5,2.2-9.8&#10;&#9;&#9;c-0.3-0.7-0.7-1.4-1-2.1c-0.2,0-0.4,0-0.6-0.2c-1.6-1-3-2.4-4.3-3.8c0.2,0.4,0.2,1,0.2,1.7c0,0.6-0.1,1.2-0.2,1.8&#10;&#9;&#9;c0.9,5.8,1.6,11.4,1.4,17.2c3.5-4.2,7.8-7.8,12.5-10c0.3-0.3,0.6-0.7,0.9-1C215.1,94.6,213.2,94.5,211.4,94.4z" id="el_pha4RYCsFKF"/>
	<path d="M157.9,92.3c0.6-3.2,1.3-6.4,1.9-9.6c-0.3,0.2-0.6,0.3-0.9,0.5c-2,0.8-4.7-1.7-6.1-2.7&#10;&#9;&#9;c-0.9-0.6-1.8-1.1-2.7-1.6C153.1,83.1,155.6,87.6,157.9,92.3z" id="el_m-PtLmEq5jG"/>
	<path d="M102.4,100.4c0.2,0.2,0.4,0.4,0.5,0.6c0.9,0.8,1.8,1.6,2.7,2.4c2.4,1.8,5.2,3,7.9,4.4&#10;&#9;&#9;c0.6,0.3,1.1,0.6,1.7,0.9c-1.3-5.6-3.3-11.3-3.4-17c-0.3-0.8-0.7-1.7-1-2.5c-0.6,1.7-1.3,3.4-2.2,4.6c0.7,3.1,1.5,6.1,2.4,9.1&#10;&#9;&#9;c-2.4-1.8-4.8-3.6-7.3-5.4c-0.2,0.1-0.4,0.2-0.5,0.2c-1.4,0-2.9-0.1-4.3-0.2c1,0.8,1.9,1.6,2.8,2.3&#10;&#9;&#9;C102,100,102.2,100.1,102.4,100.4z" id="el_x_4dR8a_lP9"/>
	<path d="M100.2,175.1c-9.2-11.2-14.3-23.7-19.6-36.6c-2.1-5-2.7-11-4.2-16.1c-0.5,4.7-1.1,9.4-0.1,14.1&#10;&#9;&#9;c0.1,0.3,0.1,0.5,0.1,0.8c0.9,2.3,1.9,4.6,2.7,6.8c0.7,1.8,1.4,3.6,2.1,5.4c1.1,1.8,2.3,8,3.4,9.8c6.3,10.6,12.3,17.3,19.9,27&#10;&#9;&#9;c5.4,6.9,14.6,12.2,21.8,17.1C117.4,194.8,107.7,184.2,100.2,175.1z" id="el_CgK0Df_5aB5"/>
</g>
<g id="el_kcEusT2MbU6">
	<path d="M118.6,240.9c-0.2-1.2-0.3-2.5-0.5-3.7c-0.2-0.1-0.3-0.3-0.5-0.3c-0.2-2.8-0.3-5.7-0.6-8.6&#10;&#9;&#9;c-0.5-1.6-1-3.1-1.5-4.7c-1.9-5.7-4.2-11.2-6.6-16.7c-0.3,0.2-0.5,0.5-0.8,0.9c-0.6,1.1-0.6,2.6-0.4,3.9c-0.4,0.9-0.5,2-0.5,2.8&#10;&#9;&#9;c3.8,5.4,2.3,13.5,1.8,20c2.6,6,0.7,12.8,0.9,19.1c0,0.2,0,0.3,0,0.5c0,0,0,0,0,0c0,1.2,0,2.5-0.1,3.7c1.9,9.5,0.3,19.1,1.1,28.8&#10;&#9;&#9;c0.1,1-0.1,2-0.4,3c0.2,1,0.5,2,0.9,3c-0.2,3.1-0.5,6.1-0.1,9.2c0,0.2,0,0.3,0,0.5c-0.2,2.4-0.4,4.7-0.6,7&#10;&#9;&#9;c-1,9.5-1.9,18.9-1.1,28.4c0,0.4,0.1,0.9,0.2,1.6c-1.1,8.7-1.7,17.5-1.4,26.3c0,0,0,0,0,0c-1.6,8.4-2.4,16.9-2.3,25.4&#10;&#9;&#9;c-1.5,7.6-2.9,15.3-3.9,23c-0.1,0.9-0.2,1.9-0.3,2.8c-0.2,0.5-0.4,1.1-0.5,1.9c-1.1,8.8-2,17.7-2.6,26.6&#10;&#9;&#9;c-2.3,7.1-4.1,14.3-4.3,21.8c-0.2,0.4-0.3,0.8-0.4,1.1c-0.4,1.6-0.5,3.3-0.5,5c-0.1,0.5-0.1,1.2-0.2,1.9c-1.6,5.9-3,11.9-3.6,18&#10;&#9;&#9;c-1.7,0.1-2,2.8-2.2,5.1c-0.1,0-0.2,0.1-0.3,0.1c-0.1,0.6-0.1,1.2-0.2,1.8c-0.2,1.2-0.6,2.3-1.2,3.4c0.1,0.8,0.3,1.7,0.7,2.4&#10;&#9;&#9;c0,0.1,0.1,0.2,0.2,0.3c0.2,0.9,0.7,1.7,1.4,2c0,0,0,0,0.1,0c0.9,1.1,1.8,2,3.1,2.7c0.2,0.4,0.5,0.7,0.8,1c0.4,0.6,0.8,0.9,1.4,1&#10;&#9;&#9;c0.1,0,0.2,0,0.3,0c0.4-0.1,0.8-0.3,1-0.7c1.2-1.6,1.7-4,2-6.3c0.1-0.2,0.2-0.4,0.2-0.5c0.4-0.4,0.8-1.3,1-2.7&#10;&#9;&#9;c0.2-1.4,0.4-2.7,0.6-4.1c0.2-0.7,0.4-1.4,0.6-2.1c0.3-0.2,0.5-0.5,0.7-1.1c2.4-8.1,4.3-16.3,5.9-24.6c0.2-0.3,0.5-0.8,0.7-1.6&#10;&#9;&#9;c3.4-11.7,4.6-24.2,6.2-36.3c0.1-0.5,0.2-0.9,0.3-1.4c0.1-0.4,0.1-0.8,0.1-1.2c0-0.4,0.1-1,0.1-1.3c1.2-8.5,2.5-17.1,3.7-25.6&#10;&#9;&#9;c1.3-6.4,2.5-12.8,3.7-19.3c0.1-0.8,0.3-2,0.2-3.3c0.2-3.3,0.4-6.7,0.5-10c0.2-0.3,0.3-0.8,0.4-1.2c0.3-25.4,0.5-50.9,0.3-76.3&#10;&#9;&#9;C122.1,276.2,120.8,258.5,118.6,240.9z" id="el_t9LQz04mLKT"/>
	<path d="M86,113.7c3.1-2.7,6.2-5.5,8.8-8.6c0.7-1.5,1.3-3,2.1-4.4c-0.1,0-0.2,0-0.3,0c-6.9,1.8-12.5,8.9-16.2,15.2&#10;&#9;&#9;C82.4,115.3,84.3,114.5,86,113.7z" id="el_mZrOF8pCgc_"/>
	<path d="M123.3,86.2c1.5-2.3,3.2-4.4,5.1-6.5c0.8-0.8,0.7-3.5,0-5.1c-0.1,0.1-0.2,0.2-0.4,0.3&#10;&#9;&#9;c-1.7,1.4-3.5,2.5-5.3,3.6c-2,2.8-3.7,5.7-5,8.8C119.7,87.1,121.5,86.8,123.3,86.2z" id="el_L7R_lIe7fHN"/>
	<path d="M179.7,76.9c0.5-0.3,0.9-0.7,1.4-1.1c-0.1-1.6-0.8-3-1.7-2.9c-6.2,0.7-12.9,1.8-16.3,7.7&#10;&#9;&#9;c-0.3,0.5-0.5,1-0.6,1.6C168.5,81.5,174.4,79.8,179.7,76.9z" id="el_OtEqQScK-I7"/>
	<path d="M223.1,100.4c1.5,0.6,3.1,1.1,4.7,1.5c1.3,0.2,2.7,0.3,4.1,0.5c0.4-1.8,0-4.5-1.2-4.9&#10;&#9;&#9;c-4.5-1.6-9.1-2-13.8-1.3c0,0-0.1,0-0.1,0C218.8,97.8,220.7,99.4,223.1,100.4z" id="el_QU5SfEZAyT_"/>
</g>
<g id="el_IBm02aOw72r">
	<path d="M86.6,503.3c0,0,21.5-90.9,23.7-181.8c2.2-90.9,0.5-104.4-4.5-127.1c-5-22.7-20.6-25.4-29.3-54.7&#10;&#9;&#9;c-4.1-14,7.4-44.8,29.1-40.3c3.7,0.7,2.7,0.4,3.6,1.2c-1.1-5.4,0.2-11.6,16.3-20.4c9.2-5.4,25.5-4.5,28.8,0.2&#10;&#9;&#9;c2.2,2.7,3.6,4.3,3.6,4.3s2.2-2.2,3.8-4.3c2.2-3.1,14.3-7.9,27.6-2.4c13.3,5.5,15.8,8.1,17.8,14.6c1.2,5.5,0.9,4.5,0.7,5.5&#10;&#9;&#9;c0.9-0.7,1.7-2.4,2.6-2.9c10.7-5,33.3,12,30.7,31.4c-10.7,51.8-25,42.1-27.8,68c-0.6,8.7-3.9,57.3,3.2,136.4&#10;&#9;&#9;c7.1,79.1,26.2,167.7,26.2,167.7" id="el_cEoWd0kQY5-"/>
	<path d="M76.5,139.7c-4.1-14,7.4-44.8,29.1-40.3" id="el_d-WEPUDKnhl"/>
</g>
</svg>